<svg height="512" width="512" viewBox="0 0 512 512"  xmlns="http://www.w3.org/2000/svg">
    <path d="M277.027 55.526c0-11.617-9.417-21.034-21.033-21.034-11.617 0-21.034 9.417-21.034 21.034v93.196h42.067z"
        fill="#b67f5f" />
    <path
        d="M369.868 8.568s10.297 3.184 10.044 9.283c-.686 16.483-4.825 47.9-25.139 69.716-28.689 30.811-77.771 30.806-77.771 30.806s-3.572-49.959 25.117-80.769C317.904 20.652 340.166 13.028 357 9.599z"
        fill="#bbf49b" />
    <path
        d="M369.868 7.563C366.214 7.977 357 9.601 357 9.601c2.424 1.891 3.964 4.881 3.824 8.25-.686 16.483-4.825 47.9-25.139 69.716-17.036 18.296-41.617 25.726-58.775 28.743.041 1.331.093 2.063.093 2.063s50.086.005 78.775-30.806c20.314-21.816 24.453-53.233 25.139-69.716.253-6.099-4.984-10.975-11.049-10.288z"
        fill="#9be69d" />
    <path
        d="M332.15 105.753c-5.095 0-10.123-.712-15.069-.133-11.234 1.315-22.047 4.11-32.266 8.32-2.284.941-18.021 10.372-18.021 10.372s-5.781-2.233-10.899-2.243a50.378 50.378 0 01-21.96-5.095c-16.546-8.05-34.844-12.225-54.097-12.225-74.107 0-134.184 61.675-134.184 168.914 0 126.063 88.782 188.842 150.986 217.357a148.234 148.234 0 0046.674 12.719c24.924 2.553 50.357-2.241 73.794-12.46 62.104-27.079 148.221-87.288 148.221-217.617 0-107.238-59.072-167.909-133.179-167.909z"
        fill="#ed5469" />
    <path
        d="M332.15 104.749c-5.095 0-10.121.301-15.068.88 67.012 7.828 119.112 68.169 119.112 168.033 0 130.329-87.122 191.543-149.226 218.622a146.684 146.684 0 01-43.653 11.443c24.924 2.553 50.356-1.224 73.793-11.443 62.104-27.079 149.226-88.293 149.226-218.622-.001-107.238-60.077-168.913-134.184-168.913z"
        fill="#e63850" />
    <g>
        <path
            d="M432.764 144.156c-20.56-24.405-47.793-39.957-78.238-45.058 2.388-2.044 4.648-4.177 6.738-6.421a83.697 83.697 0 007.544-9.4 7.501 7.501 0 00-12.337-8.533 68.564 68.564 0 01-6.185 7.71c-5.312 5.705-11.897 10.679-19.582 14.812-16.146.165-31.613 3.078-46.13 8.694.865-15.694 5.049-43.931 23.033-63.246 18.61-19.986 47.524-25.933 63.103-27.699.977-.107 1.632.351 1.938.636s.813.908.772 1.887c-.293 7.039-1.299 17.842-4.429 29.338a7.5 7.5 0 1014.474 3.94c3.496-12.843 4.618-24.846 4.943-32.655A17.431 17.431 0 00369.021.11c-17.637 1.999-50.494 8.864-72.391 32.381-5.093 5.47-9.234 11.46-12.618 17.652-2.525-13.169-14.124-23.152-28.018-23.152-15.733 0-28.534 12.8-28.534 28.534a7.5 7.5 0 0015 0c0-7.462 6.071-13.534 13.534-13.534 7.462 0 13.534 6.071 13.534 13.534v50.351a147.207 147.207 0 00-.171 6.534 42.512 42.512 0 01-26.897-.055V88.218a7.5 7.5 0 00-15 0v17.76c-14.963-5.796-30.934-8.731-47.621-8.731-39.399 0-75.132 16.659-100.616 46.909-26.865 31.889-41.065 76.669-41.065 129.5 0 62.673 21.274 116.623 63.232 160.35a7.5 7.5 0 0010.823-10.385c-39.186-40.839-59.055-91.294-59.055-149.964 0-49.248 12.98-90.687 37.537-119.836 22.585-26.809 54.244-41.574 89.144-41.574 18.076 0 35.172 3.859 50.814 11.469a58.46 58.46 0 0011.138 4.066c-21.965 23.431-46.205 61.685-32.668 108.149a7.504 7.504 0 009.299 5.103 7.5 7.5 0 005.102-9.299c-5.946-20.407-3.841-41.089 6.255-61.472 8.638-17.439 21.688-31.648 31.759-40.958a58.036 58.036 0 0019.794-5.588c15.642-7.61 32.738-11.469 50.814-11.469 34.9 0 66.559 14.765 89.144 41.574 24.557 29.149 37.537 70.587 37.537 119.836 0 56.081-16.672 104.256-49.552 143.187-24.005 28.422-56.024 51.488-95.167 68.555-36.385 15.865-78.06 15.425-114.343-1.207-23.795-10.908-45.325-24.045-63.99-39.048a7.499 7.499 0 00-10.544 1.147 7.499 7.499 0 001.147 10.544c19.629 15.777 42.218 29.569 67.137 40.992a155.66 155.66 0 0064.867 14.161c21.048 0 42.082-4.275 61.722-12.839 41.271-17.996 75.128-42.431 100.632-72.626 35.23-41.712 53.093-93.143 53.093-152.865 0-52.834-14.201-97.614-41.065-129.503z" />
    </g>
</svg>