<svg width="512" height="512" viewBox="0 0 512 512" fill="none" xmlns="http://www.w3.org/2000/svg">
<rect x="0.5" y="0.5" width="511" height="511" stroke="black" stroke-opacity="0.61"/>
<path fill-rule="evenodd" clip-rule="evenodd" d="M243.104 3.08582C236.01 6.67645 234.002 11.8496 235.622 22.3546C236.227 26.2801 236.597 29.1491 237.332 35.6232C237.555 37.5812 238.416 43.2544 239.248 48.2301C240.08 53.2059 240.662 57.3758 240.542 57.4939C240.424 57.6137 237.748 58.2561 234.596 58.9227C227.487 60.426 223.864 61.6445 217.643 64.6267C216.455 65.1946 215.121 65.7141 214.678 65.7788C213.366 65.9713 204.594 71.1089 200.061 74.3387C185.544 84.6851 170.793 102.206 162.587 118.847C157.87 128.412 154.754 135.452 154.754 136.54C154.754 136.936 154.496 137.765 154.183 138.383C153.134 140.443 152.268 142.71 151.153 146.304C150.547 148.262 149.875 150.155 149.661 150.511C149.448 150.867 149.242 151.304 149.207 151.482C149.17 151.66 148.901 152.388 148.608 153.1C146.734 157.661 145.765 160.543 146.105 160.543C146.322 160.543 146.136 160.98 145.692 161.514C145.249 162.048 145.074 162.485 145.304 162.485C145.534 162.485 145.286 163.15 144.754 163.962C144.221 164.776 143.653 166.16 143.492 167.037C143.331 167.915 143.142 168.707 143.071 168.796C143 168.885 142.888 169.176 142.822 169.443C142.755 169.71 142.195 171.089 141.577 172.508C140.959 173.925 138.692 179.75 136.538 185.453C131.896 197.742 121.747 222.82 117.542 232.388C84.7031 307.104 81.195 346.164 101.918 406.338C102.317 407.495 102.88 408.441 103.169 408.441C103.461 408.441 103.517 408.732 103.297 409.088C103.077 409.444 103.253 409.736 103.69 409.736C104.127 409.736 104.31 409.909 104.1 410.119C103.778 410.441 109.66 422.58 112.224 426.888C115.313 432.077 120.792 440.157 121.221 440.157C121.509 440.157 121.744 440.479 121.744 440.872C121.744 441.551 124.521 445.446 127.003 448.247C135.542 457.882 140.712 463.458 141.11 463.458C141.542 463.458 145.36 466.865 150.252 471.615C151.16 472.495 152.082 473.034 152.304 472.812C152.526 472.59 153.032 473.016 153.43 473.759C153.827 474.501 154.548 475.108 155.03 475.108C155.514 475.108 156.077 475.545 156.283 476.079C156.487 476.613 157.102 477.05 157.645 477.05C158.191 477.05 158.637 477.341 158.637 477.697C158.637 478.053 159.074 478.345 159.608 478.345C160.142 478.345 160.579 478.646 160.579 479.013C160.579 479.379 161.089 479.874 161.712 480.112C162.335 480.349 163.409 481.069 164.098 481.71C164.789 482.351 165.736 482.875 166.202 482.875C166.67 482.875 167.052 483.113 167.052 483.403C167.052 483.921 171.851 486.866 172.548 486.777C172.743 486.752 173.534 487.32 174.306 488.04C175.624 489.269 176.421 489.607 177.569 489.424C177.836 489.382 178.055 489.657 178.055 490.034C178.055 490.411 178.346 490.539 178.702 490.319C179.058 490.099 179.349 490.244 179.349 490.642C179.349 491.04 179.641 491.186 179.997 490.966C180.353 490.746 180.644 490.892 180.644 491.29C180.644 491.688 180.935 491.833 181.291 491.613C181.647 491.393 181.938 491.539 181.938 491.937C181.938 492.335 182.23 492.481 182.586 492.26C182.942 492.04 183.233 492.186 183.233 492.584C183.233 492.982 183.5 493.142 183.825 492.942C184.15 492.741 184.514 492.811 184.634 493.097C185.479 495.123 209.88 503.45 223.363 506.312L233.395 508.442L256.049 508.418C278.261 508.395 278.866 508.359 287.117 506.61C297.255 504.461 306.858 501.663 306.858 500.861C306.858 500.539 307.125 500.44 307.452 500.642C309.043 501.625 331.386 491.566 342.134 485.031C354.904 477.264 371.64 462.817 381.292 451.229C382.538 449.733 384.221 447.721 385.032 446.76C398.084 431.281 411.208 405.862 416.014 386.758C422.383 361.439 423.866 328.611 419.514 309.195C419.183 307.712 418.414 303.732 417.807 300.35C416.676 294.049 412.06 277.308 411.121 276.102C410.833 275.733 410.388 274.557 410.134 273.489C409.322 270.092 403.783 256.337 403.226 256.337C402.933 256.337 402.846 255.937 403.034 255.45C403.22 254.961 402.969 254.157 402.475 253.663C401.982 253.17 401.697 252.403 401.844 251.961C401.992 251.519 401.78 251.159 401.373 251.159C400.966 251.159 400.799 250.892 401.001 250.563C401.204 250.236 400.909 249.508 400.346 248.945C399.783 248.384 399.526 247.922 399.772 247.922C400.019 247.922 399.859 247.485 399.416 246.951C398.972 246.417 398.799 245.981 399.029 245.981C399.26 245.981 398.945 245.034 398.328 243.877C397.712 242.72 397.268 241.555 397.341 241.288C397.414 241.021 397.134 240.803 396.718 240.803C396.304 240.803 396.153 240.612 396.386 240.38C396.619 240.147 396.252 239.055 395.571 237.953C394.89 236.849 394.314 235.728 394.289 235.461C394.267 235.192 393.372 233.04 392.301 230.678C391.229 228.317 390.354 226.142 390.354 225.846C390.354 225.55 389.818 224.353 389.163 223.184C388.508 222.016 387.59 219.896 387.127 218.472C386.663 217.048 385.581 214.281 384.721 212.323C382.318 206.844 382.168 206.48 380.31 201.644C379.352 199.152 377.556 194.492 376.317 191.288C373.192 183.199 369.637 173.381 364.483 158.601C362.063 151.66 359.757 145.16 359.36 144.158C358.964 143.156 358.639 141.935 358.639 141.446C358.639 140.956 358.37 140.389 358.041 140.185C357.713 139.983 357.239 138.883 356.988 137.742C356.737 136.6 356.31 135.219 356.038 134.674C355.529 133.598 355.041 132.512 354.575 131.417C347.731 115.426 335.422 95.4343 330.15 91.7417C329.447 91.2498 329.019 90.7013 329.198 90.5233C329.674 90.0459 320.164 81.2789 315.633 78.0183C314.645 77.3064 313.451 76.3598 312.981 75.9148C312.512 75.4698 311.849 75.1057 311.504 75.1057C311.161 75.1057 310.706 74.651 310.493 74.0944C310.279 73.5377 309.841 73.2448 309.52 73.4423C309.198 73.6413 308.753 73.3274 308.528 72.7432C308.305 72.1607 307.952 71.8533 307.745 72.062C307.538 72.2691 306.824 71.9325 306.159 71.3128C301.075 66.5749 283.806 59.8791 271.69 57.947L269.208 57.5506L269.633 54.1913C269.866 52.345 270.494 47.9211 271.028 44.3612C271.56 40.8013 272.397 34.976 272.887 31.4161C273.378 27.8562 274.232 22.3545 274.785 19.1911C276.35 10.2493 273.664 4.52757 267.038 2.68775C263.06 1.58418 245.495 1.87545 243.104 3.08582ZM264.8 11.3674C265.25 11.9095 265.504 12.4516 265.365 12.5713C264.882 12.9872 254.4 14.9111 252.62 14.9111C247.612 14.9111 247.298 17.4273 248.9 44.6848L249.186 49.5392L248.28 45.332C244.686 28.641 243.465 14.026 245.482 11.8788C247.282 9.96289 263.282 9.53893 264.8 11.3674ZM250.358 55.1946C250.203 56.0004 250.07 55.4939 250.063 54.07C250.055 52.646 250.183 51.9874 250.345 52.6056C250.507 53.2253 250.513 54.3904 250.358 55.1946ZM255.924 58.0716C256.133 60.0943 256.156 61.9875 255.976 62.2788C255.536 62.9907 251.195 62.9584 251.195 62.2415C251.195 61.9309 251.007 60.693 250.779 59.4907C250.549 58.2901 250.594 57.5214 250.881 57.7868C251.633 58.481 253.136 57.0311 253.136 55.6088C253.136 52.2868 255.546 54.4162 255.924 58.0716ZM243.795 68.2545C245.123 73.5442 265.669 72.7837 267.471 67.3775C268.138 65.3742 283.946 69.8257 294.92 75.1089C309.418 82.0879 333.051 104.281 327.523 105.727C326.504 105.993 326.231 106.502 326.391 107.836C326.65 110.017 329.011 111.112 330.418 109.706C330.938 109.187 331.49 108.763 331.646 108.763C332.941 108.763 342.8 126.962 345.896 135.064L346.918 137.742L345.064 138.113C342.957 138.533 341.925 140.676 343.13 142.127C344.147 143.352 345.635 143.32 347.046 142.045C348.431 140.791 349.325 142.567 353.09 154.071C354.43 158.164 356.26 163.407 357.156 165.721C358.053 168.035 360.032 173.423 361.554 177.695C366.554 191.716 374 210.432 382.996 231.592C384.551 235.247 385.823 238.309 385.823 238.395C385.823 238.481 384.912 238.547 383.799 238.544C381.037 238.536 379.951 240.257 381.582 242.06C382.924 243.542 385.153 243.803 386.341 242.615C387.644 241.312 388.106 242.275 395.826 262.379C399.017 270.689 399.174 271.334 397.959 271.175C395.45 270.85 394.267 272.743 395.519 275.083C396.284 276.512 399.139 276.906 399.561 275.639C402.471 266.913 412.581 316.907 412.529 339.76L412.506 349.719L410.492 351.295C408.137 353.138 407.77 355.701 409.772 356.337C411.221 356.797 411.506 359.742 410.488 363.781C410.174 365.027 409.537 368.661 409.071 371.858C408.424 376.294 407.888 377.981 406.81 378.98C405.595 380.106 405.527 380.409 406.323 381.151C407.454 382.208 406.32 383.97 404.869 383.413C402.147 382.37 398.932 385.907 401.283 387.359C402.26 387.964 402.527 391.702 401.618 392.049C400.742 392.386 401.132 394.223 402.238 394.961C403.545 395.834 398.576 408.441 396.925 408.441C396.391 408.441 396.194 408.841 396.427 409.446C396.639 409.998 396.547 410.286 396.221 410.085C395.896 409.885 395.529 410.232 395.404 410.86C395.268 411.548 395.005 411.726 394.741 411.307C394.501 410.927 394.705 409.839 395.197 408.891C395.92 407.499 395.43 405.512 394.632 406.596C394.54 406.721 393.522 408.386 392.369 410.297L390.273 413.771L391.608 415.014C393.524 416.8 393.417 417.171 388.771 424.867L387.257 427.375L386.81 425.346C386.529 424.058 386.089 423.475 385.608 423.75C385.182 423.995 385.084 423.93 385.383 423.601C385.676 423.283 386.404 423.017 387.001 423.012C387.674 423.008 388.048 422.533 387.982 421.77C387.924 421.092 388.289 420.121 388.797 419.614C390.181 418.231 389.155 417.216 387.7 418.532C387.024 419.143 386.47 419.97 386.47 420.367C386.47 420.763 385.163 422.83 383.564 424.959C379.988 429.723 379.881 430.563 382.911 430.08C384.304 429.859 385.176 429.985 385.176 430.407C385.176 430.786 384.721 431.095 384.166 431.095C383.611 431.095 383.305 431.335 383.487 431.626C383.849 432.213 381.776 435.872 379.936 437.891C379.288 438.603 377.401 440.88 375.745 442.953L372.734 446.718L371.487 445.38C369.841 443.615 368.875 443.691 366.818 445.747C364.927 447.637 364.59 449.707 366.082 450.278C367.512 450.828 367.266 452.299 365.436 454.129C363.765 455.802 361.608 455.199 362.349 453.267C362.825 452.026 362.119 452.289 360.195 454.073C358.352 455.781 357.037 456.116 356.373 455.043C355.596 453.786 352.795 454.331 352.223 455.852C351.226 458.503 353.056 460.925 355.734 460.5C359.024 459.977 358.166 461.396 352.38 466.052C347.022 470.361 346.003 470.671 344.928 468.312C344.333 467.003 343.726 466.694 341.752 466.694C338.166 466.694 336.137 469.158 338.088 471.141C338.737 471.799 338.519 472.291 336.977 473.624C335.922 474.539 335.048 475.893 335.035 476.633C335.009 478.328 331.894 480.142 331.569 478.652C331.244 477.167 327.812 477.458 326.685 479.066C326.158 479.819 325.873 480.815 326.051 481.281C326.43 482.269 324.384 483.523 322.397 483.523C321.64 483.523 321.179 483.777 321.371 484.089C321.564 484.4 319.629 485.591 317.07 486.733L312.421 488.812L309.844 487.503C306.878 485.998 304.556 486.6 305.112 488.733C306.295 493.252 273.967 500.94 256.724 500.238C251.837 500.039 251.554 499.945 251.193 498.409C250.698 496.304 248.51 496.251 247.635 498.324C246.353 501.358 213.67 496.359 207.24 492.146C206.353 491.565 204.803 490.993 203.795 490.877C187.785 489.011 150.94 463.356 134.213 442.422C90.8326 388.132 86.6158 325.994 120.974 247.275C136.047 212.741 147.144 184.378 158.961 150.187C174.825 104.294 199.506 77.1332 233.395 68.2772C241.212 66.2351 243.287 66.2302 243.795 68.2545ZM231.152 74.4164C229.186 78.0879 232.248 80.986 235.518 78.5475C238.751 76.1365 237.905 73.1639 233.986 73.1639C232.51 73.1639 231.61 73.562 231.152 74.4164ZM280.782 73.5652C280.072 74.2756 280.237 77.5653 281.005 78.041C282.774 79.1349 284.936 77.6996 284.729 75.5685C284.531 73.5151 282.078 72.2707 280.782 73.5652ZM298.455 85.7724C297.813 86.5459 297.777 87.1705 298.31 88.3372C299.941 91.9181 304.54 90.6074 303.253 86.9278C302.517 84.8226 299.789 84.1656 298.455 85.7724ZM206.031 87.1171C204.121 88.4537 204.194 90.4861 206.185 91.3922C209.414 92.8647 212.9 88.431 209.812 86.7789C208.152 85.8906 207.728 85.9278 206.031 87.1171ZM175.817 124.244C174.819 126.176 174.497 128.18 175.184 128.18C176.65 128.18 178.055 126.604 178.055 124.96C178.055 122.308 176.993 121.968 175.817 124.244ZM168.995 138.533C168.542 139.626 168.37 140.719 168.613 140.962C169.409 141.757 171.259 140.048 171.259 138.52C171.259 136.273 169.927 136.281 168.995 138.533ZM158.356 166.948C156.697 169.631 156.136 172.841 157.325 172.841C158.992 172.841 160.579 171.121 160.579 169.313C160.579 167.622 158.985 165.928 158.356 166.948ZM351.85 169.58C351.249 171.475 352.601 173.488 354.475 173.488C356.478 173.488 357.137 171.961 356.027 169.885C354.986 167.943 352.43 167.757 351.85 169.58ZM147.679 195.941C146.632 199.707 146.749 200.103 148.767 199.66C152.168 198.916 152.25 198.83 152.042 196.309C151.736 192.608 148.676 192.349 147.679 195.941ZM366.608 208.848C366.074 210.238 368.203 214.132 369.768 214.629C371.289 215.111 372.878 213.878 372.878 212.215C372.878 209.254 367.55 206.393 366.608 208.848ZM141.501 211.644C140.267 214.031 140.254 214.912 141.448 214.912C142.775 214.912 144.315 212.472 143.927 210.987C143.462 209.212 142.645 209.432 141.501 211.644ZM243.957 231.416C181.268 241.964 148.801 331.355 186.88 388.556C223.694 443.856 300.465 438.237 330.444 378.051C364.516 309.653 311.651 220.024 243.957 231.416ZM259.555 238.616C259.703 238.751 258.622 238.861 257.151 238.861C254.584 238.861 252.455 240.553 253.591 241.688C254.499 242.597 255.868 242.065 255.568 240.919C255.322 239.977 255.662 239.728 257.272 239.671C258.379 239.633 261.068 239.401 263.248 239.159C268.196 238.607 269.41 239.773 264.609 240.468C262.748 240.738 260.208 240.943 258.962 240.926C257.716 240.906 257.062 241.042 257.508 241.227C257.957 241.409 258.157 241.827 257.957 242.152C257.756 242.477 258.044 242.744 258.599 242.744C259.154 242.744 259.609 243.126 259.609 243.592C259.609 244.17 258.583 244.455 256.373 244.487C254.593 244.515 253.136 244.248 253.136 243.895C253.136 243.542 252.667 243.434 252.094 243.654C251.25 243.977 251.128 243.744 251.458 242.429C251.766 241.207 251.612 240.803 250.845 240.803C250.283 240.803 250.01 240.5 250.24 240.129C250.513 239.688 250.025 239.608 248.822 239.896C246.436 240.469 246.175 240.744 247.33 241.476C248.031 241.919 247.728 242.079 246.178 242.087C245.021 242.092 244.075 242.421 244.075 242.814C244.075 243.249 243.461 243.379 242.523 243.142C241.654 242.924 240.157 243.176 239.125 243.715C238.109 244.244 236.924 244.68 236.492 244.683C236.06 244.684 235.393 245.269 235.013 245.981C234.633 246.693 233.966 247.27 233.534 247.265C233.041 247.259 233.109 247.023 233.719 246.628C234.825 245.913 234.332 245.786 232.772 246.384C231.819 246.751 231.829 246.908 232.882 248.089C234.015 249.358 234.003 249.379 232.424 248.985C231.534 248.764 231.172 248.749 231.618 248.955C232.067 249.16 232.285 249.566 232.104 249.859C231.923 250.152 232.338 250.243 233.028 250.063C234.935 249.565 237.322 251.989 236.003 253.084C235.222 253.733 235.013 253.736 235.013 253.1C235.013 252.458 234.817 252.458 234.042 253.1C231.932 254.851 228.058 251.9 229.965 249.994C230.568 249.39 230.568 249.217 229.965 249.217C229.537 249.217 229.188 249.489 229.188 249.82C229.188 250.154 228.41 250.518 227.458 250.629C225.411 250.872 224.581 252.453 226.502 252.453C227.238 252.453 227.986 253.018 228.217 253.748C228.444 254.46 228.866 255.042 229.156 255.042C229.447 255.042 229.837 255.625 230.023 256.337C230.405 257.799 232.418 258.05 234.308 256.871C235.28 256.264 235.728 256.312 236.529 257.112C237.436 258.018 237.245 258.121 234.568 258.175C230.924 258.248 229.934 258.922 233.448 258.935C235.083 258.942 235.677 259.139 235.12 259.494C234.461 259.911 234.568 260.121 235.575 260.385C236.3 260.575 237.005 260.542 237.141 260.314C237.279 260.084 237.314 260.227 237.222 260.631C237.128 261.036 237.686 261.935 238.46 262.63C243.104 266.8 244.245 270.298 244.115 279.961C244.039 285.652 241.919 294.007 239.27 299.055C238.803 299.945 238.567 301.078 238.743 301.573C238.919 302.067 238.78 302.295 238.431 302.08C238.083 301.864 237.39 302.479 236.892 303.447C236.395 304.413 235.08 306.515 233.968 308.117C232.858 309.719 232.034 311.402 232.138 311.855C232.243 312.314 232.175 312.365 231.982 311.97C231.767 311.525 231.063 311.798 230.109 312.695C229.269 313.484 228.738 314.387 228.932 314.699C229.126 315.013 228.898 315.188 228.427 315.091C227.955 314.992 227.649 315.298 227.748 315.771C227.845 316.242 227.66 316.463 227.335 316.263C226.715 315.879 224.829 317.756 225.191 318.394C225.306 318.598 225.016 318.866 224.544 318.991C223.976 319.141 224.015 318.988 224.657 318.533C225.191 318.154 225.322 317.84 224.948 317.835C224.575 317.831 223.992 318.089 223.654 318.411C220.308 321.602 202.57 325.106 204.35 322.224C204.526 321.941 203.997 321.704 203.175 321.7C202.108 321.693 201.927 321.533 202.544 321.143C203.421 320.585 201.762 319.4 200.498 319.68C200.205 319.746 200.123 319.546 200.314 319.233C200.506 318.923 200.092 318.055 199.393 317.306C197.712 315.5 195.536 309.887 195.51 307.284L195.487 305.204L194.272 306.662C193.527 307.554 192.657 307.966 192.027 307.725C190.861 307.277 190.691 306.442 191.647 305.852C192.003 305.631 192.294 304.983 192.294 304.411C192.294 303.839 192.1 303.565 191.861 303.803C191.623 304.041 190.951 303.805 190.369 303.277C186.953 300.186 182.298 331.863 183.854 347.59C184.466 353.763 184.953 356.218 185.618 356.473C186.256 356.718 186.413 357.384 186.133 358.659C185.356 362.197 190.183 376.645 194.872 384.816L197.471 389.347L194.699 386.363C191.657 383.091 184.848 370.386 182.629 363.842C166.152 315.25 191.904 255.932 235.984 240.95C239.364 239.801 243.18 238.943 249.253 237.969C250.97 237.694 259.099 238.205 259.555 238.616ZM244.52 244.605C243.892 245.362 244.012 245.44 245.212 245.06C246.097 244.778 246.664 244.869 246.664 245.29C246.664 245.67 245.644 245.981 244.398 245.981C242.868 245.981 242.133 245.681 242.133 245.057C242.133 244.549 241.623 244.018 241 243.879C240.377 243.738 241.084 243.638 242.573 243.657C244.829 243.684 245.152 243.843 244.52 244.605ZM264.301 244.058C263.362 244.408 262.328 244.408 261.389 244.058C260.199 243.581 260.466 243.474 262.845 243.474C265.224 243.474 265.491 243.581 264.301 244.058ZM272.877 244.039C273.098 244.395 272.695 244.686 271.983 244.686C271.271 244.686 270.509 244.395 270.288 244.039C270.068 243.683 270.471 243.392 271.183 243.392C271.895 243.392 272.657 243.683 272.877 244.039ZM240.838 245.244C240.838 245.55 240.11 245.662 239.22 245.492C238.33 245.322 237.602 245.071 237.602 244.934C237.602 244.798 238.33 244.686 239.22 244.686C240.11 244.686 240.838 244.937 240.838 245.244ZM249.9 245.333C249.9 245.689 249.463 245.981 248.929 245.981C248.395 245.981 247.958 245.689 247.958 245.333C247.958 244.977 248.395 244.686 248.929 244.686C249.463 244.686 249.9 244.977 249.9 245.333ZM212.256 262.833C206.413 269.233 205.307 272.913 210.549 268.524C214.104 265.549 214.723 264.759 213.531 264.73C213.008 264.717 213.165 264.345 213.939 263.759C214.631 263.236 215.505 262.814 215.88 262.819C216.257 262.824 216.13 263.112 215.596 263.456C213.591 264.753 215.573 264.041 218.28 262.494C220.312 261.332 220.736 260.866 219.803 260.824C219.091 260.791 218.874 260.618 219.321 260.437C219.769 260.257 219.969 259.843 219.769 259.518C219.568 259.193 219.929 258.897 220.573 258.861C221.403 258.816 221.272 258.646 220.126 258.278C217.337 257.385 217.117 257.511 212.256 262.833ZM389.189 259.055C387.336 260.908 389.903 264.089 392.242 262.838C393.755 262.028 393.894 261.35 392.92 259.531C392.165 258.12 390.356 257.888 389.189 259.055ZM116.189 272.871C114.862 276.044 116.762 277.889 119.025 275.625C120.496 274.154 119.556 270.576 117.698 270.576C117.394 270.576 116.716 271.609 116.189 272.871ZM197.341 283.654C194.215 289.382 194.112 289.819 195.319 292.138L196.393 294.201L197.309 291.974C197.812 290.749 198.097 289.084 197.942 288.272C197.786 287.461 197.856 286.918 198.094 287.065C198.757 287.474 200.589 284.042 200.824 281.95C201.191 278.694 199.633 279.457 197.341 283.654ZM402.781 300.479C400.827 302.434 403.765 307.377 406.388 306.546C407.555 306.175 407.72 305.766 407.395 304.036C406.725 300.479 404.498 298.762 402.781 300.479ZM107.936 300.782C106.749 301.968 107.538 305.572 109.147 306.305C112.363 307.771 113.723 304.072 110.975 301.324C109.944 300.293 108.653 300.063 107.936 300.782ZM407.312 323.133C406.205 324.24 406.351 327.224 407.561 328.227C409.927 330.192 412.194 325.971 410.047 323.598C408.734 322.148 408.361 322.085 407.312 323.133ZM102.973 337.852C102.973 338.941 103.265 339.832 103.621 339.832C103.977 339.832 104.268 339.122 104.268 338.253C104.268 337.384 103.977 336.492 103.621 336.272C103.244 336.039 102.973 336.698 102.973 337.852ZM108.54 365.918C106.831 367.167 107.456 369.239 109.618 369.488C111.624 369.719 112.66 368.153 111.606 366.481C110.716 365.072 109.904 364.922 108.54 365.918ZM108.799 387.632C108.799 388.905 110.268 392.26 110.825 392.26C111.873 392.26 112.234 390.297 111.486 388.658C110.815 387.184 108.799 386.415 108.799 387.632ZM387.966 404.969C387.377 406.503 388.634 408.118 390.415 408.118C392.178 408.118 392.841 406.318 391.623 404.851C390.576 403.588 388.469 403.658 387.966 404.969ZM120.508 414.216C119.563 414.815 120.496 418.349 121.815 419.165C122.851 419.805 124.98 418.106 124.98 416.639C124.98 414.074 122.692 412.834 120.508 414.216ZM130.422 434.216C132.042 437.346 133.394 438.084 133.394 435.835C133.394 433.673 132.375 432.39 130.66 432.39C129.571 432.39 129.553 432.534 130.422 434.216ZM135.796 438.619C134.953 439.461 135.322 440.848 136.792 442.365C137.593 443.192 138.572 444.416 138.967 445.087C139.843 446.574 141.394 446.683 141.666 445.275C142.233 442.33 137.477 436.938 135.796 438.619ZM165.208 465.215C164.247 467.011 165.466 468.636 167.772 468.636C169.582 468.636 169.709 468.485 169.519 466.532C169.276 464.003 166.338 463.105 165.208 465.215ZM180.126 472.649C178.124 474.65 180.624 478.168 183.531 477.438C185.527 476.937 185.772 474.555 183.992 472.943C182.594 471.678 181.202 471.573 180.126 472.649ZM218.976 489.709C216.453 491.474 217.452 495.173 220.45 495.173C223.351 495.173 224.626 490.717 222.11 489.37C220.537 488.529 220.683 488.513 218.976 489.709ZM266.088 492.252C264.356 494.338 267.091 498.327 269.594 497.367C271.115 496.783 270.944 492.807 269.36 491.96C267.674 491.057 267.033 491.115 266.088 492.252Z" fill="#4D361B"/>
<path fill-rule="evenodd" clip-rule="evenodd" d="M248.605 93.2838C222.521 96.1366 202.972 113.727 188.521 147.351C184.188 157.433 182.781 161.226 172.221 191.288C164.681 212.756 159.425 225.846 147.797 252.13C117.448 320.732 117.321 370.585 147.381 415.927C202.561 499.16 327.049 491.832 371.889 402.708C393.636 359.485 391.344 314.52 364.281 253.424C362.703 249.864 359.737 243.165 357.69 238.537C349.818 220.749 343.714 204.671 333.716 175.394C319.375 133.396 307.692 114.642 288.088 102.148C279.196 96.4829 263.256 91.9974 254.431 92.6787C253.897 92.7207 251.275 92.9926 248.605 93.2838ZM273.229 231.969C328.355 246.252 359.13 323.336 331.43 377.744C286.664 465.67 166.406 428.86 169.833 328.282C171.961 265.803 222.418 218.804 273.229 231.969Z" fill="#E1E69B"/>
<path fill-rule="evenodd" clip-rule="evenodd" d="M247.487 20.7364C247.487 22.3384 247.614 22.9937 247.767 22.1927C247.923 21.2281 247.923 20.2447 247.767 19.2801C247.614 18.4791 247.487 19.1345 247.487 20.7364ZM248.339 43.2997C248.149 43.6055 248.246 45.1346 248.552 46.6977L249.11 49.5392L249.182 46.1411C249.251 42.8385 249.047 42.1524 248.339 43.2997ZM250.063 54.07C250.07 55.4939 250.203 56.0004 250.358 55.1946C250.513 54.3903 250.507 53.2253 250.345 52.6055C250.183 51.9874 250.055 52.646 250.063 54.07ZM253.136 55.6088C253.136 56.9599 251.638 58.5053 250.973 57.8402C250.738 57.6056 250.547 58.0667 250.547 58.8629C250.547 60.18 250.64 60.2189 251.565 59.2949C252.787 58.0716 254.201 57.9761 254.649 59.0862C254.829 59.5311 254.999 59.1185 255.026 58.1687C255.055 57.2188 255.254 55.981 255.471 55.4179C255.753 54.6832 255.478 54.3936 254.5 54.3936C253.597 54.3936 253.136 54.8046 253.136 55.6088ZM267.062 67.9568C265.68 72.3096 244.075 73.2141 244.075 68.9196C244.075 67.2335 230.416 71.7157 222.139 76.1186C211.74 81.651 205.876 86.0426 196.751 95.1317C179.178 112.632 171.37 127.488 155.06 174.459C153.205 179.799 150.765 186.462 149.636 189.267C148.506 192.071 147.739 194.522 147.932 194.713C148.124 194.906 148.281 194.704 148.281 194.265C148.281 193.776 148.971 193.547 150.061 193.671C152.055 193.901 153.191 198.446 151.395 199.006C147.108 200.341 146.802 200.239 147.289 197.631C147.929 194.215 147.356 195.069 145.694 200.013C144.744 202.758 143.666 205.458 142.464 208.103C141.464 210.246 139.613 214.621 138.349 217.825C134.705 227.068 131.147 235.529 128.55 241.126C127.228 243.974 125.435 248.197 124.566 250.511C123.697 252.825 121.131 259.233 118.862 264.751C107.131 293.29 101.09 323.585 102.341 347.599C103.132 362.76 103.912 368.25 107.904 386.758C109.587 394.562 118.014 414.703 123.27 423.48C125.883 427.846 128.54 432.438 129.173 433.684L130.323 435.949L128.511 434.331L126.699 432.713L128.5 435.134C129.492 436.466 130.537 437.409 130.825 437.231C131.113 437.053 132.246 437.996 133.343 439.327C135.517 441.966 135.995 443.428 134.22 442.016C133.606 441.527 134.221 442.508 135.587 444.195C136.953 445.883 138.304 447.119 138.589 446.943C138.873 446.767 140.058 447.862 141.223 449.377L143.339 452.131L140.794 449.911C139.394 448.689 140.87 450.299 144.074 453.485C160.594 469.919 191.845 489.485 203.795 490.877C204.803 490.994 206.353 491.565 207.24 492.146C213.67 496.359 246.353 501.358 247.635 498.324C248.51 496.251 250.698 496.304 251.193 498.409C251.554 499.945 251.837 500.039 256.724 500.238C273.967 500.94 306.295 493.252 305.112 488.733C304.556 486.6 306.878 485.998 309.844 487.503L312.421 488.812L317.07 486.733C319.629 485.591 321.564 484.4 321.371 484.089C321.179 483.777 321.64 483.523 322.397 483.523C324.384 483.523 326.43 482.269 326.051 481.281C325.873 480.815 326.158 479.819 326.685 479.066C327.812 477.458 331.244 477.167 331.569 478.652C331.894 480.142 335.009 478.328 335.035 476.633C335.048 475.893 335.922 474.539 336.977 473.624C338.519 472.291 338.737 471.799 338.088 471.141C336.137 469.158 338.166 466.694 341.752 466.694C343.726 466.694 344.333 467.003 344.928 468.312C346.003 470.671 347.022 470.361 352.38 466.052C358.166 461.396 359.024 459.977 355.734 460.5C353.056 460.925 351.226 458.503 352.223 455.852C352.796 454.331 355.597 453.786 356.373 455.043C357.037 456.116 358.352 455.781 360.195 454.073C362.119 452.289 362.825 452.026 362.349 453.267C361.608 455.199 363.765 455.802 365.436 454.129C367.267 452.299 367.512 450.828 366.082 450.278C364.59 449.707 364.927 447.637 366.818 445.747C368.875 443.691 369.841 443.615 371.487 445.38L372.734 446.718L375.745 442.953C377.401 440.88 379.288 438.603 379.937 437.891C381.776 435.872 383.849 432.213 383.487 431.626C383.305 431.335 383.611 431.095 384.166 431.095C384.721 431.095 385.176 430.786 385.176 430.407C385.176 429.985 384.304 429.859 382.911 430.08C379.881 430.563 379.988 429.723 383.564 424.959C385.163 422.83 386.471 420.763 386.471 420.367C386.471 419.97 387.024 419.143 387.7 418.532C389.155 417.216 390.181 418.231 388.797 419.614C388.289 420.121 387.924 421.092 387.982 421.77C388.048 422.533 387.674 423.008 387.001 423.012C386.404 423.017 385.676 423.283 385.383 423.601C385.084 423.93 385.182 423.995 385.608 423.75C386.089 423.475 386.529 424.058 386.81 425.346L387.257 427.375L388.771 424.867C393.417 417.171 393.524 416.8 391.608 415.014L390.273 413.771L392.369 410.297C393.522 408.386 394.54 406.721 394.632 406.596C395.43 405.512 395.92 407.499 395.197 408.891C394.705 409.839 394.501 410.927 394.741 411.307C395.005 411.726 395.268 411.548 395.404 410.86C395.529 410.232 395.896 409.885 396.221 410.085C396.547 410.286 396.639 409.998 396.427 409.446C396.194 408.841 396.391 408.441 396.925 408.441C398.576 408.441 403.545 395.834 402.238 394.961C401.132 394.223 400.742 392.386 401.618 392.049C402.527 391.702 402.26 387.964 401.283 387.359C398.932 385.907 402.147 382.37 404.869 383.413C406.32 383.97 407.454 382.208 406.323 381.151C405.527 380.409 405.595 380.106 406.81 378.98C407.888 377.981 408.424 376.294 409.071 371.858C409.537 368.661 410.175 365.027 410.488 363.781C411.506 359.742 411.221 356.797 409.772 356.337C407.77 355.701 408.137 353.138 410.492 351.295L412.506 349.719L412.529 339.759C412.581 316.907 402.471 266.913 399.561 275.639C399.139 276.906 396.284 276.512 395.519 275.083C394.267 272.743 395.45 270.85 397.959 271.175C399.174 271.333 399.017 270.689 395.827 262.379C388.106 242.275 387.644 241.312 386.341 242.615C385.153 243.803 382.924 243.542 381.582 242.06C379.951 240.257 381.037 238.536 383.799 238.544C384.912 238.547 385.823 238.481 385.823 238.395C385.823 238.309 384.551 235.247 382.996 231.592C374 210.432 366.555 191.716 361.554 177.695C360.032 173.423 358.053 168.035 357.156 165.721C356.26 163.407 354.43 158.164 353.09 154.071C349.325 142.567 348.431 140.791 347.046 142.045C345.635 143.32 344.147 143.352 343.13 142.127C341.925 140.676 342.957 138.533 345.064 138.113L346.918 137.742L345.896 135.064C342.8 126.962 332.941 108.763 331.647 108.763C331.49 108.763 330.938 109.187 330.418 109.706C329.011 111.112 326.65 110.017 326.391 107.836C326.231 106.502 326.504 105.993 327.524 105.727C332.38 104.457 311.297 83.7578 297.696 76.4455C285.748 70.0215 267.97 65.0943 267.062 67.9568ZM236.929 74.1041C238.047 75.452 237.544 77.0361 235.518 78.5475C232.248 80.986 229.186 78.0879 231.152 74.4164C231.965 72.8969 235.758 72.693 236.929 74.1041ZM284.729 75.5685C284.899 77.329 284.68 77.7125 283.31 78.0572C281.145 78.6008 280.321 77.9843 280.321 75.8225C280.321 72.2206 284.382 71.9875 284.729 75.5685ZM268.421 79.3436C298.018 84.5054 320.915 105.292 336.532 141.179C340.63 150.598 342.893 156.692 350.933 179.961C358.176 200.919 364.393 216.867 372.886 236.272C395.561 288.075 400.99 308.316 400.922 340.803C400.647 471.798 248.012 538.041 154.84 447.602C108.283 402.409 97.433 335.569 125.53 267.016C128.956 258.659 131.958 251.628 139.896 233.359C146.547 218.053 154.522 197.27 161.877 176.077C185.56 107.842 204.88 85.499 246.017 78.7821C250.165 78.1057 263.188 78.431 268.421 79.3436ZM303.253 86.9278C304.54 90.6074 299.941 91.9181 298.31 88.3372C297.387 86.3129 298.669 84.6753 300.965 84.9439C302.107 85.0766 302.823 85.698 303.253 86.9278ZM209.812 86.7789C212.9 88.431 209.414 92.8647 206.185 91.3922C204.194 90.486 204.121 88.4537 206.031 87.1171C207.728 85.9278 208.152 85.8905 209.812 86.7789ZM191.956 92.7433L186.793 98.0832L192.133 92.9197C195.07 90.0815 197.473 87.6786 197.473 87.5799C197.473 87.109 196.751 87.7838 191.956 92.7433ZM179.997 106.821C179.236 107.889 178.76 108.763 178.938 108.763C179.116 108.763 179.883 107.889 180.644 106.821C181.404 105.753 181.88 104.879 181.702 104.879C181.524 104.879 180.757 105.753 179.997 106.821ZM177.655 110.219C175.427 113.999 175.281 114.321 176.416 112.97C177.731 111.404 178.864 109.41 178.44 109.41C178.27 109.41 177.917 109.774 177.655 110.219ZM178.055 124.96C178.055 126.604 176.65 128.18 175.184 128.18C174.497 128.18 174.819 126.176 175.817 124.244C176.993 121.968 178.055 122.308 178.055 124.96ZM168.467 126.593C166.518 130.608 166.736 131.169 168.744 127.308C169.642 125.582 170.267 124.059 170.131 123.925C169.995 123.789 169.247 124.99 168.467 126.593ZM165.215 133.71C164.131 136.09 164.338 136.598 165.51 134.435C166.058 133.423 166.385 132.475 166.236 132.328C166.089 132.179 165.629 132.802 165.215 133.71ZM171.259 138.52C171.259 140.048 169.409 141.757 168.613 140.962C167.955 140.302 169.704 136.507 170.539 136.786C170.935 136.918 171.259 137.698 171.259 138.52ZM160.579 169.313C160.579 171.121 158.992 172.841 157.325 172.841C156.136 172.841 156.697 169.631 158.356 166.948C158.985 165.928 160.579 167.622 160.579 169.313ZM356.027 169.885C357.137 171.961 356.478 173.488 354.475 173.488C352.601 173.488 351.249 171.475 351.851 169.58C352.43 167.757 354.987 167.943 356.027 169.885ZM371.289 209.382C373.08 211.171 373.334 213.081 371.938 214.239C370.543 215.398 368.687 214.518 367.37 212.071C365.234 208.105 368.067 206.16 371.289 209.382ZM143.927 210.987C144.315 212.472 142.775 214.912 141.448 214.912C140.254 214.912 140.267 214.031 141.501 211.644C142.645 209.432 143.462 209.212 143.927 210.987ZM251.356 238.013C251.979 238.175 252.999 238.175 253.622 238.013C254.245 237.849 253.735 237.717 252.489 237.717C251.243 237.717 250.733 237.849 251.356 238.013ZM256.534 238.66C257.157 238.822 258.177 238.822 258.8 238.66C259.423 238.497 258.913 238.364 257.667 238.364C256.421 238.364 255.911 238.497 256.534 238.66ZM252.327 239.325C251.348 239.472 250.547 239.866 250.547 240.199C250.547 241.201 253.617 240.877 254.018 239.832C254.222 239.298 254.327 238.904 254.248 238.958C254.17 239.011 253.306 239.176 252.327 239.325ZM255.463 240.256C255.625 240.516 257.504 240.704 259.64 240.673C261.777 240.644 263.347 240.442 263.132 240.225C262.565 239.659 255.114 239.688 255.463 240.256ZM243.479 241.511C242.214 242.016 242.075 242.288 242.751 242.926C243.411 243.547 243.652 243.544 243.885 242.906C244.049 242.461 245.106 242.092 246.232 242.087C247.793 242.079 248.051 241.927 247.311 241.45C246.133 240.689 245.512 240.699 243.479 241.511ZM251.195 243.047C251.195 243.626 251.575 243.853 252.165 243.626C252.699 243.421 253.136 243.542 253.136 243.895C253.136 244.248 254.593 244.515 256.373 244.487C259.769 244.437 260.853 243.228 258.153 242.505C255.243 241.725 251.195 242.042 251.195 243.047ZM121.849 245.037C120.765 247.417 120.972 247.926 122.144 245.762C122.692 244.751 123.019 243.803 122.87 243.655C122.723 243.506 122.263 244.129 121.849 245.037ZM261.389 244.058C262.328 244.408 263.362 244.408 264.301 244.058C265.491 243.581 265.224 243.474 262.845 243.474C260.466 243.474 260.199 243.581 261.389 244.058ZM270.289 244.039C270.509 244.395 271.271 244.686 271.983 244.686C272.695 244.686 273.098 244.395 272.878 244.039C272.657 243.683 271.895 243.392 271.183 243.392C270.471 243.392 270.068 243.683 270.289 244.039ZM242.133 245.398C242.133 245.718 243.152 245.981 244.398 245.981C245.644 245.981 246.664 245.748 246.664 245.461C246.664 245.176 245.644 244.914 244.398 244.879C243.152 244.843 242.133 245.076 242.133 245.398ZM247.958 245.333C247.958 245.689 248.395 245.981 248.929 245.981C249.463 245.981 249.9 245.689 249.9 245.333C249.9 244.977 249.463 244.686 248.929 244.686C248.395 244.686 247.958 244.977 247.958 245.333ZM230.482 247.922C229.948 248.267 229.657 248.574 229.835 248.604C233.209 249.173 233.782 249.102 233.039 248.207C232.133 247.116 231.79 247.078 230.482 247.922ZM230.505 250.492C228.788 251.981 228.829 252.147 231.13 253.1C232.678 253.743 233.269 253.741 234.042 253.1C234.817 252.458 235.013 252.458 235.013 253.1C235.013 253.736 235.222 253.733 236.004 253.084C236.887 252.351 236.868 252.144 235.83 251.178C233.999 249.472 231.981 249.212 230.505 250.492ZM224.979 253.062C225.083 254.565 225.528 255.43 226.351 255.725C227.518 256.144 227.515 256.176 226.275 256.498C225.118 256.798 225.141 256.841 226.476 256.909C227.298 256.95 227.811 257.243 227.615 257.558C227.013 258.532 233.843 260.303 235.109 259.5C235.682 259.138 235.109 258.942 233.448 258.935C230.319 258.924 230.635 258.397 233.905 258.175C235.358 258.078 236.308 257.683 236.308 257.175C236.308 256.189 234.622 256.047 234.042 256.984C233.298 258.188 230.384 257.719 230.023 256.337C229.837 255.625 229.447 255.042 229.156 255.042C228.866 255.042 228.444 254.46 228.217 253.748C227.991 253.036 227.267 252.453 226.609 252.453C225.952 252.453 225.28 252.089 225.118 251.644C224.958 251.199 224.895 251.837 224.979 253.062ZM220.45 258.926C219.738 259.231 219.447 259.507 219.803 259.537C220.159 259.568 220.013 259.875 219.479 260.22C218.711 260.717 218.845 260.848 220.126 260.848C221.016 260.848 222.181 260.536 222.715 260.154C223.49 259.6 223.385 259.526 222.193 259.79C220.96 260.062 220.834 259.958 221.463 259.199C222.322 258.163 222.262 258.147 220.45 258.926ZM392.92 259.531C393.894 261.35 393.755 262.028 392.242 262.838C389.903 264.089 387.336 260.908 389.189 259.055C390.356 257.888 392.165 258.12 392.92 259.531ZM236.955 260.199C236.955 260.545 236.445 260.644 235.822 260.421C234.638 259.995 234.696 260.102 236.334 261.342C237.146 261.956 237.35 261.863 237.427 260.835C237.479 260.141 237.393 259.573 237.238 259.573C237.083 259.573 236.955 259.854 236.955 260.199ZM114.695 262.233C114.297 263.377 114.084 264.427 114.223 264.565C114.362 264.704 114.8 263.88 115.2 262.738C115.598 261.594 115.812 260.544 115.673 260.406C115.533 260.267 115.095 261.091 114.695 262.233ZM213.939 263.759C212.84 264.591 212.95 264.751 214.625 264.751C214.803 264.751 214.924 264.565 214.893 264.338C214.863 264.11 215.227 263.678 215.702 263.377C216.178 263.076 216.257 262.824 215.88 262.819C215.505 262.814 214.631 263.236 213.939 263.759ZM242.322 268.61C242.72 269.664 243.146 270.427 243.267 270.304C243.672 269.901 242.651 266.693 242.118 266.693C241.832 266.693 241.924 267.555 242.322 268.61ZM206.338 269.507C205.487 271.722 207.131 272.206 208.942 270.27L210.741 268.348L208.926 269.932C207.704 270.999 207.241 271.172 207.513 270.465C207.735 269.885 207.636 269.24 207.293 269.028C206.95 268.816 206.521 269.031 206.338 269.507ZM119.025 271.353C120.749 273.076 119.495 276.401 117.122 276.401C115.402 276.401 115.135 275.392 116.189 272.871C117.211 270.422 117.788 270.115 119.025 271.353ZM110.165 273.884C109.766 275.028 109.553 276.078 109.692 276.215C109.831 276.355 110.27 275.531 110.669 274.389C111.067 273.245 111.281 272.194 111.142 272.057C111.003 271.918 110.564 272.741 110.165 273.884ZM200.35 278.4C200.13 278.756 200.272 279.434 200.663 279.908C201.057 280.38 201.207 281.314 200.998 281.982C200.774 282.702 201.024 282.537 201.612 281.58C202.159 280.69 202.615 279.628 202.628 279.222C202.659 278.232 200.856 277.581 200.35 278.4ZM243.531 283.953C243.474 285.081 243.259 286.537 243.055 287.19C242.704 288.309 242.724 288.311 243.418 287.228C243.824 286.599 244.038 285.143 243.895 283.992L243.635 281.903L243.531 283.953ZM199.003 286.431C198.798 286.961 198.413 287.262 198.146 287.097C197.879 286.932 197.799 287.528 197.971 288.423C198.335 290.327 198.359 290.311 199.285 287.567C199.979 285.507 199.735 284.523 199.003 286.431ZM193.589 290.588C193.589 290.915 193.393 291.691 193.155 292.313C192.859 293.086 192.963 293.293 193.484 292.971C194.777 292.172 196.011 294.088 195.752 296.491C195.571 298.182 195.649 298.415 196.073 297.437C196.971 295.364 197.607 292.117 196.911 293.162C196.44 293.868 196.078 293.618 195.256 292.029C194.206 289.997 193.589 289.465 193.589 290.588ZM191.277 297.19C190.998 297.641 191.079 298.11 191.458 298.237C191.895 298.382 191.966 299.261 191.652 300.652C191.341 302.028 191.424 303.104 191.872 303.552C192.392 304.072 192.354 304.636 191.733 305.631C191.026 306.764 191.029 307.089 191.749 307.546C193.133 308.424 193.537 308.225 193.982 306.453C194.9 302.798 192.625 295.008 191.277 297.19ZM406.022 300.835C407.796 302.879 407.998 306.034 406.388 306.546C403.765 307.377 400.827 302.434 402.781 300.479C403.862 299.398 404.872 299.51 406.022 300.835ZM110.975 301.324C113.723 304.072 112.364 307.771 109.147 306.305C107.864 305.719 107.504 305.081 107.504 303.384C107.504 300.211 108.983 299.332 110.975 301.324ZM195.901 310.059C196.139 310.949 196.605 312.114 196.934 312.648C197.351 313.322 197.403 313.125 197.102 312C196.864 311.11 196.398 309.945 196.07 309.411C195.652 308.737 195.6 308.934 195.901 310.059ZM231.392 310.818C230.714 311.591 230.499 312.025 230.913 311.784C231.327 311.542 231.79 311.565 231.939 311.835C232.089 312.104 232.136 311.996 232.046 311.594C231.953 311.193 232.204 310.538 232.604 310.138C233.003 309.738 233.172 309.411 232.978 309.411C232.783 309.411 232.07 310.044 231.392 310.818ZM99.8877 315.237C99.8877 316.483 100.02 316.992 100.184 316.369C100.346 315.746 100.346 314.727 100.184 314.104C100.02 313.481 99.8877 313.991 99.8877 315.237ZM225.304 316.855C224.861 317.389 224.753 317.831 225.063 317.835C225.374 317.84 225.191 318.154 224.657 318.533C223.795 319.143 223.795 319.19 224.657 318.954C225.191 318.808 225.633 318.421 225.638 318.096C225.643 317.769 225.879 317.138 226.162 316.693C226.877 315.567 226.28 315.678 225.304 316.855ZM199.977 318.047C200.374 318.525 200.482 319.18 200.218 319.504C199.953 319.827 200.002 319.876 200.325 319.61C200.649 319.347 201.377 319.484 201.943 319.915C202.51 320.347 202.269 319.907 201.405 318.939C199.83 317.172 198.626 316.42 199.977 318.047ZM99.2405 320.415C99.2405 321.661 99.3732 322.17 99.5366 321.547C99.6984 320.924 99.6984 319.905 99.5366 319.282C99.3732 318.659 99.2405 319.169 99.2405 320.415ZM202.591 321.112C201.905 321.547 202.047 321.691 203.175 321.7C204.003 321.704 204.49 321.997 204.269 322.356C204.049 322.712 204.306 323.004 204.84 323.004C206.481 323.004 206.576 321.936 204.998 321.217C204.096 320.806 203.141 320.764 202.591 321.112ZM208.961 322.813C209.926 322.968 210.909 322.968 211.874 322.813C212.675 322.659 212.02 322.533 210.418 322.533C208.816 322.533 208.16 322.659 208.961 322.813ZM410.047 323.598C412.194 325.971 409.927 330.191 407.561 328.227C406.351 327.224 406.205 324.24 407.312 323.133C408.361 322.085 408.734 322.148 410.047 323.598ZM98.6062 326.564C98.6127 327.988 98.7454 328.494 98.9007 327.688C99.056 326.884 99.0496 325.719 98.8877 325.099C98.7259 324.481 98.5981 325.14 98.6062 326.564ZM177.558 327.534C177.558 328.78 177.691 329.29 177.854 328.667C178.016 328.044 178.016 327.025 177.854 326.402C177.691 325.779 177.558 326.289 177.558 327.534ZM98.0382 338.861C98.0398 342.777 98.145 344.295 98.2745 342.235C98.4039 340.175 98.4023 336.971 98.2712 335.115C98.1418 333.259 98.0366 334.946 98.0382 338.861ZM104.268 338.253C104.268 339.122 103.977 339.832 103.621 339.832C103.265 339.832 102.974 338.941 102.974 337.852C102.974 336.698 103.244 336.039 103.621 336.272C103.977 336.492 104.268 337.384 104.268 338.253ZM98.6499 352.13C98.6499 354.444 98.768 355.391 98.9104 354.234C99.0544 353.077 99.0544 351.184 98.9104 350.027C98.768 348.87 98.6499 349.816 98.6499 352.13ZM185.026 357.684C185.189 358.536 185.581 359.075 185.896 358.881C186.765 358.344 186.581 356.842 185.599 356.465C184.977 356.227 184.814 356.573 185.026 357.684ZM99.2405 359.897C99.2405 361.143 99.3732 361.653 99.5366 361.03C99.6984 360.407 99.6984 359.387 99.5366 358.764C99.3732 358.141 99.2405 358.651 99.2405 359.897ZM111.606 366.481C112.66 368.153 111.624 369.719 109.618 369.488C107.456 369.239 106.831 367.167 108.54 365.918C109.904 364.921 110.716 365.072 111.606 366.481ZM111.487 388.658C112.234 390.297 111.873 392.26 110.825 392.26C110.268 392.26 108.799 388.905 108.799 387.632C108.799 386.415 110.815 387.184 111.487 388.658ZM197.796 402.616C199.909 404.752 201.785 406.499 201.963 406.499C202.141 406.499 200.557 404.752 198.443 402.616C196.33 400.48 194.455 398.732 194.277 398.732C194.099 398.732 195.683 400.48 197.796 402.616ZM391.623 404.851C392.841 406.318 392.178 408.118 390.416 408.118C388.634 408.118 387.377 406.503 387.966 404.969C388.469 403.658 390.576 403.588 391.623 404.851ZM112.682 408.025C112.682 408.729 117.192 417.503 117.553 417.503C117.731 417.503 116.82 415.391 115.527 412.81C113.103 407.967 112.682 407.26 112.682 408.025ZM124.203 414.396C125.979 416.171 123.849 420.422 121.815 419.165C120.496 418.349 119.563 414.815 120.508 414.216C121.784 413.409 123.289 413.482 124.203 414.396ZM118.831 420.092C119.383 421.16 119.982 422.033 120.16 422.033C120.338 422.033 120.03 421.16 119.479 420.092C118.927 419.024 118.328 418.15 118.15 418.15C117.972 418.15 118.279 419.024 118.831 420.092ZM132.618 433.166C133.883 434.432 133.658 437.946 132.382 436.885C130.391 435.234 129.302 432.39 130.66 432.39C131.309 432.39 132.191 432.739 132.618 433.166ZM140.373 441.391C142.441 445.349 141.139 448.775 138.967 445.087C138.572 444.416 137.594 443.192 136.793 442.365C134.563 440.064 134.966 437.975 137.568 438.349C138.364 438.464 139.471 439.663 140.373 441.391ZM137.983 445.443C139.008 447.359 138.137 446.805 136.538 444.526C135.492 443.034 135.394 442.689 136.205 443.339C136.835 443.844 137.634 444.791 137.983 445.443ZM169.519 466.532C169.709 468.485 169.582 468.636 167.772 468.636C165.466 468.636 164.247 467.011 165.209 465.215C166.338 463.105 169.277 464.003 169.519 466.532ZM183.992 472.943C185.772 474.555 185.527 476.937 183.531 477.438C180.625 478.168 178.125 474.65 180.126 472.649C181.202 471.573 182.594 471.678 183.992 472.943ZM222.11 489.371C224.626 490.717 223.351 495.173 220.45 495.173C217.452 495.173 216.453 491.474 218.976 489.709C220.683 488.513 220.537 488.529 222.11 489.371ZM269.36 491.96C270.944 492.807 271.115 496.783 269.594 497.367C267.091 498.327 264.356 494.338 266.088 492.252C267.033 491.115 267.674 491.057 269.36 491.96Z" fill="#4A6E2B"/>
<path fill-rule="evenodd" clip-rule="evenodd" d="M245.664 11.9689C244.68 12.9527 244.075 14.3006 244.075 15.5078C244.075 17.5725 247.105 39.4254 247.745 41.9804C248.455 44.8138 249.334 42.4319 248.678 39.4481C247.769 35.3008 247.481 17.079 248.311 16.244C248.683 15.8702 251.741 15.1081 255.107 14.5515C258.473 13.9948 262.246 13.1453 263.492 12.6647L265.758 11.7925L263.936 11.0854C260.046 9.57893 247.444 10.1874 245.664 11.9689ZM255.181 57.6294C255.097 59.1747 254.881 59.6149 254.502 59.0161C253.502 57.4385 251.194 58.7589 251.194 60.9094C251.194 62.5906 251.418 62.8074 253.157 62.8074C255.47 62.8074 255.893 61.9919 255.555 58.1893C255.33 55.6634 255.292 55.6051 255.181 57.6294ZM236.612 67.678C201.634 75.3642 176.011 102.921 158.99 151.158C146.427 186.761 139.411 205.035 128.179 231.417C118.092 255.11 111.601 271.327 108.488 280.608C93.373 325.696 95.8358 373.636 115.242 412.001C121.242 423.862 124.972 430.158 127.951 433.451L130.211 435.949L129.116 433.684C128.514 432.438 125.883 427.845 123.27 423.48C118.014 414.703 109.587 394.562 107.904 386.758C103.912 368.25 103.132 362.759 102.341 347.599C101.09 323.584 107.13 293.29 118.862 264.75C121.13 259.233 123.697 252.825 124.566 250.511C125.435 248.197 127.228 243.974 128.55 241.126C131.147 235.529 134.705 227.067 138.349 217.825C139.613 214.621 141.459 210.252 142.453 208.116C143.446 205.98 145.056 201.902 146.03 199.054C147.003 196.206 148.674 191.692 149.744 189.022C150.813 186.352 153.205 179.798 155.059 174.459C171.37 127.487 179.178 112.631 196.751 95.1313C210.375 81.56 232.678 68.6327 242.465 68.6327C242.721 68.6306 242.966 68.5274 243.146 68.3455C243.326 68.1637 243.427 67.9179 243.427 67.6618C243.427 66.4984 241.965 66.5016 236.612 67.678ZM261.065 78.7881C261.688 78.9499 262.707 78.9499 263.33 78.7881C263.953 78.6247 263.444 78.492 262.198 78.492C260.952 78.492 260.442 78.6247 261.065 78.7881ZM221.259 86.1523C219.924 86.8578 218.832 87.5778 218.832 87.7558C218.832 88.0438 223.943 85.6539 224.604 85.0584C225.348 84.3836 223.403 85.0212 221.259 86.1523ZM295.208 89.5455C295.208 89.696 296.445 90.6361 297.958 91.6345C299.471 92.6329 300.368 93.0342 299.95 92.5293C299.146 91.5568 295.208 89.0795 295.208 89.5455ZM200.047 102.128L194.56 107.792L200.223 102.304C205.484 97.2073 206.181 96.4646 205.71 96.4646C205.613 96.4646 203.065 99.0132 200.047 102.128ZM311.065 102.29C313.179 104.426 315.054 106.173 315.232 106.173C315.41 106.173 313.826 104.426 311.713 102.29C309.599 100.154 307.724 98.4064 307.546 98.4064C307.368 98.4064 308.952 100.154 311.065 102.29ZM187.904 116.691C185.542 120.18 185.032 121.06 185.369 121.06C185.518 121.06 186.702 119.458 188.001 117.5C189.302 115.542 190.231 113.94 190.066 113.94C189.903 113.94 188.929 115.178 187.904 116.691ZM179.315 131.483C177.865 134.368 176.783 136.832 176.911 136.96C177.039 137.088 178.365 134.729 179.859 131.716C181.354 128.703 182.435 126.238 182.265 126.238C182.094 126.238 180.767 128.599 179.315 131.483ZM332.235 133.013C333.371 135.316 334.407 137.093 334.538 136.963C334.828 136.674 330.913 128.827 330.48 128.827C330.31 128.827 331.101 130.711 332.235 133.013ZM350.595 180.608C350.833 181.498 351.299 182.663 351.627 183.197C352.045 183.871 352.096 183.674 351.795 182.549C351.558 181.659 351.091 180.494 350.763 179.96C350.346 179.286 350.294 179.483 350.595 180.608ZM354.478 191.611C354.716 192.501 355.182 193.666 355.511 194.2C355.928 194.875 355.98 194.677 355.679 193.553C355.441 192.663 354.975 191.498 354.647 190.964C354.229 190.289 354.177 190.486 354.478 191.611ZM365.156 219.766C365.156 220.122 365.574 221.142 366.082 222.032C366.59 222.922 367.007 223.359 367.007 223.003C367.007 222.647 366.59 221.627 366.082 220.737C365.574 219.847 365.156 219.41 365.156 219.766ZM367.745 225.592C367.745 225.948 368.163 226.967 368.671 227.857C369.179 228.747 369.596 229.184 369.596 228.828C369.596 228.472 369.179 227.453 368.671 226.563C368.163 225.673 367.745 225.236 367.745 225.592ZM253.298 230.27C254.633 230.41 256.817 230.41 258.152 230.27C259.487 230.131 258.395 230.016 255.725 230.016C253.055 230.016 251.963 230.131 253.298 230.27ZM369.687 230.122C369.687 230.478 370.105 231.498 370.613 232.388C371.121 233.278 371.538 233.715 371.538 233.359C371.538 233.003 371.121 231.983 370.613 231.093C370.105 230.203 369.687 229.766 369.687 230.122ZM242.466 239.288C187.348 251.097 158.791 332.955 192.307 383.068C195.743 388.208 196.299 387.881 193.332 382.466C186.043 369.167 181.702 344.547 183.819 328.505C186.459 308.484 188.288 301.393 190.335 303.246C191.353 304.167 191.443 304.066 191.524 301.942C191.571 300.675 191.765 299.387 191.956 299.078C192.147 298.77 191.937 298.383 191.489 298.22C190.908 298.008 190.874 297.71 191.369 297.181C192.518 295.953 194.922 301.793 194.398 304.536C194.155 305.812 194.273 306.228 194.79 305.909C195.246 305.628 195.531 305.917 195.531 306.662C195.531 308.851 198.738 316.105 200.55 318.013C215.107 333.346 243.625 307.146 243.728 278.343C243.77 266.736 240.351 261.882 230.018 258.878C228.518 258.441 227.442 257.838 227.63 257.534C227.817 257.231 227.298 256.962 226.476 256.938C225.11 256.896 225.091 256.849 226.241 256.399C227.453 255.925 227.45 255.893 226.12 255.545C225.058 255.268 224.829 254.848 225.125 253.718C225.39 252.702 225.277 252.393 224.759 252.713C223.416 253.543 223.969 252.543 225.783 250.86C227.508 249.262 228.981 248.627 228.259 249.796C227.676 250.737 229.829 251.215 230.754 250.351C231.453 249.697 231.434 249.432 230.638 248.849C229.858 248.28 230.72 247.632 235.092 245.508C243.308 241.514 244.916 240.875 248.69 240.11C250.601 239.721 253.039 239.166 254.107 238.875C257.743 237.883 247.288 238.254 242.466 239.288ZM261.55 239.508C262.084 239.852 263.686 240.111 265.11 240.08C267.356 240.033 267.486 239.957 266.081 239.508C263.628 238.721 260.335 238.721 261.55 239.508ZM255.725 241.449C255.725 241.805 256.381 242.092 257.181 242.087C258.359 242.079 258.452 241.957 257.667 241.449C256.411 240.639 255.725 240.639 255.725 241.449ZM241.162 243.344C240.039 243.788 240.154 243.919 242.036 244.336C243.435 244.647 244.466 244.548 244.948 244.058C245.516 243.48 245.246 243.411 243.816 243.763C242.479 244.093 242.071 244.014 242.398 243.485C242.916 242.648 242.927 242.65 241.162 243.344ZM376.16 245.009C376.16 245.365 376.577 246.385 377.085 247.275C377.593 248.165 378.011 248.602 378.011 248.246C378.011 247.89 377.593 246.87 377.085 245.98C376.577 245.09 376.16 244.653 376.16 245.009ZM200.686 254.233L197.149 257.954L200.87 254.417C204.328 251.129 204.888 250.511 204.408 250.511C204.307 250.511 202.633 252.186 200.686 254.233ZM221.223 258.278C222.016 258.278 222.066 258.471 221.463 259.199C220.833 259.958 220.961 260.063 222.193 259.799C223.015 259.623 221.985 260.43 219.908 261.592C217.83 262.755 214.092 265.592 211.602 267.899C208.16 271.085 206.94 271.88 206.524 271.207C205.099 268.899 217.476 255.535 219.325 257.385C219.817 257.877 220.67 258.278 221.223 258.278ZM128.321 259.924C127.237 262.304 127.444 262.812 128.616 260.649C129.164 259.637 129.491 258.689 129.342 258.542C129.195 258.393 128.736 259.016 128.321 259.924ZM122.462 274.53C122.064 275.675 121.851 276.725 121.99 276.862C122.129 277.001 122.567 276.178 122.967 275.035C123.365 273.891 123.579 272.841 123.44 272.704C123.3 272.564 122.862 273.388 122.462 274.53ZM202.65 279.092C202.65 279.427 202.186 280.598 201.62 281.696C201.052 282.793 199.44 287.074 198.037 291.212C196.634 295.348 195.602 297.723 195.741 296.49C196.01 294.118 194.788 292.165 193.524 292.946C192.013 293.88 195.845 285.304 199.217 280.209C200.68 278 202.65 277.357 202.65 279.092ZM117.583 289.069C117.344 290.018 117.274 290.919 117.427 291.071C117.58 291.223 117.899 290.573 118.137 289.623C118.376 288.675 118.446 287.773 118.294 287.621C118.14 287.469 117.821 288.12 117.583 289.069ZM111.538 319.12C111.538 320.366 111.671 320.875 111.834 320.252C111.996 319.629 111.996 318.61 111.834 317.987C111.671 317.364 111.538 317.874 111.538 319.12ZM110.941 325.916C110.944 328.052 111.066 328.848 111.21 327.685C111.354 326.521 111.35 324.774 111.203 323.801C111.056 322.829 110.938 323.78 110.941 325.916ZM400.247 325.916C400.252 327.696 400.378 328.348 400.527 327.364C400.676 326.379 400.673 324.922 400.519 324.128C400.365 323.332 400.242 324.136 400.247 325.916ZM169.888 332.388C169.888 336.66 169.993 338.324 170.121 336.084C170.247 333.846 170.246 330.351 170.118 328.317C169.99 326.285 169.886 328.117 169.888 332.388ZM341.396 332.712C341.396 336.094 341.506 337.478 341.638 335.787C341.771 333.739 341.771 331.685 341.638 329.638C341.506 327.947 341.396 329.33 341.396 332.712ZM110.347 340.479C110.347 345.285 110.449 347.251 110.574 344.848C110.698 341.937 110.698 339.021 110.574 336.11C110.449 333.707 110.347 335.673 110.347 340.479ZM400.954 340.479C400.954 344.573 401.059 346.248 401.189 344.201C401.317 341.721 401.317 339.237 401.189 336.757C401.059 334.711 400.954 336.385 400.954 340.479ZM110.925 354.395C110.93 356.175 111.056 356.827 111.205 355.843C111.354 354.858 111.35 353.402 111.197 352.607C111.043 351.811 110.92 352.615 110.925 354.395ZM400.239 354.719C400.239 356.321 400.365 356.976 400.519 356.175C400.674 355.21 400.674 354.227 400.519 353.262C400.365 352.461 400.239 353.117 400.239 354.719ZM111.551 360.868C111.558 362.292 111.69 362.798 111.846 361.992C112.001 361.188 111.994 360.023 111.833 359.403C111.671 358.785 111.543 359.444 111.551 360.868ZM119.525 394.201C119.763 395.091 120.229 396.256 120.558 396.79C120.975 397.465 121.027 397.268 120.726 396.143C120.488 395.253 120.022 394.088 119.694 393.554C119.276 392.879 119.224 393.077 119.525 394.201ZM312.664 403.101L308.476 407.47L312.845 403.282C315.248 400.978 317.214 399.012 317.214 398.913C317.214 398.436 316.556 399.043 312.664 403.101ZM121.789 399.703C121.789 400.059 122.207 401.078 122.715 401.968C123.223 402.858 123.64 403.295 123.64 402.939C123.64 402.583 123.223 401.564 122.715 400.674C122.207 399.784 121.789 399.347 121.789 399.703ZM387.223 403.614C386.139 405.994 386.346 406.502 387.517 404.339C388.066 403.327 388.393 402.379 388.244 402.232C388.097 402.083 387.637 402.706 387.223 403.614ZM128.863 414.266C129.59 415.69 130.33 416.855 130.508 416.855C130.686 416.855 130.237 415.69 129.511 414.266C128.784 412.842 128.045 411.677 127.867 411.677C127.689 411.677 128.137 412.842 128.863 414.266ZM379.674 418.15C379.122 419.218 378.815 420.091 378.993 420.091C379.171 420.091 379.77 419.218 380.321 418.15C380.873 417.082 381.181 416.208 381.003 416.208C380.825 416.208 380.226 417.082 379.674 418.15ZM368.598 434.138C367.226 435.813 366.441 436.975 366.854 436.719C367.734 436.176 371.834 431.095 371.393 431.095C371.228 431.095 369.97 432.465 368.598 434.138ZM130.483 436.92C131.542 438.708 141.061 450.271 142.244 451.206C142.888 451.714 142.467 450.965 141.312 449.541C139.42 447.179 137.555 444.795 135.716 442.391C132.36 438.007 129.127 434.627 130.483 436.92ZM147.31 440.156C148.7 441.58 149.983 442.745 150.161 442.745C150.339 442.745 149.347 441.58 147.957 440.156C146.568 438.732 145.284 437.567 145.106 437.567C144.928 437.567 145.92 438.732 147.31 440.156ZM362.815 440.965L360.257 443.716L363.007 441.158C365.566 438.777 366.056 438.214 365.566 438.214C365.461 438.214 364.223 439.452 362.815 440.965ZM353.116 450.674L349.253 454.719L353.299 450.857C355.524 448.731 357.344 446.91 357.344 446.812C357.344 446.333 356.705 446.917 353.116 450.674ZM158.314 451.159C159.704 452.583 160.987 453.748 161.165 453.748C161.343 453.748 160.351 452.583 158.961 451.159C157.571 449.735 156.288 448.57 156.11 448.57C155.932 448.57 156.924 449.735 158.314 451.159ZM165.99 457.485C166.501 458.313 170.288 461.116 170.288 460.666C170.288 460.506 169.218 459.559 167.912 458.562C166.605 457.566 165.739 457.08 165.99 457.485ZM342.457 459.653C340.201 461.63 340.2 461.632 342.276 460.252C343.422 459.49 344.532 458.588 344.742 458.248C345.365 457.239 344.847 457.558 342.457 459.653ZM173.524 463.046C173.524 463.224 174.398 463.991 175.466 464.752C176.534 465.512 177.408 465.988 177.408 465.81C177.408 465.632 176.534 464.865 175.466 464.104C174.398 463.344 173.524 462.868 173.524 463.046ZM184.527 470.234C184.527 470.412 186.275 471.441 188.411 472.519C190.547 473.596 192.294 474.334 192.294 474.156C192.294 473.978 190.547 472.949 188.411 471.872C186.275 470.794 184.527 470.056 184.527 470.234ZM319.156 473.813C315.774 475.558 313.232 476.999 313.505 477.017C314.193 477.063 325.629 471.287 325.629 470.894C325.629 470.454 325.964 470.304 319.156 473.813ZM195.531 476.079C196.421 476.587 197.44 477.004 197.796 477.004C198.152 477.004 197.715 476.587 196.825 476.079C195.935 475.571 194.916 475.153 194.56 475.153C194.204 475.153 194.641 475.571 195.531 476.079ZM241.979 488.511C242.783 488.666 243.948 488.66 244.568 488.498C245.186 488.336 244.528 488.208 243.104 488.216C241.68 488.223 241.173 488.355 241.979 488.511ZM268.185 488.5C268.808 488.661 269.827 488.661 270.45 488.5C271.073 488.336 270.563 488.203 269.317 488.203C268.072 488.203 267.562 488.336 268.185 488.5ZM252.031 489.181C254.448 489.305 258.235 489.305 260.445 489.179C262.654 489.053 260.677 488.951 256.049 488.951C251.421 488.953 249.612 489.056 252.031 489.181Z" fill="#A98A68"/>
<path fill-rule="evenodd" clip-rule="evenodd" d="M248.929 78.7545C218.855 82.1526 195.786 99.8987 179.701 132.012C174.566 142.261 170.141 153.47 162.23 176.252C153.746 200.689 147.776 215.927 135.045 245.657C113.946 294.926 108.148 321.601 111.346 354.719C121.367 458.547 228.486 519.319 320.273 473.251C362.88 451.867 391.153 412.542 399.21 363.457C400.644 354.722 400.838 327.102 399.524 318.797C396.676 300.785 393.555 288.643 387.823 273.269C383.848 262.605 382.498 259.377 371.935 235.301C362.692 214.233 357.131 199.653 346.875 169.605C332.079 126.25 319.231 105.895 297.481 91.3517C283.298 81.8695 264.513 76.9956 248.929 78.7545ZM261.468 93.2433C295.017 96.7773 314.394 118.81 333.716 175.394C343.715 204.671 349.818 220.749 357.69 238.537C359.737 243.165 362.703 249.864 364.281 253.424C391.344 314.52 393.636 359.485 371.89 402.708C327.049 491.832 202.562 499.16 147.382 415.927C117.322 370.585 117.448 320.732 147.797 252.129C159.425 225.846 164.681 212.755 172.222 191.288C175.097 183.1 178.947 172.177 180.777 167.016C199.041 115.486 218.924 95.4165 254.431 92.6786C254.965 92.6381 258.132 92.8922 261.468 93.2433ZM309.42 253.262C311.007 254.953 312.391 256.337 312.494 256.337C312.981 256.337 312.467 255.756 309.609 253.073L306.535 250.188L309.42 253.262ZM341.313 324.945C341.313 326.191 341.446 326.701 341.609 326.078C341.771 325.455 341.771 324.436 341.609 323.813C341.446 323.19 341.313 323.699 341.313 324.945Z" fill="#C4D373"/>
</svg>
