<svg height="512" width="512" viewBox="0 0 512 512" xmlns="http://www.w3.org/2000/svg">
    <path
        d="M11.938 229.128c-.557-9.999 10.382-16.265 18.826-10.882 55.258 35.227 239.674 3.243 332.021-177.051 4.039-7.886 15.272-7.964 19.487-.171 23.09 42.69 45.671 163.753-78.395 253.264-179.281 129.347-288.083 4.045-291.939-65.16z"
        fill="#ffca28" />
    <path
        d="M13.265 318.731c-.499-2.353-1.424-4.609-.857-6.664 2.145-7.768 10.965-12.652 19.293-8.991 68.905 30.296 272.634-38.356 345.838-259.213 3.202-9.66 15.939-11.719 22.091-3.611 33.698 44.41 80.564 177.873-44.569 301.241-115.413 113.784-216.429 104.774-278.703 63.116-.339-.227-.677-1.48-1.014-1.709-8.507-5.778-15.191-11.138-22.071-17.898-21.198-20.828-35.541-45.206-40.008-66.271z"
        fill="#ffd54f" />
    <path
        d="M355.06 341.493c125.133-123.368 78.267-256.831 44.569-301.241-2.662-3.508-6.557-5.109-10.379-5.018-4.505 10.201-5.674 23.007-3.945 38.841 13.414 122.817-152.256 276.797-243.51 297.184-96.991 21.668-129.38-59.189-129.38-59.189-.568 2.055-.675 4.308-.176 6.662 16.516 77.88 161.998 201.033 342.821 22.761z"
        fill="#ffca28" />
    <path
        d="M68.199 429.296c-6.795-7.402-4.653-19.565 4.569-23.555 2.794-1.209 6.034-1.599 9.431-.835 73.482 16.528 291.97-103.495 311.024-299.484l61.112 14.398c3.361.792 6.718.544 9.756-.509 0 0 73.696 226.135-115.244 327.192-168.532 90.138-262.347 2.728-280.648-17.207z"
        fill="#ffd54f" />
    <path
        d="M464.091 119.31a17.454 17.454 0 01-9.756.509l-7.286-1.717c12.845 58.705 32.919 223.646-120.759 305.842-135.346 72.391-222.501 30.27-261.057.549a15.05 15.05 0 002.966 4.802C86.5 449.231 180.315 536.641 348.846 446.5c188.94-101.055 115.245-327.19 115.245-327.19z"
        fill="#ffca28" />
    <path
        d="M479.886 84.591l-5.464 22.166c-2.223 9.437-10.651 14.26-20.088 12.036l-15.672-2.667-68.374-16.109c-25.339-5.97-41.04-31.35-35.071-56.689l4.861-20.632c2.49-10.569 13.076-17.118 23.645-14.628l82.508 19.438c25.057 5.905 39.559 32.028 33.655 57.085z"
        fill="#b67f5f" />
    <path
        d="M446.232 27.508s23.314 7.722 14.044 51.93l-5.464 23.192c-1.83 7.769-8.562 13.093-16.149 13.497l15.672 3.692c9.437 2.223 18.89-3.625 21.113-13.062l5.464-23.192c5.903-25.056-9.624-50.154-34.68-56.057z"
        fill="#a06e50" />
    <path
        d="M482.75 108.434l5.464-23.192c6.842-29.042-11.22-58.235-40.261-65.078L397.246 8.218c-4.022-.949-8.069 1.548-9.02 5.581a7.5 7.5 0 005.58 9.02l50.707 11.946c20.99 4.945 34.045 26.046 29.1 47.038l-5.464 23.191c-.807 3.424-3.289 6.02-6.371 7.14l-.006.002-.005.002a9.987 9.987 0 01-5.711.338l-84.047-19.801c-21.272-5.012-34.502-26.396-29.49-47.669l4.86-20.631c1.538-6.527 8.098-10.587 14.626-9.048a7.503 7.503 0 009.02-5.581 7.5 7.5 0 00-5.58-9.02c-14.572-3.432-29.231 5.63-32.665 20.209l-4.86 20.631c-3.025 12.84-1.229 25.708 4.208 36.7-25.258 37.328-56.203 68.632-92.069 93.055a7.502 7.502 0 004.228 13.7 7.46 7.46 0 004.214-1.301c35.897-24.445 67.06-55.456 92.77-92.259a54.68 54.68 0 006.379 5.812c-42.687 87.122-103.41 136.744-147.284 163.159-49.908 30.048-104.855 45.66-144.221 41.102-21.391-21.488-35.4-49.208-36.718-72.866-.144-2.58 1.536-3.851 2.265-4.277.757-.443 2.765-1.315 5.042.136 18.138 11.563 46.797 16.103 80.702 12.782 46.384-4.543 86.407-21.943 111.814-35.741a7.5 7.5 0 00-7.158-13.182c-56.843 30.868-138.701 48.094-177.294 23.492-6.324-4.032-14.248-4.198-20.681-.434-6.375 3.73-10.078 10.649-9.666 18.058 1.172 21.037 10.828 44.62 26.205 65.336-6.403-1.433-13.137.081-18.335 4.308-6.255 5.087-9.097 13.171-7.417 21.096 6.283 29.627 27.987 60.842 57.668 83.646-2.645 2.836-4.505 6.385-5.357 10.386a22.698 22.698 0 005.461 20.049c10.242 11.157 39.27 38.56 87.494 52.033 18.445 5.153 37.523 7.724 57.199 7.724 45.411 0 93.969-13.707 145.016-41.01a7.5 7.5 0 003.076-10.15 7.496 7.496 0 00-10.15-3.076c-69.641 37.248-133.939 48.036-191.105 32.065-44.505-12.434-71.108-37.521-80.48-47.729a7.675 7.675 0 01-1.839-6.78c.276-1.295 1.145-3.644 3.861-4.82 1.496-.648 3.113-.784 4.807-.401 18.502 4.16 44.16.717 74.2-9.963 30.479-10.836 62.605-28.151 92.906-50.073 39.753-28.761 74.315-64.128 99.949-102.276 28.619-42.592 46.127-88.052 52.12-135.251l52.888 12.46c1.925.453 3.85.67 5.746.67.125 0 .247-.014.372-.016 4.117 15.207 13.812 56.953 11.714 106.361-1.535 36.145-8.996 69.284-22.176 98.496-16.395 36.338-41.797 66.758-75.501 90.414a7.498 7.498 0 004.316 13.639 7.466 7.466 0 004.302-1.362c36.018-25.279 63.161-57.842 80.675-96.784 13.956-31.033 21.826-66.109 23.392-104.254 2.157-52.573-8.149-95.807-12.446-111.265 4.722-3.404 8.3-8.441 9.738-14.541zM335.159 241.502c-24.658 36.697-57.955 70.754-96.291 98.489-29.162 21.098-59.985 37.728-89.139 48.092-26.975 9.591-50.373 12.951-65.882 9.462a23.36 23.36 0 00-5.294-.572c-30-20.733-53.035-51.833-58.975-79.841-.743-3.504 1.296-5.606 2.207-6.347 1.958-1.592 4.536-1.924 6.899-.885 6.637 2.918 14.362 5.005 22.96 6.202 6.059.839 12.221 1.188 18.334 1.187 40.609-.001 91.685-16.046 138.125-44.006 45.462-27.371 108.307-78.671 152.575-168.508a54.833 54.833 0 007.892 2.5l16.47 3.88c-5.504 45.425-22.263 89.245-49.881 130.347z" />
</svg>