<svg width="512" height="512" viewBox="0 0 512 512" fill="none" xmlns="http://www.w3.org/2000/svg">
<path fill-rule="evenodd" clip-rule="evenodd" d="M350.164 177.289C326.033 181.078 303.841 194.023 290.485 212.098C286.318 217.735 286.274 217.461 291.6 218.899C345.866 233.551 380.732 291.274 369.387 347.68C368.734 350.927 368.199 353.78 368.199 354.019C368.199 355.246 385.038 352.694 392.139 350.389C453.982 330.317 474.517 256.856 432.132 207.318C413.066 185.034 379.393 172.698 350.164 177.289ZM137.1 177.612C124.254 179.295 106.356 185.798 99.8068 191.165L98.2784 192.416L100.418 191.226C107.886 187.071 111.126 185.474 116.085 183.506C123.904 180.401 124.491 180.793 117.231 184.27C68.6574 207.537 48.1627 264.499 71.3948 311.666C74.5831 318.137 74.4012 318.419 70.7116 312.716C67.6288 307.95 65.8038 304.119 62.7103 295.923C61.5685 292.897 60.8013 291.246 61.0045 292.255C63.69 305.555 78.8872 327.343 91.4616 335.917C92.1845 336.411 92.9136 336.98 93.0817 337.183C94.4252 338.803 107.424 346.123 112.768 348.267C125.139 353.23 151.162 357.288 151.162 354.253C151.162 353.884 150.63 350.927 149.979 347.68C139.182 293.788 167.86 241.91 219.466 221.982C225.616 219.607 225.837 219.237 223.342 215.471C205.976 189.252 169.723 173.338 137.1 177.612ZM369.893 186.503C377.626 188.8 380.969 195.959 377.023 201.775C369.636 212.66 337.577 219.263 329.233 211.618C316.818 200.239 349.068 180.319 369.893 186.503ZM93.3874 195.459C80.304 205.073 65.2964 225.658 62.2655 238.148C61.8009 240.067 62.0851 239.477 65.6433 231.167C71.4208 217.672 82.6685 203.802 95.0687 194.882C97.5646 193.086 98.4388 192.268 97.8198 192.305C97.7358 192.309 95.7412 193.729 93.3874 195.459ZM112.679 209.937C116.714 212.527 127.983 224.495 129.747 228.061C134.227 237.124 130.742 248.141 119.982 258.937C107.956 271.002 97.0892 271.759 82.4912 261.546C77.3756 257.968 72.8988 253.231 77.452 256.214C78.3858 256.826 80.7182 257.275 83.7185 257.419L88.4964 257.65L83.6849 257.092C74.1383 255.985 72.0704 252.057 76.5426 243.525C77.5483 241.606 78.0358 240.164 77.6262 240.322C77.079 240.533 76.9369 239.694 77.0928 237.176C77.3297 233.366 78.5845 233.369 78.6686 237.181C78.6961 238.46 78.9361 239.082 79.2739 238.748C79.6116 238.411 79.3304 236.427 78.5647 233.737C74.979 221.149 76.8666 217.976 87.9431 217.975C92.9564 217.973 93.6182 217.837 94.6682 216.598C95.8313 215.224 95.8313 215.224 94.5627 216.292C93.2223 217.42 91.2476 217.736 91.2476 216.822C91.2476 215.408 99.8786 209.007 100.918 209.651C101.204 209.828 102.419 209.672 103.614 209.305C106.51 208.416 108.774 209.069 110.999 211.436C112.215 212.729 112.598 212.94 112.134 212.06C111.747 211.329 110.704 210.16 109.816 209.461C107.386 207.551 109.512 207.902 112.679 209.937ZM417.586 209.143C418.333 209.668 419.212 209.932 419.537 209.73C421.012 208.819 428.697 215.115 428.717 217.25C428.729 218.598 426.127 217.415 424.445 215.308C422.354 212.686 419.203 209.434 420.216 210.942C420.667 211.615 422.238 213.61 423.705 215.375L426.374 218.585L430.148 218.588C441.71 218.598 445.174 223.923 440.376 234.318L438.334 238.741L440.272 243.076C444.94 253.515 442.881 257.906 433.321 257.893C428.635 257.887 428.554 257.91 431.476 258.411C433.157 258.7 435.014 258.824 435.603 258.687C437.455 258.256 436.78 259.36 433.463 262.186C418.208 275.182 401.468 267.65 391.133 243.142C384.31 226.965 388.52 216.125 403.79 210.553C408.941 208.673 409.137 208.706 407.38 211.173C406.737 212.075 405.554 214.456 404.751 216.463C403.481 219.638 402.901 220.325 400.288 221.75C390.357 227.161 390.288 234.014 400.091 241.427C402.56 243.292 402.966 243.506 401.213 242.015C390.953 233.294 390.889 226.571 401.025 222.025C403.199 221.05 403.781 220.371 404.953 217.44C408.333 208.986 412.991 205.926 417.586 209.143ZM98.0751 212.318L95.7794 214.611L97.9452 212.778C99.1373 211.771 100.374 210.739 100.693 210.485C101.013 210.232 101.071 210.025 100.823 210.025C100.574 210.025 99.3376 211.057 98.0751 212.318ZM112.656 213.81C112.831 217.061 115.916 222.213 118.995 224.393C126.048 229.389 126.836 234.12 121.59 239.981L119.676 242.119L121.718 240.287C127.603 235.004 126.701 228.897 119.306 223.957C116.222 221.895 115.806 221.346 114.784 217.967C113.913 215.089 112.584 212.497 112.656 213.81ZM411.996 217.209C411.437 218.47 410.627 220.74 410.196 222.253C409.473 224.798 409.06 225.204 404.703 227.663C398.58 231.119 398.522 230.945 408.681 239.371C409.476 240.03 409.959 241.752 410.397 245.485C411.48 254.711 411.547 254.762 418.234 251.599C422.674 249.497 423.796 249.404 428.856 250.715C435.95 252.554 437.11 251.227 434.187 244.621C432.327 240.415 432.13 241.526 433.926 246.107C435.931 251.227 435.934 251.22 432.595 250.763C429.121 250.286 429.049 250.222 429.986 248.47C431.371 245.882 432.369 241.078 431.757 239.938C431.332 239.143 431.739 237.687 433.306 234.378C437.432 225.667 437.402 225.618 427.343 224.755C422.866 224.37 422.367 224.189 421.176 222.529C416.031 215.36 413.476 213.879 411.996 217.209ZM101.031 219.595L96.6429 223.966L91.0412 224.376C82.025 225.036 82.4591 224.4 85.2103 232.898C86.9481 238.266 87.0352 238.896 86.1717 239.85C84.9275 241.225 81.4656 248.222 81.4656 249.359C81.4656 251.122 84.4568 251.427 90.1609 250.249L93.7328 249.512L98.7812 252.083C105.343 255.427 104.985 255.583 106.541 248.695C108.201 241.344 108.238 241.271 111.191 239.269C112.514 238.373 114.827 236.518 116.331 235.147L119.065 232.654L117.537 231.397C116.696 230.705 114.637 229.259 112.962 228.183C111.16 227.026 109.742 225.602 109.489 224.698C106.547 214.152 106.515 214.132 101.031 219.595ZM415.599 217.852C415.437 218.014 414.941 217.846 414.498 217.479C413.853 216.943 413.742 217.227 413.939 218.921C414.075 220.081 413.95 221.03 413.661 221.03C413.372 221.03 413.172 220.136 413.216 219.043C413.372 215.198 413.343 215.25 414.666 216.448C415.342 217.059 415.761 217.69 415.599 217.852ZM103.169 219.196C102.961 219.532 103.082 219.807 103.438 219.807C103.794 219.807 104.086 220.111 104.086 220.484C104.086 220.856 103.643 220.99 103.101 220.782C102.396 220.512 102.217 220.668 102.471 221.328C102.682 221.88 102.483 222.253 101.977 222.253C101.511 222.253 100.626 222.432 100.01 222.65C99.2917 222.905 99.6448 222.248 100.996 220.816C103.068 218.621 103.914 217.992 103.169 219.196ZM419.252 221.033C420.8 222.745 420.149 223.051 417.404 221.903C415.623 221.16 415.273 220.795 415.933 220.376C417.259 219.537 418.037 219.691 419.252 221.033ZM255.583 222.708C258.372 222.821 262.774 222.821 265.365 222.707C267.955 222.592 265.672 222.499 260.292 222.5C254.912 222.5 252.793 222.595 255.583 222.708ZM245.772 223.295C246.528 223.442 247.766 223.442 248.523 223.295C249.28 223.15 248.661 223.031 247.147 223.031C245.634 223.031 245.015 223.15 245.772 223.295ZM272.519 223.41C274.268 223.676 272.263 223.998 265.489 224.539C212.318 228.798 169.15 266.336 160.551 315.793C159.394 322.444 158.933 344.643 159.825 350.641L160.235 353.392L159.414 350.947C158.962 349.602 158.572 349.019 158.546 349.652C158.398 353.271 166.79 372.623 171.967 380.598C204.573 430.828 273.727 443.516 321.421 408.015C382.195 362.781 375.409 269.77 308.769 234.604C297.706 228.767 278.211 222.624 271.781 222.951C270.488 223.017 270.667 223.129 272.519 223.41ZM92.1646 227.401C90.4834 228.874 88.9014 229.951 88.6493 229.797C88.3971 229.643 88.1907 229.945 88.1907 230.47C88.1907 230.994 87.778 231.423 87.2737 231.423C86.7693 231.423 86.3566 231.698 86.3566 232.035C86.3566 232.371 86.6225 232.646 86.9481 232.646C87.2752 232.646 87.3592 233.118 87.1376 233.696C86.6669 234.927 85.5328 232.561 84.5959 228.388C83.9738 225.625 84.0701 225.556 89.1078 225.117C95.7534 224.538 95.5807 224.409 92.1646 227.401ZM234.003 225.31C232.445 225.979 234.052 225.979 236.143 225.31C237.372 224.917 237.431 224.816 236.448 224.802C235.776 224.793 234.675 225.021 234.003 225.31ZM434.972 227.939C434.33 231.575 431.604 235.989 431.105 234.205C430.826 233.213 430.729 232.273 430.885 232.116C431.042 231.96 431.17 232.152 431.17 232.544C431.17 232.936 431.418 233.257 431.722 233.257C432.419 233.257 433.616 229.884 433.616 227.919C433.616 226.992 433.905 226.531 434.38 226.697C434.8 226.844 435.066 227.404 434.972 227.939ZM433.004 227.977C433.004 228.477 432.453 228.753 431.629 228.666C429.611 228.455 429.512 228.336 430.865 227.755C432.624 226.999 433.004 227.038 433.004 227.977ZM101.794 235.332C103.402 236.551 103.186 239.743 101.418 240.901C97.9788 243.156 94.3702 238.671 97.1504 235.597C98.3318 234.292 100.278 234.181 101.794 235.332ZM204.908 237.566C202.08 239.263 199.353 241.069 198.849 241.581C198.345 242.092 200.408 240.982 203.434 239.114C210.849 234.538 210.821 234.557 210.41 234.517C210.211 234.497 207.735 235.868 204.908 237.566ZM421.266 235.214C422.461 236.409 422.173 239.847 420.817 240.573C417.115 242.553 413.346 238.33 416.236 235.442C417.372 234.304 420.227 234.175 421.266 235.214ZM440.558 239.293C440.899 241.078 440.829 241.253 440.035 240.594C439.086 239.807 438.813 238.048 439.526 237.334C440.058 236.8 440.096 236.872 440.558 239.293ZM60.4176 243.389C60.1914 244.285 60.1257 245.136 60.2694 245.28C60.4146 245.424 60.7157 244.809 60.9403 243.912C61.1665 243.016 61.2323 242.165 61.0886 242.021C60.9434 241.878 60.6423 242.492 60.4176 243.389ZM86.7356 245.026C87.0902 246.792 87.5916 248.718 87.8499 249.306C88.261 250.237 87.9615 250.376 85.5404 250.376C81.86 250.376 81.5971 249.688 83.6391 245.415C85.7406 241.017 85.9286 240.993 86.7356 245.026ZM115.397 244.516C114.388 245.324 113.7 246.095 113.868 246.226C114.036 246.358 114.995 245.694 115.999 244.751C118.235 242.654 117.888 242.518 115.397 244.516ZM188.141 250.498C182.136 256.231 176.725 262.351 173.249 267.341C170.425 271.396 172.526 269.142 176.791 263.542C179.215 260.36 184.378 254.72 188.263 251.009C192.148 247.298 195.181 244.262 195 244.262C194.82 244.262 191.733 247.068 188.141 250.498ZM403.813 250.07C403.819 251.415 403.944 251.894 404.091 251.132C404.238 250.373 404.232 249.272 404.079 248.687C403.926 248.103 403.805 248.725 403.813 250.07ZM265.183 249.702C266.192 250.336 268.805 252.548 270.991 254.614C276.418 259.747 279.199 261.277 285.483 262.583C297.274 265.037 299.947 268.734 297.213 278.805C295.423 285.404 295.426 290.577 297.225 295.749C300.875 306.242 297.962 311.227 285.649 315.56C278.7 318.006 277.042 318.947 272.759 322.877C264.743 330.232 258.829 330.051 248.925 322.149C243.693 317.975 239.796 315.912 232.193 313.288C224.472 310.622 222.532 307.244 223.831 298.717C224.907 291.645 224.712 287.581 223.09 283.251C218.546 271.127 222.616 264.1 235.615 261.634C242.574 260.314 243.909 259.655 248.749 255.146C256.054 248.342 260.621 246.828 265.183 249.702ZM112.37 252.639C111.186 259.649 106.816 262.559 100.8 260.343C98.9188 259.65 97.5172 259.303 97.6838 259.574C98.5275 260.939 104.253 262.136 106.591 261.436C110.009 260.412 114.842 252.367 113.09 250.617C112.913 250.439 112.589 251.349 112.37 252.639ZM58.3756 253.433C58.3756 254.61 58.501 255.091 58.6553 254.503C58.8082 253.914 58.8082 252.951 58.6553 252.363C58.501 251.774 58.3756 252.256 58.3756 253.433ZM257.235 252.341C256.563 252.73 255.737 253.358 255.401 253.735C250.707 259.012 250.618 259.151 253.879 256.109C255.725 254.385 257.785 252.675 258.458 252.306C259.13 251.938 259.405 251.635 259.069 251.635C258.733 251.635 257.908 251.953 257.235 252.341ZM264.572 252.73C266.801 254.099 270.639 258.223 273.334 262.145L275.329 265.049H279.856C294.073 265.049 297.388 269.553 292.132 281.733C290.857 284.688 289.962 287.576 290.144 288.153C290.326 288.727 291.45 291.536 292.644 294.395C295.435 301.078 295.536 304.18 293.048 306.669C292.065 307.652 291.49 308.456 291.77 308.456C292.051 308.456 292.993 307.609 293.862 306.575C296.38 303.585 295.745 298.775 291.765 290.642L290.378 287.807L292.577 282.378C297.891 269.249 295.42 265.202 281.69 264.557L275.576 264.271L273.181 260.983C270.373 257.13 264.688 251.597 263.538 251.6C263.098 251.602 263.563 252.111 264.572 252.73ZM404.533 254.35C404.773 255.359 405.231 256.453 405.552 256.782C405.875 257.11 405.814 256.422 405.418 255.253C404.493 252.516 403.972 251.984 404.533 254.35ZM57.7887 258.324C57.7887 259.837 57.9079 260.456 58.0531 259.699C58.1999 258.943 58.1999 257.705 58.0531 256.948C57.9079 256.192 57.7887 256.811 57.7887 258.324ZM91.1757 256.94C92.6492 257.072 94.575 257.607 95.4553 258.13L97.0556 259.08L95.5272 257.798C94.4175 256.869 93.2452 256.543 91.2476 256.61L88.4964 256.704L91.1757 256.94ZM419.86 258.203C415.524 260.395 411.076 260.682 408.114 258.961L405.798 257.616L407.191 259.039C409.312 261.208 415.554 261.069 420.293 258.747C422.94 257.449 424.344 257.115 426.101 257.361C427.927 257.618 428.095 257.572 426.891 257.148C424.539 256.321 423.177 256.526 419.86 258.203ZM211.015 259.822C218.286 263.58 214.734 275.298 203.046 286.12C194.832 293.724 187.74 294.405 185.003 287.855C180.61 277.34 201.455 254.877 211.015 259.822ZM257.882 261.683C256.607 263.239 255.82 264.739 256.069 265.141C256.333 265.568 256.24 265.685 255.832 265.432C255.441 265.191 254.111 266.435 252.662 268.395L250.166 271.774L244.835 271.82C232.794 271.922 232.591 272.153 236.503 281.383C239.3 287.981 239.305 288.61 236.598 294.7C233.243 302.249 233.251 302.161 235.961 302.914C237.237 303.269 240.774 303.561 243.818 303.562C249.999 303.565 249.772 303.431 255.198 310.29C256.394 311.803 258.248 313.977 259.315 315.119L261.258 317.197L263.11 315.424C264.13 314.451 266.146 311.86 267.592 309.667C271.145 304.277 271.09 304.308 278.489 303.607C289.742 302.541 289.635 302.708 285.056 293.384C282.136 287.443 282.168 287.899 284.356 283.526C289.645 272.946 289.36 272.248 279.516 271.748C274.32 271.485 271.932 271.12 271.376 270.505C270.942 270.025 268.738 267.227 266.476 264.285C261.707 258.079 261.009 257.867 257.882 261.683ZM248.517 261.948C247.129 263.939 246.423 264.392 244.396 264.592L241.951 264.835L244.431 264.942C246.723 265.041 247.06 264.839 248.852 262.298C249.918 260.784 250.657 259.546 250.492 259.546C250.327 259.546 249.439 260.627 248.517 261.948ZM263.722 262.247L264.335 263.52L263.214 262.247C261.946 260.803 259.746 260.485 260.258 261.819C260.437 262.285 260.312 262.499 259.979 262.293C259.647 262.088 259.375 262.256 259.375 262.669C259.375 263.082 259.214 263.259 259.02 263.063C258.464 262.507 259.977 260.08 260.628 260.482C260.948 260.681 261.209 260.517 261.209 260.12C261.209 259.123 262.915 260.567 263.722 262.247ZM57.2339 267.189C57.2354 270.551 57.3378 271.849 57.4616 270.073C57.5854 268.295 57.5854 265.544 57.4586 263.959C57.3332 262.373 57.2324 263.826 57.2339 267.189ZM233.392 265.645C232.653 265.954 233.622 266.024 235.837 265.824C237.855 265.64 239.62 265.391 239.761 265.27C240.28 264.818 234.568 265.154 233.392 265.645ZM228.898 267.817C225.655 270.545 225.775 273.467 229.526 282.954C230.561 285.574 231.518 287.607 231.652 287.474C231.785 287.339 231.082 285.197 230.089 282.711C226.255 273.119 226.297 269.857 230.286 267.424C231.322 266.793 231.846 266.275 231.452 266.273C231.058 266.273 229.908 266.967 228.898 267.817ZM254.918 268.106C254.738 268.798 254.906 269.347 255.305 269.371C256.176 269.425 253.879 270.449 252.757 270.508C252.236 270.536 252.453 269.908 253.368 268.751C255.066 266.6 255.341 266.486 254.918 268.106ZM269.626 269.94C270.487 271.318 270.227 271.451 268.489 270.521C267.829 270.168 267.45 269.617 267.647 269.298C268.198 268.407 268.788 268.599 269.626 269.94ZM57.7887 276.053C57.7887 277.567 57.9079 278.186 58.0531 277.429C58.1999 276.673 58.1999 275.434 58.0531 274.678C57.9079 273.921 57.7887 274.54 57.7887 276.053ZM165.424 281.282C163.556 285.168 162.127 288.444 162.249 288.567C162.372 288.689 164.033 285.51 165.942 281.504C167.849 277.498 169.277 274.219 169.115 274.219C168.953 274.219 167.292 277.397 165.424 281.282ZM59.5602 286.752C59.551 287.425 59.7787 288.525 60.0676 289.198C60.7371 290.755 60.7371 289.149 60.0676 287.058C59.6748 285.829 59.5739 285.77 59.5602 286.752ZM263.149 286.847C265.424 288.908 263.847 293.172 260.809 293.172C259.01 293.172 256.929 291.148 256.929 289.398C256.929 286.321 260.809 284.73 263.149 286.847ZM229.442 292.694C224.889 302.876 226.423 309.781 233.214 309.665C233.648 309.658 232.87 309.138 231.486 308.51C226.002 306.018 225.781 300.861 230.746 291.13C231.408 289.834 231.831 288.657 231.689 288.513C231.545 288.371 230.535 290.251 229.442 292.694ZM239.184 299.173C238.894 299.278 238.805 299.828 238.986 300.395C239.226 301.144 239.161 301.211 238.75 300.64C238.128 299.778 235.942 300.302 236.488 301.184C236.675 301.485 236.398 301.731 235.874 301.731C235.349 301.731 234.923 301.662 234.926 301.578C234.957 300.872 236.832 295.391 237.417 294.298C238.119 292.989 238.202 293.079 238.935 295.946C239.362 297.615 239.473 299.067 239.184 299.173ZM157.581 304.177C157.346 305.567 157.282 306.833 157.439 306.989C157.597 307.146 157.907 306.128 158.132 304.727C158.356 303.325 158.419 302.06 158.274 301.915C158.129 301.768 157.817 302.786 157.581 304.177ZM156.807 309.679C156.807 310.856 156.932 311.337 157.086 310.749C157.239 310.16 157.239 309.197 157.086 308.609C156.932 308.021 156.807 308.502 156.807 309.679ZM235.837 310.289C236.846 310.546 239.597 310.787 241.951 310.824C245.981 310.886 246.331 311.007 247.97 312.883L249.709 314.876L248.352 312.84C246.707 310.373 246.979 310.46 239.811 310.107C236.546 309.945 234.807 310.024 235.837 310.289ZM279.446 310.234C277.204 310.432 275.257 310.734 275.119 310.902C274.982 311.07 274.075 312.308 273.103 313.653C269.028 319.297 266.305 322.149 263.982 323.204C262.624 323.82 261.872 324.33 262.309 324.338C264.727 324.379 268.784 320.742 273.371 314.417C275.903 310.926 275.943 310.902 279.111 310.867C280.866 310.847 283.402 310.604 284.747 310.325C287.736 309.706 285.757 309.673 279.446 310.234ZM156.207 314.264C156.213 315.609 156.339 316.088 156.486 315.327C156.632 314.567 156.626 313.466 156.473 312.881C156.32 312.297 156.2 312.919 156.207 314.264ZM251.506 317.627C254.322 321.164 258.49 324.367 260.186 324.297C261.114 324.259 260.882 324.06 259.418 323.64C258.122 323.267 255.795 321.48 253.319 318.957C250.452 316.031 249.938 315.655 251.506 317.627ZM155.679 325.269C155.68 329.64 155.778 331.349 155.896 329.064C156.013 326.781 156.013 323.204 155.894 321.116C155.775 319.03 155.679 320.898 155.679 325.269ZM156.207 336.274C156.213 337.619 156.339 338.097 156.486 337.336C156.632 336.576 156.626 335.476 156.473 334.89C156.32 334.307 156.2 334.929 156.207 336.274ZM157.398 344.221C157.398 344.894 157.618 346.132 157.887 346.973C158.275 348.183 158.376 348.246 158.376 347.278C158.376 346.606 158.156 345.368 157.887 344.527C157.499 343.317 157.398 343.254 157.398 344.221Z" fill="#424C92"/>
<path fill-rule="evenodd" clip-rule="evenodd" d="M248.982 75.6106C247.132 75.9163 245.532 76.4191 245.427 76.7278C245.321 77.0366 244.892 77.1573 244.474 76.9968C244.056 76.8364 243.068 77.2643 242.28 77.9491C241.492 78.6323 240.447 79.1917 239.956 79.1917C238.009 79.1917 232.678 85.5744 231.894 88.8468C230.983 92.6419 232.242 98.9252 234.246 100.59C234.449 100.758 235.143 101.858 235.791 103.035C236.438 104.212 237.126 105.313 237.32 105.481C237.755 105.86 238.437 107.072 242.402 114.53C244.137 117.791 245.777 120.551 246.049 120.664C246.321 120.777 246.402 121.098 246.229 121.379C246.055 121.659 246.348 122.324 246.88 122.856C247.412 123.386 247.683 123.822 247.481 123.822C247.281 123.822 247.592 124.716 248.175 125.809C248.757 126.902 249.176 128.002 249.107 128.254C249.038 128.506 249.303 128.713 249.695 128.713C250.087 128.713 250.227 128.893 250.006 129.115C249.784 129.336 249.909 129.887 250.284 130.338C250.658 130.788 250.762 131.158 250.515 131.158C250.267 131.158 250.515 131.846 251.065 132.687C251.617 133.527 251.889 134.215 251.672 134.215C251.455 134.215 251.56 134.559 251.906 134.979C252.253 135.4 253.235 138.357 254.091 141.552C259.222 160.71 259.827 180.663 255.977 203.759C254.206 214.383 254.872 213.499 248.033 214.274C244.997 214.618 241.043 215.178 239.246 215.518C234.535 216.413 234.706 216.487 231.996 212.318C221.884 196.757 203.891 182.144 186.927 175.717C158.763 165.045 129.215 166.402 103.284 179.561C95.266 183.629 87.5795 188.393 87.5795 189.294C87.5795 189.599 87.1531 189.85 86.6319 189.85C84.029 189.85 64.9572 211.416 62.3039 217.362C61.9279 218.202 61.4586 219.028 61.2584 219.196C61.0597 219.364 60.002 221.427 58.9107 223.781C57.8194 226.135 56.6456 228.577 56.3032 229.209C47.7333 244.994 46.5289 275.787 53.6285 297.595C59.357 315.189 73.3941 334.809 86.3323 343.304C87.1011 343.809 88.0625 344.539 88.4721 344.929C91.2584 347.589 103.304 354.016 111.908 357.436C121.991 361.444 133.862 363.616 145.813 363.64C153.112 363.655 154.219 363.787 154.222 364.638C154.231 367.587 164.675 387.195 166.939 388.517C167.509 388.848 167.753 389.128 167.481 389.139C166.022 389.194 185.158 410.179 186.72 410.234C186.941 410.243 187.728 411.02 188.47 411.963C189.211 412.906 189.937 413.559 190.082 413.413C190.226 413.268 191.089 413.887 191.999 414.789C195.193 417.953 209.553 426.096 217.19 429.075C218.031 429.404 219.269 429.911 219.942 430.203C237.373 437.789 268.324 439.36 288.415 433.679C302.879 429.59 326.015 418.356 326.015 415.422C326.015 415.06 326.261 414.914 326.56 415.101C326.861 415.286 328.512 414.12 330.228 412.507C331.946 410.895 333.351 409.721 333.351 409.896C333.351 410.522 342.055 401.617 346.156 396.799C353.798 387.817 362.105 373.674 364.558 365.467L365.336 362.868L370.894 362.864C395.416 362.844 426.718 347.426 440.505 328.579C441.098 327.768 443.354 324.688 445.515 321.737C463.339 297.393 468.457 255.186 456.575 230.506C456.089 229.497 454.444 226.029 452.92 222.798C447.514 211.338 438.715 199.812 429.517 192.14C423.921 187.473 415.99 181.902 414.943 181.902C414.544 181.902 413.562 181.387 412.759 180.759C406.129 175.558 386.212 169.62 371.174 168.36C334.843 165.316 293.89 185.268 278.752 213.388C278.077 214.643 277.757 214.881 277.741 214.144C277.727 213.551 277.971 212.588 278.282 212.005C282.762 203.603 287.339 182.251 287.923 167.034L288.294 157.362L289.774 157.733C309.809 162.762 341.516 158.873 354.138 149.84C354.642 149.478 356.138 148.636 357.464 147.966C363.667 144.83 375.536 131.384 380.123 122.296C386.939 108.793 391.546 91.6698 389.208 88.535C386.281 84.6084 357.607 85.0425 341.004 89.264C331.974 91.5597 316.233 97.6551 316.233 98.8565C316.233 99.1239 315.545 99.5167 314.704 99.7277C313.864 99.9386 313.176 100.356 313.176 100.655C313.176 100.957 312.763 101.201 312.259 101.201C311.754 101.201 311.342 101.476 311.342 101.812C311.342 102.149 311.016 102.424 310.62 102.424C307.871 102.424 294.28 115.44 288.732 123.385L285.412 128.141L284.068 121.855C283.33 118.397 282.447 114.605 282.107 113.428C281.768 112.252 281.063 109.727 280.541 107.819C277.429 96.4599 269.055 79.1917 266.656 79.1917C266.351 79.1917 265.556 78.6475 264.891 77.9827C264.226 77.3178 263.263 76.9342 262.751 77.1313C262.233 77.33 261.821 77.1604 261.821 76.7462C261.821 76.3381 261.408 76.1623 260.903 76.3564C260.399 76.549 259.986 76.4115 259.986 76.0492C259.986 75.6549 259.123 75.4898 257.847 75.6396C256.67 75.7772 255.707 75.6702 255.707 75.4012C255.707 74.8036 253.439 74.8739 248.982 75.6106ZM258.756 84.882C261.458 85.8052 261.697 87.0768 259.633 89.53C254.114 96.09 237.923 96.1909 241.307 89.6461C243.585 85.2427 252.61 82.7789 258.756 84.882ZM266.606 96.6784C279.761 126.591 282.74 166.644 274.01 196.231C269.183 212.591 266.6 216.81 263.15 213.97C263.042 213.88 263.505 211.236 264.179 208.095C271.942 171.94 264.885 130.055 246.458 102.919C243.325 98.3047 243.378 98.1442 248.042 98.1442C253.06 98.1442 257.814 96.4048 261.312 93.2884C262.768 91.9907 264.005 90.9713 264.06 91.0217C264.115 91.0721 265.259 93.617 266.606 96.6784ZM380.46 94.8015C381.073 95.1806 377.775 106.259 375.306 112.111C364.453 137.847 343.212 151.454 313.787 151.526C303.43 151.552 293.406 150.426 293.786 149.279C294.486 147.17 321.238 132.456 335.735 126.208C344.718 122.336 345.731 121.635 345.731 119.293C345.731 115.961 343.165 115.05 338.471 116.715C330.254 119.628 305.923 132.045 293.728 139.546C288.194 142.95 287.841 142.638 290.775 136.937C303.539 112.143 328.443 97.0544 360.863 94.4729C366.914 93.9915 379.49 94.2024 380.46 94.8015ZM374.727 177.051C470.326 190.076 483.452 320.754 392.139 350.389C385.038 352.693 368.199 355.246 368.199 354.019C368.199 353.78 368.734 350.927 369.387 347.68C380.732 291.274 345.866 233.551 291.6 218.899C286.274 217.461 286.318 217.735 290.485 212.098C308.864 187.227 343.536 172.802 374.727 177.051ZM165.835 178.471C189.437 183.333 211.425 197.48 223.342 215.471C225.837 219.237 225.617 219.607 219.466 221.982C167.86 241.91 139.182 293.788 149.979 347.68C150.63 350.927 151.162 353.884 151.162 354.252C151.162 357.288 125.139 353.23 112.768 348.267C107.425 346.123 94.4253 338.803 93.0818 337.183C92.9137 336.98 92.1847 336.411 91.4617 335.917C63.4058 316.786 50.3041 275.37 61.3608 240.764C75.3215 197.06 121.735 169.386 165.835 178.471ZM409.718 209.57C407.783 211.246 406.742 212.966 404.953 217.44C403.781 220.371 403.199 221.05 401.025 222.025C391.124 226.465 390.996 233.75 400.686 241.436C403.431 243.614 403.533 243.814 403.929 247.794C405.128 259.803 410.15 262.949 420.342 258.071C423.646 256.491 424.08 256.427 426.903 257.104C440.758 260.427 445.709 255.233 440.272 243.076L438.334 238.741L440.376 234.318C445.177 223.914 441.712 218.598 430.124 218.588L426.324 218.584L423.192 214.763C417.697 208.058 413.381 206.394 409.718 209.57ZM101.759 210.106C100.311 210.823 97.8505 212.886 96.2931 214.692L93.4594 217.973L87.9219 217.975C76.911 217.976 74.9883 221.171 78.5205 233.586L79.7448 237.89L77.5683 241.603C71.155 252.548 73.6677 256.795 86.557 256.795C93.548 256.795 94.1655 256.895 96.7501 258.441C105.869 263.896 110.426 261.581 112.945 250.208C113.954 245.65 114.115 245.376 116.837 243.545C127.022 236.698 127.711 230.564 118.992 224.393C115.878 222.19 115.386 221.524 114.014 217.681C110.957 209.113 107.759 207.137 101.759 210.106ZM417.188 217.82C418.67 219.417 420.464 221.537 421.176 222.529C422.367 224.189 422.867 224.37 427.343 224.755C437.396 225.618 437.429 225.672 433.324 234.341L431.218 238.787L433.321 242.978C437.345 250.998 436.384 252.665 428.856 250.715C423.796 249.404 422.674 249.497 418.234 251.599C411.547 254.762 411.48 254.71 410.398 245.485C409.959 241.752 409.476 240.03 408.681 239.371C398.522 230.945 398.58 231.119 404.703 227.663C409.06 225.204 409.473 224.798 410.196 222.253C412.472 214.25 413.358 213.687 417.188 217.82ZM108.282 220.481C108.712 221.961 109.254 223.858 109.49 224.698C109.742 225.601 111.16 227.026 112.962 228.183C114.637 229.259 116.696 230.705 117.537 231.397L119.065 232.654L116.331 235.147C114.827 236.518 112.514 238.373 111.191 239.269C108.238 241.271 108.201 241.344 106.541 248.695C104.985 255.583 105.343 255.427 98.7814 252.083L93.733 249.512L90.161 250.249C84.4569 251.427 81.4658 251.122 81.4658 249.359C81.4658 248.222 84.9277 241.225 86.1718 239.85C87.0354 238.896 86.9483 238.266 85.2104 232.898C82.4593 224.4 82.0252 225.036 91.0414 224.376L96.6431 223.966L101.031 219.595C106.011 214.635 106.602 214.707 108.282 220.481ZM279.245 224.013C330.681 235.639 363.015 274.988 362.946 325.88C362.845 402.016 282.818 451.172 213.751 417.523C150.592 386.755 135.84 304.433 184.47 254.125C208.552 229.213 247.498 216.839 279.245 224.013ZM97.1505 235.597C95.3821 237.552 96.0195 240.346 98.4451 241.268C100.686 242.121 102.864 240.534 102.864 238.049C102.864 234.836 99.2445 233.283 97.1505 235.597ZM416.236 235.442C413.346 238.33 417.115 242.553 420.817 240.572C422.173 239.846 422.462 236.409 421.266 235.214C420.227 234.174 417.372 234.304 416.236 235.442ZM257.847 252.733C255.604 254.113 250.961 259.04 248.742 262.394L247.102 264.871L241.164 265.286C225.918 266.351 224.67 268.81 231.015 285.297L232.102 288.122L230.436 291.834C224.317 305.47 226.411 309.249 240.563 310.111L246.639 310.481L249.154 313.9C258.521 326.629 263.097 327.019 271.473 315.802C275.731 310.099 274.977 310.538 281.277 310.088C294.566 309.142 297.253 305.433 292.644 294.395C291.451 291.536 290.326 288.727 290.144 288.152C289.962 287.576 290.858 284.688 292.132 281.733C297.389 269.553 294.073 265.049 279.856 265.049H275.329L273.339 262.145C267.089 253.028 262.195 250.055 257.847 252.733ZM266.476 264.285C268.738 267.227 270.942 270.025 271.376 270.505C271.933 271.12 274.32 271.485 279.517 271.748C289.36 272.248 289.646 272.946 284.356 283.526C282.168 287.899 282.136 287.443 285.056 293.384C289.635 302.708 289.742 302.541 278.49 303.606C271.09 304.308 271.145 304.277 267.592 309.667C266.146 311.86 264.13 314.451 263.111 315.424L261.258 317.197L259.315 315.119C258.249 313.977 256.395 311.803 255.198 310.29C249.772 303.431 250 303.565 243.819 303.562C240.774 303.561 237.237 303.269 235.961 302.914C233.251 302.161 233.243 302.249 236.598 294.7C239.305 288.609 239.301 287.981 236.504 281.383C232.592 272.154 232.796 271.922 244.824 271.82L250.142 271.774L251.846 269.481C261.062 257.08 260.966 257.113 266.476 264.285ZM257.941 286.953C256.581 288.457 256.665 290.462 258.152 291.949C260.541 294.338 264.266 292.784 264.266 289.397C264.266 286.266 260.041 284.634 257.941 286.953Z" fill="#0F0C0C"/>
<path fill-rule="evenodd" clip-rule="evenodd" d="M357.393 95.1455C327.002 98.6868 303.724 113.108 292.027 135.64C289.257 140.975 288.924 142.657 291.01 140.783C294.355 137.778 324.212 122.083 335.346 117.477C341.609 114.887 343.885 114.69 345.238 116.621C347.623 120.027 346.159 122.322 340.027 124.792C329.212 129.152 308.766 139.702 298.882 146.025C292.958 149.816 293.078 149.898 306 150.889C336.547 153.229 359.048 141.915 372.101 117.656C375.002 112.267 380.729 96.0717 380.096 95.0476C379.67 94.3583 363.562 94.4271 357.393 95.1455ZM288.305 161.116C288.305 163.301 288.417 164.195 288.551 163.103C288.687 162.01 288.687 160.221 288.551 159.129C288.417 158.036 288.305 158.93 288.305 161.116ZM258.362 175.483C258.365 178.173 258.472 179.197 258.6 177.759C258.73 176.322 258.728 174.121 258.597 172.868C258.466 171.616 258.36 172.793 258.362 175.483ZM368.352 363.29C368.94 363.443 369.903 363.443 370.492 363.29C371.08 363.136 370.599 363.01 369.422 363.01C368.245 363.01 367.764 363.136 368.352 363.29ZM176.228 400.353C176.228 400.459 177.123 401.353 178.215 402.34L180.202 404.136L178.406 402.149C176.733 400.296 176.228 399.881 176.228 400.353Z" fill="#ACC85C"/>
<path fill-rule="evenodd" clip-rule="evenodd" d="M115.702 183.663C64.3136 204.457 42.2049 264.697 69.2184 310.315C73.1525 316.96 74.3233 317.752 71.4376 311.819C48.2575 264.165 68.5734 207.578 117.231 184.27C124.59 180.745 123.744 180.409 115.702 183.663ZM352.915 186.489C332.655 190.585 320.434 203.554 329.233 211.618C335.063 216.96 353.82 215.596 367.872 208.812C389.085 198.568 377.642 181.49 352.915 186.489ZM109.824 209.467C111.771 210.999 113.136 213.389 114.805 218.186C115.887 221.293 116.485 222.053 119.375 223.994C123.614 226.84 125.484 229.585 125.484 232.952C125.484 236.906 123.773 239.033 116.124 244.583C114.704 245.613 114.221 246.724 113.236 251.239C110.873 262.052 105.91 264.393 96.75 259.021C94.1883 257.518 93.4914 257.407 86.6379 257.407C80.6204 257.407 78.9743 257.208 77.6201 256.323C72.9416 253.262 77.2457 257.876 82.4912 261.546C97.0893 271.759 107.956 271.002 119.982 258.937C130.742 248.141 134.227 237.124 129.747 228.061C127.983 224.495 116.714 212.527 112.679 209.937C109.508 207.899 107.389 207.552 109.824 209.467ZM403.639 210.603C388.527 216.128 384.338 227.031 391.133 243.142C400.004 264.176 414.312 273.194 427.75 266.22C432.072 263.976 439.075 257.44 435.815 258.692C435.343 258.872 432.424 258.584 429.327 258.049L423.696 257.078L420.25 258.767C410.183 263.702 403.659 259.354 403.659 247.712V244.368L399.76 241.265C390.285 233.725 390.465 227.101 400.288 221.75C402.901 220.325 403.481 219.638 404.751 216.463C405.554 214.456 406.767 212.034 407.448 211.078C409.135 208.708 408.904 208.679 403.639 210.603ZM97.6563 211.026C94.818 212.906 91.2476 216.162 91.2476 216.87C91.2476 218.34 93.6411 216.899 97.0327 213.388C101.23 209.044 101.354 208.578 97.6563 211.026ZM422.677 213.235C425.526 216.671 426.869 217.799 428.266 217.93C430.181 218.109 426.137 212.946 422.677 210.793C419.258 208.665 419.258 209.11 422.677 213.235ZM413.369 216.197C413.104 219.346 413.207 221.03 413.661 221.03C413.95 221.03 414.075 220.081 413.939 218.921C413.742 217.227 413.853 216.943 414.498 217.479C415.834 218.588 415.988 217.645 414.666 216.448C413.716 215.587 413.424 215.531 413.369 216.197ZM100.996 220.816C99.6448 222.248 99.2917 222.905 100.01 222.65C100.626 222.432 101.511 222.253 101.977 222.253C102.483 222.253 102.682 221.88 102.471 221.328C102.217 220.668 102.396 220.512 103.101 220.782C103.643 220.99 104.086 220.856 104.086 220.484C104.086 220.111 103.794 219.807 103.438 219.807C103.082 219.807 102.962 219.532 103.169 219.196C103.914 217.992 103.068 218.621 100.996 220.816ZM415.933 220.376C415.273 220.795 415.623 221.16 417.404 221.903C420.149 223.051 420.8 222.745 419.252 221.033C418.037 219.691 417.259 219.537 415.933 220.376ZM245.619 223.563C186.087 231.136 145.576 288.807 158.578 347.474C159.96 353.71 160.736 354.856 159.652 349.064C158.694 343.933 159.313 322.527 160.634 315.181C169.459 266.064 212.646 228.733 265.489 224.548C273.089 223.946 274.421 223.714 272.214 223.376C268.357 222.786 250.761 222.908 245.619 223.563ZM89.1078 225.117C84.0701 225.556 83.9738 225.624 84.5959 228.388C85.5328 232.561 86.6669 234.927 87.1377 233.696C87.3593 233.118 87.2752 232.646 86.9481 232.646C86.6226 232.646 86.3566 232.371 86.3566 232.035C86.3566 231.698 86.7693 231.423 87.2737 231.423C87.7781 231.423 88.1908 230.994 88.1908 230.47C88.1908 229.945 88.3971 229.643 88.6493 229.797C88.9015 229.951 90.4834 228.874 92.1647 227.401C95.5807 224.409 95.7534 224.538 89.1078 225.117ZM433.616 227.919C433.616 229.884 432.419 233.257 431.722 233.257C431.418 233.257 431.17 232.936 431.17 232.544C431.17 232.152 431.042 231.96 430.885 232.116C430.729 232.273 430.826 233.213 431.105 234.205C431.609 236.004 431.614 236.001 433.205 232.461C435.149 228.137 435.372 227.044 434.38 226.697C433.905 226.531 433.616 226.992 433.616 227.919ZM430.865 227.755C429.512 228.336 429.611 228.455 431.629 228.666C432.453 228.753 433.004 228.477 433.004 227.977C433.004 227.038 432.624 226.999 430.865 227.755ZM77.0898 237.231C76.9751 239.082 77.0775 240.595 77.3175 240.595C78.2437 240.592 79.0828 237.994 78.7084 236.285C78.045 233.265 77.3099 233.693 77.0898 237.231ZM439.526 237.334C438.813 238.048 439.086 239.807 440.035 240.594C440.829 241.253 440.899 241.078 440.558 239.293C440.096 236.872 440.058 236.8 439.526 237.334ZM83.6391 245.415C81.5971 249.688 81.86 250.376 85.5405 250.376C87.9615 250.376 88.2611 250.237 87.8499 249.306C87.5916 248.718 87.0903 246.792 86.7357 245.026C85.9287 240.993 85.7407 241.017 83.6391 245.415ZM431.754 242.887C431.731 243.843 430.907 246.371 429.676 249.262C429.316 250.108 429.732 250.361 432.068 250.711C435.803 251.27 435.852 251.149 433.935 246.131C432.237 241.687 431.802 241.039 431.754 242.887ZM255.095 249.894C253.918 250.628 251.062 252.991 248.749 255.146C243.909 259.655 242.574 260.314 235.615 261.634C222.616 264.1 218.546 271.127 223.09 283.251C224.712 287.581 224.907 291.645 223.831 298.717C222.532 307.244 224.472 310.622 232.193 313.288C239.796 315.912 243.693 317.975 248.925 322.149C258.829 330.051 264.743 330.232 272.759 322.877C277.042 318.947 278.7 318.006 285.649 315.56C297.962 311.227 300.875 306.242 297.225 295.749C295.426 290.577 295.423 285.404 297.213 278.805C299.947 268.734 297.274 265.037 285.484 262.583C279.199 261.277 276.418 259.747 270.991 254.614C264.098 248.095 259.959 246.867 255.095 249.894ZM263.846 251.817C265.84 252.65 272.707 259.652 274.49 262.669C275.4 264.211 275.724 264.298 281.624 264.564C295.421 265.189 297.902 269.224 292.577 282.378L290.378 287.807L291.765 290.642C298.607 304.621 295.883 309.645 280.875 310.724L275.781 311.09L273.3 314.512C264.008 327.331 259.112 327.562 249.958 315.612L246.35 310.902H242.499C227.079 310.902 223.455 305.739 229.558 292.463L231.622 287.975L229.668 283.332C223.761 269.298 226.012 265.793 241.645 264.685L246.842 264.317L249.13 261.167C252.711 256.239 256.748 252.274 258.598 251.866C259.531 251.66 260.567 251.4 260.903 251.288C261.24 251.175 261.593 251.062 261.687 251.036C261.782 251.009 262.753 251.36 263.846 251.817ZM203.434 259.793C192.639 264.561 182.024 280.723 185.003 287.855C189.142 297.76 205.077 289.166 213.482 272.494C217.742 264.043 211.546 256.211 203.434 259.793ZM261.209 260.12C261.209 260.517 260.948 260.681 260.628 260.482C259.977 260.08 258.464 262.507 259.02 263.063C259.214 263.259 259.375 263.082 259.375 262.669C259.375 262.256 259.647 262.088 259.979 262.293C260.312 262.499 260.437 262.285 260.258 261.819C259.746 260.485 261.946 260.803 263.214 262.247L264.335 263.52L263.722 262.247C262.915 260.567 261.209 259.123 261.209 260.12ZM253.368 268.751C252.453 269.908 252.236 270.536 252.757 270.508C253.879 270.449 256.176 269.425 255.305 269.371C254.906 269.347 254.738 268.798 254.918 268.106C255.341 266.486 255.066 266.6 253.368 268.751ZM267.647 269.298C267.45 269.617 267.829 270.168 268.489 270.521C270.227 271.451 270.487 271.318 269.626 269.94C268.788 268.599 268.198 268.407 267.647 269.298ZM237.417 294.298C236.832 295.391 234.957 300.872 234.926 301.578C234.923 301.662 235.349 301.731 235.874 301.731C236.398 301.731 236.675 301.485 236.488 301.184C235.943 300.302 238.128 299.778 238.75 300.64C239.161 301.211 239.226 301.144 238.986 300.395C238.805 299.828 238.894 299.278 239.184 299.173C239.473 299.067 239.362 297.615 238.935 295.946C238.202 293.079 238.119 292.989 237.417 294.298Z" fill="#717FC5"/>
<path fill-rule="evenodd" clip-rule="evenodd" d="M248.277 84.931C240.883 86.9225 238.023 92.3958 243.593 93.8952C250.555 95.7706 261.926 91.0248 261.078 86.6C260.653 84.3838 253.682 83.4759 248.277 84.931ZM261.312 93.2884C257.815 96.4049 253.06 98.1442 248.042 98.1442C243.379 98.1442 243.325 98.3047 246.458 102.919C264.885 130.055 271.942 171.94 264.179 208.095C263.505 211.236 263.042 213.88 263.15 213.97C265.805 216.154 267.454 214.757 269.97 208.191C281.608 177.818 282.208 145.983 271.792 111.351C269.701 104.397 264.914 91.8135 264.06 91.0217C264.005 90.9713 262.768 91.9908 261.312 93.2884ZM368.644 94.3063C369.729 94.4408 371.655 94.4439 372.924 94.3109C374.192 94.178 373.304 94.0679 370.95 94.0649C368.597 94.0618 367.559 94.1703 368.644 94.3063ZM304.297 118.472L299.42 123.516L304.464 118.639C309.148 114.11 309.786 113.429 309.341 113.429C309.248 113.429 306.978 115.698 304.297 118.472ZM326.626 121.376C324.104 122.688 322.316 123.761 322.652 123.761C322.988 123.761 325.327 122.688 327.849 121.376C330.371 120.065 332.159 118.992 331.823 118.992C331.486 118.992 329.148 120.065 326.626 121.376ZM370.339 120.765C369.818 121.774 369.527 122.599 369.696 122.599C369.864 122.599 370.429 121.774 370.95 120.765C371.472 119.756 371.762 118.931 371.594 118.931C371.426 118.931 370.86 119.756 370.339 120.765ZM345.627 120.106C345.6 120.583 345.108 121.546 344.532 122.246C343.544 123.444 343.566 123.441 344.909 122.205C345.693 121.483 346.185 120.52 346.005 120.065C345.737 119.394 345.666 119.402 345.627 120.106ZM366.231 127.045C363.518 130.74 359.59 134.727 354.443 139.01C352.496 140.632 352.412 140.771 354.029 139.698C358.506 136.725 366.414 128.445 369.045 123.975C370.183 122.04 368.789 123.56 366.231 127.045ZM332.74 127.49C331.563 128.135 330.875 128.661 331.211 128.661C331.548 128.661 332.786 128.135 333.962 127.49C335.139 126.845 335.827 126.319 335.491 126.319C335.155 126.319 333.917 126.845 332.74 127.49ZM308.743 130.281C307.146 131.112 305.839 131.93 305.839 132.097C305.839 132.265 307.215 131.704 308.896 130.853C310.577 130.001 311.953 129.171 311.953 129.008C311.953 128.604 312.008 128.581 308.743 130.281ZM324.028 131.504C322.43 132.335 321.124 133.153 321.124 133.32C321.124 133.593 327.176 130.735 327.798 130.168C328.555 129.479 326.566 130.183 324.028 131.504ZM303.241 133.342C300.956 134.582 301.095 135.099 303.394 133.909C304.403 133.388 305.228 132.83 305.228 132.671C305.228 132.277 305.162 132.3 303.241 133.342ZM290.26 137.864C288.58 141.176 288.377 142.163 289.369 142.163C289.725 142.163 289.852 141.899 289.652 141.575C289.452 141.251 289.991 139.6 290.849 137.906C291.707 136.213 292.271 134.827 292.103 134.827C291.935 134.827 291.105 136.193 290.26 137.864ZM298.961 135.788C296.676 137.027 296.816 137.544 299.114 136.355C300.123 135.834 300.948 135.276 300.948 135.117C300.948 134.723 300.883 134.746 298.961 135.788ZM293.425 139.092C291.847 140.094 290.555 141.046 290.555 141.208C290.555 141.368 291.931 140.645 293.612 139.601C296.308 137.925 297.114 137.272 296.482 137.272C296.38 137.272 295.004 138.091 293.425 139.092ZM309.966 138.845C307.681 140.084 307.82 140.601 310.119 139.412C311.128 138.891 311.953 138.333 311.953 138.174C311.953 137.779 311.887 137.802 309.966 138.845ZM347.107 143.422C342.399 146.051 342.094 146.699 346.668 144.352C349.338 142.982 352.4 140.943 351.692 141.006C351.524 141.021 349.461 142.11 347.107 143.422ZM295.879 147.392C293.597 148.943 293.349 150.151 295.33 150.068C296.197 150.031 296.175 149.952 295.195 149.567C294.162 149.162 294.287 148.949 296.265 147.727C297.496 146.965 298.503 146.227 298.503 146.087C298.503 145.654 298.252 145.779 295.879 147.392ZM326.932 150.111C325.267 150.534 325.24 150.58 326.626 150.608C327.467 150.623 328.705 150.4 329.377 150.111C330.884 149.463 329.478 149.463 326.932 150.111ZM303.241 151.153C303.998 151.3 305.236 151.3 305.992 151.153C306.749 151.008 306.13 150.889 304.617 150.889C303.103 150.889 302.484 151.008 303.241 151.153ZM321.277 151.144C321.865 151.297 322.828 151.297 323.416 151.144C324.005 150.99 323.523 150.864 322.346 150.864C321.17 150.864 320.688 150.99 321.277 151.144ZM311.495 151.778C312.756 151.911 314.819 151.911 316.08 151.778C317.341 151.647 316.309 151.538 313.787 151.538C311.265 151.538 310.234 151.647 311.495 151.778Z" fill="#95613D"/>
</svg>
