<svg height="512" width="512" viewBox="0 0 512 512" xmlns="http://www.w3.org/2000/svg">
    <path
        d="M502.711 123.72c-3.268-12.196-14.198-19.925-26.395-18.091a24.83 24.83 0 00-2.736.571l-38.09 10.206 44.464-44.464c11.008-11.008 11.008-28.856 0-39.864-11.008-11.008-28.856-11.008-39.864 0l-44.464 44.464 10.206-38.09c3.512-13.108-4.266-26.58-17.374-30.092-13.107-3.512-26.58 4.266-30.092 17.374l-36.29 135.434 22.704 6.083 7.945 22.704 133.573-37.289c13.108-3.513 19.926-15.838 16.413-28.946z"
        fill="#bbf49b" />
    <path
        d="M503.673 123.574c-3.267-12.195-15.158-19.765-27.354-17.933-1.405 9.378-8.193 17.496-17.937 20.107l-134.246 35.971 20.646 5.532 6.083 22.704L486.3 153.666c13.106-3.512 20.885-16.985 17.373-30.092z"
        fill="#9be69d" />
    <path
        d="M13.776 452.398l119.045-169.757 7.7-3.568 1.044-8.901 95.813-136.621 7.632-3.636c.483-.689 1.156-8.79 1.156-8.79s1.426-2.004 1.683-2.33c24.039-30.487 69.704-33.526 97.552-5.678l30.79 30.79 21.725 22.725c28.741 28.741 25.583 75.459-7.695 98.796L59.634 497.257c-22.32 15.652-48.284.577-51.733-21.066-1.214-7.621.363-15.933 5.875-23.793z"
        fill="#ffaa5f" />
    <path
        d="M398.915 166.632l-27.918-27.918c28.741 28.741 24.583 76.459-8.695 99.796L31.717 470.339c-7.861 5.512-16.166 7.063-23.788 5.848 3.451 21.642 29.387 37.722 51.706 22.07l246.22-173.667 5.403-5.864 7.066-2.88 71.895-49.418c33.279-23.337 37.437-71.055 8.696-99.796z"
        fill="#ff8c5a" />
    <g>
        <path
            d="M340.694 291.999l-27.176 19.058-55.489-55.489a7.5 7.5 0 00-10.607 10.607l53.627 53.627L55.318 492.124c-7.529 5.28-16.061 6.331-24.021 2.96-8.34-3.532-14.62-11.408-16-20.065-.997-6.255.597-12.586 4.608-18.306l54.95-78.338a7.5 7.5 0 00-12.28-8.614L7.625 448.1c-6.293 8.975-8.763 19.099-7.141 29.279 2.208 13.854 11.773 25.931 24.963 31.517 4.931 2.088 10.059 3.12 15.176 3.12 8.073 0 16.118-2.569 23.307-7.61L349.307 304.28a7.5 7.5 0 00-8.613-12.281z" />
        <path
            d="M510.946 121.787c-4.251-15.86-19.613-25.996-35.753-23.567-1.19.179-2.39.429-3.563.743l-11.053 2.962 24.672-24.672c13.914-13.915 13.914-36.556-.001-50.471-13.914-13.914-36.555-13.914-50.471 0l-24.671 24.672 2.961-11.053c2.218-8.274 1.08-16.917-3.203-24.336S398.665 3.34 390.39 1.123c-8.279-2.218-16.919-1.079-24.336 3.204-7.418 4.283-12.725 11.199-14.941 19.474L347.8 36.168a7.5 7.5 0 0014.488 3.882l3.314-12.367a16.965 16.965 0 017.953-10.365 16.963 16.963 0 0112.953-1.705 16.96 16.96 0 0110.366 7.954 16.962 16.962 0 011.705 12.953l-10.206 38.09a7.5 7.5 0 0012.548 7.244l44.464-44.464c8.065-8.065 21.19-8.066 29.257 0 8.066 8.066 8.066 21.191 0 29.257l-44.464 44.464a7.5 7.5 0 007.246 12.548l38.09-10.206c.631-.17 1.272-.303 1.909-.399 8.573-1.289 16.763 4.134 19.036 12.616 2.414 9.011-3.019 18.324-12.135 20.767l-75.149 20.417a73.072 73.072 0 00-4.966-5.516l-53.515-53.515a72.549 72.549 0 00-5.287-4.774l8.401-31.354a7.5 7.5 0 00-14.488-3.882l-7.125 26.59a72.96 72.96 0 00-37.322-7.808c-20.786 1.225-40.076 11.272-52.922 27.563-.264.334-.705.894-160.605 228.843a7.5 7.5 0 0012.28 8.614l44.588-63.562 43.664 43.664c1.464 1.464 3.384 2.197 5.303 2.197s3.839-.732 5.303-2.197a7.5 7.5 0 000-10.606l-45.525-45.525a430735.379 430735.379 0 0195.846-136.588l52.202 52.202c1.465 1.464 3.385 2.197 5.304 2.197s3.839-.732 5.304-2.197a7.5 7.5 0 000-10.606l-54.056-54.055a839.921 839.921 0 012.266-3.214c10.197-12.859 25.47-20.786 41.93-21.756a57.947 57.947 0 0144.331 16.86l53.515 53.515a57.772 57.772 0 0116.742 45.97 57.771 57.771 0 01-24.44 42.382l-18.444 12.935a7.5 7.5 0 008.613 12.282l18.444-12.935c17.681-12.399 28.896-31.849 30.771-53.362a72.758 72.758 0 00-7.532-39.15l70.477-19.147c17.079-4.578 27.268-22.132 22.714-39.132z" />
    </g>
</svg>