<svg height="512" width="512" viewBox="0 0 512 512" xmlns="http://www.w3.org/2000/svg">
    <path
        d="M202.896 47.056c9.578.661 18.293 18.217 22.747 45.818 1.049 6.5 2.015 20.659 2.823 36.167 1.173 12.983-2.287 52.872-2.287 52.872l43.33-.618s.842-21.745-1.606-41.476c-.553-21.212-1.51-43.011-3.163-53.254-10.106-62.639-37.727-77.544-59.12-79.02-10.91-.753-20.365 7.482-21.117 18.392-.752 10.913 7.483 20.367 18.393 21.119z"
        fill="#b67f5f" />
    <path
        d="M187.799 437.461c0 33.621 24.75 61.462 57.024 66.295 3.267.489 6.611-.258 10.014-.258 37.024 0 66.037-29.013 66.037-66.037s-29.013-66.037-66.037-66.037c-3.403 0-6.747-.748-10.014-.259-32.273 4.834-57.024 32.675-57.024 66.296z"
        fill="#9678cd" />
    <path
        d="M254.838 370.423c-3.403 0-6.746.258-10.013.748 32.274 4.834 57.025 32.67 57.025 66.291s-24.751 61.457-57.025 66.291c3.267.489 6.61.747 10.013.747 37.024 0 67.038-30.014 67.038-67.038 0-37.025-30.014-67.039-67.038-67.039z"
        fill="#7d64b6" />
    <circle cx="198.238" cy="355.812" fill="#c8afeb" transform="rotate(-80.8 198.177 355.828)" r="61.908" />
    <path
        d="M277.455 74.328c6.899-18.723 20.328-32.139 30.583-40.206 4.79-3.768 11.902-.884 12.569 5.175a44.35 44.35 0 001.445 7.329c18.857-21.739 45.208-29.405 64.258-31.988 6.171-.837 11.576-.139 15.711-.216 4.701-.087 6.392 2.971 5.877 7.645-2.052 18.635-9.739 63.753-37.315 91.347-32.635 32.656-86.569 44.323-107.837 22.478-.055-.056 2.624-28.766 14.709-61.564z"
        fill="#bbf49b" />
    <path
        d="M402.02 13.42c-4.134.076-9.542.384-15.711 1.22 2.406 1.534 3.904 4.342 3.565 7.426-2.052 18.635-9.739 63.753-37.315 91.347-18.371 18.383-44.125 30.113-66.922 32.96 26.162 3.766 62.883-8.879 86.948-32.96 27.576-27.594 35.262-72.712 37.315-91.347.514-4.673-3.178-8.732-7.88-8.646z"
        fill="#9be69d" />
    <path
        d="M372.344 355.812c0 34.191-26.716 60.907-60.907 60.907-3.41 0-6.755.726-10.015.195-29.429-4.787-51.893-30.321-51.893-61.102s22.465-56.316 51.893-61.102c3.26-.53 6.605.195 10.015.195 34.191 0 60.907 26.716 60.907 60.907z"
        fill="#aa91dc" />
    <path
        d="M311.437 293.903c-3.41 0-6.752.287-10.013.818 29.428 4.787 51.895 30.31 51.895 61.09s-22.468 56.303-51.895 61.09c3.261.531 6.603.818 10.013.818 34.191 0 61.908-27.717 61.908-61.908s-27.717-61.908-61.908-61.908z"
        fill="#9678cd" />
    <path
        d="M299.637 271.917c0 31.517 23.057 57.65 53.224 62.449 3.262.519 6.607-.213 10.014-.213 34.925 0 62.237-27.311 62.237-62.237 0-34.925-27.311-62.236-62.237-62.236-3.408 0-6.753-.732-10.014-.213-30.167 4.801-53.224 30.933-53.224 62.45z"
        fill="#c8afeb" />
    <path
        d="M362.875 208.679c-3.408 0-6.751.278-10.013.797 30.166 4.8 53.225 30.924 53.225 62.441s-23.059 57.64-53.225 62.441c3.262.519 6.605.797 10.013.797 34.925 0 63.238-28.312 63.238-63.237 0-34.926-28.312-63.239-63.238-63.239z"
        fill="#aa91dc" />
    <circle cx="149.124" cy="271.917" fill="#aa91dc" transform="rotate(-13.34 148.692 271.738)" r="63.238" />
    <circle cx="83.93" cy="184.186" fill="#9678cd" r="62.132" />
    <path
        d="M365.937 184.186c0 30.905 22.564 56.54 52.117 61.329 3.26.528 6.605-.198 10.015-.198 34.314 0 61.13-26.816 61.13-61.13s-26.816-61.131-61.13-61.131c-3.409 0-6.755-.727-10.015-.198-29.552 4.788-52.117 30.423-52.117 61.328z"
        fill="#9678cd" />
    <path
        d="M428.069 122.055c-3.41 0-6.752.285-10.013.814 29.552 4.79 52.119 30.413 52.119 61.318 0 30.904-22.567 56.527-52.119 61.317 3.261.529 6.603.814 10.013.814 34.314 0 62.132-27.817 62.132-62.131 0-34.315-27.818-62.132-62.132-62.132z"
        fill="#7d64b6" />
    <circle cx="256" cy="275.718" fill="#9678cd" transform="rotate(-13.34 255.434 275.634)" r="67.038" />
    <circle cx="313.356" cy="189.093" fill="#aa91dc" transform="rotate(-76.7 313.45 189.136)" r="67.038" />
    <circle cx="198.643" cy="189.093" fill="#c8afeb" transform="rotate(-45 198.624 189.144)" r="67.038" />
    <path
        d="M497.701 184.186c0-38.395-31.236-69.632-69.632-69.632-22.622 0-43.22 10.656-56.188 28.461a75.16 75.16 0 00-10.342-10.728c5.953-4.116 11.434-8.651 16.352-13.572 5.119-5.122 9.87-11.081 14.121-17.713a7.5 7.5 0 10-12.627-8.096c-3.673 5.728-7.745 10.844-12.103 15.206-5.594 5.597-12.04 10.647-19.193 15.058a74.055 74.055 0 00-34.732-8.615c-13.86 0-27.037 3.739-38.402 10.568a952.12 952.12 0 00-.573-13.394c2.661-12.096 6.057-23.804 10.111-34.808 6.318-17.148 18.813-29.534 28.183-36.904.105-.082.158-.09.239-.082.123.016.208.08.237.181a51.982 51.982 0 001.688 8.568 7.5 7.5 0 0012.878 2.856c23.272-26.828 59.811-30.352 74.441-30.622a.255.255 0 01.213.089.271.271 0 01.073.237c-.951 8.639-3.482 25.801-9.738 43.684a7.5 7.5 0 004.603 9.556 7.497 7.497 0 009.556-4.603c6.409-18.319 9.242-35.667 10.49-46.995a15.304 15.304 0 00-3.905-11.991 15.28 15.28 0 00-11.568-4.975c-14.79.272-49.337 3.544-75.95 26.314a15.21 15.21 0 00-7.097-6.101 15.36 15.36 0 00-15.434 2.092c-10.891 8.566-25.453 23.069-32.983 43.508-.188.509-.366 1.028-.551 1.54C257.394 15.91 228.729 1.623 206.137.064c-15.029-1.026-28.079 10.341-29.116 25.359-1.035 15.019 10.342 28.08 25.359 29.115 2.561.176 11.073 9.873 15.858 39.53.485 3.007 1.205 9.544 2.079 23.709a74.274 74.274 0 00-21.674-3.224c-23.716 0-44.864 11.146-58.525 28.461-12.968-17.805-33.566-28.461-56.188-28.461-38.396 0-69.632 31.237-69.632 69.632 0 37.332 29.534 67.888 66.463 69.551a70.363 70.363 0 00-2.375 18.18c0 32.599 22.171 60.102 52.222 68.262a69.544 69.544 0 00-1.777 15.632c0 8.372 1.476 16.56 4.389 24.338a7.491 7.491 0 009.653 4.394 7.5 7.5 0 004.394-9.654 54.237 54.237 0 01-3.435-19.078c0-4.506.557-8.941 1.635-13.251 1.211.062 2.431.094 3.657.094 18.571 0 36.004-7.136 49.12-19.848 11.147 13.639 26.837 22.962 44.138 26.185a69.258 69.258 0 00-.353 6.82 69.036 69.036 0 004.609 24.828c-9.277 18.065-27.944 29.58-48.399 29.58-2.102 0-4.181-.127-6.235-.358a7.436 7.436 0 00-.677-.071c-9.916-1.24-19.177-5.156-27.1-11.509a7.5 7.5 0 00-9.385 11.703c7.885 6.323 17.083 10.806 26.83 13.207a74.741 74.741 0 00-1.373 14.27c0 41.101 33.438 74.538 74.538 74.538s74.539-33.438 74.539-74.538c0-4.805-.46-9.574-1.369-14.255 30.295-7.451 52.838-34.833 52.838-67.393 0-5.105-.556-10.149-1.651-15.078 31.16-7.389 54.418-35.429 54.418-68.816 0-6.203-.802-12.283-2.375-18.18 36.93-1.664 66.464-32.219 66.464-69.552zm-124.807 4.907c0 30.816-23.533 56.236-53.571 59.239l-.077.006a60.058 60.058 0 01-5.891.294c-19.57 0-37.444-9.329-48.612-25.154 5.378-10.296 8.437-21.986 8.437-34.384s-3.06-24.088-8.437-34.384a60.047 60.047 0 017.796-9.004c.335-.264.647-.555.932-.871 10.769-9.757 24.824-15.28 39.884-15.28 32.83 0 59.539 26.708 59.539 59.538zM233.047 91.68c-3.051-18.907-10.957-50.817-29.636-52.105-6.767-.466-11.893-6.352-11.426-13.119s6.36-11.899 13.119-11.426c26.792 1.849 44.854 26.999 52.231 72.732 1.273 7.894 2.299 24.772 2.979 48.914a74.714 74.714 0 00-4.348 4.833 75.084 75.084 0 00-20.235-17.03c-.902-16.455-1.782-27.215-2.684-32.799zm-34.404 37.875c32.829 0 59.538 26.709 59.538 59.538 0 32.83-26.709 59.539-59.538 59.539-1.989 0-3.953-.102-5.892-.294l-.07-.005c-30.04-3.001-53.575-28.422-53.575-59.24-.001-32.83 26.708-59.538 59.537-59.538zM29.298 184.186c0-30.124 24.508-54.632 54.632-54.632 19.839 0 37.693 10.449 47.423 27.501a74.09 74.09 0 00-7.248 32.037 74.137 74.137 0 004.756 26.173c-8.852 12.831-22.445 21.103-37.73 23.088a7.478 7.478 0 00-.947.108 56.035 56.035 0 01-6.253.356c-30.125.001-54.633-24.507-54.633-54.631zm119.825 143.469c-30.733 0-55.737-25.003-55.737-55.737a55.235 55.235 0 013.478-19.336c15.258-2.922 29.23-10.921 39.492-22.615 10.543 16.012 27.079 27.731 46.398 31.943a74.464 74.464 0 00-1.293 13.809 74.42 74.42 0 008.346 34.279c-10.527 11.278-25.1 17.657-40.684 17.657zm165.253 109.806c0 32.83-26.709 59.538-59.539 59.538-32.829 0-59.538-26.709-59.538-59.538 0-4.145.437-8.254 1.281-12.277.553.013 1.105.036 1.658.036 22.747 0 43.758-11.163 56.615-29.287 12.59 17.704 33.253 29.287 56.583 29.287.556 0 1.104-.029 1.657-.042a59.677 59.677 0 011.283 12.283zm51.469-81.649c0 30-24.407 54.408-54.408 54.408s-54.408-24.407-54.408-54.408c0-1.852.097-3.711.288-5.567 22.225-.383 42.654-10.426 56.455-27.423 13.114 12.703 30.541 19.833 49.104 19.833.451 0 .896-.026 1.345-.034a54.398 54.398 0 011.624 13.191zm2.775-28.452a55.99 55.99 0 01-5.745.295c-15.584 0-30.155-6.378-40.684-17.658a74.465 74.465 0 002.018-4.2 7.501 7.501 0 00-13.721-6.064 59.787 59.787 0 01-3.791 7.201l-.003.005c-10.947 17.731-29.898 28.316-50.696 28.316-1.436 0-2.941-.058-4.478-.172h-.001v-.001c-18.928-1.406-36.204-11.927-46.216-28.143l-.003-.007a59.39 59.39 0 01-7.585-43.326c.31.004.616.023.927.023 23.025 0 43.641-10.498 57.324-26.954 14.06 17.044 34.82 26.954 57.389 26.954.308 0 .611-.02.919-.023a59.338 59.338 0 011.076 7.389 7.5 7.5 0 1014.954-1.187 74.14 74.14 0 00-1.061-7.9c19.319-4.212 35.856-15.931 46.399-31.943 10.262 11.695 24.235 19.694 39.493 22.616a55.24 55.24 0 013.477 19.336c.001 28.795-21.947 52.558-49.992 55.443zm59.449-88.542a55.89 55.89 0 01-6.259-.357 7.325 7.325 0 00-.936-.106c-15.288-1.984-28.882-10.257-37.735-23.089a74.164 74.164 0 004.756-26.173 74.094 74.094 0 00-7.248-32.037c9.73-17.052 27.584-27.501 47.423-27.501 30.124 0 54.632 24.508 54.632 54.632s-24.509 54.631-54.633 54.631z" />
</svg>