<svg width="512" height="512" viewBox="0 0 512 512" fill="none" xmlns="http://www.w3.org/2000/svg">
<path fill-rule="evenodd" clip-rule="evenodd" d="M234.846 58.62C210.036 61.341 179.577 70.6054 163.049 80.4595C161.205 81.5595 156.814 84.1723 153.292 86.2656C134.798 97.2593 116.179 112.984 102.068 129.526C100.559 131.295 98.7062 133.324 97.9515 134.034C97.1969 134.744 96.5794 135.533 96.5794 135.786C96.5794 136.04 95.7638 137.142 94.7668 138.233C93.7697 139.324 93.0486 140.311 93.1645 140.428C93.2819 140.544 92.6568 141.458 91.7772 142.459C90.0102 144.467 87.6167 148.225 87.0465 149.883C86.8453 150.47 86.4702 150.95 86.2126 150.95C85.9549 150.95 85.5784 151.429 85.3741 152.016C85.1713 152.603 84.0477 154.591 82.8799 156.434C76.736 166.13 68.1239 185.899 64.2958 199.093C63.5671 201.606 62.5853 204.897 62.1142 206.405C61.6431 207.914 61.0881 210.376 60.8793 211.878C60.6704 213.379 60.3808 214.798 60.2359 215.035C60.0896 215.269 59.2877 220.074 58.4522 225.711C52.7672 264.055 56.9231 298.596 71.3773 333.162C71.8682 334.335 72.4963 335.843 72.7722 336.514C74.1611 339.882 78.4161 348.718 78.782 348.994C79.0122 349.169 79.8446 350.682 80.6328 352.358C82.5857 356.511 93.3932 372.758 94.4786 373.175C94.9589 373.36 95.2119 373.738 95.0412 374.015C94.8704 374.291 95.2805 374.905 95.9559 375.377C96.6298 375.848 97.0216 376.393 96.8279 376.588C96.6328 376.783 97.1832 377.406 98.0506 377.975C98.9181 378.543 99.6285 379.288 99.6285 379.631C99.6285 380.721 117.251 398.763 124.631 405.229C126.811 407.139 129.173 409.257 129.878 409.933C130.584 410.611 131.411 411.166 131.714 411.166C132.017 411.166 132.624 411.742 133.063 412.444C133.504 413.146 133.99 413.594 134.147 413.439C134.303 413.282 135.272 413.94 136.301 414.9C137.329 415.86 138.401 416.504 138.681 416.331C138.962 416.157 139.414 416.407 139.686 416.887C140.337 418.032 150.849 425.182 151.882 425.182C152.323 425.182 152.683 425.452 152.683 425.779C152.683 426.108 153.369 426.55 154.207 426.76C155.046 426.971 155.732 427.37 155.732 427.646C155.732 427.923 156.692 428.497 157.866 428.921C159.04 429.346 160 429.958 160 430.281C160 430.604 160.176 430.696 160.389 430.481C160.603 430.268 161.494 430.598 162.371 431.215C164.374 432.625 169.099 434.802 180.734 439.674C216.398 454.612 263.721 458.189 302.65 448.888C309.939 447.147 310.075 447.101 309.687 446.475C309.497 446.167 309.742 446.07 310.232 446.257C312.486 447.121 331.56 440.347 342.945 434.639C345.125 433.546 347.644 432.478 348.543 432.268C349.443 432.056 350.568 431.493 351.047 431.016C351.524 430.539 352.974 429.705 354.269 429.165C355.564 428.624 356.77 427.981 356.95 427.736C357.129 427.49 357.962 426.94 358.8 426.511C362.923 424.405 364.023 423.714 364.479 422.944C364.751 422.486 365.184 422.24 365.441 422.399C365.699 422.557 366.763 421.908 367.807 420.954C368.852 420.001 369.853 419.367 370.033 419.547C370.212 419.725 370.53 419.423 370.741 418.875C370.952 418.325 371.335 418.006 371.594 418.166C371.852 418.325 372.797 417.775 373.695 416.944C374.593 416.113 375.579 415.432 375.886 415.432C376.191 415.432 376.737 414.883 377.095 414.213C377.453 413.542 378.135 412.994 378.606 412.994C379.078 412.994 379.892 412.385 380.414 411.64C380.937 410.895 381.364 410.526 381.364 410.82C381.364 411.114 382.719 410.025 384.376 408.399C386.032 406.774 387.253 405.227 387.088 404.961C386.924 404.694 387.149 404.615 387.59 404.784C388.75 405.229 413.074 381.2 413.074 379.609C413.074 379.279 413.769 378.552 414.618 377.996C415.467 377.44 416.009 376.737 415.821 376.433C415.632 376.13 416.059 375.572 416.768 375.193C417.477 374.813 417.937 374.384 417.791 374.236C417.645 374.09 418.446 372.993 419.573 371.8C420.7 370.605 421.467 369.376 421.276 369.068C421.085 368.759 421.226 368.507 421.589 368.507C422.275 368.507 428.929 358.701 428.929 357.69C428.929 357.374 429.478 356.482 430.149 355.71C430.82 354.937 431.368 353.935 431.368 353.484C431.368 353.032 431.593 352.663 431.865 352.663C432.324 352.663 434.591 348.639 434.683 347.661C434.704 347.424 435.934 344.818 437.415 341.872C438.895 338.925 440.443 335.691 440.854 334.685C441.266 333.68 442.016 331.897 442.52 330.724C444.63 325.809 446.641 319.487 446.341 318.704C446.163 318.242 446.275 318.023 446.589 318.216C447.519 318.791 452.217 301.793 452.337 297.422C452.375 296.032 452.613 295.021 452.864 295.173C453.116 295.325 453.322 295.293 453.322 295.1C453.322 294.906 453.857 291.395 454.511 287.293C461.518 243.355 453.665 199.182 431.786 159.481C429.108 154.621 426.684 150.553 426.398 150.442C426.113 150.329 425.88 149.85 425.88 149.376C425.88 148.9 425.606 148.512 425.27 148.512C424.935 148.512 424.66 148.152 424.66 147.712C424.66 147.273 424.112 146.324 423.441 145.605C422.77 144.886 422.221 144.072 422.221 143.798C422.221 143.524 421.438 142.441 420.479 141.392C419.521 140.344 418.57 139.049 418.364 138.515C418.158 137.98 417.707 137.543 417.363 137.543C417.016 137.543 416.733 137.223 416.733 136.833C416.733 136.441 416.32 135.687 415.817 135.157C415.312 134.625 413.569 132.683 411.944 130.839C398.019 115.048 389.113 106.675 375.727 96.784C368.013 91.083 355.256 83.0724 351.777 81.7454C350.274 81.171 349.043 80.4991 349.043 80.2523C349.043 80.004 348.202 79.6338 347.173 79.4281C345.961 79.1859 345.458 78.805 345.743 78.3434C346.003 77.9214 345.918 77.7964 345.534 78.0326C344.607 78.6054 342.875 77.8193 343.354 77.0438C343.605 76.637 343.377 76.5395 342.741 76.7833C342.183 76.9981 341.726 76.9585 341.726 76.6965C341.726 75.9179 337.435 74.108 336.653 74.5574C336.257 74.7829 336.143 74.7372 336.4 74.4554C338.472 72.1762 300.52 61.3714 281.659 58.8729C273.905 57.8445 243.416 57.6799 234.846 58.62ZM275.865 68.1358C392.913 78.7867 471.987 194.226 440.078 307.872C420.855 376.341 360.438 429.75 288.414 441.942C187.117 459.091 88.629 392.398 69.2063 293.5C44.4966 167.675 146.563 56.3682 275.865 68.1358ZM263.442 170.764C260.742 173.462 262.073 182.334 265.177 182.334C267.958 182.334 270.616 175.137 269.049 171.854C268.066 169.794 265.008 169.201 263.442 170.764ZM214.779 171.083C211.955 172.728 213.248 178.153 217.25 181.455C220.983 184.535 222.784 182.367 221.493 176.35C220.491 171.677 217.62 169.425 214.779 171.083ZM239.918 172.131C237.416 174.154 238.673 181.293 241.931 183.574C245.387 185.993 247.812 175.879 244.556 172.625C242.713 170.783 241.716 170.676 239.918 172.131ZM286.09 174.535C283.596 177.29 283.151 185.075 285.438 185.952C286.873 186.502 290.96 181.927 291.472 179.199C292.338 174.585 288.813 171.531 286.09 174.535ZM305.725 185.708C303.986 187.569 302.2 193.53 302.996 194.818C304.123 196.638 309.14 194.252 311.204 190.916C314.394 185.759 309.777 181.373 305.725 185.708ZM197.809 190.375C193.418 191.943 195.902 198.716 201.478 200.386C206.883 202.004 206.665 194.423 201.212 191.1C199.205 189.878 199.201 189.877 197.809 190.375ZM223.557 191.51C220.403 193.718 224.444 202.749 228.586 202.749C231.71 202.749 230.196 191.819 226.952 190.951C225.052 190.444 225.089 190.437 223.557 191.51ZM262.405 192.741C260.083 195.211 261.263 203.968 263.918 203.968C265.099 203.968 267.895 199.214 268.346 196.442C269.011 192.348 265.078 189.898 262.405 192.741ZM243.573 193.882C241.757 195.814 242.089 199.061 244.471 202.656C246.513 205.74 247.6 205.846 248.759 203.074C251.413 196.727 247.469 189.738 243.573 193.882ZM280.294 195.15C277.997 196.757 276.698 204.819 278.495 206.311C279.486 207.132 283.352 204.148 284.72 201.506C287.059 196.989 283.98 192.569 280.294 195.15ZM294.817 204.055C292.035 206.645 290.467 213.718 292.675 213.718C295.431 213.718 300.868 208.813 300.868 206.325C300.868 202.927 297.418 201.632 294.817 204.055ZM211.361 206.136C208.33 208.257 210.232 212.612 215.311 215.172C219.27 217.168 220.044 216.436 218.841 211.841C217.485 206.657 214.198 204.149 211.361 206.136ZM181.134 207.519C178.513 210.414 181.187 214.194 186.809 215.54C190.82 216.503 191.939 215.796 190.959 212.918C189.127 207.548 183.772 204.606 181.134 207.519ZM312.759 210.575C310.722 211.818 307.879 216.918 308.427 218.344C309.142 220.204 317.191 217.478 318.566 214.913C320.522 211.259 316.525 208.273 312.759 210.575ZM198.158 219.552C195.045 222.661 199.798 227.686 205.889 227.721C208.58 227.738 208.766 227.012 206.973 223.502C204.753 219.154 200.474 217.236 198.158 219.552ZM332.22 220.964C329.674 222.515 327.607 225.254 327.825 226.785C328.136 228.955 335.649 228.527 338.077 226.2C342.383 222.079 337.521 217.734 332.22 220.964ZM167.699 221.956C164.806 224.849 168.042 228.975 173.543 229.406C178.042 229.759 179.537 228.67 178.013 226.153C175.479 221.976 169.937 219.719 167.699 221.956ZM313.336 229.538C311.515 230.274 308.087 234.386 308.311 235.564C308.704 237.634 316.36 237.238 318.568 235.032C322.041 231.562 318.228 227.558 313.336 229.538ZM187.137 233.05C184.079 233.801 183.449 236.597 185.806 238.952C188.239 241.385 196.589 241.664 196.589 239.313C196.589 237.631 189.892 232.121 188.529 232.68C188.435 232.72 187.808 232.886 187.137 233.05ZM162.273 242.807C156.988 243.579 158.537 249.221 164.126 249.551C167.545 249.752 171.587 248.403 171.587 247.056C171.587 244.833 165.964 242.266 162.273 242.807ZM336.358 247.595C332.571 249.48 332.278 250.842 335.344 252.303C340.079 254.559 345.994 253.133 345.994 249.733C345.994 245.883 341.706 244.932 336.358 247.595ZM317.938 248.415C314.825 249.361 312.454 250.936 312.454 252.061C312.454 254.34 320.467 256.133 323.471 254.527C325.7 253.336 324.446 248.454 321.913 248.454C321.461 248.454 320.726 248.342 320.28 248.203C319.833 248.064 318.78 248.159 317.938 248.415ZM188.357 254.989C183.574 256.165 184.829 261.861 189.872 261.861C193.081 261.861 198.521 258.022 197.545 256.444C196.699 255.076 191.413 254.239 188.357 254.989ZM166.486 261.906C163.296 264.413 165.024 268.565 169.256 268.565C171.387 268.565 175.09 266.409 177.055 264.026C179.507 261.052 169.998 259.145 166.486 261.906ZM456.193 264.444C456.046 265.202 455.921 264.726 455.915 263.385C455.907 262.044 456.028 261.424 456.18 262.006C456.333 262.59 456.339 263.687 456.193 264.444ZM312.651 267.16C309.131 267.846 309.457 269.68 313.561 272.281C319.597 276.106 325.965 272.205 320.871 267.803C319.681 266.775 316.083 266.493 312.651 267.16ZM332.731 269.439C329.544 270.878 330.479 272.98 335.173 274.941C339.742 276.848 343.707 275.75 343.707 272.576C343.707 269.1 337.448 267.311 332.731 269.439ZM194.873 270.387C190.694 271.374 188.59 275.131 190.996 277.307C192.741 278.885 195.417 278.55 197.987 276.432C203.832 271.618 202.293 268.632 194.873 270.387ZM304.958 280.625C302.696 281.096 306.207 287.278 309.672 288.921C313.493 290.734 316.351 288.537 314.859 284.935C313.762 282.289 308.329 279.923 304.958 280.625ZM175.398 281.94C169.337 284.725 171.552 291.823 177.69 289.283C180.268 288.215 183.901 284.024 183.667 282.386C183.404 280.531 178.987 280.291 175.398 281.94ZM203.912 284.77C200.681 286.171 199.029 288.003 199.029 290.184C199.029 295.737 205.282 294.448 208.411 288.249C210.572 283.966 208.847 282.633 203.912 284.77ZM322.669 292.809C320.176 293.328 322.899 299.317 326.468 301.162C330.889 303.446 334.705 300.568 332.56 296.564C331.42 294.433 325.555 292.207 322.669 292.809ZM216.64 294.909C212.978 297.675 211.361 300.962 212.675 302.967C215.699 307.581 220.397 303.758 220.592 296.524C220.698 292.597 220.053 292.332 216.64 294.909ZM294.437 295.421C292.984 297.772 296.245 304.959 299.241 306.011C302.408 307.125 304.579 303.158 302.711 299.67C301.525 297.454 295.192 294.203 294.437 295.421ZM231.536 297.969C227.919 301.779 226.932 304.997 228.64 307.431C231.981 312.201 237.476 303.866 235.076 297.664C234.247 295.52 233.828 295.557 231.536 297.969ZM188.797 299.424C184.606 301.518 182.919 304.844 184.733 307.431C186.745 310.303 191.209 308.476 193.594 303.805C195.957 299.178 193.598 297.023 188.797 299.424ZM246.309 302.423C242.4 306.637 242.922 313.661 247.145 313.661C250.598 313.661 251.971 308.812 250.066 303.347C249.117 300.627 248.187 300.399 246.309 302.423ZM279.835 306.318C278.192 313.795 284.892 320.693 287.399 314.106C288.237 311.901 287.389 309.727 284.548 306.805C281.834 304.014 280.375 303.863 279.835 306.318ZM262.562 307.258C260.045 312.779 261.898 319.325 265.662 318.207C268.837 317.266 269.471 313.312 267.175 308.763C265.527 305.495 263.646 304.881 262.562 307.258ZM208.176 312.335C200.416 315.829 199.521 326.6 207.237 323.641C209.043 322.948 210.693 318.746 210.493 315.349C210.309 312.198 209.838 311.587 208.176 312.335ZM307.821 312.683C306.678 315.658 311.219 322.802 314.252 322.802C316.093 322.802 317.943 321.16 317.943 319.525C317.943 315.381 309.084 309.394 307.821 312.683ZM224.272 318.867C220.168 323.215 220.217 328.975 224.359 329.382C228.17 329.755 230.644 324.094 228.934 318.912C228.013 316.126 226.87 316.114 224.272 318.867ZM243.775 324.37C241.403 327.478 241.005 332.453 242.983 334.294C247.321 338.333 251.409 330.377 248.189 324.158C246.881 321.627 245.83 321.678 243.775 324.37ZM288.074 326.116C285.933 332.598 291.85 340.298 295.129 335.298C296.652 332.973 295.803 329.969 292.708 326.74C289.573 323.471 288.975 323.39 288.074 326.116ZM265.28 328.118C261.765 334.911 265.791 343.229 270.377 338.647C272.107 336.917 271.926 333.511 269.906 329.818C267.929 326.204 266.537 325.692 265.28 328.118Z" fill="#0B0906"/>
<path fill-rule="evenodd" clip-rule="evenodd" d="M237.743 83.9998C190.106 89.2094 146.318 114.126 118.57 151.811C116.844 154.154 115.219 156.345 114.956 156.68C105.233 169.083 94.6786 192.613 89.8416 212.672C72.4475 284.799 102.896 359.43 165.507 398.13C170.828 401.419 189.121 410.774 190.232 410.774C190.597 410.774 191.372 411.037 191.953 411.359C196.737 414.014 215.646 419.463 226.788 421.395C279.392 430.526 331.94 415.425 372.066 379.648C382.876 370.009 400.855 348.181 404.077 340.784C404.296 340.282 405.296 338.501 406.299 336.828C408.109 333.804 411.428 327.21 413.191 323.134C413.698 321.962 414.652 319.771 415.311 318.265C431.638 280.936 432.257 231.309 416.888 191.675C413.646 183.311 402.645 162.07 400.813 160.636C400.6 160.468 400.089 159.694 399.678 158.913C399.268 158.134 398.562 157.039 398.108 156.479C397.656 155.92 395.619 153.223 393.58 150.487C358.55 103.454 297.607 77.4527 237.743 83.9998ZM255.509 134.809C257.097 140.638 257.889 157.107 257.866 183.833L257.841 211.596L259.326 213.198C261.207 215.226 262.963 215.234 264.828 213.221C266.952 210.93 267.389 209.169 271.544 186.197C273.839 173.514 274.192 172 279.726 151.141C281.341 145.043 284.94 135.929 285.585 136.291C286.513 136.812 285.842 145.98 284.292 153.941C283.478 158.125 282.238 164.698 281.533 168.548C280.83 172.397 279.481 178.285 278.531 181.633C276.482 188.867 272.031 207.352 271.471 210.955C270.245 218.843 279.301 217.177 282.081 209.003C282.534 207.673 283.517 205.627 284.267 204.455C285.017 203.284 287.744 197.806 290.328 192.283C292.91 186.76 295.463 181.42 296.001 180.415C303.108 167.136 303.93 165.756 311.834 153.859C322.134 138.355 319.994 147.824 307.828 171.591C300.581 185.745 298.723 189.277 298.145 190.003C297.812 190.421 296.503 192.679 295.238 195.022C293.972 197.365 291.641 201.473 290.057 204.151C283.624 215.032 282.781 217.772 285.195 219.957C287.882 222.39 291.067 220.731 297.202 213.706C300.394 210.052 300.501 209.848 298.3 211.59C293.439 215.439 291.301 215.395 291.301 211.444C291.301 204.63 297.109 199.395 300.691 202.978C301.681 203.967 301.992 207.39 301.191 208.492C300.94 208.836 303.878 205.81 307.722 201.767C324.197 184.429 344.394 165.505 346.42 165.505C350.49 165.505 331.362 187.106 304.326 213.04C295.648 221.364 294.646 223.018 296.65 225.713C298.865 228.692 301.397 228.266 308.046 223.792C310.669 222.028 313.109 220.389 313.47 220.15C316.591 218.085 324.256 213.585 324.65 213.585C324.924 213.585 327.22 212.237 329.755 210.59C332.29 208.942 336.438 206.624 338.972 205.437C341.507 204.25 347.323 201.467 351.895 199.253C369.216 190.867 368.437 193.905 350.239 205.703C341.026 211.677 338.117 213.294 311.408 227.278C299.609 233.457 296.859 236.435 299.921 239.72C301.703 241.632 306.508 241.211 317.167 238.207C321.519 236.981 326.038 235.765 327.209 235.505C333.261 234.16 340.537 232.413 342.425 231.853C343.596 231.507 348.526 230.525 353.38 229.675C358.233 228.824 363.3 227.872 364.639 227.558C367.86 226.804 379.55 226.061 379.55 226.61C379.55 228.001 356.351 235.622 346.989 237.308C344.646 237.73 341.223 238.468 339.382 238.948C337.541 239.429 333.159 240.341 329.644 240.972C304.053 245.578 301.039 246.603 301.039 250.708C301.039 254.288 304.472 255.44 317.472 256.225C349.862 258.179 370.243 260.426 379.094 263.016C384.483 264.592 380.443 265.304 366.161 265.296C356.529 265.292 333.868 263.912 332.81 263.265C331.671 262.568 305.17 259.728 303.221 260.093C296.367 261.379 298.865 267.728 307.43 270.789C309.438 271.507 312.078 272.623 313.294 273.269C316.869 275.168 316.793 274.617 313.184 272.464C307.573 269.114 308.516 266.576 315.562 266.072C318.797 265.841 320.064 266.001 321.277 266.795C324.996 269.231 323.47 274.36 318.993 274.473C317.694 274.505 318.322 274.83 321.174 275.6C323.377 276.195 327.261 277.548 329.804 278.607C332.348 279.666 334.714 280.531 335.062 280.531C335.412 280.531 337.142 281.193 338.909 282.004C340.675 282.814 343.901 284.074 346.076 284.804C353.048 287.142 370.424 295.197 371.629 296.647C373.146 298.478 371.071 298.084 352.467 293.017C346.171 291.302 330.882 285.438 309.255 276.443C300.91 272.971 298.465 272.443 295.796 273.537C290.776 275.596 293.04 280.837 302.167 288.296C310.015 294.707 316.034 299.75 320.528 303.678C322.377 305.293 324.979 307.476 326.31 308.527C333.343 314.081 352.818 334.244 351.971 335.092C351.298 335.766 341.093 328.966 335.006 323.79C332.433 321.602 330.934 320.388 329.044 318.957C324.41 315.452 313.295 305.404 301.563 294.111C290.959 283.908 287.184 282.447 285.311 287.821C284.429 290.354 285.381 292.133 296.26 308.267C308.064 325.774 325.323 355.876 324.673 357.826C324.115 359.501 310.961 342.993 305.016 333.159C303.404 330.491 301.333 327.212 300.414 325.873C298.337 322.846 292.275 312.681 289.165 307.006C281.39 292.825 277.352 288.947 273.929 292.372C271.919 294.38 271.986 297.087 274.221 304.292C275.204 307.458 276.574 312.289 277.267 315.027C277.959 317.766 279.325 322.285 280.304 325.069C281.982 329.848 284.998 341.907 286.364 349.304C286.705 351.145 287.511 355.116 288.158 358.129C289.781 365.702 290.375 371.823 289.486 371.823C288.678 371.823 285.678 365.463 284.607 361.476C284.202 359.97 282.553 354.766 280.941 349.913C278.225 341.73 276.037 333.909 274.386 326.481C272.272 316.964 271.085 311.601 270.618 309.44C270.329 308.101 269.626 304.873 269.057 302.265C267.546 295.354 265.07 292.129 261.889 292.927C258.211 293.851 257.676 298.647 258.721 321.308C259.386 335.706 257.257 374.421 255.717 375.963C252.974 378.706 251.481 341.75 253.237 314.572C254.392 296.704 254.159 293.833 251.451 292.599C247.691 290.887 245.322 293.805 243.918 301.883C243.008 307.111 243.098 308.187 244.192 305.198C245.059 302.826 247.808 299.398 248.842 299.398C251.424 299.398 252.781 311.382 250.389 313.057C247.363 315.178 244.166 313.646 243.212 309.617L242.737 307.615L242.679 310.049C242.586 313.978 238.673 333.406 235.752 344.435C235.087 346.946 233.774 351.962 232.834 355.584C230.857 363.194 228.149 370.605 227.344 370.605C226.639 370.605 226.659 364.203 227.382 359.042C229.287 345.411 232.531 328.298 234.475 321.613C234.962 319.939 235.886 315.968 236.528 312.788C237.17 309.608 238.386 304.404 239.23 301.224C241.388 293.089 241.051 290.056 237.899 289.265C235.126 288.568 233.649 289.942 230.787 295.879C229.288 298.986 228.529 300.854 229.1 300.033C234.096 292.816 236.925 293.723 236.392 302.371C235.944 309.681 227.599 312.127 227.335 305.028L227.272 303.354L226.784 305.18C225.641 309.453 219.873 323.609 217.916 326.949C216.748 328.943 215.088 332.256 214.228 334.31C208.775 347.341 197.575 365.504 197.575 361.315C197.575 359.139 205.221 338.991 208.947 331.35C210.252 328.672 211.982 324.838 212.792 322.83C213.601 320.821 216.95 313.841 220.232 307.318C228.961 289.969 229.971 286.496 226.779 284.787C223.575 283.072 220.707 285.289 214.02 294.647C201.177 312.62 180.224 337.165 172.442 343.354C166.623 347.98 169.841 341.937 181.581 326.189C189.929 314.992 192.449 311.86 197.989 305.789C200.737 302.776 203.754 299.298 204.693 298.059C205.632 296.819 208.465 293.396 210.987 290.452C218.126 282.117 219.016 280.15 216.702 277.837C214.227 275.36 209.884 277.32 199.27 285.705C187.163 295.269 180.371 300.135 170.344 306.432C165.576 309.425 160.92 312.351 159.998 312.932C154.72 316.261 146.452 319.893 146.452 318.883C146.452 318.058 153.267 312.068 158.575 308.223C161.349 306.215 165.302 303.191 167.359 301.504C171.467 298.137 175.44 295.41 195.548 282.159C209.408 273.027 210.965 271.688 210.965 268.907C210.965 266.439 209.644 265.736 205.641 266.074C201.426 266.43 196.292 268.476 198.792 268.805C203.666 269.444 204.054 270.197 201.446 273.959C197.19 280.101 189.663 280.358 189.663 274.36C189.663 273.28 190.234 272.295 191.337 271.472C192.446 270.646 190.651 271.153 186.011 272.976C154.16 285.493 119.365 294.592 136.743 285.86C148.542 279.93 162.659 274.719 192.457 265.293C203.098 261.926 205.758 260.639 206.803 258.343C208.53 254.555 204.147 252.59 196.358 253.663C194.182 253.963 193.137 254.241 194.036 254.284C199.349 254.535 200.125 256.838 196.028 260.196C190.238 264.94 181.199 260.945 186.264 255.88L187.808 254.335L182.801 254.693C180.049 254.889 174.783 255.305 171.1 255.617C157.276 256.787 125.949 255.962 124.333 254.384C122.803 252.89 142.745 250.109 155.022 250.103C160.238 250.101 160.774 249.858 159.516 248.059C157.478 245.153 159.713 242.229 164.056 242.119L166.84 242.049L164.71 241.556C163.538 241.285 161.621 240.788 160.45 240.45C159.278 240.112 156.402 239.379 154.059 238.821C148.095 237.399 131.093 232.167 129.266 231.19C128.685 230.88 127.828 230.626 127.363 230.626C126.897 230.626 126.176 230.215 125.759 229.713C124.437 228.12 129.237 228.529 150.712 231.846C152.888 232.182 155.763 232.751 157.102 233.113C158.441 233.474 160.358 233.9 161.363 234.06C162.367 234.221 167.571 235.408 172.926 236.698C187.606 240.234 186.285 240.047 185.15 238.426C181.654 233.434 187.729 230.04 193.367 233.838C198.878 237.552 198.648 240.938 192.878 241.057L188.75 241.144L191.793 241.596C193.467 241.845 196.343 242.489 198.184 243.024C204.037 244.73 207.921 243.831 207.921 240.768C207.921 237.825 207.243 237.401 189.055 228.961C185.841 227.47 178.696 224.54 178.274 224.54C178.163 224.54 178.524 225.232 179.078 226.076C181.267 229.418 175.321 231.415 169.912 229.156C164.366 226.839 165.682 219.678 171.511 220.46C173.182 220.684 173.772 220.609 173.199 220.247C172.715 219.94 171.481 219.684 170.46 219.68C167.158 219.663 137.508 201.632 138.747 200.395C139.822 199.319 167.657 211.231 182.539 219.135C184.391 220.118 189.773 223.068 193.923 225.375C208.83 233.66 212.684 234.954 215.377 232.59C218.832 229.554 214.324 224.336 196.07 210.237C185.322 201.936 161.218 178.264 158.676 173.512C155.316 167.235 175.706 183.515 203.781 209.524C211.792 216.944 218.945 223.35 219.677 223.756C224.187 226.265 228.459 222.202 226.099 217.653C225.159 215.841 212.048 196.293 209.49 192.892C203.984 185.566 186.011 153.478 186.011 150.973C186.011 149.011 190.106 152.92 193.904 158.506C195.042 160.179 196.154 161.686 196.375 161.853C197.047 162.364 206.855 177.044 209.443 181.415C230.9 217.649 232.546 219.795 236.761 217.034C240.036 214.887 239.187 209.982 232.268 191.066C230.512 186.267 229.822 183.997 226.823 173.112C218.295 142.169 217.332 123.308 225.58 148.768C226.665 152.115 227.774 155.402 228.045 156.071C230.086 161.107 234.265 175.572 238.684 192.892C243.827 213.046 244.609 214.802 248.447 214.802C252.119 214.802 253.102 212.329 252.682 204.151C250.657 164.657 252.346 123.199 255.509 134.809ZM268.923 170.246C272.262 173.112 269.492 183.154 265.361 183.154C262.306 183.154 260.181 174.322 262.458 171.073C264.203 168.583 266.624 168.272 268.923 170.246ZM220.202 171.438C223.933 175.46 224.191 183.763 220.587 183.763C217.484 183.763 212.79 178.03 212.79 174.241C212.79 170.2 217.426 168.447 220.202 171.438ZM244.064 171.061C247.133 172.459 248.119 178.778 245.868 182.631C244.148 185.578 242.259 185.391 239.903 182.037C235.668 176.011 238.504 168.528 244.064 171.061ZM292.105 174.765C295.171 178.888 287.683 189.54 284.491 185.596C282.443 183.067 283.093 176.851 285.719 173.844C287.157 172.198 290.56 172.688 292.105 174.765ZM311.95 184.758C314.105 187.498 313.225 190.543 309.275 194.01C305.357 197.45 302.253 197.125 302.259 193.274C302.273 185.797 308.478 180.344 311.95 184.758ZM201.631 190.022C205.422 192.148 208.092 199.503 205.772 201.429C203.521 203.296 196.375 198.943 195.415 195.119C194.346 190.861 197.913 187.936 201.631 190.022ZM229.192 191.338C231.695 194.003 232.085 202.032 229.772 203.27C227.143 204.678 221.92 198.75 221.92 194.357C221.92 190.044 226.277 188.235 229.192 191.338ZM266.625 190.835C269.659 192 269.944 197.126 267.232 201.797C264.837 205.924 262.98 205.656 261.431 200.962C259.253 194.362 261.977 189.052 266.625 190.835ZM249.03 193.169C251.369 195.507 250.801 204.302 248.207 205.904C246.138 207.184 242.004 201.408 242.004 197.239C242.004 192.294 245.899 190.038 249.03 193.169ZM285.32 194.508C287.131 196.148 286.76 199.587 284.4 203.019C280.264 209.034 277.303 208.688 277.303 202.19C277.303 195.278 281.609 191.151 285.32 194.508ZM216.994 206.023C219.888 208.459 221.819 216.069 219.745 216.865C218.405 217.379 213.236 215.036 211.404 213.084C206.622 207.987 211.701 201.569 216.994 206.023ZM188.689 207.527C191.344 209.858 193.224 214.359 192.104 215.709C190.59 217.531 184.645 216.288 181.693 213.531C176.318 208.509 183.139 202.654 188.689 207.527ZM318.645 210.319C321.68 214.18 317.624 218.873 310.955 219.216C307.446 219.397 306.917 218.18 308.854 214.383C311.704 208.798 316.034 206.999 318.645 210.319ZM204.382 218.746C207.077 220.577 210.336 226.629 209.224 227.741C207.523 229.442 200.773 227.755 198.508 225.061C194.456 220.244 199.154 215.193 204.382 218.746ZM340.363 221.857C341.291 225.554 337.519 228.794 332.281 228.798C328.18 228.8 327.209 228.377 327.209 226.583C327.209 220.308 338.918 216.1 340.363 221.857ZM319.45 229.291C323.088 232.415 319.439 236.893 312.994 237.218C307.676 237.488 306.473 236.689 307.942 233.865C310.535 228.879 316.302 226.587 319.45 229.291ZM168.671 243.064C172.646 244.875 173.606 247.676 170.658 248.859C168.944 249.547 178.583 249.664 189.815 249.092C200.311 248.557 200.21 247.846 189.359 245.848C182.763 244.633 172.383 242.929 168.97 242.5L166.84 242.23L168.671 243.064ZM344.885 245.855C347.991 247.516 347.58 251.766 344.176 253.175C340.311 254.775 332.687 252.755 332.687 250.128C332.687 246.99 341.34 243.957 344.885 245.855ZM324.242 248.648C325.869 250.121 325.752 253.426 324.031 254.631C321.415 256.463 314.182 255.478 312.136 253.012C309.164 249.427 320.563 245.319 324.242 248.648ZM178.026 261.331C180.239 263.542 174.128 269.134 169.503 269.134C164.731 269.134 162.7 264.703 165.953 261.389C168.121 259.181 175.84 259.143 178.026 261.331ZM341.201 268.052C347.367 271.24 345.421 276.679 338.32 276.108C329.928 275.434 327.611 269.289 335.188 267.801C339.05 267.042 339.266 267.051 341.201 268.052ZM184.172 280.518C186.801 283.147 180.648 290.269 175.746 290.269C170.157 290.269 169.993 283.299 175.527 280.964C180.316 278.94 182.483 278.829 184.172 280.518ZM309.835 279.988C314.976 281.415 317.746 286.344 314.969 289.12C312.518 291.572 307.694 289.559 304.846 284.898C301.926 280.119 303.77 278.305 309.835 279.988ZM210.21 284.796C210.634 290.513 203.64 296.374 199.955 293.391C196.373 290.491 199.255 285.227 205.487 283.282C209.335 282.082 210.024 282.303 210.21 284.796ZM327.485 292.16C330.421 292.976 333.904 296.302 333.904 298.289C333.904 304.882 324.891 303.258 321.68 296.088C319.803 291.894 321.759 290.572 327.485 292.16ZM221.536 296.772C221.42 303.03 218.143 306.732 214.275 304.97C209.785 302.924 211.611 296.485 217.58 293.308C221.171 291.398 221.627 291.798 221.536 296.772ZM299.073 295.369C304.18 298.628 305.771 302.122 303.477 305.037C299.843 309.656 293.736 304.419 293.736 296.685C293.736 293.42 295.382 293.014 299.073 295.369ZM194.572 297.594C198.234 299.554 192.896 309.063 188.105 309.116C181.87 309.183 182.53 301.723 189.055 298.396C192.157 296.813 192.909 296.704 194.572 297.594ZM285.6 306.187C288.993 309.917 289.632 313.294 287.373 315.554C283.406 319.522 279.129 315.386 279.129 307.583C279.129 302.762 281.935 302.158 285.6 306.187ZM266.227 305.503C269.86 308.887 270.703 315.07 267.864 317.512C262.592 322.046 258.512 313.119 262.706 306.225C264.101 303.929 264.46 303.855 266.227 305.503ZM314.4 312.768C318.604 315.761 319.867 319.522 317.472 321.917C314.976 324.412 311.608 323.269 308.91 319.015C304.625 312.26 308.113 308.29 314.4 312.768ZM211.576 311.879C213.244 313.889 211.153 321.473 208.398 323.402C204.175 326.36 199.626 321.868 202.088 317.17C204.468 312.628 209.752 309.681 211.576 311.879ZM229.492 317.183C231.921 320.649 229.921 328.716 226.417 329.596C220.346 331.119 218.723 324.088 223.861 318.515C226.618 315.523 228.086 315.177 229.492 317.183ZM248.975 323.286C250.488 326.915 250.68 330.536 249.484 332.835C247.159 337.304 241.922 336.291 241.499 331.289C240.916 324.383 246.807 318.078 248.975 323.286ZM293.281 325.448C298.405 330.246 298.112 337.132 292.783 337.132C289.1 337.132 286.104 331.209 287.327 326.34C288.232 322.729 290.081 322.452 293.281 325.448ZM269.256 326.945C275.131 333.199 271.842 343.889 265.565 338.95C262.833 336.802 262.639 330.396 265.206 327.133C266.719 325.209 267.587 325.168 269.256 326.945Z" fill="#AECA54"/>
<path fill-rule="evenodd" clip-rule="evenodd" d="M113.691 116.735C112.212 118.24 111.138 119.471 111.306 119.471C111.473 119.471 112.82 118.24 114.3 116.735C115.78 115.231 116.853 114 116.685 114C116.518 114 115.171 115.231 113.691 116.735ZM252.9 134.482C251.255 142.801 250.918 178.509 252.241 204.263C252.661 212.431 251.678 214.9 248.005 214.9C244.164 214.9 243.382 213.147 238.237 193.018C233.816 175.721 229.635 161.274 227.593 156.244C227.322 155.576 226.213 152.293 225.127 148.95C216.875 123.523 217.839 142.36 226.371 173.264C229.371 184.135 230.061 186.402 231.817 191.195C238.741 210.086 239.59 214.985 236.313 217.129C232.096 219.888 230.449 217.743 208.983 181.556C206.393 177.19 196.581 162.529 195.908 162.019C195.687 161.852 194.575 160.347 193.436 158.676C189.637 153.097 185.54 149.194 185.54 151.152C185.54 153.655 203.521 185.701 209.03 193.018C211.589 196.415 224.706 215.938 225.646 217.748C228.007 222.291 223.733 226.349 219.221 223.843C218.489 223.437 211.333 217.04 203.318 209.629C175.23 183.653 154.831 167.394 158.192 173.663C160.736 178.409 184.851 202.051 195.604 210.342C213.866 224.422 218.376 229.634 214.919 232.666C212.225 235.027 208.369 233.734 193.456 225.46C189.303 223.156 183.919 220.21 182.067 219.228C167.178 211.334 139.33 199.437 138.254 200.511C136.989 201.774 166.698 219.763 170.049 219.763C171.921 219.763 176.256 222.17 177.154 223.708C177.396 224.126 178.492 224.808 179.59 225.226C188.152 228.49 205.691 236.962 206.619 238.284C210.016 243.125 204.156 245.486 195.879 242.611C194.378 242.089 192.192 241.649 191.02 241.633C189.848 241.618 187.793 241.075 186.454 240.429C185.114 239.783 183.602 239.245 183.096 239.235C182.587 239.223 178.34 238.236 173.658 237.042C168.974 235.848 163.772 234.638 162.098 234.354C160.424 234.07 157.958 233.544 156.618 233.185C155.278 232.827 152.401 232.258 150.225 231.923C128.74 228.61 123.937 228.201 125.26 229.792C125.677 230.294 126.399 230.704 126.865 230.704C127.33 230.704 128.187 230.958 128.769 231.268C130.597 232.243 147.606 237.469 153.574 238.888C155.918 239.446 158.795 240.171 159.967 240.499C162.984 241.344 169.239 242.607 174.58 243.45C195.378 246.737 202.662 248.857 193.608 248.991C191.682 249.018 184.764 249.304 178.234 249.623C165.426 250.25 164.976 250.261 156.313 250.202C142.944 250.11 122.196 252.818 123.834 254.441C125.659 256.25 160.914 256.657 178.538 255.073C202.527 252.919 204.643 252.97 206.206 255.75C208.293 259.457 204.99 261.398 187.367 266.814C164.675 273.786 147.772 280.087 136.249 285.868C115.108 296.473 171.451 280.058 198.936 267.604C204.844 264.926 210.505 265.578 210.505 268.937C210.505 271.714 208.947 273.052 195.082 282.172C174.964 295.406 170.989 298.129 166.879 301.492C164.821 303.177 160.866 306.197 158.091 308.203C152.78 312.043 145.962 318.025 145.962 318.849C145.962 319.858 154.234 316.231 159.515 312.906C160.437 312.325 165.095 309.403 169.866 306.414C179.897 300.124 186.693 295.265 198.805 285.713C209.424 277.338 213.768 275.381 216.245 277.855C218.56 280.165 217.67 282.13 210.528 290.454C208.004 293.394 205.169 296.813 204.23 298.052C203.291 299.289 200.272 302.762 197.523 305.771C191.981 311.834 189.46 314.963 181.108 326.146C169.362 341.874 166.143 347.909 171.965 343.288C179.75 337.108 200.712 312.594 213.561 294.643C220.252 285.298 223.121 283.084 226.327 284.796C229.52 286.503 228.51 289.972 219.777 307.298C216.493 313.813 213.143 320.785 212.333 322.791C211.523 324.796 209.792 328.626 208.486 331.3C204.758 338.932 197.109 359.054 197.109 361.227C197.109 365.41 208.314 347.271 213.77 334.256C214.63 332.204 216.291 328.896 217.46 326.904C219.551 323.342 225.33 309.026 226.357 304.86C227.353 300.825 233.003 290.259 234.538 289.56C239.757 287.187 241.35 291.557 238.783 301.213C237.938 304.388 236.722 309.585 236.08 312.761C235.437 315.937 234.513 319.903 234.026 321.575C232.081 328.252 228.835 345.343 226.93 358.957C226.206 364.111 226.187 370.505 226.892 370.505C227.697 370.505 230.406 363.104 232.384 355.503C233.324 351.886 234.638 346.876 235.303 344.369C238.244 333.285 240.829 320.159 243.135 304.613C244.717 293.952 246.845 290.705 251.01 292.598C253.719 293.83 253.952 296.698 252.797 314.544C251.04 341.687 252.533 378.596 255.278 375.856C256.818 374.317 258.948 335.651 258.283 321.271C257.237 298.638 257.773 293.849 261.452 292.926C264.635 292.128 267.112 295.35 268.623 302.252C269.193 304.856 269.896 308.081 270.185 309.418C270.652 311.576 271.84 316.933 273.956 326.438C275.607 333.856 277.796 341.667 280.513 349.839C282.125 354.687 283.776 359.884 284.18 361.388C285.252 365.369 288.254 371.721 289.062 371.721C289.951 371.721 289.358 365.608 287.733 358.045C287.086 355.036 286.28 351.07 285.939 349.231C284.572 341.843 281.555 329.8 279.876 325.027C278.897 322.247 277.53 317.733 276.837 314.998C276.145 312.263 274.773 307.438 273.79 304.276C271.554 297.081 271.487 294.377 273.497 292.372C276.923 288.951 280.962 292.824 288.741 306.987C291.852 312.655 297.917 322.807 299.995 325.83C300.914 327.167 302.986 330.442 304.6 333.107C310.547 342.928 323.707 359.416 324.265 357.743C324.915 355.794 307.649 325.731 295.839 308.247C284.955 292.133 284.002 290.357 284.885 287.827C286.759 282.459 290.536 283.918 301.144 294.108C312.882 305.387 324.002 315.422 328.639 318.923C330.529 320.352 332.029 321.564 334.603 323.749C340.693 328.919 350.903 335.71 351.576 335.037C352.423 334.19 332.939 314.053 325.903 308.507C324.571 307.456 321.968 305.276 320.119 303.664C315.622 299.74 309.6 294.704 301.748 288.301C292.618 280.852 290.353 275.617 295.375 273.561C298.045 272.468 300.491 272.995 308.841 276.463C330.477 285.447 345.773 291.303 352.072 293.016C370.684 298.076 372.76 298.47 371.243 296.642C370.037 295.193 352.653 287.149 345.678 284.813C343.502 284.084 340.275 282.826 338.507 282.017C336.74 281.207 335.012 280.546 334.667 280.546C334.323 280.546 331.796 279.621 329.051 278.49C326.308 277.36 322.008 275.954 319.496 275.364C316.984 274.776 313.97 273.805 312.798 273.207C311.626 272.609 309.023 271.534 307.014 270.816C298.445 267.759 295.946 261.418 302.803 260.134C304.753 259.769 331.266 262.606 332.406 263.302C333.464 263.948 356.136 265.326 365.772 265.331C384.121 265.341 385.812 264.135 371.256 261.421C361.475 259.597 342.751 257.818 317.061 256.271C304.055 255.487 300.621 254.336 300.621 250.761C300.621 246.661 303.636 245.637 329.238 241.037C332.755 240.406 337.139 239.496 338.981 239.016C340.822 238.536 344.247 237.799 346.592 237.378C355.958 235.694 379.167 228.083 379.167 226.694C379.167 226.145 367.472 226.887 364.25 227.64C362.91 227.953 357.841 228.905 352.985 229.754C348.129 230.604 343.197 231.584 342.025 231.93C340.136 232.489 332.857 234.234 326.803 235.577C325.631 235.837 321.11 237.051 316.756 238.276C306.091 241.276 301.284 241.697 299.502 239.786C296.439 236.506 299.19 233.532 310.994 227.361C337.716 213.394 340.626 211.779 349.843 205.813C368.049 194.03 368.828 190.996 351.499 199.372C346.925 201.583 341.107 204.362 338.571 205.547C336.035 206.733 331.886 209.048 329.349 210.694C326.813 212.338 324.516 213.685 324.242 213.685C323.848 213.685 316.179 218.18 313.057 220.242C312.696 220.48 310.255 222.117 307.63 223.879C300.978 228.347 298.445 228.773 296.229 225.797C294.224 223.106 295.227 221.454 303.909 213.141C330.957 187.239 350.094 165.666 346.022 165.666C345.29 165.666 335.849 173.648 330.415 178.863C327.022 182.12 323.745 185.133 323.133 185.562C321.929 186.404 302.535 207.175 296.778 213.789C290.665 220.813 287.462 222.481 284.77 220.049C282.354 217.866 283.197 215.13 289.633 204.263C291.218 201.589 293.55 197.486 294.816 195.146C296.083 192.806 297.392 190.55 297.725 190.133C298.304 189.408 300.162 185.881 307.413 171.744C319.584 148.008 321.725 138.55 311.421 154.035C303.513 165.917 302.691 167.295 295.58 180.558C295.042 181.561 292.487 186.894 289.904 192.41C287.319 197.927 284.591 203.397 283.841 204.567C283.091 205.737 282.107 207.781 281.654 209.109C278.872 217.272 269.812 218.936 271.039 211.059C271.599 207.46 276.052 188.999 278.102 181.773C279.052 178.43 280.402 172.549 281.106 168.705C281.81 164.86 283.051 158.296 283.865 154.117C285.417 146.167 286.088 137.01 285.159 136.49C284.514 136.128 280.914 145.23 279.297 151.321C273.761 172.153 273.408 173.665 271.112 186.332C266.955 209.275 266.518 211.033 264.393 213.321C262.527 215.332 260.77 215.324 258.889 213.299L257.403 211.698L257.427 183.971C257.455 151.281 256.248 133.78 253.911 133.002C253.541 132.879 253.086 133.545 252.9 134.482ZM56.0003 264.439C56.0064 265.776 56.1313 266.251 56.2774 265.495C56.4235 264.74 56.4174 263.645 56.2652 263.063C56.113 262.483 55.9927 263.101 56.0003 264.439Z" fill="#EBEFB6"/>
<path fill-rule="evenodd" clip-rule="evenodd" d="M242.645 68.5447C126.333 78.1088 47.1899 181.851 69.8891 294.997C80.7261 349.015 115.667 394.806 167.362 422.736C204.881 443.008 256.547 449.428 299.93 439.208C328.694 432.433 362.825 415.06 381.287 397.796C382.628 396.542 385.885 393.565 388.524 391.178C392.843 387.274 400.02 379.42 406.994 370.971C440.19 330.738 453.757 269.621 441.616 215.006C438.638 201.602 429.906 177.738 424.909 169.339C424.307 168.329 421.799 164.075 419.337 159.887C415.736 153.762 406.477 140.565 404.806 139.171C404.605 139.004 402.907 136.948 401.035 134.602C366.196 90.9705 300.932 63.7528 242.645 68.5447ZM276.795 84.6219C324.215 90.6871 366.084 114.542 393.203 150.945C395.244 153.684 397.284 156.385 397.737 156.944C398.191 157.504 398.898 158.601 399.309 159.381C399.72 160.162 400.232 160.938 400.445 161.105C402.28 162.541 413.295 183.805 416.542 192.178C431.931 231.855 431.311 281.536 414.962 318.906C414.302 320.414 413.347 322.607 412.839 323.78C411.074 327.861 407.751 334.462 405.938 337.489C404.934 339.164 403.933 340.946 403.713 341.449C400.487 348.855 382.484 370.706 371.66 380.356C331.481 416.171 278.864 431.289 226.191 422.148C215.034 420.214 196.099 414.759 191.309 412.102C190.727 411.779 189.952 411.515 189.586 411.515C188.474 411.515 170.156 402.151 164.828 398.858C119.994 371.152 90.4676 323.963 85.0666 271.383C80.9729 231.529 93.0713 184.105 114.21 157.145C114.474 156.81 116.101 154.616 117.829 152.271C153.602 103.698 216.541 76.9131 276.795 84.6219ZM269.601 175.118C269.601 176.291 269.726 176.771 269.88 176.184C270.032 175.598 270.032 174.638 269.88 174.052C269.726 173.466 269.601 173.945 269.601 175.118ZM240.454 184.105C241.092 184.859 242.189 185.444 242.892 185.406C244.12 185.337 244.121 185.324 242.95 185.037C242.279 184.874 241.182 184.289 240.512 183.738C239.304 182.742 239.302 182.745 240.454 184.105ZM205.435 199.465C205.228 201.082 204.811 201.672 203.642 201.993C202.298 202.365 202.271 202.421 203.415 202.475C205.17 202.557 206.217 201.142 205.935 199.069C205.716 197.443 205.69 197.463 205.435 199.465ZM219.629 215.33C219.629 216.503 219.754 216.983 219.908 216.396C220.06 215.81 220.06 214.85 219.908 214.264C219.754 213.677 219.629 214.157 219.629 215.33ZM309.338 231.933L307.548 233.913L309.528 232.123C310.618 231.139 311.509 230.248 311.509 230.143C311.509 229.672 311.006 230.087 309.338 231.933ZM185.733 232.889C185.562 233.163 186.233 233.269 187.22 233.124C188.209 232.979 189.016 232.755 189.016 232.626C189.016 232.161 186.035 232.4 185.733 232.889ZM197.379 256.789C197.588 257.586 197.181 258.634 196.256 259.683L194.806 261.33L196.482 259.853C198.144 258.387 198.668 256.538 197.604 255.882C197.301 255.694 197.199 256.102 197.379 256.789ZM179.418 280.333C180.004 280.485 180.964 280.485 181.551 280.333C182.137 280.179 181.658 280.054 180.484 280.054C179.311 280.054 178.831 280.179 179.418 280.333ZM304.958 280.333C305.544 280.485 306.504 280.485 307.091 280.333C307.677 280.179 307.197 280.054 306.024 280.054C304.851 280.054 304.371 280.179 304.958 280.333ZM321.042 292.566C320.883 292.823 321.826 292.933 323.14 292.806C324.451 292.682 325.525 292.471 325.525 292.339C325.525 291.885 321.331 292.098 321.042 292.566ZM213.659 296.515L211.869 298.496L213.85 296.706C215.696 295.038 216.111 294.535 215.64 294.535C215.535 294.535 214.644 295.426 213.659 296.515ZM293.626 294.992C293.47 295.244 294.25 295.449 295.359 295.449C296.468 295.449 297.248 295.244 297.093 294.992C296.938 294.741 296.158 294.535 295.359 294.535C294.561 294.535 293.781 294.741 293.626 294.992ZM282.866 305.083C282.866 305.188 283.758 306.079 284.847 307.063L286.827 308.853L285.037 306.873C283.369 305.027 282.866 304.613 282.866 305.083ZM211.109 314.946C211.115 316.286 211.24 316.763 211.386 316.004C211.533 315.247 211.527 314.151 211.374 313.567C211.222 312.985 211.101 313.605 211.109 314.946ZM290.789 324.58C290.789 324.685 291.68 325.576 292.769 326.56L294.75 328.35L292.96 326.37C291.291 324.524 290.789 324.109 290.789 324.58ZM286.689 329.264C286.689 330.772 286.808 331.388 286.952 330.634C287.099 329.881 287.099 328.647 286.952 327.893C286.808 327.139 286.689 327.756 286.689 329.264ZM262.922 334.138C262.922 335.646 263.04 336.263 263.185 335.509C263.331 334.755 263.331 333.521 263.185 332.767C263.04 332.013 262.922 332.63 262.922 334.138Z" fill="#A7743B"/>
<path fill-rule="evenodd" clip-rule="evenodd" d="M254.339 67.2394C255.597 67.3721 257.655 67.3721 258.913 67.2394C260.171 67.1083 259.142 67 256.626 67C254.11 67 253.081 67.1083 254.339 67.2394ZM237.413 68.0323C235.736 68.2717 237.657 68.3281 241.683 68.1588C245.708 67.9896 249.116 67.7502 249.257 67.6282C249.678 67.2592 240.681 67.5657 237.413 68.0323ZM265.609 67.8462C266.691 67.9804 268.613 67.9835 269.878 67.8508C271.144 67.7182 270.258 67.6084 267.91 67.6053C265.562 67.6023 264.526 67.7105 265.609 67.8462ZM273.864 68.4531C274.793 68.5934 276.165 68.5903 276.914 68.4455C277.664 68.3006 276.906 68.1848 275.229 68.1893C273.552 68.1939 272.937 68.3128 273.864 68.4531ZM227.96 69.2353C224.911 69.8772 228.039 69.9032 231.619 69.2658C234.095 68.8267 234.155 68.7779 232.229 68.7825C231.055 68.784 229.134 68.9883 227.96 69.2353ZM284.378 69.5814C287.397 70.0434 291.753 70.8409 294.059 71.3532C296.364 71.8655 298.56 72.262 298.938 72.233C301.511 72.0363 283.844 68.5873 280.764 68.6849C279.733 68.7169 281.359 69.121 284.378 69.5814ZM220.335 70.4551C217.8 71.1001 220.296 71.1291 223.385 70.4902C225.436 70.0663 225.534 69.9855 223.995 69.987C222.989 69.9885 221.342 70.199 220.335 70.4551ZM209.483 72.724C206.199 73.5733 203.619 74.3753 203.752 74.5064C203.883 74.6391 207.257 73.9346 211.248 72.942C215.24 71.9494 217.82 71.1474 216.981 71.1596C216.142 71.1718 212.768 71.8762 209.483 72.724ZM301.151 72.8948C303.237 73.5626 304.839 73.5626 303.286 72.8948C302.615 72.6066 301.517 72.3794 300.846 72.3885C299.865 72.4023 299.925 72.5029 301.151 72.8948ZM304.861 73.741C305.335 74.1801 314.729 76.5969 314.982 76.3438C315.121 76.205 313.076 75.5097 310.438 74.7992C305.741 73.5306 304.351 73.2683 304.861 73.741ZM200.208 75.3344C199.439 75.6652 199.327 75.8589 199.903 75.8589C200.406 75.8589 201.367 75.6226 202.038 75.3344C202.806 75.0035 202.919 74.8099 202.343 74.8099C201.839 74.8099 200.879 75.0462 200.208 75.3344ZM319.144 78.053C322.209 79.3765 324.188 79.68 321.583 78.4281C320.242 77.7831 318.732 77.2571 318.229 77.2586C317.726 77.2617 318.137 77.6185 319.144 78.053ZM342.676 77.3913C343.304 77.9524 346.895 79.6037 346.895 79.3308C346.895 78.9786 343.513 77.1641 342.859 77.1641C342.62 77.1641 342.537 77.2663 342.676 77.3913ZM187.399 79.6479C186.058 80.2929 185.628 80.6497 186.445 80.4408C188.679 79.8675 191.8 78.4281 190.754 78.4525C190.251 78.4647 188.741 79.003 187.399 79.6479ZM327.304 81.1422C329.108 81.9976 330.699 82.5862 330.836 82.4474C330.975 82.3087 329.91 81.7201 328.471 81.1376C324.298 79.4512 323.744 79.4528 327.304 81.1422ZM182.215 81.7384C181.376 82.2172 180.965 82.6106 181.3 82.6106C181.636 82.6106 182.596 82.2172 183.435 81.7384C184.274 81.2596 184.685 80.8662 184.35 80.8662C184.014 80.8662 183.054 81.2596 182.215 81.7384ZM332.867 83.5681C333.706 84.0469 334.666 84.4403 335.002 84.4403C335.337 84.4403 334.926 84.0469 334.087 83.5681C333.248 83.0893 332.288 82.6959 331.952 82.6959C331.617 82.6959 332.028 83.0893 332.867 83.5681ZM176.268 84.2299C175.178 84.7056 174.286 85.2362 174.286 85.4085C174.286 85.7257 178.565 84.0667 179.083 83.5483C179.602 83.0299 178.281 83.3501 176.268 84.2299ZM342.344 88.0296C365.852 100.318 387.907 117.639 401.121 134.19C402.995 136.538 404.694 138.597 404.895 138.765C406.568 140.16 415.834 153.37 419.439 159.501C421.903 163.695 424.413 167.953 425.015 168.964C430.016 177.372 438.755 201.26 441.736 214.678C453.887 269.35 440.309 330.531 407.084 370.807C400.105 379.264 392.922 387.126 388.599 391.034C385.958 393.423 382.698 396.404 381.356 397.659C327.82 447.729 234.103 458.356 166.204 422.051C163.94 420.84 162.087 419.98 162.087 420.14C162.087 422.435 194.006 435.37 208.747 439.047C347.278 473.606 473.073 352.331 442.303 213.878C431.196 163.896 397.115 118.296 351.522 92.4133C344.55 88.455 336.789 84.4754 336.084 84.4967C335.824 84.5058 338.642 86.0946 342.344 88.0296ZM165.747 89.4476C81.388 134.835 43.7586 233.828 77.059 322.758C79.3722 328.936 83.4343 337.771 83.7942 337.41C83.9207 337.283 82.7512 334.459 81.1928 331.135C66.1063 298.931 61.6935 253.044 70.054 215.308C81.7433 162.543 117.773 115.564 166.357 89.7358C169.879 87.8634 172.487 86.331 172.151 86.331C171.816 86.3295 168.934 87.7322 165.747 89.4476ZM262.725 170.48C262.054 171.151 261.513 172.043 261.524 172.462C261.535 172.881 261.849 172.675 262.224 172.005C263.172 170.309 263.055 170.39 265.287 169.862C267.196 169.409 267.214 169.382 265.623 169.322C264.689 169.287 263.404 169.801 262.725 170.48ZM213.338 171.375C212.929 171.866 212.737 172.621 212.911 173.052C213.112 173.555 213.242 173.465 213.273 172.797C213.3 172.227 213.802 171.48 214.389 171.138C214.976 170.797 215.147 170.509 214.768 170.498C214.39 170.487 213.747 170.882 213.338 171.375ZM219.071 171.905C221.697 174.531 222.35 181.37 220.14 183.135C219.617 183.555 219.48 183.898 219.84 183.898C221.696 183.898 222.62 180.386 221.786 176.496C221.177 173.662 219.273 170.48 218.184 170.48C217.888 170.48 218.288 171.122 219.071 171.905ZM238.813 172.157C237.694 173.45 237.009 175.969 237.775 175.969C238.08 175.969 238.328 175.298 238.328 174.479C238.328 173.63 238.912 172.579 239.684 172.04C240.43 171.517 240.747 171.09 240.388 171.09C240.03 171.09 239.321 171.57 238.813 172.157ZM285.849 173.702C284.692 174.591 283.454 176.795 283.487 177.911C283.5 178.352 283.87 177.89 284.308 176.884C285.279 174.656 286.336 173.735 288.342 173.366L289.867 173.086L288.342 173.022C287.504 172.986 286.381 173.293 285.849 173.702ZM261.037 175.359C261.037 176.533 261.162 177.013 261.316 176.426C261.469 175.839 261.469 174.879 261.316 174.292C261.162 173.705 261.037 174.185 261.037 175.359ZM290.89 175.091C291.938 177.957 291.043 181.132 288.408 183.902C287.135 185.241 286.295 186.337 286.543 186.337C289.663 186.337 293.178 177.145 291.105 174.408C290.288 173.328 290.268 173.387 290.89 175.091ZM245.821 177.494C245.826 179.171 245.945 179.785 246.085 178.858C246.225 177.93 246.222 176.557 246.077 175.809C245.933 175.059 245.817 175.816 245.821 177.494ZM237.728 177.544C237.732 178.187 238.016 179.125 238.356 179.628C238.809 180.296 238.865 180.049 238.566 178.714C238.065 176.471 237.715 175.984 237.728 177.544ZM213.821 178.714C214.485 180.045 216.751 182.234 218.201 182.945C218.704 183.192 218.431 182.838 217.592 182.158C216.755 181.478 215.427 180.15 214.642 179.208C213.826 178.23 213.474 178.018 213.821 178.714ZM267.949 179.502C267.219 181.807 265.264 183.03 263.759 182.126C262.469 181.351 262.46 181.364 263.5 182.448C264.326 183.309 264.817 183.42 265.603 182.925C267.012 182.037 269.13 179.119 268.687 178.677C268.489 178.479 268.157 178.851 267.949 179.502ZM283.217 182.033C283.571 185.721 283.811 186.342 284.872 186.328C285.404 186.321 285.413 186.2 284.904 185.871C284.521 185.624 283.914 183.913 283.554 182.068L282.9 178.714L283.217 182.033ZM239.426 181.813C240.122 183.141 241.909 184.855 242.168 184.442C242.25 184.311 241.517 183.379 240.538 182.373C239.33 181.129 238.973 180.95 239.426 181.813ZM304.605 185.721C302.976 187.656 301.454 193.367 302.11 195.076C303.225 197.979 312.189 193.074 312.119 189.597C312.114 189.314 311.544 189.965 310.853 191.043C308.738 194.345 303.78 196.663 302.67 194.867C301.874 193.578 303.659 187.612 305.399 185.75C306.35 184.732 306.907 183.898 306.634 183.898C306.361 183.898 305.448 184.718 304.605 185.721ZM195.364 191.352C194.841 192.098 194.438 193.264 194.468 193.944C194.504 194.737 194.732 194.458 195.103 193.17C195.435 192.019 196.259 190.927 197.03 190.616C198.026 190.216 198.108 190.064 197.346 190.035C196.777 190.014 195.885 190.607 195.364 191.352ZM200.867 191.146C202.759 192.301 204.782 195.667 204.782 197.662C204.782 198.255 204.946 198.575 205.145 198.375C206.472 197.049 201.995 189.994 199.831 189.998C199.368 190 199.833 190.517 200.867 191.146ZM222.902 191.226C220.066 193.456 220.718 196.857 224.8 201.128C228.48 204.976 230.488 203.764 230.293 197.813C230.187 194.6 230.184 194.595 229.98 197.316C229.526 203.345 228.82 203.964 225.544 201.207C223.196 199.231 221.86 196.732 221.86 194.31C221.86 190.527 227.007 189.538 228.867 192.964C229.347 193.848 229.751 194.258 229.765 193.876C229.864 191.07 225.328 189.318 222.902 191.226ZM265.555 191.779C266.608 192.421 267.616 193.312 267.794 193.758C268 194.275 268.135 194.309 268.166 193.853C268.222 193.033 265.345 190.605 264.32 190.608C263.947 190.61 264.502 191.137 265.555 191.779ZM261.53 192.551C260.845 193.286 260.307 194.315 260.335 194.838C260.376 195.66 260.428 195.664 260.716 194.876C260.9 194.373 261.612 193.344 262.3 192.589C262.986 191.834 263.373 191.217 263.16 191.217C262.948 191.217 262.213 191.817 261.53 192.551ZM243.342 192.778C242.596 193.299 241.988 194.033 241.988 194.406C241.988 194.781 242.633 194.483 243.421 193.743C246.132 191.195 248.726 193.156 249.363 198.231L249.745 201.28L249.832 198.417C249.967 193.888 246.302 190.704 243.342 192.778ZM282.998 194.611C283.945 195.125 284.826 196.236 285.034 197.178C285.646 199.961 285.804 200.143 285.854 198.122C285.903 196.203 283.667 193.621 282.008 193.681C281.635 193.694 282.08 194.112 282.998 194.611ZM278.658 195.834C277.342 197.508 276.466 201.667 276.921 204.081C277.103 205.045 277.228 204.712 277.284 203.11C277.416 199.392 278.484 196.235 279.963 195.199C280.695 194.685 280.979 194.266 280.593 194.266C280.207 194.266 279.337 194.972 278.658 195.834ZM195.024 196.004C195.024 198.404 203.329 202.672 204.915 201.086C205.379 200.623 205.2 200.53 204.301 200.765C202.257 201.3 198.887 199.844 196.884 197.563C195.861 196.396 195.024 195.695 195.024 196.004ZM266.469 200.512C264.824 203.93 263.534 204.735 262.332 203.093C261.878 202.471 261.506 202.254 261.506 202.614C261.506 203.639 263.229 204.805 264.195 204.435C265.208 204.046 268.422 198.801 268.116 198.035C268.003 197.752 267.262 198.866 266.469 200.512ZM241.991 199.645C241.985 201.088 245.675 205.854 246.799 205.854C247.845 205.854 249.333 203.553 249.283 202.013C249.27 201.611 248.871 202.172 248.398 203.262C247.018 206.437 245.573 205.69 242.791 200.365C242.354 199.527 241.994 199.203 241.991 199.645ZM294.347 203.57C292.624 205.026 291.377 207.085 291.416 208.407C291.429 208.847 291.811 208.355 292.266 207.31C294.576 202.006 299.422 201.195 300.539 205.928C300.992 207.849 301.03 207.875 301.088 206.312C301.224 202.668 297.301 201.073 294.347 203.57ZM281.385 204.959C279.549 206.582 278.814 206.908 278.183 206.385C277.669 205.958 277.364 205.935 277.364 206.324C277.364 208.004 279.428 207.507 281.818 205.252C284.963 202.283 284.654 202.073 281.385 204.959ZM210.011 206.203C209.483 206.731 209.096 208.033 209.149 209.101L209.247 211.039L209.493 209.064C209.633 207.94 210.305 206.693 211.055 206.167C211.78 205.659 212.057 205.244 211.671 205.244C211.284 205.244 210.537 205.676 210.011 206.203ZM215.779 206.922C216.96 207.98 217.955 209.723 218.48 211.648C218.937 213.326 219.335 214.286 219.363 213.783C219.529 210.801 216.405 205.244 214.561 205.244C214.204 205.244 214.753 205.999 215.779 206.922ZM180.442 207.32C179.551 208.267 179.161 209.29 179.338 210.217C179.598 211.59 179.612 211.584 179.693 210.066C179.85 207.067 182.977 205.615 186.067 207.108C187.354 207.73 187.36 207.719 186.216 206.803C184.482 205.415 182.024 205.635 180.442 207.32ZM298.368 210.179C294.48 214.266 291.572 214.803 291.226 211.496L290.986 209.209L290.884 211.516C290.764 214.222 291.773 214.889 294.365 213.815C295.886 213.185 301.297 208.294 300.474 208.294C300.302 208.294 299.353 209.142 298.368 210.179ZM312.311 210.099C310.654 211.11 307.822 215.003 308.743 215.003C308.911 215.003 309.485 214.158 310.019 213.126C310.608 211.987 311.997 210.792 313.543 210.089C314.946 209.451 315.682 208.925 315.179 208.919C314.676 208.913 313.386 209.444 312.311 210.099ZM317.27 210.473C317.797 210.999 318.229 211.731 318.229 212.098C318.229 212.466 318.389 212.608 318.583 212.412C319.077 211.918 317.716 209.514 316.943 209.514C316.596 209.514 316.744 209.945 317.27 210.473ZM210.215 212.412C211.437 214.771 219.421 218.127 219.421 216.279C219.421 215.976 218.904 215.863 218.272 216.028C216.88 216.392 213.649 214.834 211.26 212.646C209.639 211.162 209.558 211.144 210.215 212.412ZM180.966 213.374C183.452 216.142 191.364 217.757 191.364 215.497C191.364 215.093 191.028 215.133 190.461 215.602C189.177 216.668 183.93 215.323 181.418 213.286L179.47 211.706L180.966 213.374ZM307.546 216.862C307.13 218.174 308.138 219.896 309.307 219.864C309.685 219.853 309.492 219.553 308.876 219.195C308.078 218.731 307.863 218.124 308.125 217.078C308.574 215.294 308.099 215.117 307.546 216.862ZM315.484 217.185C314.142 217.987 313.319 218.646 313.654 218.65C314.388 218.659 318.229 216.372 318.229 215.927C318.229 215.527 318.355 215.471 315.484 217.185ZM197.463 219.272C196.792 219.943 196.266 221.11 196.295 221.864C196.339 223.023 196.431 222.959 196.879 221.459C198.264 216.828 203.8 218.03 206.629 223.575C208.376 227 208.204 227.698 205.545 227.977L203.258 228.217L205.85 228.319C208.915 228.439 209.21 227.439 207.25 223.593C204.738 218.675 200.107 216.628 197.463 219.272ZM331.952 220.407C330.946 221.029 329.578 222.194 328.912 222.997C327.815 224.319 327.872 224.307 329.522 222.854C333.099 219.704 335.673 219.12 338.373 220.846L339.881 221.809L338.442 220.541C336.661 218.972 334.352 218.925 331.952 220.407ZM166.967 221.712C166.288 222.39 165.774 223.676 165.81 224.609C165.869 226.201 165.896 226.182 166.349 224.273C166.938 221.788 167.043 221.683 169.529 221.094C171.438 220.642 171.456 220.614 169.864 220.555C168.931 220.52 167.645 221.033 166.967 221.712ZM197.018 224.152C197.309 225.287 200.958 227.816 202.28 227.797C202.818 227.79 202.12 227.267 200.728 226.635C199.337 226.004 197.879 224.981 197.491 224.362C197.059 223.677 196.875 223.595 197.018 224.152ZM327.175 225.169C326.623 225.719 326.658 227.671 327.225 228.021C327.477 228.177 327.683 227.508 327.683 226.533C327.683 225.559 327.66 224.761 327.632 224.761C327.603 224.761 327.398 224.944 327.175 225.169ZM168.039 228.268C168.829 229.023 169.94 229.624 170.507 229.603C171.195 229.577 171.035 229.362 170.029 228.961C169.198 228.628 168.086 228.027 167.56 227.626C167.032 227.225 167.249 227.514 168.039 228.268ZM177.717 228.852C177.479 229.09 175.992 229.465 174.413 229.686L171.541 230.087L174.018 230.17C175.886 230.231 180.282 228.537 178.505 228.441C178.308 228.43 177.955 228.616 177.717 228.852ZM313.349 229.023C312.717 229.426 313.115 229.497 314.638 229.252C318.72 228.596 320.582 231.036 318.805 234.712C318.183 235.999 318.194 236.005 319.11 234.861C322.018 231.231 317.332 226.483 313.349 229.023ZM329.665 228.851C330.42 228.997 331.655 228.997 332.41 228.851C333.164 228.706 332.547 228.587 331.037 228.587C329.528 228.587 328.91 228.706 329.665 228.851ZM309.457 232.082C307.407 234.349 306.523 236.96 307.804 236.96C308.107 236.96 308.22 236.438 308.054 235.802C307.854 235.043 308.528 233.785 310.012 232.143C311.254 230.766 312.134 229.641 311.966 229.641C311.799 229.641 310.669 230.74 309.457 232.082ZM193.842 236.092C194.995 237.46 196.062 238.48 196.213 238.358C196.364 238.237 195.42 237.118 194.116 235.872L191.745 233.605L193.842 236.092ZM310.46 237.397C311.388 237.537 312.761 237.534 313.509 237.39C314.26 237.245 313.502 237.129 311.825 237.133C310.147 237.138 309.533 237.257 310.46 237.397ZM170.244 245.323C170.873 246.069 171.218 247.107 171.012 247.642C170.797 248.203 170.895 248.455 171.244 248.238C172.24 247.622 171.929 246.367 170.474 245.135L169.102 243.973L170.244 245.323ZM336.754 246.668C335.369 247.296 334.05 248.115 333.82 248.485C333.591 248.856 334.371 248.589 335.554 247.892C336.736 247.194 339.017 246.402 340.622 246.133C343.214 245.696 343.303 245.635 341.406 245.584C340.232 245.552 338.138 246.04 336.754 246.668ZM344.666 247.223C346.107 248.816 345.941 251.343 344.32 252.477C343.574 253 343.257 253.427 343.615 253.427C345.869 253.427 347.103 248.842 345.326 247.067C343.991 245.73 343.434 245.863 344.666 247.223ZM321.728 248.618C323.166 249.034 323.802 249.64 324.069 250.85C324.668 253.572 324.839 253.822 324.889 252.055C324.949 250.019 323.001 247.918 321.126 247.993C320.065 248.035 320.202 248.177 321.728 248.618ZM313.502 249.761C312.152 250.583 311.539 251.41 311.581 252.351L311.642 253.732L312.044 252.299C312.265 251.51 313.404 250.356 314.575 249.733C315.746 249.109 316.429 248.589 316.094 248.575C315.759 248.563 314.592 249.097 313.502 249.761ZM163.162 250.199C163.92 250.345 165.018 250.339 165.602 250.187C166.185 250.034 165.564 249.914 164.222 249.922C162.88 249.928 162.403 250.053 163.162 250.199ZM334.087 252.512C334.926 252.991 335.886 253.384 336.222 253.384C336.557 253.384 336.145 252.991 335.307 252.512C334.468 252.033 333.507 251.64 333.172 251.64C332.837 251.64 333.248 252.033 334.087 252.512ZM313.618 254.308C314.27 254.83 315.231 255.235 315.752 255.208C316.574 255.167 316.579 255.115 315.789 254.821C315.286 254.635 314.325 254.229 313.654 253.921C312.454 253.369 312.453 253.375 313.618 254.308ZM338.814 253.857C339.569 254.003 340.804 254.003 341.559 253.857C342.313 253.712 341.696 253.593 340.186 253.593C338.677 253.593 338.059 253.712 338.814 253.857ZM319.754 255.257L316.704 255.675L319.565 255.771C321.138 255.824 322.596 255.592 322.803 255.257C323.011 254.921 323.096 254.69 322.992 254.743C322.889 254.795 321.431 255.027 319.754 255.257ZM196.166 258.71C195.705 259.267 194.505 260.227 193.499 260.842C192.492 261.458 192.017 261.963 192.44 261.964C193.206 261.966 198.117 257.745 197.385 257.713C197.175 257.704 196.626 258.152 196.166 258.71ZM169.559 260.574C170.482 260.712 171.991 260.712 172.914 260.574C173.836 260.433 173.081 260.319 171.236 260.319C169.391 260.319 168.637 260.433 169.559 260.574ZM165.244 262.158C162.426 265.157 164.536 269.376 168.759 269.187L170.931 269.089L168.797 268.835C164.506 268.322 163.004 264.472 166.134 262.01C167.019 261.315 167.478 260.746 167.156 260.746C166.833 260.746 165.973 261.382 165.244 262.158ZM186.143 261.615C186.796 262.144 188.305 262.541 189.498 262.499L191.669 262.423L189.229 262.021C187.887 261.8 186.378 261.402 185.875 261.136C185.371 260.872 185.492 261.087 186.143 261.615ZM455.616 263.49C455.622 264.832 455.748 265.31 455.894 264.55C456.04 263.792 456.034 262.695 455.882 262.111C455.729 261.528 455.609 262.149 455.616 263.49ZM176.396 264.445C176.175 264.803 174.882 265.901 173.524 266.885C172.165 267.87 171.334 268.675 171.677 268.675C172.378 268.675 177.875 263.859 177.22 263.82C176.988 263.806 176.617 264.088 176.396 264.445ZM311.703 266.909C308.308 267.891 308.295 270.061 311.671 271.976L313.654 273.1L311.52 271.238C308.705 268.784 309.707 267.612 315.226 266.897C318.618 266.458 318.775 266.386 316.399 266.368C314.889 266.356 312.776 266.599 311.703 266.909ZM320.533 267.795C321.278 268.316 321.91 269.208 321.937 269.777C321.969 270.466 322.091 270.544 322.305 270.012C322.655 269.135 320.865 266.845 319.828 266.845C319.47 266.845 319.787 267.272 320.533 267.795ZM337.891 268.629C339.816 268.9 341.874 269.486 342.466 269.933C343.481 270.698 343.484 270.68 342.504 269.609C341.769 268.804 340.442 268.426 337.929 268.306L334.392 268.136L337.891 268.629ZM198.431 269.808C202.393 270.864 202.167 272.767 197.628 276.611C196.364 277.683 195.877 278.281 196.548 277.939C198.075 277.163 200.737 274.319 201.714 272.421C202.655 270.596 202.003 269.928 198.935 269.577C196.791 269.333 196.74 269.356 198.431 269.808ZM321.562 272.714C321.239 273.228 320.013 273.871 318.839 274.147C316.997 274.58 316.925 274.658 318.314 274.711C319.892 274.772 323.119 272.756 322.477 272.112C322.297 271.93 321.885 272.201 321.562 272.714ZM331.048 273.193C334.174 277.216 343.98 277.584 343.797 273.671C343.759 272.837 343.687 272.814 343.422 273.554C342.222 276.915 335.595 276.651 331.376 273.074C330.191 272.069 330.177 272.073 331.048 273.193ZM174.783 281.504C173.546 282.157 172.391 282.925 172.212 283.212C172.035 283.5 173.185 283.079 174.766 282.277C178.883 280.191 183.139 280.463 183.11 282.809C183.098 283.707 183.304 284.308 183.568 284.146C184.428 283.614 184.068 281.012 183.08 280.633C181.171 279.9 176.986 280.339 174.783 281.504ZM303.275 280.89C301.265 284.142 310.35 291.938 313.638 289.784C317.925 286.973 313.4 280.088 307.427 280.333C305.89 280.397 305.933 280.444 307.86 280.833C312.941 281.859 316.128 285.281 314.621 288.096C312.532 291.998 305.695 288.289 303.929 282.295C303.645 281.329 303.835 280.896 304.632 280.688C305.59 280.44 305.597 280.396 304.694 280.333C304.127 280.295 303.488 280.545 303.275 280.89ZM203.563 284.27C197.035 287.143 195.893 294.291 201.961 294.291C204.487 294.291 210.134 288.462 208.852 287.179C208.687 287.015 208.367 287.467 208.138 288.186C206.26 294.105 198.683 295.808 198.683 290.311C198.683 286.197 208.41 281.445 209.242 285.151C209.473 286.174 209.505 286.148 209.438 284.999C209.335 283.245 206.65 282.911 203.563 284.27ZM181.242 286.449C180.603 287.169 179.257 288.265 178.251 288.887C177.244 289.508 176.775 290.018 177.206 290.02C177.968 290.021 183.496 285.188 182.767 285.157C182.567 285.15 181.881 285.731 181.242 286.449ZM170.651 286.542C170.616 288.103 173.365 290.642 175.021 290.576C176.113 290.534 175.977 290.393 174.397 289.938C172.987 289.532 172.116 288.763 171.525 287.402C171.003 286.205 170.665 285.871 170.651 286.542ZM219.956 293.281C221.597 295.268 220.009 301.992 217.367 304.243L216.066 305.351L217.432 304.682C220.339 303.258 222.452 293.412 220.031 292.578C219.245 292.307 219.235 292.406 219.956 293.281ZM320.897 293.356C320.708 293.849 320.694 294.603 320.868 295.033C321.041 295.463 321.204 295.218 321.23 294.487C321.257 293.757 321.759 293.034 322.346 292.882C323.346 292.62 323.345 292.598 322.326 292.531C321.73 292.493 321.086 292.864 320.897 293.356ZM325.548 293.031C328.341 293.595 331.429 295.239 332.208 296.578C332.55 297.165 332.838 297.345 332.849 296.977C332.893 295.367 327.776 292.421 325.121 292.531C323.572 292.595 323.611 292.641 325.548 293.031ZM214.54 296.008C212.862 297.624 211.492 299.476 211.493 300.124C211.493 300.934 211.829 300.64 212.56 299.187C213.146 298.022 214.814 296.169 216.266 295.07C217.717 293.971 218.609 293.071 218.246 293.071C217.884 293.071 216.215 294.393 214.54 296.008ZM293.629 295.308C291.299 297.636 296.499 307.18 300.022 307.044C301.213 306.998 301.128 306.894 299.512 306.426C296.213 305.472 293.28 300.092 294.001 296.322C294.294 294.791 294.253 294.683 293.629 295.308ZM298.537 296.736C302.821 299.193 304.489 303.334 302.218 305.881C301.57 306.608 301.614 306.614 302.523 305.928C305.297 303.828 303.17 298.395 298.678 296.104C295.059 294.257 294.965 294.687 298.537 296.736ZM231.924 296.607C231.253 297.186 230.305 298.206 229.815 298.873C229.327 299.539 229.92 299.162 231.136 298.034C233.35 295.979 234.628 295.907 234.718 297.834C234.748 298.501 234.876 298.589 235.079 298.083C235.87 296.113 233.679 295.088 231.924 296.607ZM322.646 298.56C323.869 300.651 327.215 302.829 329.203 302.829C330.159 302.829 331.336 302.255 332.01 301.457C333.17 300.086 333.17 300.086 331.905 301.152C329.587 303.104 325.748 302.046 323.105 298.729C321.934 297.261 321.873 297.238 322.646 298.56ZM189.656 298.472C189.173 298.778 189.874 298.953 191.448 298.92C193.705 298.873 194.087 299.059 194.467 300.39C194.833 301.672 194.912 301.716 194.963 300.664C195.075 298.342 191.917 297.038 189.656 298.472ZM185.41 301.256C184.158 302.403 183.27 303.432 183.436 303.543C183.604 303.654 184.786 302.715 186.065 301.457C188.976 298.595 188.479 298.443 185.41 301.256ZM235.227 302.377C234.971 304.912 234.467 306.32 233.412 307.442C232.429 308.489 232.281 308.871 232.959 308.61C234.535 308.006 235.979 304.322 235.77 301.445C235.59 298.987 235.564 299.031 235.227 302.377ZM246.14 301.457C244.432 303.445 244.217 304.365 245.867 302.631C247.855 300.538 248.773 300.741 249.729 303.485C250.21 304.859 250.47 305.152 250.492 304.337C250.577 301.318 247.823 299.496 246.14 301.457ZM211.51 302.633C211.485 303.563 213.198 305.275 214.128 305.251C214.523 305.24 214.375 304.956 213.799 304.621C213.222 304.286 212.475 303.538 212.14 302.962C211.804 302.386 211.521 302.238 211.51 302.633ZM226.792 305.05C226.763 305.766 227.22 306.878 227.807 307.518C228.394 308.157 228.65 308.343 228.374 307.928C228.1 307.515 227.642 306.405 227.36 305.461C226.943 304.069 226.834 303.991 226.792 305.05ZM279.404 304.99C279.206 305.508 279.213 306.103 279.424 306.312C279.633 306.521 279.803 306.234 279.803 305.676C279.803 303.813 282.046 304.613 284.605 307.39C285.99 308.892 287.122 309.932 287.122 309.7C287.122 307.32 280.145 303.061 279.404 304.99ZM263.64 305.71C264.311 305.876 265.272 306.324 265.775 306.707C266.571 307.312 266.58 307.265 265.853 306.336C265.392 305.749 264.432 305.301 263.718 305.339C262.486 305.406 262.481 305.426 263.64 305.71ZM190.963 307.161C190.258 307.866 188.757 308.662 187.625 308.928C185.719 309.378 185.69 309.418 187.238 309.476C188.593 309.526 193.889 305.97 192.567 305.897C192.39 305.887 191.667 306.455 190.963 307.161ZM250.701 308.624C250.705 310.301 250.824 310.915 250.964 309.988C251.105 309.06 251.102 307.687 250.957 306.939C250.812 306.189 250.696 306.946 250.701 308.624ZM268.044 312.721C268.216 314.238 268.035 316.11 267.64 316.92C266.964 318.307 266.977 318.321 267.876 317.199C268.904 315.916 269.134 312.192 268.271 310.828C267.94 310.307 267.855 311.031 268.044 312.721ZM307.61 311.89C307.432 312.176 307.958 312.283 308.776 312.127C310.714 311.757 315.481 314.532 316.67 316.726C317.166 317.636 317.581 318.158 317.594 317.885C317.739 314.941 308.976 309.68 307.61 311.89ZM210.136 314.57C210.467 318.843 210.735 319.207 210.811 315.485C210.85 313.556 210.668 311.978 210.407 311.978C210.148 311.978 210.025 313.144 210.136 314.57ZM204.548 313.861C202.892 315.165 200.798 318.565 201.327 319.094C201.489 319.256 201.824 318.751 202.071 317.97C202.318 317.191 203.495 315.66 204.686 314.57C207.112 312.347 207.027 311.911 204.548 313.861ZM287.171 313.916C287.144 314.48 286.691 315.372 286.163 315.898C285.637 316.426 285.489 316.857 285.837 316.857C286.683 316.857 287.888 314.537 287.516 313.622C287.348 313.21 287.197 313.338 287.171 313.916ZM279.822 314.221C279.797 315.183 282.768 317.473 284.003 317.443C284.544 317.431 284.123 317.043 283.066 316.584C282.01 316.124 280.852 315.243 280.493 314.625C280.134 314.008 279.832 313.826 279.822 314.221ZM307.302 315.979C307.273 316.668 307.682 317.766 308.211 318.419C308.738 319.07 308.984 319.237 308.755 318.792C308.526 318.345 308.118 317.248 307.846 316.353C307.453 315.044 307.345 314.971 307.302 315.979ZM260.896 316.174C260.896 316.769 263.267 318.989 263.523 318.632C263.62 318.495 263.07 317.774 262.298 317.031C261.527 316.289 260.896 315.903 260.896 316.174ZM228.423 318.077C229.454 321.563 228.948 326.434 227.366 328.244L225.86 329.97L227.604 328.348C229.809 326.296 230.416 321.916 228.945 318.685C228.409 317.511 228.175 317.238 228.423 318.077ZM222.475 319.998C221.465 321.39 220.657 322.969 220.679 323.505C220.701 324.086 220.961 323.871 221.319 322.975C221.65 322.147 222.607 320.569 223.446 319.468C224.285 318.367 224.823 317.467 224.64 317.467C224.457 317.467 223.483 318.606 222.475 319.998ZM208.866 321.439C208.308 322.609 207.977 323.566 208.131 323.566C208.549 323.566 210.4 319.832 210.121 319.553C209.988 319.42 209.424 320.27 208.866 321.439ZM316.429 322.005C316.028 322.488 314.966 322.996 314.068 323.133L312.434 323.383L314.017 323.475C314.918 323.527 316.076 323.042 316.704 322.346C317.311 321.676 317.662 321.127 317.483 321.127C317.305 321.127 316.831 321.522 316.429 322.005ZM246.867 322.956C247.538 323.627 248.087 324.496 248.087 324.888C248.087 325.279 248.261 325.425 248.474 325.211C248.964 324.724 247.046 321.737 246.244 321.737C245.916 321.737 246.196 322.285 246.867 322.956ZM243.7 323.414C242.625 324.666 241.82 326.006 242.142 326.006C242.267 326.006 242.978 325.183 243.722 324.176C245.192 322.188 245.178 321.694 243.7 323.414ZM292.38 326.898C295.475 330.129 296.325 333.136 294.801 335.462C292.931 338.317 288.859 336.774 287.999 332.883C287.4 330.172 287.222 329.871 287.173 331.495C287.019 336.633 292.799 339.448 295.39 335.494C297.093 332.895 293.114 324.176 290.226 324.176C289.975 324.176 290.945 325.401 292.38 326.898ZM220.372 326.311C220.564 327.317 221.168 328.552 221.714 329.055C222.598 329.868 222.636 329.868 222.062 329.055C221.705 328.552 221.101 327.317 220.718 326.311L220.023 324.481L220.372 326.311ZM269.345 329.63C270.224 331.279 271.036 332.538 271.147 332.427C271.438 332.135 268.948 327.374 268.294 326.97C267.992 326.784 268.465 327.98 269.345 329.63ZM240.922 330.58C240.928 331.922 241.053 332.399 241.2 331.64C241.346 330.882 241.34 329.784 241.187 329.2C241.035 328.618 240.914 329.238 240.922 330.58ZM263.373 336.391C263.325 337.597 265.031 340.034 265.926 340.034C266.307 340.034 266.164 339.691 265.61 339.271C265.055 338.852 264.334 337.823 264.008 336.984C263.68 336.146 263.395 335.879 263.373 336.391ZM270.654 338.132C270.654 338.539 269.762 339.261 268.672 339.735C267.582 340.208 267.14 340.607 267.69 340.619C268.986 340.651 271.708 338.448 271.112 337.85C270.86 337.597 270.654 337.724 270.654 338.132ZM84.0259 338.523C84.0061 339.973 97.4245 362.6 98.3043 362.6C98.4614 362.6 96.7185 359.65 94.4298 356.044C92.141 352.438 88.8657 346.88 87.1518 343.693C85.4364 340.506 84.0305 338.18 84.0259 338.523ZM99.0774 363.973C103.109 369.34 107.935 375.408 108.173 375.408C108.341 375.408 106.363 372.664 103.78 369.309C101.195 365.955 98.9524 363.21 98.7938 363.21C98.6352 363.21 98.7633 363.553 99.0774 363.973ZM110.634 378.79C115.526 384.664 131.404 399.561 138.319 404.766C147.216 411.463 161.478 420.68 161.478 419.733C161.478 419.561 158.567 417.685 155.009 415.566C142.876 408.34 131.617 399.332 119.393 387.073C113.187 380.85 109.245 377.122 110.634 378.79Z" fill="#6C4C27"/>
</svg>
