<svg width="512" height="512" viewBox="0 0 512 512" fill="none" xmlns="http://www.w3.org/2000/svg">
<path fill-rule="evenodd" clip-rule="evenodd" d="M257.332 86.9748C256.217 87.2244 254.812 87.5437 254.21 87.683C253.602 87.8236 252.037 89.4555 250.687 91.3597C243.745 101.14 230.362 112.629 218.486 119.004C215.255 120.738 202.022 125.949 200.848 125.949C200.537 125.949 199.687 126.339 198.959 126.816C198.23 127.294 197.336 127.729 196.973 127.782C196.122 127.907 188.648 132.392 182.971 136.183C171.22 144.032 159.178 156.33 150.067 169.785C146.104 175.638 142.547 181.619 142.547 182.43C142.547 182.815 142.346 183.205 142.101 183.299C141.29 183.606 137.152 192.569 137.345 193.603C137.499 194.436 137.44 194.481 137.008 193.857C136.596 193.262 136.479 193.463 136.473 194.774C136.469 195.696 136.256 196.321 136.002 196.164C135.372 195.775 133.725 200.208 134.209 200.991C134.431 201.349 134.385 201.485 134.102 201.31C133.558 200.974 128.7 213.959 129.117 214.635C129.26 214.866 129.102 215.146 128.765 215.259C128.429 215.371 128.154 216.288 128.154 217.296C128.154 218.305 128.003 219.037 127.82 218.923C127.155 218.513 122.477 239.069 123.031 239.966C123.205 240.248 123.15 240.48 122.905 240.48C122.415 240.48 120.212 255.912 119.903 261.511C119.795 263.463 119.471 267.91 119.18 271.394C117.122 296.181 120.623 331.491 127.347 353.745C130.375 363.766 130.506 364.119 131.048 363.783C131.337 363.606 131.396 363.726 131.186 364.065C130.667 364.907 131.859 368.276 132.53 367.861C132.853 367.661 132.927 367.764 132.711 368.113C132.333 368.725 133.387 372.242 133.949 372.242C134.125 372.242 134.27 372.563 134.27 372.956C134.27 374.006 141.643 388.958 142.04 388.713C142.226 388.597 142.378 388.804 142.378 389.173C142.378 390.011 144.524 393.527 145.037 393.527C145.247 393.527 145.419 393.832 145.419 394.205C145.419 396.112 155.946 409.833 163.325 417.541C175.713 430.484 186.567 437.775 208.543 447.919C213.385 450.154 217.562 452.961 221.572 456.673C223.262 458.237 224.645 459.351 224.645 459.147C224.645 458.943 224.992 459.066 225.417 459.418C225.842 459.77 226.076 460.173 225.937 460.311C225.799 460.449 226.325 461.387 227.106 462.393C227.887 463.399 230.168 466.651 232.175 469.62C247.737 492.641 268.252 492.917 285.215 470.332C293.419 459.409 299.564 455.014 314.956 449.066C367.201 428.873 399.811 379.001 406.11 309.655C407.587 293.404 407.149 261.555 405.282 249.349C404.898 246.84 404.442 243.876 404.268 242.761C396.908 195.515 376.559 159.528 344.739 137.485C339.921 134.147 331.557 129.447 331.023 129.777C330.769 129.934 330.561 129.846 330.561 129.581C330.561 129.316 329.702 128.755 328.651 128.335C325.163 126.939 317.659 123.287 316.245 122.295C315.478 121.757 314.851 121.491 314.851 121.703C314.851 121.915 314.516 121.646 314.107 121.104C313.698 120.563 313.356 120.271 313.347 120.455C313.338 120.639 312.603 120.183 311.715 119.441C307.908 116.264 305.258 113.18 301.928 108.055C293.28 94.7424 287.7 90.0155 277.575 87.4258C273.308 86.335 261.38 86.0689 257.332 86.9748ZM212.915 145.532C221.567 148.325 224.548 159.569 219.615 170.798C219.369 171.356 218.662 173.127 218.044 174.735C217.424 176.342 216.719 177.78 216.474 177.931C216.23 178.083 216.029 178.518 216.029 178.899C216.029 179.28 214.889 181.451 213.495 183.721C212.102 185.991 210.962 188.027 210.962 188.244C210.962 188.461 210.277 189.354 209.441 190.229C208.605 191.105 207.921 192.164 207.921 192.585C207.921 193.005 207.708 193.35 207.448 193.35C207.189 193.35 206.835 193.795 206.662 194.338C206.385 195.21 205.031 196.924 202.604 199.474C202.183 199.915 201.84 200.459 201.84 200.682C201.84 200.903 201.438 201.455 200.948 201.906C200.456 202.357 199.378 203.637 198.552 204.752C196.567 207.429 185.939 218.015 182.535 220.706C166.913 233.055 150.27 222.036 156.143 203.232C156.404 202.396 156.9 200.686 157.243 199.431C158.737 193.986 160.892 189.178 164.68 182.843C165.885 180.827 166.872 178.98 166.872 178.74C166.872 178.499 167.271 177.818 167.759 177.229C168.247 176.639 169.444 174.982 170.419 173.548C177.166 163.627 188.187 152.939 195.705 149.028C197.825 147.926 199.673 146.887 199.812 146.72C201.278 144.969 209.002 144.267 212.915 145.532Z" fill="#EFDA5A"/>
<path fill-rule="evenodd" clip-rule="evenodd" d="M274.313 15.7712C270.503 17.4233 267.012 23.359 264.95 31.6879C264.847 32.106 264.399 33.3032 263.954 34.3484C263.509 35.3937 263.309 36.2489 263.508 36.2489C263.707 36.2489 263.613 36.5048 263.3 36.8177C262.987 37.1307 262.853 37.7008 263 38.0847C263.147 38.4685 263 38.7827 262.673 38.7827C262.308 38.7827 262.202 39.1755 262.4 39.7963C262.577 40.3538 262.517 40.8099 262.268 40.8099C261.713 40.8099 260.509 45.7851 260.907 46.43C261.064 46.6834 260.951 46.8912 260.656 46.8912C260.361 46.8912 260.119 47.2409 260.119 47.6691C260.119 48.2899 259.915 48.338 259.105 47.9047C258.548 47.607 258.092 47.5285 258.092 47.7299C258.092 47.9326 257.807 47.7248 257.458 47.2687C257.11 46.8126 256.488 46.3705 256.077 46.2856C255.666 46.2007 255.02 45.8434 254.642 45.4925C254.264 45.1415 253.746 44.9844 253.49 45.1428C253.233 45.3012 253.024 45.2302 253.024 44.9857C253.024 44.2167 237.973 36.9419 236.038 36.7759C235.904 36.7645 235.737 36.7379 235.667 36.7164C235.597 36.6961 235.198 36.5935 234.78 36.4908C234.362 36.3882 232.766 35.8548 231.233 35.3063C217.998 30.5653 192.183 29.2984 178.528 32.7217C175.842 33.3944 174.612 33.6846 173.138 33.9937C164.778 35.7459 141.533 47.1306 141.533 49.4745C141.533 49.7583 141.304 49.8495 141.023 49.6759C140.743 49.5024 140.376 49.7165 140.209 50.1498C140.043 50.5843 139.714 50.82 139.478 50.6743C139.242 50.5298 138.799 50.8795 138.492 51.4522C138.186 52.0248 137.726 52.3644 137.47 52.2073C137.214 52.0489 136.715 52.3847 136.36 52.9522C136.005 53.5211 135.448 53.9861 135.121 53.9861C134.796 53.9861 133.953 54.6702 133.249 55.5064C132.545 56.3426 131.766 57.0267 131.518 57.0267C128.286 57.0267 100.269 92.1515 96.8392 100.503C94.5587 106.055 95.7914 107.075 115.181 115.668C116.714 116.349 118.652 117.219 119.488 117.604C121.096 118.344 133.145 122.806 134.438 123.141C134.856 123.249 135.255 123.383 135.325 123.439C135.395 123.496 135.68 123.598 135.959 123.668C136.237 123.738 136.579 123.852 136.719 123.921C136.858 123.991 137.143 124.08 137.352 124.119C137.561 124.158 138.017 124.371 138.366 124.593C138.714 124.813 139.227 124.854 139.506 124.682C139.785 124.509 140.013 124.635 140.013 124.959C140.013 125.285 140.347 125.421 140.756 125.264C141.166 125.107 141.645 125.212 141.822 125.499C141.998 125.784 142.462 125.895 142.851 125.746C143.241 125.596 143.56 125.719 143.56 126.018C143.56 126.318 143.902 126.432 144.32 126.272C144.738 126.112 145.081 126.227 145.081 126.53C145.081 126.833 145.537 126.961 146.094 126.815C146.652 126.669 147.108 126.783 147.108 127.068C147.108 127.353 147.564 127.468 148.121 127.322C148.679 127.176 149.135 127.29 149.135 127.575C149.135 127.86 149.705 127.984 150.402 127.851C151.099 127.718 151.669 127.831 151.669 128.104C151.669 128.375 152.348 128.498 153.176 128.376C154.006 128.254 154.747 128.327 154.823 128.536C155.093 129.274 165.566 130.081 170.284 129.728C175.704 129.321 175.794 129.395 172.588 131.599C163.091 138.134 149.326 152.947 141.282 165.29C139.672 167.763 137.701 170.734 136.902 171.894C136.104 173.055 135.452 174.252 135.452 174.555C135.452 174.858 135.21 175.106 134.915 175.106C134.619 175.106 134.508 175.315 134.665 175.57C134.822 175.824 134.76 176.109 134.526 176.203C133.762 176.508 129.533 184.823 126.157 192.657C111.26 227.227 105.454 273.874 110.397 319.284C111.368 328.215 114.08 343.456 115.482 347.88C115.874 349.114 116.194 350.476 116.194 350.907C116.194 355.583 128.736 387.952 130.547 387.952C130.83 387.952 130.907 388.104 130.721 388.291C130.365 388.648 133.219 394.067 134.043 394.597C134.308 394.767 134.505 395.052 134.481 395.231C134.346 396.242 134.495 396.592 134.945 396.314C135.224 396.142 135.452 396.356 135.452 396.791C135.452 397.225 135.718 397.581 136.043 397.581C136.368 397.581 136.491 397.726 136.315 397.902C135.876 398.339 136.475 399.368 140.645 405.344C154.545 425.26 172.623 441.516 190.184 449.888C204.398 456.664 209.948 459.485 209.948 459.932C209.948 460.201 210.162 460.422 210.423 460.422C210.685 460.422 211.634 461.093 212.534 461.914C213.432 462.735 214.332 463.362 214.532 463.308C214.918 463.202 218.269 466.469 218.613 467.286C221.11 473.224 232.71 486.836 238.672 490.824C245.957 495.697 261.409 498.055 268.988 495.45C271.857 494.464 278.894 491.071 280.341 489.976C283.308 487.73 288.989 481.901 288.771 481.326C288.638 480.978 288.767 480.693 289.057 480.693C289.888 480.693 291.13 479.234 290.782 478.669C290.608 478.388 290.827 478.159 291.268 478.159C291.71 478.159 292.279 477.61 292.534 476.94C292.788 476.271 293.479 475.273 294.069 474.724C294.658 474.175 295.174 473.266 295.217 472.705C295.259 472.142 295.552 471.781 295.867 471.903C296.183 472.023 297.618 470.845 299.057 469.284C300.497 467.724 301.682 466.631 301.691 466.855C301.701 467.079 302.1 466.795 302.578 466.223C303.057 465.651 303.677 465.14 303.955 465.086C304.234 465.034 304.821 464.704 305.258 464.353C305.696 464.002 306.38 463.641 306.778 463.551C307.177 463.46 307.579 463.173 307.672 462.915C307.766 462.655 308.051 462.572 308.306 462.729C308.561 462.886 308.77 462.76 308.77 462.449C308.77 462.137 308.998 462.023 309.276 462.195C309.555 462.368 309.783 462.254 309.783 461.942C309.783 461.624 310.061 461.542 310.417 461.756C310.847 462.014 310.827 461.862 310.355 461.279C309.943 460.771 309.879 460.422 310.197 460.422C310.494 460.422 310.878 460.65 311.051 460.93C311.255 461.26 311.753 461.222 312.474 460.821C313.085 460.481 313.755 460.167 313.964 460.123C314.173 460.078 314.458 459.984 314.598 459.915C314.737 459.845 315.022 459.74 315.231 459.682C315.44 459.625 316.295 459.288 317.131 458.934C317.968 458.581 319.45 457.99 320.426 457.62C323.182 456.579 331.685 452.621 333.095 451.723C333.792 451.279 335.331 450.503 336.516 449.997C337.7 449.492 338.67 448.918 338.67 448.723C338.67 448.529 339.183 448.236 339.81 448.074C341.262 447.698 343.834 445.483 343.364 445.013C343.168 444.818 343.371 444.798 343.815 444.967C344.258 445.137 344.975 444.922 345.41 444.487C345.844 444.053 346.43 443.698 346.712 443.698C352.206 443.698 388.702 404.596 386.514 401.055C386.359 400.803 386.533 400.66 386.902 400.736C387.272 400.813 387.544 400.494 387.51 400.029C387.471 399.504 387.712 399.284 388.144 399.449C388.557 399.608 388.84 399.385 388.84 398.903C388.84 398.454 389.046 398.088 389.298 398.088C389.549 398.088 389.993 397.404 390.285 396.569C390.576 395.734 391.392 394.292 392.098 393.366C393.115 392.032 393.253 391.553 392.758 391.055C392.264 390.556 392.292 390.486 392.895 390.713C393.711 391.022 396.709 386.361 396.092 385.744C395.914 385.565 396.008 385.418 396.304 385.418C397.181 385.418 397.523 383.832 396.831 382.977C396.452 382.508 396.424 382.325 396.764 382.527C397.106 382.733 397.591 382.259 397.965 381.358C398.31 380.526 398.756 379.844 398.956 379.844C399.507 379.844 400.551 377.301 400.219 376.765C400.061 376.508 400.156 376.296 400.432 376.296C400.709 376.296 401.079 375.783 401.254 375.156C401.563 374.055 401.967 373.01 403.021 370.595C403.793 368.825 408.074 356.528 408.337 355.325C408.657 353.863 410.08 348.03 410.596 346.058C410.873 345.008 410.819 344.236 410.446 343.83C410.015 343.364 410.024 343.293 410.48 343.549C411.235 343.974 411.889 340.923 411.407 339.219C411.148 338.302 411.192 338.206 411.605 338.795C412.077 339.47 412.142 339.47 412.183 338.795C412.249 337.684 412.569 335.956 413.479 331.809C413.925 329.778 414.189 327.441 414.069 326.615C413.948 325.788 414.067 325.112 414.333 325.112C414.616 325.112 414.692 324.015 414.516 322.451C414.35 320.988 414.391 320.219 414.606 320.741C416.284 324.819 417.756 280.239 416.571 261.258C416.014 252.331 413.404 233.903 411.871 228.062C411.431 226.39 410.879 224.111 410.643 222.996C409.817 219.107 406.573 207.28 406.108 206.467C405.85 206.015 405.378 204.676 405.059 203.489C404.739 202.303 404.228 200.734 403.923 200.001C403.248 198.382 403.175 198.125 403.094 197.12C403.057 196.66 402.787 196.482 402.445 196.692C402.095 196.909 401.998 196.833 402.202 196.502C402.582 195.886 401.17 191.86 400.297 191.068C399.988 190.788 399.663 190.218 399.572 189.801C399.482 189.383 399.209 188.97 398.966 188.883C398.724 188.795 398.652 188.397 398.804 188.001C398.956 187.603 398.716 187.137 398.272 186.966C397.826 186.796 397.582 186.46 397.729 186.223C398.026 185.742 394.567 178.579 393.801 178.09C393.533 177.92 393.391 177.642 393.485 177.473C393.579 177.304 393.275 176.721 392.81 176.179C392.345 175.635 392.098 175.058 392.261 174.896C392.423 174.732 392.302 174.599 391.989 174.599C391.677 174.599 390.983 173.63 390.447 172.445C389.911 171.261 389.044 169.835 388.52 169.278C387.995 168.72 387.311 167.694 386.998 166.997C383.418 159.007 358.905 133.553 351.733 130.378C350.959 130.036 350.325 129.583 350.325 129.372C350.325 129.161 349.983 128.989 349.565 128.989C349.147 128.989 348.805 128.756 348.805 128.471C348.805 128.187 348.178 127.675 347.411 127.334C346.645 126.995 345.567 126.306 345.014 125.805C344.462 125.305 343.493 124.765 342.861 124.607C342.228 124.448 341.71 124.146 341.71 123.935C341.71 123.725 340.708 123.169 339.482 122.701C338.256 122.234 336.745 121.409 336.123 120.869C335.501 120.33 334.793 120.01 334.549 120.161C334.307 120.311 334.109 120.179 334.109 119.867C334.109 119.555 333.88 119.441 333.602 119.614C333.323 119.786 333.095 119.672 333.095 119.36C333.095 119.049 332.867 118.935 332.588 119.107C332.309 119.279 332.081 119.165 332.081 118.854C332.081 118.542 331.853 118.428 331.575 118.6C331.296 118.772 331.068 118.658 331.068 118.347C331.068 118.035 330.84 117.921 330.561 118.093C330.282 118.266 330.054 118.152 330.054 117.84C330.054 117.528 329.826 117.414 329.548 117.587C329.269 117.759 329.041 117.645 329.041 117.333C329.041 117.022 328.813 116.908 328.534 117.08C328.255 117.252 328.027 117.174 328.027 116.906C328.027 116.323 325.201 115.262 324.776 115.685C324.613 115.848 324.48 115.731 324.48 115.425C324.48 114.964 322.496 113.97 322.073 114.218C322.003 114.26 321.521 113.893 321.003 113.406C319.198 111.707 316.115 109.482 315.738 109.606C315.529 109.676 315.358 109.471 315.358 109.153C315.358 108.835 314.676 107.922 313.843 107.125C313.009 106.329 312.436 105.677 312.572 105.677C312.707 105.677 312.018 104.594 311.04 103.27C310.063 101.946 309.095 100.629 308.89 100.342C308.685 100.056 308.099 99.0069 307.59 98.0111C306.044 94.9882 299.412 87.7146 296.01 85.3125C292.192 82.6152 287.353 79.8317 286.487 79.8317C284.572 79.8317 282.382 78.153 282.595 76.8506C283.962 68.5204 291.703 50.6945 298.173 40.9784C302.315 34.7589 302.87 32.7306 301.841 27.5703C300.409 20.3943 281.923 12.4709 274.313 15.7712ZM284.225 25.3354C292.155 27.6907 293.587 30.2942 290.011 35.8574C282.857 46.99 276.384 61.3191 273.582 72.23L272.476 76.5377L269.337 76.6884L266.2 76.8392V74.3889C266.2 63.5236 271.484 39.2819 276.583 26.7468C277.597 24.256 279.445 23.9152 284.225 25.3354ZM205.64 40.3145C220.13 41.3546 231.06 44.3497 245.238 51.1671C252.772 54.7906 253.19 55.2568 249.35 55.7585C232.581 57.9478 194.894 67.8376 173.967 75.5393C170.483 76.8214 165.717 78.5736 163.376 79.4326C158.234 81.3204 157.243 82.1984 157.243 84.8627C157.243 89.2958 160.004 89.8254 167.753 86.8797C194.934 76.5478 223.029 68.8321 250.49 64.1584C257.661 62.9383 257.654 62.9307 254.736 68.4723C230.315 114.855 187.754 131.063 135.899 113.725C126.852 110.7 109.502 103.214 107.919 101.652C107.433 101.175 116.805 87.0736 121.385 81.3901C142.089 55.6977 166.944 41.8209 195.252 40.1485C196.785 40.0573 198.153 39.9433 198.292 39.8951C198.432 39.8457 201.738 40.0345 205.64 40.3145ZM278.363 86.8328C288.754 89.8748 293.602 94.076 302.823 108.035C308.837 117.139 313.223 120.686 325.027 125.985C347.615 136.128 363.977 149.745 377.664 169.794C395.524 195.955 405.422 228.89 407.669 269.632C408.509 284.879 407.313 310.296 405.116 323.845C404.845 325.517 404.388 328.368 404.101 330.18C395.995 381.357 367.026 424.523 327.634 444.124C323.81 446.028 317.074 449.02 312.668 450.775C299.64 455.963 292.476 461.172 286.289 469.949C269.278 494.089 247.974 493.835 231.234 469.293C222.882 457.049 218.084 453.096 202.958 446.002C136.56 414.865 106.856 340.116 121.726 241.585C127.058 206.247 145.306 168.931 167.519 147.941C178.314 137.74 194.547 127.013 202.34 124.932C218.549 120.602 239.031 106.159 249.758 91.4914C252.982 87.0837 253.3 86.9013 259.477 85.9219C264.02 85.2023 274.522 85.7078 278.363 86.8328ZM416.556 278.362C416.428 278.85 416.324 278.45 416.324 277.475C416.324 276.499 416.428 276.1 416.556 276.588C416.683 277.076 416.683 277.874 416.556 278.362Z" fill="#0A0907"/>
<path fill-rule="evenodd" clip-rule="evenodd" d="M192.718 40.6591C161.209 43.1385 134.962 60.8352 112.013 95.0718C107.2 102.253 106.904 101.12 114.547 104.745C170.726 131.385 214.189 124.056 245.758 82.619C249.169 78.1429 256.944 64.3256 256.374 63.7555C256.086 63.4667 253.816 63.8442 240.109 66.4579C217.134 70.839 190.71 78.395 169.396 86.6771C161.123 89.8926 160.235 89.9952 158.218 87.9795C155.708 85.4697 156.291 82.3923 159.6 80.6832C164.956 77.9149 191.043 69.2401 209.441 64.1077C218.044 61.7094 241.272 56.6239 247.703 55.732C252.194 55.1086 252.05 54.8033 245.839 51.7956C227.403 42.8649 210.288 39.2769 192.718 40.6591ZM263.815 86.2894C265.708 86.3869 268.672 86.3869 270.403 86.2881C272.132 86.1893 270.584 86.1095 266.961 86.1095C263.337 86.1107 261.921 86.1918 263.815 86.2894ZM241.115 101.623C237.779 104.968 235.164 107.705 235.303 107.705C235.443 107.705 238.286 104.968 241.622 101.623C244.958 98.2785 247.573 95.5419 247.433 95.5419C247.294 95.5419 244.451 98.2785 241.115 101.623ZM320.426 124.682C321.122 125.079 321.921 125.406 322.199 125.406C322.478 125.406 322.136 125.079 321.439 124.682C320.742 124.284 319.944 123.957 319.665 123.957C319.387 123.957 319.729 124.284 320.426 124.682ZM348.298 139.8C348.298 139.939 349.211 140.776 350.325 141.659C351.44 142.542 352.353 143.15 352.353 143.01C352.353 142.871 351.44 142.035 350.325 141.152C349.211 140.269 348.298 139.661 348.298 139.8ZM173.175 143.306L171.686 144.953L173.333 143.464C174.869 142.077 175.214 141.659 174.822 141.659C174.735 141.659 173.994 142.4 173.175 143.306ZM165.342 150.654L160.537 155.595L165.478 150.791C170.067 146.329 170.65 145.713 170.283 145.713C170.208 145.713 167.984 147.936 165.342 150.654ZM357.674 147.74C358.762 148.855 359.767 149.767 359.906 149.767C360.045 149.767 359.269 148.855 358.181 147.74C357.092 146.625 356.088 145.713 355.948 145.713C355.809 145.713 356.585 146.625 357.674 147.74ZM365.507 155.468C366.75 156.792 367.833 157.875 367.914 157.875C368.296 157.875 367.893 157.421 365.655 155.32L363.248 153.061L365.507 155.468ZM158.985 157.495L157.497 159.142L159.144 157.654C160.679 156.266 161.024 155.848 160.632 155.848C160.545 155.848 159.804 156.59 158.985 157.495ZM376.678 169.531C377.273 170.368 377.874 171.052 378.013 171.052C378.153 171.052 377.78 170.368 377.185 169.531C376.589 168.695 375.989 168.011 375.849 168.011C375.71 168.011 376.082 168.695 376.678 169.531ZM406.199 257.964C406.204 259.079 406.308 259.475 406.43 258.845C406.551 258.215 406.546 257.303 406.419 256.817C406.293 256.333 406.193 256.849 406.199 257.964ZM119.363 264.045C119.368 265.16 119.472 265.557 119.594 264.926C119.715 264.296 119.71 263.384 119.583 262.899C119.457 262.415 119.357 262.93 119.363 264.045ZM406.73 264.805C406.73 266.338 406.825 266.966 406.941 266.199C407.057 265.433 407.057 264.178 406.941 263.412C406.825 262.645 406.73 263.272 406.73 264.805ZM118.866 271.9C118.866 273.155 118.965 273.668 119.085 273.041C119.207 272.413 119.207 271.387 119.085 270.76C118.965 270.133 118.866 270.646 118.866 271.9ZM407.304 282.796C407.304 289.764 407.376 292.685 407.463 289.287C407.551 285.889 407.551 280.187 407.463 276.617C407.376 273.047 407.305 275.828 407.304 282.796ZM118.429 287.864C118.428 292.602 118.504 294.609 118.598 292.324C118.691 290.037 118.693 286.16 118.599 283.708C118.506 281.255 118.429 283.125 118.429 287.864ZM406.706 301.547C406.711 302.662 406.815 303.058 406.936 302.427C407.058 301.798 407.053 300.886 406.926 300.4C406.799 299.916 406.699 300.432 406.706 301.547ZM118.866 304.841C118.866 306.095 118.965 306.608 119.085 305.981C119.207 305.354 119.207 304.328 119.085 303.701C118.965 303.074 118.866 303.587 118.866 304.841ZM406.223 307.882C406.223 309.415 406.318 310.042 406.435 309.275C406.55 308.509 406.55 307.254 406.435 306.488C406.318 305.721 406.223 306.349 406.223 307.882ZM119.353 311.429C119.353 312.405 119.457 312.804 119.585 312.316C119.711 311.828 119.711 311.03 119.585 310.542C119.457 310.054 119.353 310.453 119.353 311.429ZM405.682 313.963C405.682 314.938 405.786 315.338 405.914 314.85C406.041 314.362 406.041 313.564 405.914 313.076C405.786 312.588 405.682 312.987 405.682 313.963ZM119.86 317.004C119.86 317.979 119.963 318.378 120.091 317.89C120.218 317.403 120.218 316.604 120.091 316.117C119.963 315.629 119.86 316.028 119.86 317.004ZM403.818 326.914C403.628 327.931 403.573 328.865 403.697 328.989C403.821 329.112 404.078 328.382 404.269 327.365C404.459 326.347 404.515 325.414 404.391 325.289C404.267 325.166 404.01 325.896 403.818 326.914ZM374.651 402.142C374.055 402.978 373.683 403.662 373.822 403.662C373.962 403.662 374.562 402.978 375.158 402.142C375.753 401.306 376.126 400.622 375.986 400.622C375.847 400.622 375.246 401.306 374.651 402.142ZM367.271 411.898L365.782 413.545L367.429 412.056C368.335 411.238 369.076 410.496 369.076 410.409C369.076 410.017 368.658 410.362 367.271 411.898ZM164.845 419.626C167.481 422.274 169.753 424.44 169.892 424.44C170.032 424.44 167.988 422.274 165.352 419.626C162.715 416.978 160.444 414.812 160.304 414.812C160.165 414.812 162.208 416.978 164.845 419.626ZM359.185 420.513L353.62 426.214L359.321 420.648C362.456 417.587 365.022 415.022 365.022 414.947C365.022 414.581 364.356 415.217 359.185 420.513ZM346.271 431.599C342.204 434.732 341.148 435.815 344.338 433.581C346.91 431.779 350.228 429.037 349.819 429.052C349.679 429.056 348.083 430.202 346.271 431.599ZM219.577 455.005C219.577 455.093 220.318 455.834 221.224 456.652L222.871 458.141L221.382 456.494C219.995 454.959 219.577 454.614 219.577 455.005ZM224.138 459.566C224.138 459.654 224.879 460.395 225.785 461.213L227.432 462.702L225.943 461.055C224.556 459.52 224.138 459.175 224.138 459.566ZM293.281 461.055L291.793 462.702L293.44 461.213C294.346 460.395 295.087 459.654 295.087 459.566C295.087 459.175 294.669 459.52 293.281 461.055ZM238.328 477.905C239.842 479.438 241.195 480.693 241.334 480.693C241.473 480.693 240.348 479.438 238.834 477.905C237.32 476.372 235.967 475.118 235.828 475.118C235.689 475.118 236.814 476.372 238.328 477.905ZM278.345 478.539L275.576 481.453L278.49 478.683C281.197 476.109 281.636 475.625 281.259 475.625C281.181 475.625 279.869 476.936 278.345 478.539ZM271.648 483.517C269.754 484.544 269.869 484.972 271.775 483.987C272.611 483.555 273.295 483.092 273.295 482.961C273.295 482.634 273.241 482.653 271.648 483.517ZM245.423 483.475C245.423 483.822 248.525 485.36 248.757 485.128C248.867 485.018 248.162 484.549 247.19 484.086C246.218 483.622 245.423 483.347 245.423 483.475ZM257.459 487.14C258.364 487.253 259.847 487.253 260.753 487.14C261.658 487.029 260.917 486.936 259.106 486.936C257.294 486.936 256.553 487.029 257.459 487.14Z" fill="#A4B44D"/>
<path fill-rule="evenodd" clip-rule="evenodd" d="M276.583 26.7467C271.484 39.2819 266.2 63.5236 266.2 74.3889V76.8391L269.337 76.6884L272.476 76.5376L273.582 72.23C276.384 61.3191 282.857 46.9899 290.011 35.8573C293.183 30.9238 293.098 30.1206 289.14 27.6095C283.316 23.9151 277.887 23.5414 276.583 26.7467ZM198.679 40.1548C199.308 40.2764 200.221 40.2713 200.706 40.1446C201.19 40.018 200.674 39.9179 199.559 39.9242C198.444 39.9293 198.048 40.0332 198.679 40.1548ZM191.578 40.6603C192.205 40.7819 193.231 40.7819 193.858 40.6603C194.485 40.5399 193.972 40.4411 192.718 40.4411C191.463 40.4411 190.95 40.5399 191.578 40.6603ZM206.274 40.6603C206.901 40.7819 207.927 40.7819 208.555 40.6603C209.182 40.5399 208.669 40.4411 207.414 40.4411C206.16 40.4411 205.647 40.5399 206.274 40.6603ZM211.595 41.1595C212.083 41.2862 212.881 41.2862 213.369 41.1595C213.857 41.0315 213.458 40.9276 212.482 40.9276C211.507 40.9276 211.107 41.0315 211.595 41.1595ZM161.804 48.4115C160.829 48.9461 160.259 49.3819 160.537 49.3819C160.816 49.3819 161.842 48.9461 162.818 48.4115C163.793 47.8768 164.364 47.441 164.085 47.441C163.806 47.441 162.78 47.8768 161.804 48.4115ZM156.61 50.9783C155.007 51.8056 153.696 52.5962 153.696 52.7343C153.696 52.8736 155.064 52.2959 156.737 51.4521C158.409 50.6083 159.777 49.8064 159.777 49.6708C159.777 49.3338 159.871 49.2945 156.61 50.9783ZM250.644 54.1608C251.33 54.7145 251.394 54.9628 250.897 55.1617C250.471 55.3328 250.551 55.4405 251.124 55.4658C252.377 55.5228 252.225 54.6321 250.87 53.9759C249.823 53.4678 249.804 53.483 250.644 54.1608ZM147.361 56.8176L145.841 58.1238L147.488 57.0343C148.394 56.435 149.135 55.8459 149.135 55.7255C149.135 55.3454 148.921 55.4785 147.361 56.8176ZM255.404 66.4084C254.94 67.3801 254.665 68.1758 254.793 68.1758C255.14 68.1758 256.678 65.073 256.446 64.8412C256.336 64.731 255.867 65.4366 255.404 66.4084ZM131.635 69.8228L128.61 72.9902L131.778 69.966C133.52 68.3012 134.945 66.8759 134.945 66.7986C134.945 66.4236 134.445 66.881 131.635 69.8228ZM252.264 72.23C251.832 73.0662 251.591 73.7503 251.731 73.7503C251.87 73.7503 252.339 73.0662 252.771 72.23C253.203 71.3938 253.444 70.7097 253.304 70.7097C253.165 70.7097 252.696 71.3938 252.264 72.23ZM126.052 75.9041L124.049 78.0579L126.203 76.0549C127.388 74.9527 128.357 73.9834 128.357 73.9011C128.357 73.5172 127.916 73.9011 126.052 75.9041ZM249.164 77.4245C247.419 80.384 247.305 80.6362 248.193 79.5783C249.223 78.3519 250.11 76.791 249.778 76.791C249.645 76.791 249.369 77.0761 249.164 77.4245ZM192.718 78.0579C191.742 78.4342 191.286 78.7408 191.704 78.7408C192.122 78.7408 193.263 78.4342 194.238 78.0579C195.214 77.6817 195.67 77.3751 195.252 77.3751C194.834 77.3751 193.693 77.6817 192.718 78.0579ZM180.808 82.1299C179.542 82.7406 179.498 82.8102 180.555 82.553C181.991 82.2021 183.605 81.3786 182.836 81.39C182.557 81.3938 181.645 81.727 180.808 82.1299ZM156.937 83.0826C156.785 83.4779 156.743 84.4471 156.843 85.2364C156.992 86.4084 157.071 86.2766 157.275 84.5193C157.531 82.3035 157.418 81.8271 156.937 83.0826ZM119.164 84.266C117.706 86.0257 117.089 86.9265 117.34 86.9265C117.479 86.9265 118.204 86.1284 118.947 85.1528C120.328 83.3424 120.496 82.6595 119.164 84.266ZM264.57 85.78C266.043 85.8826 268.324 85.8826 269.638 85.7774C270.953 85.6735 269.748 85.5899 266.961 85.5912C264.173 85.5924 263.098 85.6773 264.57 85.78ZM158.411 88.1567C160.013 89.6251 161.806 89.7873 164.085 88.6699C164.921 88.2606 165.149 88.0617 164.592 88.229C161.569 89.1361 160.193 89.0778 158.605 87.9743L156.99 86.8531L158.411 88.1567ZM281.84 88.4583C283.055 89.0094 284.195 89.4503 284.374 89.4389C285.013 89.3971 281.134 87.4751 280.39 87.4663C279.972 87.4599 280.625 87.9072 281.84 88.4583ZM250.49 90.474C249.895 91.3102 249.522 91.9943 249.662 91.9943C249.801 91.9943 250.402 91.3102 250.997 90.474C251.593 89.6378 251.965 88.9537 251.826 88.9537C251.686 88.9537 251.086 89.6378 250.49 90.474ZM284.951 89.6289C284.951 89.7354 286.263 90.6349 287.865 91.6256C292.297 94.3673 295.706 98.1263 300.924 106.024C306.574 114.579 308.214 116.47 312.424 119.299C314.177 120.478 314.944 120.916 314.128 120.274C313.312 119.631 311.487 118.187 310.073 117.062C308.296 115.648 305.861 112.586 302.182 107.139C295.224 96.8366 294.505 95.9522 290.863 93.2144C287.943 91.02 284.951 89.2045 284.951 89.6289ZM113.66 91.9943C113.065 92.8305 112.693 93.5146 112.832 93.5146C112.971 93.5146 113.572 92.8305 114.167 91.9943C114.763 91.1581 115.135 90.474 114.996 90.474C114.856 90.474 114.256 91.1581 113.66 91.9943ZM238.043 92.121L236.554 93.768L238.201 92.2794C239.737 90.8921 240.081 90.474 239.69 90.474C239.602 90.474 238.861 91.2151 238.043 92.121ZM235.002 95.6684L233.513 97.3155L235.16 95.8268C236.696 94.4395 237.041 94.0214 236.649 94.0214C236.562 94.0214 235.82 94.7626 235.002 95.6684ZM240.854 101.496L234.527 107.958L240.988 101.631C244.542 98.1504 247.45 95.2428 247.45 95.1693C247.45 94.8057 246.731 95.4949 240.854 101.496ZM230.441 99.7227L228.952 101.37L230.599 99.881C232.135 98.4937 232.48 98.0756 232.088 98.0756C232.001 98.0756 231.259 98.8168 230.441 99.7227ZM214.889 110.273C213.844 110.825 212.989 111.389 212.989 111.528C212.989 111.666 213.901 111.314 215.016 110.745C216.131 110.176 217.043 109.601 217.043 109.468C217.043 109.136 217.039 109.137 214.889 110.273ZM210.455 112.519C209.758 112.917 209.416 113.243 209.695 113.243C209.974 113.243 210.772 112.917 211.469 112.519C212.165 112.121 212.507 111.794 212.229 111.794C211.95 111.794 211.152 112.121 210.455 112.519ZM225.785 113.844C224.058 114.95 223.498 115.694 225.025 114.854C226.188 114.215 228.01 112.806 227.685 112.796C227.546 112.792 226.691 113.264 225.785 113.844ZM164.471 120.231C165.243 120.347 166.383 120.345 167.005 120.224C167.628 120.104 166.999 120.008 165.605 120.012C164.212 120.015 163.701 120.114 164.471 120.231ZM181.955 120.226C182.585 120.347 183.497 120.342 183.982 120.215C184.466 120.089 183.951 119.989 182.836 119.995C181.721 120 181.324 120.104 181.955 120.226ZM315.865 121.584C315.865 121.933 319.439 124.063 319.658 123.844C319.764 123.738 318.953 123.136 317.858 122.505C316.762 121.874 315.865 121.46 315.865 121.584ZM324.48 126.202C325.177 126.6 325.975 126.926 326.254 126.926C326.532 126.926 326.19 126.6 325.493 126.202C324.797 125.804 323.998 125.477 323.72 125.477C323.441 125.477 323.783 125.804 324.48 126.202ZM329.041 128.229C330.295 128.9 331.549 129.45 331.828 129.45C332.107 129.45 331.309 128.9 330.054 128.229C328.8 127.557 327.546 127.008 327.267 127.008C326.988 127.008 327.787 127.557 329.041 128.229ZM192.591 129.279C190.697 130.307 190.812 130.735 192.718 129.749C193.554 129.317 194.238 128.855 194.238 128.723C194.238 128.396 194.184 128.415 192.591 129.279ZM171.053 129.859C171.82 129.975 173.074 129.975 173.84 129.859C174.607 129.743 173.98 129.648 172.447 129.648C170.914 129.648 170.287 129.743 171.053 129.859ZM184.474 134.328C183.434 135.035 182.582 135.723 182.582 135.856C182.582 135.989 183.494 135.495 184.609 134.757C186.379 133.586 186.979 133.043 186.501 133.043C186.426 133.043 185.514 133.621 184.474 134.328ZM342.217 135.207C342.782 135.817 350.326 141.091 350.326 140.876C350.326 140.578 344.346 136.168 342.989 135.464C342.425 135.172 342.078 135.056 342.217 135.207ZM353.113 143.242C358.563 147.934 366.825 156.33 370.519 160.931C377.366 169.46 377.484 169.598 375.69 166.997C370.398 159.329 360.081 148.25 353.821 143.513C350.751 141.191 350.713 141.177 353.113 143.242ZM167.266 148.373C161.229 154.295 162.857 152.853 172.942 143.349C173.633 142.697 174.062 142.165 173.896 142.165C173.731 142.165 170.748 144.959 167.266 148.373ZM158.985 156.989L157.497 158.636L159.144 157.147C160.679 155.76 161.024 155.341 160.632 155.341C160.545 155.341 159.804 156.083 158.985 156.989ZM156.421 160.029C154.925 161.737 154.051 162.943 154.309 162.943C154.436 162.943 155.273 162.031 156.169 160.916C157.908 158.752 158.085 158.13 156.421 160.029ZM151.162 166.997C150.567 167.834 150.194 168.518 150.333 168.518C150.473 168.518 151.073 167.834 151.669 166.997C152.264 166.161 152.637 165.477 152.497 165.477C152.358 165.477 151.757 166.161 151.162 166.997ZM381.476 176.373C382.256 177.766 383.129 179.135 383.417 179.413C383.704 179.692 383.302 178.78 382.522 177.386C381.742 175.993 380.869 174.624 380.581 174.346C380.294 174.067 380.697 174.979 381.476 176.373ZM144.457 177.26C143.349 178.969 142.354 181.005 142.91 180.427C143.621 179.688 145.712 176.119 145.434 176.119C145.304 176.119 144.864 176.632 144.457 177.26ZM387.673 187.516C388.136 188.487 388.605 189.193 388.715 189.083C388.947 188.851 387.409 185.748 387.062 185.748C386.934 185.748 387.209 186.544 387.673 187.516ZM389.89 192.083C389.89 192.362 390.217 193.16 390.614 193.857C391.012 194.553 391.339 194.895 391.339 194.617C391.339 194.338 391.012 193.54 390.614 192.843C390.217 192.146 389.89 191.804 389.89 192.083ZM394.705 203.992C394.892 204.689 395.256 205.601 395.514 206.019C395.84 206.548 395.881 206.393 395.645 205.512C395.459 204.816 395.094 203.903 394.837 203.485C394.51 202.957 394.47 203.112 394.705 203.992ZM399.047 217.168C399.047 217.586 399.243 218.385 399.483 218.942C399.758 219.581 399.919 219.674 399.919 219.195C399.919 218.777 399.722 217.979 399.483 217.422C399.208 216.783 399.047 216.689 399.047 217.168ZM124.556 227.304C124.364 228.179 124.312 229.003 124.441 229.131C124.57 229.26 124.821 228.638 125 227.747C125.422 225.635 125.012 225.226 124.556 227.304ZM402.118 229.078C402.118 229.635 402.301 230.661 402.524 231.358C402.845 232.362 402.929 232.413 402.929 231.612C402.929 231.054 402.747 230.028 402.524 229.331C402.202 228.328 402.118 228.276 402.118 229.078ZM403.647 237.186C403.652 237.744 403.831 238.884 404.044 239.72C404.391 241.086 404.432 241.111 404.44 239.973C404.446 239.277 404.267 238.136 404.044 237.439C403.726 236.446 403.64 236.392 403.647 237.186ZM122.045 239.236C121.851 240.53 121.797 241.69 121.923 241.817C122.05 241.943 122.312 240.989 122.506 239.697C122.7 238.404 122.755 237.243 122.628 237.116C122.501 236.99 122.239 237.944 122.045 239.236ZM405.175 246.055C405.175 247.03 405.279 247.429 405.407 246.942C405.534 246.454 405.534 245.656 405.407 245.168C405.279 244.68 405.175 245.079 405.175 246.055ZM120.883 247.828C120.888 248.943 120.992 249.34 121.114 248.709C121.236 248.079 121.23 247.167 121.104 246.682C120.977 246.198 120.877 246.713 120.883 247.828ZM406.209 254.163C406.209 255.417 406.308 255.93 406.428 255.303C406.55 254.676 406.55 253.65 406.428 253.023C406.308 252.396 406.209 252.909 406.209 254.163ZM406.735 259.484C406.737 261.157 406.833 261.78 406.945 260.869C407.058 259.958 407.055 258.59 406.94 257.828C406.825 257.067 406.732 257.812 406.735 259.484ZM119.379 259.991C119.383 261.385 119.482 261.895 119.599 261.125C119.715 260.353 119.713 259.213 119.592 258.591C119.472 257.968 119.376 258.597 119.379 259.991ZM407.247 267.339C407.247 269.151 407.339 269.892 407.451 268.986C407.564 268.08 407.564 266.598 407.451 265.692C407.339 264.786 407.247 265.528 407.247 267.339ZM118.88 267.339C118.88 268.872 118.975 269.499 119.092 268.733C119.207 267.966 119.207 266.712 119.092 265.946C118.975 265.179 118.88 265.806 118.88 267.339ZM118.399 275.448C118.399 277.817 118.486 278.786 118.593 277.602C118.699 276.417 118.699 274.479 118.593 273.294C118.486 272.109 118.399 273.079 118.399 275.448ZM407.803 282.036C407.803 287.471 407.878 289.695 407.969 286.977C408.06 284.259 408.06 279.812 407.969 277.095C407.878 274.377 407.803 276.601 407.803 282.036ZM416.324 277.475C416.324 278.45 416.428 278.849 416.556 278.362C416.683 277.874 416.683 277.076 416.556 276.588C416.428 276.1 416.324 276.499 416.324 277.475ZM407.178 297.999C407.123 299.672 406.974 302.636 406.849 304.587L406.621 308.135L407.123 304.587C407.399 302.636 407.547 299.672 407.452 297.999L407.28 294.959L407.178 297.999ZM118.404 300.787C118.404 303.435 118.49 304.518 118.594 303.194C118.698 301.87 118.698 299.703 118.594 298.379C118.49 297.055 118.404 298.139 118.404 300.787ZM118.873 309.148C118.876 310.542 118.975 311.053 119.092 310.282C119.208 309.511 119.206 308.371 119.086 307.748C118.965 307.125 118.869 307.755 118.873 309.148ZM406.199 312.189C406.204 313.304 406.308 313.701 406.43 313.07C406.551 312.44 406.546 311.528 406.419 311.043C406.293 310.559 406.193 311.074 406.199 312.189ZM119.353 314.47C119.353 315.445 119.457 315.844 119.585 315.356C119.711 314.869 119.711 314.071 119.585 313.583C119.457 313.095 119.353 313.494 119.353 314.47ZM405.394 318.483C405.208 320.27 405.151 321.827 405.268 321.945C405.582 322.258 406.217 316.682 405.957 315.901C405.834 315.534 405.582 316.696 405.394 318.483ZM119.86 320.044C119.86 321.02 119.964 321.419 120.091 320.931C120.218 320.443 120.218 319.645 120.091 319.157C119.964 318.67 119.86 319.069 119.86 320.044ZM120.308 323.633C120.341 324.586 120.554 326.049 120.781 326.886C121.053 327.885 121.097 327.365 120.911 325.365C120.6 322.014 120.214 320.907 120.308 323.633ZM403.612 330.433C403.563 331.269 403.405 332.524 403.262 333.22L403.001 334.487L403.547 333.238C403.846 332.551 404.003 331.297 403.896 330.451L403.699 328.913L403.612 330.433ZM402.341 336.874C402.17 337.513 402.051 338.491 402.075 339.048C402.099 339.606 402.327 339.172 402.582 338.085C403.076 335.98 402.866 334.918 402.341 336.874ZM401.257 341.836C401.064 342.711 401.012 343.535 401.141 343.663C401.271 343.792 401.521 343.17 401.7 342.279C401.879 341.388 401.929 340.566 401.815 340.452C401.7 340.337 401.449 340.96 401.257 341.836ZM123.882 343.103C123.875 343.66 124.063 344.572 124.303 345.13C124.858 346.421 124.858 345.089 124.303 343.356C123.977 342.337 123.894 342.288 123.882 343.103ZM399.266 349.727C399.079 350.47 399.024 351.175 399.143 351.295C399.264 351.414 399.513 350.904 399.7 350.161C399.887 349.418 399.942 348.713 399.822 348.593C399.702 348.474 399.453 348.984 399.266 349.727ZM397.239 356.822C397.052 357.565 396.997 358.27 397.116 358.389C397.237 358.509 397.486 357.999 397.673 357.256C397.86 356.513 397.914 355.807 397.795 355.688C397.675 355.569 397.425 356.079 397.239 356.822ZM395.484 362.162C395.173 363.058 395.006 363.88 395.115 363.988C395.223 364.097 395.567 363.452 395.88 362.558C396.191 361.662 396.359 360.84 396.25 360.732C396.141 360.623 395.797 361.268 395.484 362.162ZM389.36 377.532C389.102 378.211 388.305 379.921 387.59 381.333C386.874 382.744 386.404 383.898 386.544 383.898C386.821 383.898 389.119 379.494 389.867 377.532C390.124 376.853 390.222 376.296 390.082 376.296C389.943 376.296 389.617 376.853 389.36 377.532ZM397.971 381.341C397.623 382.183 397.101 382.725 396.812 382.546C396.507 382.357 396.437 382.466 396.648 382.806C396.846 383.128 397.104 383.391 397.219 383.391C397.572 383.391 399.066 380.272 398.828 380.034C398.706 379.911 398.321 380.5 397.971 381.341ZM383.519 388.966C383.087 389.802 382.847 390.486 382.986 390.486C383.125 390.486 383.594 389.802 384.026 388.966C384.458 388.13 384.699 387.446 384.56 387.446C384.42 387.446 383.951 388.13 383.519 388.966ZM380.03 394.794C379.581 395.491 378.843 396.688 378.392 397.454L377.571 398.848L378.591 397.614C379.795 396.157 381.392 393.527 381.073 393.527C380.949 393.527 380.48 394.097 380.03 394.794ZM376.108 400.748C375.477 401.654 374.378 403.182 373.665 404.144C372.953 405.105 372.614 405.744 372.911 405.564C373.552 405.176 377.87 399.101 377.505 399.101C377.367 399.101 376.737 399.843 376.108 400.748ZM151.162 404.169C151.757 405.005 152.358 405.69 152.497 405.69C152.637 405.69 152.264 405.005 151.669 404.169C151.073 403.333 150.473 402.649 150.333 402.649C150.194 402.649 150.567 403.333 151.162 404.169ZM369.534 409.601C366.664 413.253 355.407 424.767 350.832 428.729C348.466 430.78 348.388 430.893 350.326 429.484C354.993 426.089 373.888 406.196 372.446 406.196C372.316 406.196 371.006 407.728 369.534 409.601ZM157.243 411.771C158.693 413.443 159.991 414.812 160.131 414.812C160.27 414.812 159.2 413.443 157.75 411.771C156.301 410.099 155.002 408.73 154.863 408.73C154.723 408.73 155.794 410.099 157.243 411.771ZM164.592 419.879C167.089 422.388 169.245 424.44 169.384 424.44C169.524 424.44 167.596 422.388 165.098 419.879C162.601 417.371 160.445 415.318 160.306 415.318C160.166 415.318 162.094 417.371 164.592 419.879ZM169.913 424.599C169.913 424.686 170.654 425.427 171.56 426.246L173.207 427.734L171.718 426.087C170.331 424.552 169.913 424.207 169.913 424.599ZM173.617 427.832C174.043 428.521 178.021 431.732 178.021 431.386C178.021 431.256 176.948 430.272 175.638 429.198C174.327 428.123 173.417 427.509 173.617 427.832ZM345.765 432.611C343.998 434.159 343.997 434.16 345.623 433.08C346.52 432.483 347.389 431.777 347.553 431.511C348.041 430.721 347.636 430.97 345.765 432.611ZM178.528 431.72C178.528 431.86 179.212 432.46 180.048 433.056C180.885 433.651 181.569 434.023 181.569 433.884C181.569 433.745 180.885 433.144 180.048 432.549C179.212 431.953 178.528 431.581 178.528 431.72ZM339.546 436.812C335.841 439.337 333.931 440.836 335.629 439.888C337.328 438.94 343.737 434.529 343.737 434.307C343.737 433.954 343.788 433.923 339.546 436.812ZM184.576 436C185.254 436.551 186.508 437.387 187.364 437.858L188.917 438.715L187.683 437.713C187.005 437.162 185.751 436.326 184.896 435.854L183.342 434.998L184.576 436ZM191.704 440.401C191.704 440.741 197.848 443.806 198.074 443.579C198.176 443.476 196.785 442.665 194.982 441.776C193.179 440.888 191.704 440.268 191.704 440.401ZM331.448 441.704C329.845 442.531 328.534 443.322 328.534 443.46C328.534 443.599 329.902 443.021 331.575 442.178C333.247 441.334 334.615 440.532 334.615 440.396C334.615 440.059 334.709 440.02 331.448 441.704ZM324.86 445.002C322.895 446.067 323.118 446.436 325.113 445.42C327.024 444.449 327.362 444.197 326.719 444.225C326.463 444.236 325.626 444.586 324.86 445.002ZM203.36 446.232C204.336 446.766 205.362 447.202 205.641 447.202C205.919 447.202 205.349 446.766 204.374 446.232C203.398 445.697 202.372 445.261 202.093 445.261C201.814 445.261 202.385 445.697 203.36 446.232ZM320.932 446.992C320.236 447.39 319.894 447.717 320.172 447.717C320.451 447.717 321.249 447.39 321.946 446.992C322.643 446.594 322.985 446.267 322.706 446.267C322.427 446.267 321.629 446.594 320.932 446.992ZM207.456 447.945C207.973 448.416 212.989 450.784 212.989 450.556C212.989 450.271 208.149 447.752 207.601 447.752C207.405 447.752 207.341 447.838 207.456 447.945ZM309.023 451.778C307.908 452.307 307.224 452.739 307.503 452.741C308.195 452.746 312.193 450.874 311.557 450.843C311.278 450.831 310.138 451.251 309.023 451.778ZM218.563 454.499C218.563 454.586 219.305 455.327 220.21 456.146L221.857 457.634L220.369 455.987C218.982 454.452 218.563 454.107 218.563 454.499ZM297.992 457.652C296.952 458.359 296.1 459.047 296.1 459.18C296.1 459.313 297.013 458.819 298.127 458.081C299.897 456.91 300.497 456.367 300.019 456.367C299.944 456.367 299.032 456.945 297.992 457.652ZM293.788 461.055L292.3 462.702L293.947 461.213C294.852 460.395 295.594 459.654 295.594 459.566C295.594 459.175 295.175 459.519 293.788 461.055ZM224.138 460.073C224.138 460.161 224.879 460.902 225.785 461.72L227.432 463.209L225.943 461.562C224.556 460.026 224.138 459.682 224.138 460.073ZM289.776 464.856C288.687 466.18 288.321 466.807 288.962 466.249C290.096 465.264 292.297 462.449 291.935 462.449C291.836 462.449 290.864 463.532 289.776 464.856ZM284.897 471.191C282.17 474.941 276.788 480.637 274.056 482.663C272.808 483.588 272.762 483.681 273.802 483.188C275.61 482.331 283.289 474.338 285.856 470.643C288.87 466.303 288.15 466.713 284.897 471.191ZM235.234 474.977C237.161 477.497 242.14 482.081 244.365 483.382C246.858 484.841 246.18 484.075 243.102 481.953C241.546 480.883 238.771 478.393 236.935 476.422C235.1 474.45 234.334 473.8 235.234 474.977ZM269.748 484.819C268.494 485.378 266.213 486.14 264.68 486.515C263.147 486.889 262.463 487.211 263.16 487.227C264.61 487.264 271.164 485.053 271.957 484.26C272.65 483.567 272.447 483.619 269.748 484.819ZM249.887 486.02C250.81 486.45 252.634 486.911 253.942 487.044C256.165 487.271 256.123 487.24 253.278 486.569C251.605 486.175 249.781 485.713 249.223 485.545C248.666 485.376 248.965 485.591 249.887 486.02Z" fill="#9F6342"/>
<path fill-rule="evenodd" clip-rule="evenodd" d="M302.309 31.4346C302.315 32.5495 302.418 32.946 302.54 32.3151C302.662 31.6854 302.657 30.7732 302.53 30.288C302.403 29.804 302.303 30.3197 302.309 31.4346ZM198.419 30.5173C198.907 30.644 199.705 30.644 200.193 30.5173C200.68 30.3893 200.281 30.2854 199.306 30.2854C198.33 30.2854 197.931 30.3893 198.419 30.5173ZM202.6 145.59C201.206 146.045 199.952 146.554 199.812 146.72C199.673 146.887 197.825 147.926 195.705 149.028C188.187 152.94 177.166 163.627 170.419 173.548C169.444 174.982 168.247 176.639 167.759 177.229C167.271 177.819 166.872 178.499 166.872 178.74C166.872 178.98 165.885 180.827 164.68 182.843C160.892 189.178 158.737 193.986 157.243 199.431C156.9 200.686 156.404 202.396 156.143 203.232C150.27 222.036 166.912 233.055 182.535 220.706C185.939 218.015 196.567 207.43 198.552 204.752C199.378 203.638 200.456 202.357 200.948 201.906C201.438 201.455 201.84 200.903 201.84 200.682C201.84 200.459 202.183 199.915 202.604 199.474C205.031 196.924 206.385 195.21 206.662 194.338C206.835 193.795 207.189 193.35 207.448 193.35C207.708 193.35 207.921 193.005 207.921 192.585C207.921 192.164 208.605 191.105 209.441 190.229C210.277 189.354 210.962 188.461 210.962 188.244C210.962 188.028 212.102 185.992 213.495 183.721C214.889 181.451 216.029 179.281 216.029 178.899C216.029 178.518 216.23 178.083 216.474 177.931C216.719 177.78 217.424 176.342 218.044 174.735C218.662 173.127 219.369 171.356 219.615 170.798C226.634 154.825 217.185 140.825 202.6 145.59Z" fill="#FBE999"/>
</svg>
