<svg width="512" height="512" viewBox="0 0 512 512" fill="none" xmlns="http://www.w3.org/2000/svg">
<rect x="0.5" y="0.5" width="511" height="511" stroke="black" stroke-opacity="0.61"/>
<path fill-rule="evenodd" clip-rule="evenodd" d="M287.374 100.981C285.939 102.443 284.898 103.639 285.061 103.639C285.223 103.639 286.53 102.443 287.963 100.981C289.398 99.5194 290.439 98.3237 290.276 98.3237C290.114 98.3237 288.808 99.5194 287.374 100.981ZM278.789 117.367L275.86 120.467L278.958 117.536C281.84 114.814 282.329 114.267 281.89 114.267C281.796 114.267 280.401 115.662 278.789 117.367ZM213.167 127.552C213.17 129.826 213.277 130.683 213.404 129.458C213.533 128.234 213.53 126.373 213.4 125.326C213.27 124.277 213.164 125.279 213.167 127.552ZM102.822 132.129L100.488 134.639L102.997 132.305C105.331 130.134 105.779 129.619 105.331 129.619C105.235 129.619 104.105 130.748 102.822 132.129ZM243.747 130.604C243.709 130.984 243.507 131.78 243.296 132.376C243 133.215 243.079 133.306 243.647 132.783C244.049 132.411 244.252 131.614 244.098 131.011C243.942 130.408 243.785 130.225 243.747 130.604ZM252.339 134.737C251.739 135.337 251.869 136.114 252.57 136.114C252.913 136.114 253.013 135.821 252.791 135.461C252.517 135.017 252.836 134.934 253.79 135.204C254.871 135.511 254.99 135.46 254.307 134.982C253.264 134.252 252.873 134.203 252.339 134.737ZM300.364 135.118C300.364 135.219 301.228 136.084 302.283 137.038L304.202 138.772L302.467 136.853C300.851 135.064 300.364 134.661 300.364 135.118ZM197.622 141.248C198.108 141.423 198.838 141.984 199.245 142.495C199.916 143.343 199.983 143.341 199.983 142.49C199.983 141.565 198.757 140.796 197.425 140.885C197.046 140.91 197.133 141.074 197.622 141.248ZM204.501 141.872C204.35 142.115 207.988 142.245 212.585 142.162C227.801 141.884 229.37 141.665 216.994 141.545C210.274 141.482 204.652 141.628 204.501 141.872ZM187.435 142.948C185.228 144.145 185.362 144.644 187.583 143.495C188.558 142.992 189.354 142.454 189.354 142.3C189.354 141.919 189.291 141.941 187.435 142.948ZM229.065 147.764C230.281 147.891 232.275 147.891 233.492 147.764C234.71 147.636 233.714 147.531 231.278 147.531C228.842 147.531 227.846 147.636 229.065 147.764ZM386.262 162.436L383.325 165.139L386.425 162.638C389.207 160.397 389.876 159.733 389.362 159.733C389.272 159.733 387.876 160.95 386.262 162.436ZM307.047 166.82C307.047 168.93 307.155 169.794 307.286 168.738C307.418 167.683 307.418 165.955 307.286 164.9C307.155 163.845 307.047 164.708 307.047 166.82ZM314.082 170.952C314.082 172.089 314.203 172.555 314.351 171.986C314.5 171.418 314.5 170.488 314.351 169.92C314.203 169.351 314.082 169.816 314.082 170.952ZM387.13 171.958C386.336 172.497 383.246 175.012 380.262 177.546C358.674 195.877 329.608 203.679 310.583 196.249C306.994 194.848 306.901 194.883 305.141 198.305C293.765 220.423 253.258 243.068 235.707 237.122C234.733 236.792 231.677 235.811 228.916 234.942C214.772 230.492 199.299 221.873 190.073 213.303L186.36 209.857L182.525 213.373C174.666 220.573 166.733 223.111 152.155 223.086C128.362 223.049 107.303 216.196 104.169 207.476C103.747 206.301 95.9896 202.073 95.3971 202.695C94.3057 203.834 88.8986 213.076 89.7164 212.401C90.4903 211.761 90.7337 211.778 91.1403 212.499C91.4109 212.977 92.9301 214.739 94.5173 216.414L97.4045 219.46L94.5989 225.467C64.4452 290.028 72.8332 368.56 115.502 421.168C117.149 423.2 118.498 425.145 118.498 425.492C118.498 426.234 118.643 426.377 124.434 431.39C142.856 447.333 162.862 459.588 183.302 467.449C184.032 467.731 185.229 468.211 185.959 468.518C246.054 493.723 329.53 480.009 379.745 436.687C405.382 414.567 422.66 390.886 433.179 363.447C434.239 360.687 435.326 357.897 435.597 357.247C438.837 349.462 443.325 328.31 444.429 315.618C446.831 287.998 443.068 263.613 431.763 233.542C425.478 216.824 408.762 190.963 395.744 177.818C388.623 170.627 388.854 170.784 387.13 171.958ZM369.596 175.711C367.568 177.331 365.907 178.802 365.907 178.977C365.907 179.348 372.92 173.909 373.359 173.199C373.877 172.361 373.359 172.706 369.596 175.711ZM168.234 176.857C168.234 177.993 168.357 178.459 168.505 177.891C168.653 177.322 168.653 176.393 168.505 175.824C168.357 175.256 168.234 175.72 168.234 176.857ZM82.5589 180.475C82.5151 181.331 82.9429 182.391 83.5112 182.837C84.4106 183.543 84.456 183.532 83.8634 182.763C83.4885 182.274 83.0608 181.212 82.9111 180.4L82.639 178.925L82.5589 180.475ZM85.431 184.719C85.431 184.82 86.2941 185.683 87.3507 186.637L89.269 188.372L87.5351 186.452C85.9177 184.664 85.431 184.262 85.431 184.719ZM190.831 204.019C192.759 205.967 194.47 207.562 194.632 207.562C194.795 207.562 193.35 205.967 191.421 204.019C189.494 202.07 187.782 200.476 187.621 200.476C187.457 200.476 188.903 202.07 190.831 204.019ZM110.264 202.953C110.565 204.002 111.388 205.404 112.093 206.064L113.373 207.267L112.097 205.564C111.396 204.627 110.822 203.379 110.822 202.793C110.822 202.206 110.572 201.573 110.268 201.386C109.927 201.174 109.924 201.77 110.264 202.953ZM291.765 203.576L290.031 205.496L291.949 203.76C293.004 202.807 293.869 201.943 293.869 201.842C293.869 201.386 293.381 201.788 291.765 203.576ZM381.93 208.548C383.671 209.089 385.682 210.053 386.395 210.688C387.163 211.373 388.094 211.69 388.676 211.468C389.355 211.207 389.562 211.341 389.346 211.902C389.173 212.349 389.956 213.58 391.099 214.658C392.233 215.728 393.569 217.226 394.068 217.988C394.614 218.819 395.596 219.395 396.532 219.43C397.959 219.484 397.98 219.52 396.799 219.873C395.64 220.219 395.596 220.37 396.357 221.404C396.822 222.034 397.202 222.232 397.202 221.847C397.202 221.46 397.483 221.142 397.827 221.142C398.17 221.142 398.281 221.419 398.074 221.756C397.749 222.281 401.102 231.462 402.592 234.129C405.694 239.684 408.558 255.733 407.444 261.306C407.045 263.3 400.693 270.152 399.245 270.152C398.846 270.152 398.375 270.71 398.196 271.393C398.003 272.131 397.598 272.465 397.197 272.217C396.827 271.987 395.903 272.383 395.144 273.095C392.068 275.985 375.995 275.069 372.822 271.822C372.24 271.228 371.45 270.743 371.064 270.743C369.962 270.743 366.067 266.108 363.459 261.695C361.914 259.078 360.797 257.773 360.276 257.974C359.756 258.174 359.586 257.98 359.8 257.427C359.98 256.956 359.834 256.572 359.475 256.572C359.115 256.572 358.813 256.106 358.802 255.538C358.791 254.969 358.43 254.04 357.998 253.471C357.567 252.901 357.34 251.772 357.496 250.961C357.736 249.704 357.558 249.485 356.296 249.485C355.481 249.485 354.656 249.073 354.462 248.569C354.263 248.049 354.361 247.807 354.687 248.01C355.014 248.211 355.112 247.969 354.913 247.449C354.719 246.946 354.226 246.533 353.817 246.533C353.395 246.533 352.819 245.253 352.488 243.579C351.973 240.969 352.009 240.71 352.798 241.365C353.581 242.013 353.635 241.812 353.236 239.743C350.133 223.674 354.613 214.091 367.382 209.48C373.307 207.34 377.239 207.089 381.93 208.548ZM87.4973 215.238C86.994 216.213 86.7143 217.01 86.8761 217.01C87.0393 217.01 87.585 216.213 88.0884 215.238C88.5918 214.263 88.8714 213.466 88.7097 213.466C88.5464 213.466 88.0007 214.263 87.4973 215.238ZM149.35 215.675C151.218 215.791 154.273 215.791 156.14 215.675C158.008 215.557 156.48 215.462 152.745 215.462C149.011 215.462 147.483 215.557 149.35 215.675ZM242.645 230.998C243.213 231.146 244.143 231.146 244.711 230.998C245.28 230.849 244.814 230.728 243.679 230.728C242.542 230.728 242.077 230.849 242.645 230.998ZM132.844 248.102C132.761 248.534 133.582 248.572 135.467 248.22C136.977 247.937 138.631 247.841 139.143 248.002C139.654 248.166 142.061 248.439 144.49 248.61C146.919 248.782 150.43 249.308 152.293 249.78C154.155 250.252 156.108 250.472 156.633 250.271C157.159 250.069 157.76 250.167 157.972 250.487C158.542 251.357 162.085 251.91 162.523 251.199C162.764 250.812 163.288 250.941 163.962 251.552C164.547 252.079 165.915 252.626 167.004 252.767C171.442 253.337 174.003 254.304 174.003 255.411C174.003 255.725 174.695 255.981 175.541 255.981C176.59 255.981 176.983 256.235 176.776 256.776C176.583 257.278 177.289 257.932 178.678 258.546C179.893 259.082 181.242 260.186 181.677 260.998C182.174 261.926 182.98 262.476 183.845 262.476C184.895 262.476 185.222 262.804 185.222 263.861C185.222 264.623 185.734 265.709 186.363 266.278C186.99 266.846 187.368 267.665 187.202 268.098C186.983 268.669 187.276 268.789 188.275 268.53C189.503 268.214 189.563 268.282 188.839 269.163C188.216 269.922 188.189 270.344 188.717 270.98C189.241 271.612 189.237 271.865 188.695 272.045C188.172 272.218 188.26 272.997 189.029 275.009C189.602 276.51 189.89 278.031 189.667 278.39C189.445 278.749 189.166 279.817 189.046 280.765C188.927 281.711 188.408 283.299 187.896 284.29C187.025 285.974 187.033 286.1 188.011 286.163C188.996 286.228 188.998 286.248 188.026 286.502C187.457 286.651 186.993 287.294 186.993 287.93C186.993 289.72 185.154 292.252 184.549 291.296C184.204 290.754 184.056 290.919 184.049 291.853C184.044 292.583 183.792 293.181 183.489 293.181C183.187 293.181 182.759 293.747 182.539 294.439C182.224 295.432 182.028 295.526 181.614 294.882C180.948 293.85 179.93 295.169 179.916 297.084C179.908 298.102 179.629 298.279 178.395 298.043C177.218 297.818 176.811 298.031 176.556 299.01C176.158 300.525 175.201 300.676 175.136 299.232C175.1 298.41 175.021 298.38 174.754 299.086C174.075 300.873 170.945 303.415 170.437 302.591C170.066 301.993 169.447 302.16 167.658 303.344C166.148 304.343 164.845 304.77 163.867 304.582C162.969 304.41 162.008 304.668 161.443 305.235C160.927 305.749 159.975 306.171 159.326 306.171C158.676 306.171 158.06 306.62 157.954 307.167C157.801 307.957 156.976 308.195 153.925 308.32C147.646 308.577 146.84 308.679 146.84 309.208C146.84 309.486 146.574 309.714 146.249 309.714C145.926 309.714 145.66 309.315 145.66 308.828C145.66 307.623 144.921 307.716 143.297 309.123C141.811 310.412 141.25 310.636 141.822 309.714C142.336 308.881 140.907 309.017 139.198 309.963C138.112 310.567 137.496 310.601 136.703 310.105C135.86 309.579 135.476 309.681 134.769 310.615C134.007 311.623 133.884 311.646 133.869 310.784C133.848 309.69 129.797 309.915 129.05 311.052C128.243 312.282 115.935 311.891 114.827 310.6C114.239 309.915 113.805 309.729 113.793 310.157C113.783 310.564 113.479 310.895 113.121 310.895C112.761 310.895 112.631 310.467 112.832 309.944C113.125 309.179 112.914 309.062 111.754 309.354C110.643 309.632 110.224 309.443 109.936 308.535C109.73 307.883 109.207 307.353 108.776 307.353C107.643 307.353 104.329 304.299 104.308 303.235C104.287 302.266 102.963 300.266 102.341 300.266C101.014 300.266 96.8119 294.345 96.3342 291.803C96.1105 290.612 95.6918 289.638 95.4031 289.638C95.1144 289.638 94.9088 286.715 94.9481 283.143C94.9859 279.566 95.264 276.647 95.5679 276.647C95.9004 276.647 95.8929 276.245 95.5482 275.629C95.1794 274.971 95.1854 274.224 95.5648 273.517C95.8868 272.914 95.9881 271.999 95.7901 271.482C95.592 270.965 95.7538 270.341 96.1498 270.096C96.6804 269.768 96.697 269.445 96.2163 268.864C95.7281 268.278 95.8354 267.486 96.6351 265.756C97.2261 264.479 97.5859 263.114 97.4362 262.724C97.2851 262.332 98.2162 260.939 99.5026 259.625C100.79 258.312 101.72 257.114 101.569 256.965C101.419 256.814 102.376 256.083 103.697 255.341C105.017 254.599 106.098 253.76 106.098 253.477C106.098 253.195 107.563 252.292 109.351 251.473C111.141 250.654 112.454 249.739 112.27 249.44C112.084 249.141 112.28 248.868 112.705 248.837C113.131 248.805 114.143 248.738 114.954 248.689C115.787 248.639 116.366 248.277 116.283 247.862C116.2 247.445 116.712 247.127 117.464 247.133C118.538 247.141 118.623 247.251 117.907 247.714C117.228 248.153 117.442 248.288 118.823 248.296C119.813 248.3 120.916 248.011 121.274 247.653C121.642 247.287 123.243 247.094 124.936 247.21C126.591 247.325 127.945 247.268 127.945 247.083C127.945 246.9 129.074 246.911 130.454 247.11C131.835 247.308 132.909 247.754 132.844 248.102ZM452.253 275.467C452.253 276.604 452.374 277.068 452.522 276.499C452.672 275.931 452.672 275.001 452.522 274.433C452.374 273.865 452.253 274.33 452.253 275.467ZM452.716 280.928C452.722 282.233 452.888 282.59 453.233 282.044C453.698 281.311 453.47 279.01 452.933 279.01C452.808 279.01 452.71 279.873 452.716 280.928ZM66.0823 283.734C66.0823 284.869 66.2032 285.335 66.3529 284.766C66.501 284.198 66.501 283.268 66.3529 282.7C66.2032 282.132 66.0823 282.597 66.0823 283.734ZM453.338 286.538C453.316 287.918 453.399 289.047 453.523 289.047C454.025 289.047 454.244 286.236 453.827 285.168C453.511 284.363 453.367 284.762 453.338 286.538ZM65.5321 291.41C65.5321 293.195 65.6424 293.927 65.7785 293.033C65.913 292.14 65.913 290.678 65.7785 289.785C65.6424 288.893 65.5321 289.623 65.5321 291.41ZM65.523 310.009C65.5275 311.634 65.6424 312.228 65.7785 311.33C65.9145 310.432 65.91 309.103 65.7709 308.378C65.6303 307.651 65.52 308.385 65.523 310.009ZM453.446 314.143C453.452 315.441 453.573 315.904 453.715 315.169C453.855 314.435 453.851 313.372 453.703 312.807C453.555 312.243 453.44 312.843 453.446 314.143ZM452.843 320.933C452.843 322.07 452.965 322.534 453.113 321.966C453.261 321.397 453.261 320.468 453.113 319.899C452.965 319.331 452.843 319.796 452.843 320.933ZM452.253 326.248C452.253 327.383 452.374 327.849 452.522 327.28C452.672 326.712 452.672 325.782 452.522 325.214C452.374 324.646 452.253 325.111 452.253 326.248ZM447.139 349.613C446.922 350.479 446.858 351.3 446.997 351.439C447.136 351.578 447.428 350.984 447.646 350.119C447.862 349.253 447.925 348.432 447.786 348.293C447.647 348.154 447.355 348.748 447.139 349.613ZM445.714 354.511C444.884 357.283 444.873 357.543 445.602 357.543C445.916 357.543 446.021 357.144 445.835 356.657C445.647 356.169 445.721 355.77 446 355.77C446.279 355.77 446.562 354.972 446.63 353.998C446.796 351.623 446.535 351.769 445.714 354.511ZM439.244 371.832C438.537 373.506 438.051 374.97 438.166 375.084C438.28 375.199 438.96 373.93 439.676 372.265C440.393 370.6 440.878 369.136 440.754 369.013C440.63 368.889 439.95 370.157 439.244 371.832ZM434.546 382.024C433.169 384.816 432.858 385.948 433.385 386.252C433.783 386.478 433.919 386.457 433.689 386.202C433.308 385.78 435.243 381.271 436.104 380.571C436.496 380.253 436.942 378.21 436.621 378.21C436.514 378.21 435.58 379.925 434.546 382.024ZM109.05 416.185C109.05 416.286 109.913 417.149 110.97 418.103L112.888 419.838L111.154 417.918C109.537 416.13 109.05 415.728 109.05 416.185ZM408.088 421.462L406.354 423.38L408.273 421.646C409.328 420.692 410.192 419.829 410.192 419.726C410.192 419.271 409.704 419.672 408.088 421.462ZM388.012 441.537L386.277 443.457L388.197 441.722C389.252 440.768 390.117 439.905 390.117 439.804C390.117 439.347 389.628 439.749 388.012 441.537ZM381.115 446.985C380.225 447.77 379.694 448.524 379.934 448.662C380.176 448.799 380.991 448.149 381.747 447.218C383.411 445.164 383.252 445.105 381.115 446.985ZM370.088 455C363.376 459.746 362.505 460.818 368.859 456.511C370.32 455.521 371.625 454.793 371.758 454.894C371.891 454.994 372.24 454.649 372.532 454.126C372.825 453.603 373.261 453.296 373.501 453.444C373.74 453.593 374.258 453.199 374.65 452.571C375.043 451.942 375.295 451.44 375.212 451.455C375.127 451.472 372.822 453.065 370.088 455ZM361.62 460.505C358.784 462.25 357.992 463.073 360.297 461.881C362.147 460.924 364.644 459.142 364.135 459.142C363.973 459.142 362.841 459.755 361.62 460.505ZM356.311 463.575C354.514 464.55 354.326 464.813 355.425 464.81C355.832 464.81 356.675 464.323 357.301 463.728C358.66 462.435 358.466 462.405 356.311 463.575ZM326.092 477.348C325.214 477.692 325.147 477.866 325.8 478.117C326.266 478.295 326.987 478.076 327.404 477.63C328.233 476.743 327.847 476.66 326.092 477.348ZM294.164 486.274C292.666 486.662 292.825 486.72 295.195 486.647C296.735 486.6 297.997 486.361 297.999 486.118C298.002 485.589 296.585 485.646 294.164 486.274ZM285.865 487.985C286.231 488.577 287.696 488.502 288.34 487.858C288.566 487.631 288.027 487.447 287.141 487.447C286.257 487.447 285.682 487.688 285.865 487.985ZM280.878 488.264C280.878 488.388 281.542 488.617 282.354 488.772C283.167 488.928 283.83 488.825 283.83 488.546C283.83 488.266 283.167 488.038 282.354 488.038C281.542 488.038 280.878 488.139 280.878 488.264ZM268.927 489.635C269.662 489.778 270.725 489.771 271.29 489.623C271.854 489.477 271.254 489.36 269.954 489.368C268.655 489.374 268.193 489.495 268.927 489.635ZM256.824 490.233C257.722 490.369 259.051 490.364 259.776 490.225C260.503 490.084 259.769 489.973 258.145 489.977C256.522 489.982 255.928 490.096 256.824 490.233Z" fill="#512633"/>
<path fill-rule="evenodd" clip-rule="evenodd" d="M233.061 35.1655C233.415 35.8276 233.541 36.8902 233.338 37.5281C233.075 38.3565 233.244 38.686 233.935 38.686C234.64 38.686 234.85 39.1244 234.712 40.3095C234.609 41.2029 234.21 41.8725 233.823 41.7985C233.438 41.7229 232.954 42.193 232.748 42.84C232.543 43.4884 232.127 43.8648 231.826 43.6789C231.526 43.493 231.278 43.8709 231.278 44.5194C231.278 45.1678 230.493 46.5585 229.535 47.6076C228.575 48.6582 227.908 49.7072 228.052 49.94C228.196 50.1713 227.388 51.3715 226.258 52.605C225.127 53.84 224.07 55.2654 223.909 55.7733C223.565 56.8572 218.411 59.3528 216.517 59.3528C215.578 59.3528 215.307 59.6113 215.561 60.2689C215.753 60.7738 215.669 61.0353 215.371 60.8508C215.073 60.6664 214.656 61.0625 214.444 61.7306C214.157 62.6376 213.75 62.8462 212.836 62.5575C211.875 62.2521 211.692 62.373 211.98 63.1213C212.219 63.7471 211.59 64.8309 210.15 66.273C208.942 67.4808 207.955 68.8775 207.955 69.3733C207.955 69.8707 207.34 70.3634 206.59 70.4708C205.839 70.5766 205.08 71.0422 204.903 71.5032C203.998 73.8643 194.926 61.9528 194.358 57.6568C194.16 56.1543 193.77 54.3932 193.49 53.7432C193.212 53.0932 192.872 52.1636 192.738 51.6769C192.394 50.4449 189.353 57.2351 189.359 59.2228C189.364 61.067 190.577 63.0639 193.398 65.8634C203.774 76.162 213.35 105.262 213.627 127.333C213.684 131.951 213.732 132.134 214.364 130.119L215.04 127.964L217.106 129.008C222.844 131.91 234.844 135.497 238.869 135.516C240.288 135.522 241.191 135.955 242.048 137.045C243.34 138.688 245.381 138.654 247.268 136.955C247.78 136.492 248.435 136.114 248.722 136.114C249.009 136.114 249.917 135.457 250.741 134.652C251.565 133.848 253.653 131.918 255.379 130.364C258.268 127.765 258.47 127.413 257.921 125.971C257.593 125.108 256.101 118.336 254.605 110.92C250.687 91.4958 246.897 77.3365 240.093 56.6954C238.166 50.85 236.184 43.951 235.692 41.3661C235.197 38.7798 234.395 36.0573 233.908 35.3136C232.81 33.6388 232.186 33.5299 233.061 35.1655ZM234.15 80.6863C240.083 96.7124 243.148 111.303 244.525 130.062C244.784 133.593 244.686 134.343 243.963 134.343C243.448 134.343 243.089 133.797 243.091 133.014C243.108 127.36 233.29 84.2763 229.199 72.0504C225.035 59.6023 228.734 66.0568 234.15 80.6863ZM252.536 69.3204C252.536 69.65 253.24 72.126 254.102 74.8227C254.965 77.5179 256.537 83.1789 257.596 87.4009C258.655 91.6228 259.545 94.64 259.572 94.1064C259.599 93.5728 260.047 92.9727 260.568 92.7731C261.109 92.566 261.369 92.0309 261.177 91.5291C260.992 91.0438 261.096 90.6478 261.412 90.6478C261.726 90.6478 261.983 91.0469 261.983 91.5336C261.983 92.6008 262.787 92.6643 264.302 91.718C265.662 90.8685 269.648 93.2327 269.655 94.8939C269.658 95.4426 269.943 96.0685 270.289 96.2816C270.637 96.4962 270.835 97.642 270.732 98.8271C270.566 100.739 270.711 101.004 272.022 101.179C272.833 101.288 273.763 101.655 274.088 101.997C274.495 102.425 274.279 102.522 273.394 102.31C272.465 102.086 272.197 102.227 272.424 102.819C272.596 103.27 272.976 103.672 273.266 103.713C273.555 103.754 274.058 103.852 274.383 103.933C274.708 104.015 275.113 104.115 275.282 104.156C275.452 104.196 275.151 104.901 274.611 105.723C274.073 106.545 273.837 107.409 274.088 107.643C274.339 107.876 274.664 107.731 274.812 107.318C274.959 106.907 275.397 106.242 275.786 105.843C276.174 105.442 277.861 103.459 279.536 101.435C283.146 97.0722 289.671 91.1194 290.531 91.4051C291.573 91.7528 291.655 93.0105 290.636 93.0105C290.102 93.0105 289.823 93.2644 290.015 93.5743C290.206 93.8857 290.82 93.993 291.378 93.8146C292.237 93.5395 292.256 93.5849 291.506 94.1139C291.02 94.4571 290.616 95.2129 290.612 95.7933C290.607 96.3738 290.362 97.246 290.067 97.7342C289.767 98.2301 290.119 98.1046 290.869 97.4455C291.605 96.8001 293.443 95.5938 294.956 94.767C305.2 89.1649 280.667 72.708 257.554 69.6787C255.931 69.4655 254.136 69.1632 253.568 69.006C253 68.8488 252.536 68.9909 252.536 69.3204ZM207.96 80.6031C207.798 80.8631 208.059 81.2274 208.538 81.4118C209.018 81.5963 209.272 82.1087 209.101 82.5531C208.931 82.996 209.086 84.1358 209.444 85.0836C209.866 86.2021 209.879 86.5967 209.482 86.2037C208.543 85.277 206.62 79.2472 206.954 78.2737C207.166 77.6555 207.388 77.7945 207.749 78.771C208.026 79.5178 208.12 80.3416 207.96 80.6031ZM189.401 84.1252C175.718 92.3484 168.098 100.705 168.098 107.486V110.79L170.762 111.969C173.836 113.33 174.361 113.166 174.716 110.746C174.923 109.333 174.819 109.111 174.193 109.629C173.229 110.43 173.13 109.177 173.984 106.934L174.556 105.43L177.969 107.285C179.846 108.305 182.493 109.895 183.851 110.817C186.934 112.914 186.745 112.985 186.493 109.824C186.377 108.355 186.543 106.827 186.863 106.429C187.184 106.032 187.618 104.902 187.828 103.923C188.095 102.668 188.77 101.891 190.107 101.3C191.152 100.838 192.464 99.9125 193.023 99.2444C193.581 98.5762 194.063 98.2951 194.092 98.6201C194.121 98.9435 194.462 98.2799 194.849 97.1432C195.238 96.0065 195.82 95.1252 196.145 95.1857C196.901 95.3247 198.216 92.9031 197.773 92.1881C197.59 91.8903 197.746 91.8359 198.12 92.0672C198.495 92.3 198.802 92.9167 198.802 93.4382C198.802 93.9598 198.962 94.2273 199.157 94.0323C199.789 93.4005 195.318 81.2002 194.456 81.2002C194.352 81.2002 192.077 82.5168 189.401 84.1252ZM332.988 81.6235C333.88 81.758 335.342 81.758 336.235 81.6235C337.129 81.4874 336.397 81.3771 334.612 81.3771C332.825 81.3771 332.095 81.4874 332.988 81.6235ZM322.801 90.9108C317.403 92.04 312.131 93.9371 306.087 96.924C297.701 101.07 292.153 105.344 298.928 102.44C300.685 101.687 302.358 101.353 303.249 101.577C304.467 101.882 304.588 101.802 303.998 101.092C302.918 99.7885 317.272 94.9589 318.519 96.206C318.709 96.3965 318.422 96.5522 317.881 96.5522C316.778 96.5522 316.45 99.7492 317.488 100.39C317.822 100.597 318.078 100.101 318.078 99.2444C318.078 98.413 318.3 97.7342 318.57 97.7342C319.632 97.7342 319.748 98.5218 318.882 99.8414C317.908 101.327 318.214 102.458 319.589 102.458C320.056 102.458 320.44 102.856 320.44 103.344C320.44 103.835 319.916 104.23 319.26 104.23C317.803 104.23 317.724 105.144 319.112 105.953C320.028 106.487 320.035 106.558 319.175 106.573C317.887 106.597 317.258 108.311 318.38 108.742C318.859 108.926 319.102 109.319 318.92 109.614C318.737 109.91 318.369 110.019 318.103 109.854C317.839 109.69 317.657 110.018 317.701 110.583C317.753 111.222 317.423 111.552 316.831 111.455C316.04 111.327 315.898 111.854 315.993 114.581C316.057 116.386 315.931 117.972 315.715 118.106C315.18 118.436 315.724 121.878 316.374 122.28C316.661 122.458 316.897 122.189 316.897 121.683C316.897 121.176 317.192 120.762 317.55 120.762C317.91 120.762 318.043 121.182 317.846 121.696C317.648 122.21 317.488 122.844 317.488 123.104C317.488 123.364 316.889 123.754 316.159 123.971L314.831 124.366L316.099 124.884C317.68 125.531 318.439 126.667 317.29 126.667C315.913 126.667 315.645 128.372 316.756 130.068C317.512 131.223 317.799 132.961 317.845 136.679C317.931 143.82 319.093 149.357 319.84 146.191C320.555 143.163 321.621 144.171 321.621 147.875C321.621 150.674 321.816 151.468 322.507 151.468C322.993 151.468 323.392 151.714 323.392 152.015C323.392 152.799 325.12 154.421 325.944 154.411C326.392 154.405 326.349 154.217 325.826 153.886C325.379 153.602 325.188 153.087 325.403 152.739C325.906 151.923 327.516 152.53 327.243 153.434C326.596 155.572 326.36 157.59 326.842 156.867C327.273 156.222 327.636 156.208 328.733 156.795C329.877 157.407 330.205 157.361 330.834 156.501C331.579 155.482 333.162 155.783 332.52 156.822C332.331 157.127 333.182 157.354 334.429 157.33C336.225 157.296 336.441 157.186 335.497 156.781C334.383 156.303 334.394 156.272 335.686 156.232C336.441 156.21 337.446 156.58 337.922 157.055C338.536 157.668 339.163 157.765 340.093 157.39C341.246 156.926 342.374 156.616 345.831 155.815C346.318 155.702 347.704 155.446 348.91 155.247C350.34 155.011 351.229 154.495 351.46 153.767C351.655 153.152 352.347 152.648 352.997 152.648C354.098 152.648 356.539 150.887 355.467 150.868C354.341 150.846 356.87 149.713 358.061 149.705C358.781 149.699 359.638 149.194 359.966 148.582C360.293 147.97 361.296 147.285 362.194 147.06C363.094 146.835 363.964 146.458 364.129 146.225C365.074 144.894 368.189 143.247 368.466 143.934C368.653 144.398 368.783 144.304 368.812 143.683C368.857 142.72 370.271 141.985 372.697 141.668C373.347 141.583 374.567 141.338 375.409 141.125C376.453 140.859 377.248 141.045 377.913 141.71C378.45 142.247 379.15 142.523 379.47 142.325C379.791 142.127 380.624 142.269 381.322 142.643C382.296 143.164 382.695 143.152 383.041 142.593C383.357 142.082 383.611 142.239 383.892 143.122C384.111 143.814 384.555 144.381 384.879 144.381C385.202 144.381 385.384 144.885 385.281 145.498C385.18 146.113 385.603 147.176 386.221 147.861C387.328 149.084 387.328 149.106 386.221 149.152C385.555 149.179 385.408 149.323 385.86 149.504C386.448 149.74 386.463 150.001 385.931 150.642C384.212 152.713 393.271 146.658 395.909 143.973C396.659 143.21 397.521 142.737 397.823 142.924C398.124 143.11 397.546 140.924 396.538 138.066C384.713 104.524 353.418 84.5106 322.801 90.9108ZM200.406 99.8792C200.643 101.345 200.553 101.924 200.128 101.661C199.751 101.429 199.576 101.689 199.694 102.307C199.803 102.877 199.918 103.741 199.946 104.23C199.993 104.995 200.075 104.999 200.542 104.26C200.959 103.599 201.171 103.8 201.472 105.146C201.686 106.103 202.249 107.684 202.723 108.657L203.585 110.429L203.207 108.362C202.235 103.04 201.026 98.3087 200.563 98.0215C200.282 97.8491 200.211 98.6851 200.406 99.8792ZM134.348 115.745C107.386 121.349 89.467 141.784 83.9723 173.19C82.7842 179.986 82.828 181.769 84.2127 183.023C85.3207 184.026 85.369 183.992 85.7515 181.946C86.2125 179.49 86.5421 179.573 91.6846 183.449C93.3383 184.694 94.998 185.715 95.3744 185.715C95.7508 185.715 96.0592 185.937 96.0592 186.211C96.0592 186.734 98.6516 188.076 99.6644 188.076C99.9939 188.076 100.098 187.81 99.8972 187.486C99.6976 187.161 99.0809 186.895 98.5292 186.895C95.7765 186.895 96.035 182.858 98.7922 182.781C99.158 182.77 99.7914 182.36 100.199 181.869C100.763 181.191 101.134 181.136 101.747 181.645C102.355 182.15 102.789 182.122 103.504 181.528C104.307 180.862 104.565 180.893 105.17 181.718C105.826 182.614 106.004 182.589 107.319 181.401C108.82 180.046 114.383 179.572 114.781 180.764C114.882 181.07 116.02 181.26 117.308 181.187C118.596 181.116 119.81 181.316 120.006 181.632C120.201 181.949 121.336 182.048 122.529 181.85C124.148 181.584 124.473 181.652 123.812 182.119C123.129 182.601 123.466 182.737 125.288 182.711C127.144 182.685 127.396 182.571 126.468 182.172C125.507 181.757 125.472 181.656 126.287 181.623C126.836 181.6 127.449 181.847 127.65 182.172C127.85 182.497 129.062 182.763 130.343 182.763C131.621 182.763 132.669 182.983 132.669 183.254C132.669 183.899 139.4 183.351 139.656 182.684C140.068 181.611 142.117 182.167 142.117 183.352C142.117 184.72 144.516 184.956 148.025 183.933C150.86 183.106 156.288 182.764 156.288 183.413C156.288 183.704 156.583 183.943 156.941 183.943C157.301 183.943 157.443 183.544 157.255 183.057C157.035 182.483 157.272 182.17 157.93 182.169C158.489 182.165 159.66 181.791 160.534 181.336C162.058 180.541 162.135 180.572 162.365 182.076C162.498 182.941 162.646 181.106 162.694 177.999C162.832 169.277 164.8 161.001 168.163 155.018C169.25 153.087 169.274 152.774 168.456 151.2C167.968 150.257 167.701 149.268 167.865 149.004C168.469 148.027 168.215 140.389 167.536 139.122C166.993 138.108 166.995 137.618 167.539 136.962C168.085 136.303 168.08 136.114 167.516 136.114C167.117 136.114 166.933 135.742 167.108 135.287C167.303 134.779 166.927 134.318 166.138 134.096C164.915 133.751 164.904 133.693 165.914 132.917C166.712 132.305 166.786 132.022 166.21 131.791C165.606 131.548 165.63 131.347 166.327 130.854C166.927 130.429 166.974 130.225 166.473 130.219C166.048 130.214 165.736 129.457 165.736 128.438C165.736 127.061 165.999 126.667 166.916 126.667C168.514 126.667 168.416 125.714 166.77 125.247L165.441 124.871L166.916 124.018C167.728 123.55 168.127 123.149 167.802 123.126C167.477 123.105 167.666 122.824 168.221 122.501C168.777 122.176 169.079 121.521 168.895 121.042C168.677 120.473 168.943 120.158 169.658 120.13C171.221 120.07 166.212 117.883 161.307 116.481C155.921 114.942 140.266 114.515 134.348 115.745ZM183.71 127.524C184.341 128.027 185.087 128.438 185.368 128.438C185.651 128.438 185.692 128.745 185.461 129.12C185.199 129.543 185.297 129.641 185.721 129.38C186.726 128.759 186.593 128.561 184.483 127.539C182.788 126.718 182.697 126.716 183.71 127.524ZM277.04 135.369C274.156 136.098 268.872 137.976 262.849 140.415C240.786 149.344 227.42 150.224 208.44 144C202.438 142.031 201.269 142.156 197.541 145.172C195.799 146.581 192.78 148.689 190.831 149.858C180.418 156.099 176.06 163.021 176.083 173.286C176.108 185.323 177.786 187.562 195.167 198.758C202.364 203.395 212.819 207.524 225.373 210.69C232.159 212.401 252.348 212.514 258.44 210.876C267.608 208.409 280.649 203.055 284.125 200.332C284.45 200.078 286.69 198.554 289.105 196.948C301.805 188.49 306.886 179.832 306.849 166.697C306.798 148.237 291.157 131.802 277.04 135.369ZM311.585 139.804C311.584 140.371 312.769 142.446 314.218 144.416C316.652 147.72 316.846 147.862 316.729 146.246C316.658 145.284 316.403 144.618 316.159 144.768C315.916 144.919 315.716 144.655 315.716 144.185C315.716 143.713 315.319 143.175 314.834 142.987C314.348 142.802 313.419 141.777 312.769 140.711C311.989 139.429 311.587 139.122 311.585 139.804ZM168.098 152.746C168.098 153.449 168.023 153.915 167.93 153.779C167.838 153.644 167.407 153.068 166.972 152.5C166.295 151.616 166.319 151.468 167.14 151.468C167.728 151.468 168.098 151.96 168.098 152.746ZM330.774 154.42C330.973 154.743 330.576 155.009 329.888 155.009C329.2 155.009 328.801 154.743 329.002 154.42C329.203 154.095 329.601 153.829 329.888 153.829C330.174 153.829 330.573 154.095 330.774 154.42ZM396.611 164.821C396.611 165.131 398.139 166.836 400.006 168.611L403.402 171.838L400.154 168.309C398.367 166.368 396.84 164.662 396.759 164.52C396.677 164.377 396.611 164.513 396.611 164.821ZM106.689 179.81C106.689 180.134 106.29 180.4 105.803 180.4C105.315 180.4 104.917 180.134 104.917 179.81C104.917 179.485 105.315 179.219 105.803 179.219C106.29 179.219 106.689 179.485 106.689 179.81ZM146.103 183.76C145.534 183.908 144.605 183.908 144.036 183.76C143.468 183.611 143.932 183.49 145.069 183.49C146.206 183.49 146.671 183.611 146.103 183.76ZM454.709 300.266C454.709 304.65 454.802 306.444 454.915 304.253C455.028 302.061 455.028 298.472 454.915 296.28C454.802 294.088 454.709 295.883 454.709 300.266ZM399.546 431.795L395.725 435.78L399.711 431.96C403.413 428.411 403.966 427.809 403.532 427.809C403.442 427.809 401.647 429.603 399.546 431.795Z" fill="#909644"/>
<path fill-rule="evenodd" clip-rule="evenodd" d="M213.859 23.1073C206.091 24.9817 197.641 30.5687 191.54 37.8622C179.715 51.9958 178.226 62.2582 186.782 70.6552C190.089 73.9006 190.045 74.1546 185.761 76.7077C171.218 85.3708 160.814 96.6429 159.99 104.629L159.66 107.818L156.941 107.353C122.52 101.451 89.7208 123.433 78.7268 159.772C72.635 179.909 73.3999 185.396 83.4687 193.775C87.8796 197.445 87.925 196.641 82.8066 205.221C11.3435 324.995 89.9717 473.656 233.345 489.843C246.806 491.362 287.482 490.273 282.059 488.538C281.115 488.236 281.617 488.183 283.451 488.393C285.42 488.617 286.196 488.52 285.925 488.083C285.682 487.69 286.123 487.447 287.077 487.447C287.928 487.447 288.489 487.664 288.324 487.93C288.161 488.196 288.876 488.283 289.914 488.121C291.768 487.834 291.775 487.82 290.326 487.364C289.372 487.063 289.998 486.987 292.097 487.152C294.167 487.314 294.809 487.238 293.869 486.945C292.533 486.529 292.635 486.446 294.938 486.068C296.337 485.838 297.728 485.802 298.027 485.986C298.999 486.588 302.943 485.592 302.045 484.972C301.527 484.614 301.942 484.56 303.242 484.817C304.766 485.119 305.126 485.036 304.775 484.466C304.473 483.978 304.553 483.869 305.011 484.151C305.873 484.685 309.337 483.979 308.949 483.35C308.793 483.099 309.361 483.027 310.212 483.19C311.375 483.412 311.641 483.294 311.284 482.717C310.961 482.194 311.041 482.093 311.538 482.401C312.412 482.941 317.589 481.594 317.181 480.933C317.024 480.679 317.468 480.622 318.17 480.805C319.119 481.053 319.321 480.941 318.965 480.363C318.64 479.837 318.715 479.73 319.201 480.031C320.242 480.673 322.936 479.877 322.44 479.072C322.195 478.676 322.293 478.57 322.683 478.812C323.043 479.035 324.039 479.041 324.898 478.824C326.047 478.537 326.248 478.301 325.663 477.93C325.147 477.605 325.111 477.423 325.558 477.417C325.938 477.413 326.734 477.251 327.33 477.057C328.229 476.766 328.263 476.814 327.525 477.345C326.39 478.161 326.88 478.162 329.207 477.351C330.231 476.995 330.935 476.492 330.775 476.232C330.444 475.695 332.255 474.856 332.728 475.328C332.897 475.499 332.683 475.638 332.249 475.638C331.816 475.638 331.605 475.78 331.779 475.955C332.327 476.503 335.183 474.905 334.791 474.27C334.565 473.903 334.803 473.813 335.401 474.042C336.679 474.533 338.256 473.919 337.765 473.123C337.539 472.758 337.665 472.678 338.069 472.928C339.033 473.523 341.207 472.734 340.729 471.96C340.505 471.599 340.607 471.49 340.962 471.709C341.787 472.22 343.554 471.529 343.138 470.858C342.962 470.571 343.273 470.512 343.829 470.725C344.513 470.988 344.705 470.892 344.42 470.43C344.147 469.989 344.311 469.867 344.883 470.086C345.988 470.511 349.436 468.542 348.954 467.761C348.76 467.447 348.896 467.372 349.259 467.596C349.889 467.985 355.868 465.336 355.868 464.668C355.868 464.493 355.602 464.512 355.278 464.714C354.953 464.915 354.687 464.937 354.687 464.763C354.687 464.591 355.514 464.021 356.524 463.5C357.565 462.96 358.176 462.847 357.934 463.238C357.694 463.628 358.305 463.515 359.346 462.975C360.356 462.454 361.183 461.891 361.183 461.725C361.183 461.56 360.584 461.733 359.854 462.108C357.715 463.209 359.485 461.779 362.068 460.321C364.386 459.012 364.402 459.012 362.954 460.266C361.876 461.201 361.796 461.386 362.658 460.959C364.112 460.236 366.546 458.274 365.315 458.817C364.829 459.031 365.095 458.657 365.906 457.985C366.718 457.313 367.707 456.88 368.101 457.022C368.497 457.165 369.004 456.986 369.226 456.625C369.489 456.2 369.359 456.138 368.859 456.447C368.331 456.773 368.228 456.694 368.532 456.203C368.777 455.806 369.33 455.617 369.761 455.781C370.192 455.946 370.895 455.632 371.326 455.083C372.027 454.187 372.001 454.167 371.073 454.896C370.505 455.342 370.039 455.553 370.039 455.367C370.039 455.18 371.301 454.165 372.845 453.112C374.536 451.957 375.298 451.644 374.763 452.323C374.034 453.249 374.216 453.212 375.797 452.102C376.852 451.363 377.715 450.61 377.715 450.43C377.715 450.25 377.251 450.467 376.683 450.912C375.747 451.646 375.726 451.626 376.454 450.696C376.897 450.131 377.507 449.823 377.809 450.009C378.426 450.389 380.182 449.141 379.853 448.556C379.736 448.349 380.469 447.531 381.484 446.737L383.325 445.294L381.849 446.994C381.038 447.93 382.422 447.043 384.926 445.023C387.43 443.004 389.663 441.028 389.888 440.632C390.113 440.237 389.394 440.711 388.287 441.686L386.277 443.457L387.97 441.583C388.9 440.55 389.964 439.823 390.334 439.965C390.986 440.216 402.484 429.148 402.506 428.252C402.51 428.008 402.621 427.875 402.749 427.957C403.28 428.293 405.411 425.832 405.068 425.277C404.862 424.946 404.971 424.845 405.31 425.055C406.046 425.508 407.48 423.951 407.016 423.202C406.838 422.913 407.545 421.905 408.588 420.961L410.487 419.247L408.715 421.258C407.742 422.363 407.252 423.093 407.629 422.88C408.005 422.666 409.458 421.097 410.857 419.392C412.256 417.689 412.869 416.693 412.219 417.181C411.569 417.668 412.221 416.984 413.666 415.662C415.14 414.313 416.118 412.968 415.891 412.602C415.669 412.242 415.797 411.756 416.178 411.52C416.651 411.228 416.712 411.355 416.37 411.922C415.942 412.631 416.016 412.632 416.877 411.935C417.43 411.485 417.814 410.694 417.728 410.177C417.643 409.659 417.971 409.224 418.459 409.209C418.946 409.193 419.307 408.725 419.263 408.167C419.218 407.611 419.404 407.292 419.676 407.461C420.237 407.807 421.516 405.726 421.095 405.153C420.944 404.949 420.996 404.911 421.21 405.071C421.718 405.451 423.336 403.145 422.973 402.559C422.636 402.012 424.249 399.705 424.832 399.903C425.06 399.98 425.252 399.667 425.257 399.206C425.26 398.745 425.502 398.151 425.794 397.884C426.1 397.604 426.138 397.773 425.883 398.286C425.641 398.772 425.983 398.506 426.645 397.695C428.38 395.565 430.575 391.53 429.707 392.067C429.13 392.424 429.115 392.251 429.639 391.27C430.008 390.582 430.449 390.019 430.619 390.019C430.789 390.019 430.764 390.285 430.563 390.61C430.363 390.933 430.325 391.199 430.481 391.199C430.86 391.199 436.18 381.41 436.145 380.775C436.13 380.5 435.46 381.538 434.658 383.08C432.472 387.28 432.357 386.462 434.517 382.081C435.55 379.988 436.561 378.379 436.766 378.506C436.97 378.633 437.852 377.283 438.722 375.507C440.536 371.81 440.818 370.393 439.125 373.486C437.507 376.44 437.684 375.376 439.43 371.642C440.246 369.896 440.778 369.131 440.609 369.943C440.441 370.755 440.842 370.251 441.498 368.823C442.155 367.396 442.554 366.09 442.385 365.92C442.216 365.751 442.078 365.967 442.078 366.4C442.078 366.832 441.938 367.048 441.768 366.877C441.297 366.406 442.136 364.595 442.672 364.926C443.198 365.251 444.616 361.656 444.146 361.186C443.983 361.023 443.848 361.244 443.848 361.676C443.848 362.108 443.709 362.324 443.54 362.154C442.988 361.602 443.954 359.9 444.594 360.296C444.988 360.539 445.094 360.214 444.882 359.405C444.668 358.582 444.773 358.27 445.185 358.524C445.594 358.778 445.679 358.545 445.42 357.873C444.931 356.595 446.24 351.909 446.823 352.854C447.068 353.25 447.399 352.869 447.638 351.92C447.859 351.039 447.893 350.171 447.715 349.994C447.538 349.816 447.392 350.157 447.392 350.751C447.392 351.347 447.246 351.689 447.068 351.51C446.89 351.332 446.924 350.466 447.145 349.584C447.449 348.375 447.682 348.177 448.096 348.777C448.454 349.296 448.518 348.854 448.277 347.504C447.993 345.899 448.058 345.636 448.572 346.324C449.086 347.012 449.153 346.747 448.868 345.143C448.62 343.753 448.686 343.343 449.062 343.892C449.843 345.027 451.573 337.248 451.219 334.184C450.995 332.233 451.042 332.095 451.512 333.333C451.943 334.467 452.016 334.057 451.821 331.561C451.63 329.134 451.704 328.686 452.108 329.79C452.507 330.878 452.587 330.336 452.41 327.723C452.247 325.32 452.316 324.75 452.626 325.952C453.059 327.624 453.107 327.556 453.48 324.771C454.147 319.815 454.508 286.205 453.876 287.867C453.471 288.932 453.397 288.193 453.61 285.209C453.814 282.343 453.724 281.347 453.314 281.962C452.867 282.633 452.732 282.349 452.756 280.78C452.784 279.03 452.874 278.895 453.35 279.894C453.839 280.924 453.873 280.886 453.612 279.6C453.447 278.788 453.278 277.193 453.234 276.056L453.157 273.99L452.669 275.762C452.325 277.007 452.253 276.395 452.422 273.695C452.601 270.856 452.519 270.241 452.109 271.333C451.678 272.477 451.614 272.144 451.824 269.857C452.026 267.628 451.948 267.194 451.502 268.086C451.021 269.049 450.967 268.913 451.204 267.348C451.6 264.744 450.948 261.522 450.239 262.576C449.907 263.07 449.83 262.485 450.034 260.999C450.286 259.154 450.226 258.895 449.754 259.819C449.283 260.742 449.221 260.485 449.475 258.638C449.721 256.835 449.644 256.486 449.15 257.161C448.652 257.84 448.587 257.563 448.868 255.981C449.106 254.643 449.044 254.192 448.69 254.702C448.268 255.313 448.073 255.214 447.824 254.259C447.647 253.582 447.742 253.175 448.037 253.358C448.932 253.91 448.684 252.905 445.693 243.791C436.955 217.176 421.455 191.03 403.089 171.926C395.403 163.929 395.694 165.627 401.053 160.073C409.24 151.589 409.559 150.283 406.029 139.657C390.629 93.2992 347.35 70.0052 308.086 86.9398L305.474 88.066L303.767 84.6497C298.73 74.5718 274.786 62.822 255.193 60.8146C253.244 60.615 251.25 60.3384 250.764 60.2024C249.609 59.8774 244.921 45.325 243.869 38.8009C241.735 25.5758 229.699 19.2814 213.859 23.1073ZM230.851 32.1045C234.263 33.7839 235.206 35.4376 236.299 41.6503C236.75 44.2155 238.718 51.1735 240.671 57.1141C247.635 78.2964 252.339 96.3133 256.041 115.989C257.51 123.801 259.046 129.619 259.637 129.619C259.864 129.619 260.545 128.092 261.151 126.224C263.336 119.492 262.266 109.165 257.224 88.3214C255.211 80.0015 254.407 77.0523 252.183 69.8344C251.279 66.8973 269.588 71.1646 280.796 76.5051C295.346 83.4359 301.899 91.6122 295.492 94.8425C290.345 97.4365 278.298 111.334 274.124 119.488C272.463 122.736 273.447 122.292 278.62 117.453C287.717 108.943 296.291 101.944 300.99 99.1884C331.936 81.046 367.129 89.1347 387.089 118.974C394.219 129.635 402.051 148.754 399.711 149.794C399.467 149.902 397.675 151.713 395.725 153.817C377.624 173.368 355.404 187.32 337.833 190.17C324.543 192.324 309.732 190.404 310.581 186.637C310.732 185.967 311.531 182.896 312.357 179.81C318.529 156.761 308.405 135.514 287.963 128.621C280.84 126.218 279.569 126.466 255.782 134.885C238.66 140.947 235.625 141.523 218.583 141.955L204.412 142.315L209.716 143.962C226.496 149.175 239.608 148.568 257.85 141.737C279.855 133.496 282.665 133.023 289.44 136.41C322.333 152.857 307.47 203.863 263.738 224.615C247.536 232.303 242.693 232.484 226.259 226.023C178.158 207.116 160.316 169.527 190.118 149.877C200.419 143.084 201.539 141.102 195.041 141.163C191.301 141.198 187.456 143.028 181.293 147.707C165.565 159.647 164.029 179.154 177.249 199.026C181.108 204.826 181.077 204.572 178.283 207.323C171.691 213.813 166.101 215.556 152.155 215.469C131.713 215.341 112.517 209.828 110.471 203.499C109.91 201.761 108.893 200.984 102.597 197.477C95.0265 193.261 92.3253 191.282 86.1035 185.402L82.338 181.841L83.3478 175.401C88.6309 141.707 107.405 120.233 136.041 115.128C152.811 112.138 166.922 115.905 188.089 129.02C197.653 134.947 198.33 135.233 196.426 132.532C191.939 126.166 181.819 117.795 173.99 113.972C171.561 112.785 169.174 111.609 168.688 111.357C165.761 109.844 167.994 101.961 172.776 96.9225C179.205 90.149 193.963 79.8957 195.139 81.3861C198.231 85.3088 203.426 104.293 206.451 122.715C207.273 127.728 209.116 132.73 210.902 134.808L212.269 136.395L212.704 133.487C215.61 114.116 205.198 78.8481 192.686 65.6774C188.735 61.519 188.319 59.9983 189.903 55.4907C193.755 44.5345 205.167 33.5889 215.631 30.8181C218.902 29.9519 228.05 30.7244 230.851 32.1045ZM225.133 37.9741C222.279 44.0583 219.568 46.3212 212.296 48.6854C207.882 50.1199 197.206 57.1262 198.923 57.4603C199.476 57.5691 202.267 56.8375 205.124 55.8368C207.979 54.8346 212.441 53.3018 215.04 52.4296C220.693 50.531 224.645 46.9939 226.194 42.4469C227.925 37.3664 227.081 33.8156 225.133 37.9741ZM229.096 70.1231C232.765 80.3492 240.164 111.611 242.589 127.119C243.623 133.739 244.268 131.537 243.588 123.708C242.609 112.448 240.093 100.055 236.547 89.0092C234.559 82.8161 229.645 69.8994 229.092 69.4141C228.892 69.2388 228.894 69.5577 229.096 70.1231ZM395.744 177.818C408.762 190.963 425.478 216.824 431.763 233.542C443.068 263.613 446.831 287.998 444.429 315.618C443.325 328.31 438.837 349.462 435.596 357.247C435.326 357.897 434.239 360.687 433.179 363.447C422.66 390.886 405.382 414.567 379.745 436.687C329.529 480.01 246.053 493.723 185.959 468.518C185.229 468.211 184.032 467.731 183.302 467.45C87.5123 430.604 39.9705 324.404 78.6875 233.758C83.8466 221.681 94.7862 201.81 95.9698 202.37C100.171 204.354 103.868 206.643 104.154 207.437C107.311 216.203 128.309 223.047 152.155 223.086C166.733 223.111 174.666 220.573 182.525 213.373L186.36 209.857L190.072 213.303C199.299 221.873 214.772 230.492 228.916 234.942C231.677 235.811 234.733 236.792 235.706 237.122C253.258 243.068 293.765 220.423 305.141 198.305C306.901 194.883 306.994 194.848 310.583 196.249C329.608 203.679 358.673 195.877 380.262 177.546C389.498 169.704 387.677 169.672 395.744 177.818ZM453.715 315.169C453.573 315.904 453.452 315.442 453.446 314.143C453.44 312.843 453.554 312.243 453.703 312.807C453.851 313.372 453.855 314.435 453.715 315.169ZM453.113 321.966C452.965 322.534 452.842 322.07 452.842 320.933C452.842 319.797 452.965 319.331 453.113 319.899C453.261 320.468 453.261 321.397 453.113 321.966ZM271.29 489.623C270.725 489.772 269.662 489.778 268.927 489.636C268.193 489.495 268.655 489.374 269.954 489.368C271.254 489.36 271.854 489.477 271.29 489.623ZM259.776 490.225C259.05 490.364 257.722 490.369 256.824 490.233C255.927 490.097 256.521 489.982 258.145 489.977C259.768 489.973 260.503 490.084 259.776 490.225Z" fill="#060505"/>
<path fill-rule="evenodd" clip-rule="evenodd" d="M216.959 30.8423C216.066 30.9783 215.336 31.3275 215.336 31.6207C215.336 31.914 214.952 32.0062 214.483 31.8278C213.29 31.3698 205.571 35.5434 203.002 38.033C201.828 39.1713 200.602 40.116 200.278 40.1326C199.953 40.1493 199.424 40.76 199.104 41.4916C198.783 42.2217 198.351 42.8203 198.141 42.8203C197.932 42.8203 197.016 43.7953 196.108 44.988C195.198 46.1791 194.834 46.9576 195.299 46.7142C195.765 46.4724 195.629 46.6931 194.998 47.204C193.378 48.5176 192.764 52.7335 193.977 54.2269C194.286 54.6109 194.552 56.0726 194.568 57.4769C194.583 58.8812 194.832 60.3429 195.122 60.7254C195.413 61.1063 197.452 63.8771 199.656 66.8807C203.745 72.4555 204.337 72.9785 204.902 71.5032C205.079 71.0422 205.838 70.5766 206.589 70.4708C207.339 70.3634 207.954 69.8706 207.954 69.3733C207.954 68.8775 208.942 67.4808 210.149 66.273C211.59 64.8309 212.219 63.7471 211.98 63.1213C211.691 62.373 211.874 62.2521 212.835 62.5575C213.75 62.8462 214.157 62.6376 214.444 61.7306C214.655 61.0625 215.073 60.6664 215.37 60.8508C215.668 61.0353 215.753 60.7738 215.561 60.2689C215.307 59.6113 215.578 59.3528 216.516 59.3528C218.41 59.3528 223.565 56.8572 223.908 55.7733C224.07 55.2654 225.126 53.84 226.257 52.605C227.388 51.3715 228.195 50.1713 228.051 49.94C227.908 49.7072 228.574 48.6582 229.534 47.6076C230.493 46.5585 231.277 45.1678 231.277 44.5194C231.277 43.8709 231.525 43.493 231.826 43.6789C232.127 43.8648 232.542 43.4884 232.748 42.8399C232.954 42.193 233.437 41.7229 233.823 41.7984C234.21 41.8725 234.609 41.2029 234.712 40.3095C234.846 39.1425 234.636 38.686 233.963 38.686C233.245 38.686 233.118 38.3217 233.419 37.1215C233.694 36.0286 233.61 35.6825 233.142 35.9712C232.712 36.2372 232.597 36.0588 232.822 35.4723C233.016 34.9705 233.477 34.712 233.848 34.8994C234.222 35.0854 233.776 34.5487 232.858 33.7068C231.942 32.8633 230.946 32.3267 230.644 32.5126C230.343 32.6985 230.097 32.5534 230.097 32.1906C230.097 31.8278 229.849 31.6842 229.546 31.8702C229.244 32.0576 228.83 31.9397 228.627 31.6102C228.423 31.2806 227.989 31.01 227.666 31.01C227.341 31.01 227.274 31.3426 227.518 31.7477C227.871 32.3372 227.778 32.3372 227.055 31.7538C226.558 31.3502 225.976 31.1945 225.761 31.4091C225.548 31.6223 225.373 31.4877 225.373 31.1083C225.373 30.4311 220.661 30.2815 216.959 30.8423ZM227.119 37.9484C227.087 41.289 225.899 46.1201 224.903 46.95C224.386 47.3823 224.352 47.3506 224.783 46.8351C225.107 46.4452 225.373 45.8632 225.373 45.5412C225.373 44.48 223.639 47.2236 223.621 48.3165C223.61 48.903 223.335 49.2205 223.012 49.0194C222.687 48.8184 222.421 48.9801 222.421 49.3777C222.421 49.7767 222.251 49.9324 222.044 49.7253C221.837 49.5183 220.974 49.8402 220.126 50.4419C219.276 51.042 217.054 52.0124 215.188 52.5989C213.319 53.1839 211.792 53.8959 211.792 54.1816C211.792 54.4658 211.551 54.5489 211.254 54.366C210.281 53.7644 208.62 54.7076 209.528 55.3486C210.074 55.7325 209.815 55.8232 208.688 55.6418C207.279 55.4166 207.159 55.5043 207.802 56.2903C208.444 57.0763 208.391 57.1156 207.413 56.5745C206.583 56.115 205.61 56.1769 203.766 56.8058C202.383 57.2774 200.368 57.5782 199.288 57.4739C197.165 57.2713 203.661 52.0517 209.267 49.4608C210.492 48.894 211.667 48.1956 211.874 47.9099C212.081 47.6257 212.529 47.5637 212.867 47.7739C213.835 48.3709 219.604 45.5231 221.24 43.6411L222.715 41.942L221.281 43.1196L219.845 44.2956L220.985 42.7326C221.612 41.8725 222.33 41.2951 222.581 41.4477C222.832 41.5989 223.715 40.243 224.543 38.4336C226.389 34.4051 227.152 34.2615 227.119 37.9484ZM230.688 44.0009C230.688 44.6494 230.422 45.1814 230.097 45.1814C229.772 45.1814 229.507 44.6494 229.507 44.0009C229.507 43.3509 229.772 42.8203 230.097 42.8203C230.422 42.8203 230.688 43.3509 230.688 44.0009ZM225.235 49.9052C224.528 51.0405 223.601 51.4955 223.601 50.7079C223.601 50.3814 225.392 48.7957 225.82 48.7428C225.905 48.7322 225.642 49.2552 225.235 49.9052ZM206.954 78.2737C206.62 79.2472 208.542 85.277 209.481 86.2036C209.879 86.5967 209.865 86.2021 209.443 85.0835C209.085 84.1358 208.931 82.996 209.1 82.5531C209.271 82.1087 209.017 81.5962 208.538 81.4118C208.059 81.2274 207.797 80.8631 207.959 80.6031C208.119 80.3416 208.026 79.5178 207.749 78.771C207.388 77.7945 207.165 77.6555 206.954 78.2737ZM261.153 91.328C261.382 91.7014 261.172 92.3015 260.683 92.6582C259.623 93.4337 258.55 96.3284 259.55 95.7102C259.937 95.4714 260.072 95.6361 259.886 96.1213C259.715 96.5673 260.249 100.585 261.074 105.049C262.791 114.345 262.964 120.198 261.665 125.181C260.521 129.573 259.593 130.861 258.906 129.008C258.405 127.651 256.568 128.919 250.741 134.642C249.917 135.452 248.952 136.114 248.599 136.114C248.245 136.114 247.625 136.513 247.222 137C246.576 137.777 246.798 137.774 249.057 136.977C250.47 136.478 251.844 135.682 252.11 135.207C252.376 134.733 252.913 134.347 253.303 134.352C253.744 134.358 253.678 134.593 253.126 134.982C251.583 136.061 253.758 135.342 272.316 128.633C283.451 124.609 297.327 129.623 305.591 140.657C315.08 153.327 316.989 166.962 311.65 183.917C310.989 186.014 310.505 187.784 310.573 187.849C310.641 187.916 312.357 188.528 314.387 189.21C328.407 193.924 354.049 188.201 367.74 177.304C373.922 172.382 384.157 164.136 388.39 160.664C390.527 158.912 394.025 155.523 396.164 153.133L400.052 148.789L399.413 145.994C399.062 144.458 398.562 143.201 398.302 143.201C398.042 143.201 398.005 142.735 398.22 142.167C398.435 141.598 397.695 142.087 396.577 143.252C393.541 146.416 383.863 153.135 385.93 150.642C386.463 150.001 386.447 149.74 385.859 149.504C385.407 149.323 385.554 149.179 386.221 149.152C387.327 149.106 387.327 149.084 386.221 147.861C385.602 147.176 385.179 146.113 385.28 145.498C385.383 144.885 385.202 144.381 384.878 144.381C384.555 144.381 384.11 143.814 383.891 143.122C383.61 142.239 383.356 142.082 383.04 142.593C382.694 143.152 382.295 143.164 381.322 142.643C380.623 142.269 379.79 142.127 379.47 142.325C379.149 142.523 378.449 142.247 377.913 141.71C377.248 141.045 376.453 140.859 375.408 141.125C374.566 141.338 373.346 141.583 372.696 141.668C370.27 141.985 368.857 142.72 368.811 143.683C368.783 144.304 368.653 144.398 368.465 143.934C368.189 143.247 365.073 144.894 364.128 146.225C363.964 146.458 363.093 146.835 362.194 147.06C361.296 147.285 360.292 147.97 359.965 148.582C359.637 149.194 358.78 149.699 358.061 149.705C356.87 149.713 354.341 150.846 355.467 150.868C356.539 150.887 354.097 152.648 352.997 152.648C352.347 152.648 351.655 153.152 351.46 153.767C351.228 154.495 350.34 155.011 348.91 155.247C347.703 155.446 346.317 155.702 345.83 155.815C342.373 156.616 341.246 156.926 340.092 157.39C339.163 157.765 338.535 157.668 337.922 157.055C337.445 156.58 336.44 156.21 335.686 156.232C334.393 156.272 334.383 156.303 335.497 156.781C336.44 157.186 336.224 157.296 334.428 157.33C333.181 157.354 332.33 157.127 332.519 156.822C333.162 155.783 331.579 155.482 330.834 156.501C330.205 157.361 329.877 157.407 328.732 156.795C327.635 156.208 327.272 156.222 326.841 156.867C326.359 157.59 326.595 155.572 327.242 153.434C327.516 152.53 325.906 151.923 325.402 152.739C325.188 153.087 325.378 153.602 325.826 153.886C326.349 154.217 326.391 154.405 325.944 154.411C325.12 154.421 323.392 152.799 323.392 152.015C323.392 151.714 322.993 151.468 322.506 151.468C321.815 151.468 321.62 150.674 321.62 147.875C321.62 144.171 320.555 143.163 319.84 146.191C319.093 149.357 317.93 143.82 317.844 136.679C317.799 132.961 317.512 131.223 316.756 130.068C315.645 128.372 315.912 126.667 317.29 126.667C318.438 126.667 317.68 125.531 316.098 124.884L314.83 124.366L316.159 123.971C316.889 123.754 317.488 123.364 317.488 123.104C317.488 122.844 317.648 122.21 317.846 121.696C318.042 121.182 317.909 120.762 317.55 120.762C317.191 120.762 316.897 121.176 316.897 121.683C316.897 122.189 316.661 122.458 316.374 122.28C315.724 121.878 315.179 118.436 315.714 118.106C315.931 117.972 316.056 116.386 315.993 114.581C315.897 111.854 316.039 111.327 316.83 111.455C317.423 111.552 317.752 111.222 317.701 110.583C317.657 110.018 317.838 109.69 318.103 109.854C318.369 110.019 318.736 109.91 318.919 109.614C319.102 109.319 318.859 108.926 318.379 108.742C317.258 108.311 317.887 106.597 319.175 106.573C320.035 106.558 320.027 106.486 319.111 105.953C317.723 105.144 317.802 104.23 319.259 104.23C319.915 104.23 320.44 103.835 320.44 103.344C320.44 102.856 320.056 102.458 319.589 102.458C318.213 102.458 317.908 101.327 318.881 99.8414C319.747 98.5218 319.631 97.7342 318.57 97.7342C318.299 97.7342 318.077 98.413 318.077 99.2443C318.077 100.101 317.822 100.597 317.488 100.39C316.422 99.7326 316.783 96.5582 317.93 96.5068C318.503 96.4796 318.645 96.3315 318.251 96.1697C316.201 95.3383 302.978 99.8626 303.969 101.057C304.518 101.719 304.334 101.81 302.944 101.556C301.756 101.339 300.069 101.829 297.312 103.193C295.147 104.263 293.525 104.895 293.71 104.597C293.894 104.301 291.494 106.269 288.377 108.972C285.26 111.676 282.87 114.147 283.067 114.463C283.262 114.781 283.151 114.873 282.819 114.667C282.07 114.205 280.119 116.264 280.728 116.874C280.973 117.118 280.897 117.23 280.559 117.121C280.222 117.013 278.467 118.186 276.657 119.728C274.849 121.272 273.181 122.534 272.951 122.534C271.007 122.534 279.93 109.04 286.666 101.79C288.062 100.287 289.61 98.5596 290.105 97.9519C290.599 97.3443 290.805 97.246 290.563 97.7342C290.268 98.3253 290.548 98.2467 291.405 97.4939C292.925 96.1607 292.927 96.1591 291.828 96.1591C291.355 96.1591 291.13 96.4222 291.328 96.7426C291.527 97.0631 291.406 97.1508 291.06 96.9361C290.223 96.4206 290.495 94.835 291.548 94.0882C292.23 93.603 292.198 93.5516 291.377 93.8146C290.82 93.993 290.206 93.8857 290.014 93.5743C289.822 93.2644 290.102 93.0104 290.635 93.0104C291.654 93.0104 291.572 91.7528 290.531 91.4051C289.671 91.1194 283.145 97.0721 279.535 101.435C277.861 103.459 276.174 105.442 275.785 105.843C275.397 106.242 274.958 106.907 274.812 107.318C274.664 107.731 274.339 107.876 274.088 107.643C273.837 107.409 274.072 106.545 274.611 105.723C275.15 104.901 275.451 104.196 275.282 104.156C275.112 104.115 274.707 104.015 274.382 103.933C274.057 103.852 273.554 103.753 273.265 103.713C272.975 103.672 272.596 103.27 272.423 102.819C272.197 102.227 272.464 102.086 273.394 102.31C274.278 102.522 274.494 102.425 274.088 101.997C273.763 101.655 272.833 101.288 272.021 101.179C270.711 101.004 270.566 100.739 270.732 98.8271C270.835 97.642 270.637 96.4962 270.289 96.2816C269.943 96.0684 269.657 95.4426 269.654 94.8939C269.648 93.2327 265.662 90.8685 264.301 91.718C262.787 92.6643 261.983 92.6008 261.983 91.5336C261.983 91.0469 261.701 90.6478 261.357 90.6478C261.014 90.6478 260.921 90.9546 261.153 91.328ZM197.89 92.3771C198.245 92.953 196.785 95.3036 196.144 95.1857C195.819 95.1252 195.237 96.0065 194.849 97.1432C194.462 98.2799 194.12 98.9435 194.091 98.62C194.063 98.295 193.581 98.5762 193.023 99.2443C192.463 99.9125 191.151 100.838 190.107 101.3C188.769 101.891 188.095 102.668 187.827 103.923C187.617 104.902 187.183 106.031 186.863 106.429C186.542 106.827 186.376 108.355 186.493 109.824C186.745 112.985 186.934 112.914 183.85 110.817C182.493 109.895 179.846 108.305 177.969 107.285L174.555 105.43L173.984 106.934C173.119 109.207 173.225 110.432 174.217 109.611C175.21 108.786 174.838 111.679 173.775 113.048C173.245 113.732 173.319 113.822 174.149 113.511C174.717 113.298 175.183 113.373 175.183 113.68C175.183 113.986 176.046 114.673 177.102 115.205C183.575 118.475 199.453 133.298 198.017 134.734C197.691 135.061 193.597 132.835 189.082 129.879C187.794 129.035 187.455 128.967 187.797 129.619C188.053 130.107 187.824 129.974 187.289 129.324C186.756 128.674 186.048 128.217 185.719 128.308C185.108 128.476 181.087 126.21 181.087 125.698C181.087 125.543 181.42 125.584 181.826 125.79C182.231 125.995 182.059 125.754 181.444 125.253C180.827 124.753 180.097 124.482 179.819 124.655C179.542 124.825 179.315 124.668 179.315 124.305C179.315 123.943 179.051 123.81 178.726 124.009C178.401 124.21 178.135 124.126 178.135 123.822C178.135 123.232 174.601 121.566 173.854 121.802C173.611 121.879 173.411 121.721 173.411 121.447C173.411 120.711 170.914 119.771 169.677 120.04C169.049 120.177 168.731 120.616 168.916 121.093C169.088 121.544 168.775 122.177 168.22 122.501C167.665 122.824 167.476 123.105 167.801 123.126C168.126 123.149 167.727 123.55 166.916 124.018L165.44 124.871L166.769 125.247C168.415 125.714 168.513 126.667 166.916 126.667C165.998 126.667 165.735 127.061 165.735 128.438C165.735 129.457 166.048 130.214 166.473 130.219C166.973 130.225 166.926 130.429 166.326 130.854C165.629 131.347 165.605 131.548 166.21 131.791C166.786 132.022 166.712 132.305 165.913 132.917C164.904 133.693 164.914 133.751 166.137 134.096C166.926 134.318 167.303 134.779 167.108 135.287C166.932 135.742 167.117 136.114 167.516 136.114C168.08 136.114 168.084 136.303 167.538 136.962C166.994 137.618 166.993 138.108 167.535 139.122C168.214 140.389 168.468 148.027 167.865 149.004C167.7 149.268 167.968 150.257 168.456 151.2C169.274 152.774 169.25 153.087 168.163 155.018C164.799 161.001 162.831 169.277 162.694 177.999C162.645 181.106 162.497 182.941 162.364 182.076C162.134 180.572 162.057 180.541 160.534 181.336C159.66 181.791 158.488 182.165 157.929 182.169C157.272 182.17 157.034 182.483 157.255 183.057C157.442 183.544 157.3 183.943 156.94 183.943C156.582 183.943 156.287 183.704 156.287 183.413C156.287 183.119 154.759 183.032 152.892 183.216C151.026 183.4 148.036 183.537 146.249 183.518C143.395 183.491 143.253 183.541 145.068 183.933L147.135 184.379L144.625 184.456C142.483 184.522 142.116 184.36 142.116 183.352C142.116 182.167 140.068 181.611 139.655 182.684C139.4 183.351 132.668 183.899 132.668 183.254C132.668 182.983 131.621 182.763 130.342 182.763C129.062 182.763 127.849 182.497 127.65 182.172C127.449 181.847 126.835 181.6 126.286 181.623C125.472 181.656 125.506 181.757 126.468 182.172C127.396 182.571 127.144 182.685 125.287 182.711C123.466 182.737 123.129 182.601 123.812 182.119C124.473 181.652 124.148 181.584 122.529 181.85C121.336 182.048 120.201 181.949 120.006 181.632C119.809 181.316 118.595 181.116 117.307 181.187C116.02 181.26 114.881 181.07 114.78 180.764C114.382 179.572 108.82 180.046 107.319 181.401C106.004 182.589 105.825 182.614 105.169 181.718C104.565 180.893 104.306 180.862 103.503 181.528C102.788 182.122 102.355 182.15 101.747 181.645C101.133 181.136 100.763 181.191 100.199 181.869C99.7909 182.361 99.1575 182.77 98.7917 182.781C96.0345 182.858 95.776 186.895 98.5287 186.895C99.0804 186.895 99.6971 187.161 99.8967 187.486C100.098 187.81 99.9934 188.076 99.6639 188.076C98.6511 188.076 96.0587 186.734 96.0587 186.211C96.0587 185.937 95.7503 185.715 95.3739 185.715C94.9975 185.715 93.3378 184.694 91.6841 183.449C86.5582 179.585 86.212 179.494 85.7585 181.906C85.4985 183.295 85.1373 183.837 84.6626 183.553C83.4065 182.803 90.7287 189.374 93.5479 191.527C95.0489 192.674 99.4523 195.366 103.331 197.51C109.494 200.914 110.469 201.662 111.046 203.426C113.092 209.68 132.788 215.238 152.9 215.238C165.339 215.238 173.526 212.508 178.674 206.643C180.901 204.108 180.942 204.631 178.238 201.059C161.373 178.775 166.384 152.497 189.498 142.005C193.271 140.292 199.982 140.478 199.982 142.295C199.982 143.089 202.303 142.933 204.411 141.997C205.061 141.709 212.102 141.373 220.059 141.252C231.326 141.08 235.572 140.793 239.255 139.954L243.987 138.876L242.31 137.199C241.181 136.07 240.023 135.522 238.761 135.516C234.814 135.497 222.817 131.885 217.021 128.97L214.869 127.886L214.482 129.951C214.268 131.085 213.842 131.857 213.534 131.667C213.225 131.477 212.973 132.111 212.973 133.079C212.973 142.114 206.657 130.495 205.557 119.433C205.338 117.242 204.931 115.447 204.653 115.447C204.373 115.447 204.293 114.584 204.476 113.529C204.735 112.025 204.662 111.801 204.144 112.495C203.633 113.178 203.565 112.84 203.843 111.02C204.051 109.659 203.991 108.958 203.701 109.366C203.155 110.133 202.204 108.326 201.479 105.146C201.172 103.8 200.96 103.599 200.541 104.26C200.074 104.999 199.993 104.995 199.946 104.23C199.917 103.741 199.802 102.877 199.693 102.307C199.576 101.689 199.751 101.429 200.127 101.661C200.552 101.924 200.643 101.345 200.405 99.8792C200.195 98.5838 200.277 97.8461 200.608 98.0502C200.913 98.2391 201.164 98.1121 201.164 97.769C201.164 97.4244 200.906 97.1432 200.591 97.1432C200.277 97.1432 200.189 96.7003 200.396 96.1606C200.665 95.4623 200.555 95.3126 200.02 95.6437C199.455 95.9929 199.372 95.7767 199.687 94.7821C200.002 93.792 199.919 93.5697 199.362 93.9144C198.827 94.2439 198.703 94.0429 198.923 93.2009C199.115 92.4663 198.938 92.0264 198.451 92.0264C198.023 92.0264 197.771 92.1836 197.89 92.3771ZM377.125 107.477C378.227 108.613 379.261 109.543 379.423 109.543C379.586 109.543 378.817 108.613 377.715 107.477C376.614 106.34 375.579 105.41 375.417 105.41C375.255 105.41 376.023 106.34 377.125 107.477ZM167.644 107.771C167.644 108.908 167.765 109.374 167.913 108.805C168.061 108.237 168.061 107.307 167.913 106.739C167.765 106.171 167.644 106.635 167.644 107.771ZM243.796 132.69C242.832 133.655 242.904 134.343 243.973 134.343C244.464 134.343 244.859 133.818 244.859 133.162C244.859 131.786 244.749 131.737 243.796 132.69ZM314.833 142.987C315.318 143.175 315.716 143.713 315.716 144.185C315.716 144.655 315.915 144.919 316.159 144.768C316.402 144.618 316.658 145.284 316.729 146.246C316.845 147.862 316.652 147.72 314.218 144.416C312.768 142.446 311.583 140.371 311.585 139.804C311.586 139.122 311.988 139.429 312.768 140.711C313.418 141.777 314.348 142.802 314.833 142.987ZM166.972 152.5C167.407 153.068 167.838 153.644 167.93 153.779C168.022 153.915 168.098 153.449 168.098 152.746C168.098 151.96 167.727 151.468 167.139 151.468C166.319 151.468 166.294 151.616 166.972 152.5ZM329.002 154.42C328.8 154.743 329.2 155.009 329.887 155.009C330.575 155.009 330.973 154.743 330.773 154.42C330.572 154.095 330.173 153.829 329.887 153.829C329.6 153.829 329.203 154.095 329.002 154.42ZM104.917 179.81C104.917 180.134 105.314 180.4 105.803 180.4C106.289 180.4 106.688 180.134 106.688 179.81C106.688 179.485 106.289 179.219 105.803 179.219C105.314 179.219 104.917 179.485 104.917 179.81ZM302.82 184.265C301.8 186.505 294.113 193.611 289.104 196.948C286.69 198.554 284.45 200.078 284.125 200.332C280.648 203.055 267.607 208.409 258.439 210.876C252.348 212.514 232.158 212.401 225.373 210.69C206.676 205.975 192.553 198.884 180.629 188.224C178.56 186.374 178.513 186.514 180.132 189.708C188.813 206.841 225.692 230.59 243.615 230.59C262.274 230.59 293.604 207.685 301.922 187.961C303.745 183.639 304.476 180.633 302.82 184.265ZM376.926 208.138C386.077 209.183 395.839 218.456 399.922 229.984C400.442 231.453 401.087 233.189 401.353 233.839C401.923 235.228 404.288 242.805 404.288 243.242C404.288 243.409 403.916 243.401 403.461 243.227C403.007 243.052 402.434 243.235 402.188 243.632C401.889 244.116 401.988 244.202 402.49 243.892C403.465 243.289 404.408 244.79 403.638 245.718C403.142 246.315 402.812 248.986 402.552 254.505C402.511 255.391 402.372 255.488 401.994 254.891C401.623 254.306 401.388 254.505 401.101 255.651C400.876 256.548 400.088 257.441 399.236 257.764C398.425 258.073 397.605 258.732 397.414 259.229C396.621 261.299 393.703 263.75 392.494 263.366C391.214 262.961 390.795 263.947 392.034 264.447C392.504 264.636 392.423 264.762 391.812 264.792C391.283 264.818 390.524 265.232 390.125 265.712C389.726 266.193 388.83 266.603 388.134 266.622C387.438 266.644 385.539 266.745 383.915 266.848C382.226 266.955 380.282 266.692 379.369 266.232C378.492 265.79 377.116 265.428 376.311 265.428C375.506 265.428 374.448 265.029 373.962 264.542C373.475 264.056 372.584 263.657 371.984 263.657C370.755 263.657 368.228 262.082 367.477 260.847C367.073 260.181 366.833 260.228 366.168 261.107C365.72 261.698 365.345 261.89 365.335 261.534C365.324 261.179 364.716 260.192 363.985 259.341C361.642 256.614 355.402 244.034 353.822 238.854C352.466 234.405 352.305 234.922 353.36 240.334C353.659 241.87 353.585 242.006 352.805 241.365C352.005 240.709 351.971 240.96 352.488 243.579C352.819 245.253 353.394 246.533 353.816 246.533C354.226 246.533 354.719 246.946 354.912 247.449C355.112 247.969 355.013 248.211 354.687 248.01C354.36 247.807 354.262 248.049 354.462 248.569C354.655 249.073 355.48 249.485 356.295 249.485C357.557 249.485 357.736 249.704 357.495 250.961C357.34 251.772 357.567 252.902 357.997 253.471C358.43 254.04 358.791 254.969 358.801 255.538C358.812 256.106 359.114 256.572 359.474 256.572C359.834 256.572 359.979 256.956 359.799 257.427C359.586 257.981 359.755 258.174 360.275 257.975C360.797 257.773 361.914 259.078 363.459 261.695C366.066 266.109 369.962 270.743 371.064 270.743C371.449 270.743 372.24 271.228 372.822 271.822C375.995 275.069 392.068 275.985 395.144 273.095C395.903 272.383 396.826 271.987 397.197 272.217C397.597 272.465 398.002 272.131 398.196 271.393C398.374 270.71 398.846 270.152 399.245 270.152C400.693 270.152 407.045 263.3 407.444 261.306C408.558 255.733 405.693 239.684 402.592 234.129C401.101 231.462 397.748 222.281 398.073 221.756C398.28 221.419 398.17 221.142 397.827 221.142C397.482 221.142 397.201 221.46 397.201 221.847C397.201 222.232 396.822 222.034 396.356 221.404C395.596 220.37 395.64 220.219 396.799 219.873C397.98 219.521 397.958 219.484 396.531 219.43C395.596 219.395 394.613 218.819 394.067 217.988C393.569 217.226 392.232 215.728 391.099 214.658C389.956 213.58 389.173 212.349 389.345 211.902C389.561 211.341 389.354 211.207 388.676 211.468C388.094 211.69 387.162 211.373 386.395 210.688C384.608 209.098 379.322 207.546 376.023 207.642C373.428 207.719 373.473 207.745 376.926 208.138ZM369.153 208.743C367.649 209.39 369.201 209.39 371.221 208.743C372.408 208.363 372.465 208.267 371.516 208.253C370.866 208.244 369.803 208.463 369.153 208.743ZM364.726 210.409C359.087 212.963 354.064 218.713 353.286 223.505C353.029 225.085 353.186 224.876 353.948 222.619C355.097 219.22 360.597 213.24 364.437 211.217C366.589 210.084 366.81 209.464 364.726 210.409ZM93.6975 216.124C94.7995 217.261 95.8335 218.19 95.9952 218.19C96.1585 218.19 95.389 217.261 94.2871 216.124C93.1866 214.987 92.1512 214.058 91.9894 214.058C91.8277 214.058 92.5956 214.987 93.6975 216.124ZM127.945 247.083C127.945 247.268 126.59 247.325 124.935 247.21C123.242 247.094 121.641 247.287 121.274 247.653C120.916 248.011 119.812 248.3 118.822 248.296C117.442 248.288 117.227 248.154 117.906 247.714C118.623 247.251 118.538 247.141 117.463 247.133C116.712 247.127 116.199 247.445 116.283 247.862C116.366 248.277 115.787 248.639 114.954 248.689C114.142 248.739 113.131 248.805 112.705 248.837C112.28 248.869 112.083 249.141 112.269 249.44C112.454 249.739 111.14 250.654 109.35 251.473C107.562 252.292 106.097 253.195 106.097 253.477C106.097 253.76 105.017 254.599 103.697 255.341C102.376 256.083 101.419 256.814 101.569 256.965C101.72 257.114 100.79 258.312 99.5021 259.625C98.2158 260.939 97.2846 262.332 97.4358 262.724C97.5854 263.114 97.2257 264.479 96.6346 265.756C95.835 267.486 95.7276 268.278 96.2159 268.864C96.6966 269.445 96.68 269.768 96.1494 270.096C95.7533 270.341 95.5916 270.965 95.7896 271.482C95.9876 271.999 95.8864 272.914 95.5644 273.517C95.185 274.224 95.1789 274.971 95.5478 275.629C95.8924 276.245 95.9 276.647 95.5674 276.647C95.2636 276.647 94.9854 279.566 94.9476 283.143C94.9083 286.715 95.1139 289.638 95.4026 289.638C95.6914 289.638 96.1101 290.612 96.3338 291.803C96.8115 294.345 101.014 300.266 102.341 300.266C102.962 300.266 104.286 302.266 104.308 303.235C104.329 304.299 107.642 307.353 108.776 307.353C109.207 307.353 109.73 307.883 109.935 308.535C110.224 309.443 110.643 309.632 111.754 309.354C112.913 309.063 113.125 309.179 112.832 309.944C112.631 310.467 112.761 310.895 113.12 310.895C113.479 310.895 113.782 310.564 113.793 310.157C113.805 309.729 114.239 309.915 114.827 310.6C115.935 311.891 128.242 312.282 129.05 311.052C129.796 309.915 133.848 309.69 133.869 310.784C133.884 311.646 134.006 311.623 134.768 310.615C135.476 309.681 135.86 309.58 136.703 310.106C137.495 310.601 138.112 310.567 139.197 309.963C140.907 309.017 142.335 308.881 141.821 309.714C141.25 310.636 141.811 310.412 143.297 309.123C144.92 307.716 145.659 307.623 145.659 308.828C145.659 309.315 145.925 309.714 146.249 309.714C146.574 309.714 146.84 309.486 146.84 309.208C146.84 308.679 147.646 308.577 153.925 308.32C156.975 308.195 157.801 307.958 157.953 307.167C158.059 306.62 158.676 306.171 159.326 306.171C159.974 306.171 160.927 305.749 161.442 305.235C162.007 304.668 162.969 304.41 163.867 304.582C164.845 304.77 166.148 304.343 167.658 303.344C169.446 302.161 170.066 301.993 170.436 302.591C170.944 303.415 174.075 300.873 174.753 299.086C175.021 298.38 175.1 298.41 175.136 299.233C175.201 300.676 176.158 300.525 176.555 299.01C176.811 298.031 177.217 297.818 178.395 298.043C179.628 298.279 179.908 298.102 179.916 297.085C179.929 295.169 180.948 293.85 181.613 294.882C182.027 295.526 182.224 295.432 182.538 294.439C182.759 293.747 183.187 293.182 183.489 293.182C183.791 293.182 184.044 292.583 184.048 291.853C184.056 290.919 184.204 290.754 184.549 291.297C185.153 292.252 186.993 289.72 186.993 287.93C186.993 287.294 187.457 286.651 188.025 286.502C188.997 286.248 188.996 286.228 188.01 286.163C187.032 286.1 187.025 285.974 187.895 284.29C188.408 283.299 188.926 281.711 189.046 280.765C189.165 279.817 189.445 278.749 189.667 278.39C189.889 278.031 189.602 276.51 189.029 275.009C188.26 272.997 188.172 272.218 188.695 272.045C189.236 271.865 189.241 271.612 188.716 270.98C188.189 270.344 188.216 269.922 188.839 269.163C189.563 268.282 189.502 268.214 188.275 268.53C187.276 268.789 186.982 268.669 187.202 268.098C187.368 267.665 186.99 266.846 186.363 266.278C185.734 265.709 185.221 264.623 185.221 263.861C185.221 262.804 184.895 262.476 183.844 262.476C182.98 262.476 182.174 261.926 181.677 260.998C181.241 260.186 179.893 259.083 178.678 258.546C177.288 257.932 176.582 257.278 176.776 256.776C176.983 256.235 176.59 255.981 175.541 255.981C174.694 255.981 174.002 255.725 174.002 255.411C174.002 254.304 171.441 253.337 167.003 252.767C165.915 252.626 164.547 252.079 163.962 251.552C163.288 250.941 162.763 250.812 162.523 251.199C162.085 251.91 158.541 251.357 157.971 250.487C157.76 250.167 157.158 250.069 156.632 250.271C156.108 250.472 154.155 250.252 152.292 249.78C150.43 249.308 146.918 248.782 144.489 248.61C142.06 248.439 139.654 248.166 139.143 248.002C138.63 247.841 136.977 247.937 135.466 248.22C133.581 248.572 132.761 248.534 132.844 248.102C132.909 247.754 131.834 247.309 130.454 247.111C129.074 246.911 127.945 246.9 127.945 247.083ZM120.799 256.017C121.253 255.737 122.213 255.857 123.062 256.297C123.986 256.776 125.783 256.962 127.865 256.791C131.095 256.528 131.14 256.545 129.422 257.356C127.7 258.17 127.748 258.188 131.11 257.979C133.013 257.86 134.874 257.958 135.243 258.197C135.965 258.661 136.715 258.759 141.082 258.956C143.005 259.043 143.888 259.338 143.888 259.894C143.888 260.739 144.459 260.909 146.692 260.727C147.552 260.658 148.02 260.948 148.02 261.548C148.02 262.534 151.286 262.925 151.662 261.985C151.771 261.714 153.985 261.673 156.582 261.896C159.181 262.116 160.642 262.354 159.831 262.423C158.664 262.523 158.942 262.745 161.159 263.484C162.706 264 163.963 264.786 163.963 265.238C163.963 265.688 164.363 266.208 164.849 266.396C165.336 266.583 165.735 267.372 165.735 268.149C165.735 269.126 166.069 269.563 166.817 269.563C168.438 269.563 168.798 270.234 167.644 271.109C166.681 271.841 169.003 272.388 171.28 271.966C173.178 271.614 175.713 273.771 175.068 275.189C174.702 275.991 174.206 276.647 173.966 276.647C173.725 276.647 173.553 277.545 173.585 278.641C173.653 281.051 171.883 283.265 170.971 281.909C170.565 281.303 170.442 281.56 170.524 282.848C170.775 286.769 170.503 287.867 169.278 287.867C168.628 287.867 168.098 288.133 168.098 288.458C168.098 288.781 168.362 289.047 168.687 289.047C169.012 289.047 169.278 289.331 169.278 289.681C169.278 290.414 166.214 290.19 165.653 289.416C165.446 289.13 164.408 289.328 163.348 289.857C160.801 291.127 158.65 291.115 158.65 289.83C158.65 288.958 158.52 288.975 157.557 289.977C156.591 290.982 156.572 291.154 157.395 291.464C158.165 291.753 158.097 291.937 157.004 292.522C155.911 293.107 155.618 293.073 155.331 292.324C155.031 291.543 154.746 291.585 153.273 292.634C151.845 293.652 151.564 293.7 151.564 292.926C151.564 291.649 150.551 291.764 149.824 293.121C149.384 293.943 148.283 294.353 145.709 294.651C142.042 295.077 141.029 296.693 144.394 296.75L145.954 296.776L144.182 297.54C142.592 298.224 142.393 298.191 142.222 297.218C141.997 295.918 141.029 295.791 140.565 297C140.314 297.654 139.617 297.783 137.717 297.521C135.19 297.175 130.897 298.573 130.897 299.743C130.897 300.031 129.302 300.266 127.354 300.266C125.405 300.266 123.812 300.49 123.812 300.764C123.812 301.037 122.616 301.278 121.155 301.3C119.693 301.323 118.497 301.099 118.497 300.803C118.497 300.508 117.886 300.266 117.14 300.266C116.391 300.266 115.429 299.934 114.999 299.529C114.372 298.938 114.162 298.938 113.946 299.529C113.553 300.601 112.711 300.433 112.481 299.234C112.371 298.667 111.758 298.202 111.117 298.202C110.478 298.2 109.864 297.736 109.754 297.169C109.645 296.602 108.842 295.398 107.973 294.494C105.075 291.478 103.733 289.393 104.049 288.399C104.229 287.832 103.975 287.268 103.449 287.066C102.098 286.547 101.245 283.896 101.984 282.514C102.442 281.66 102.404 281.371 101.838 281.373C100.736 281.374 101.168 272.556 102.332 271.26C102.807 270.733 103.125 270.067 103.041 269.783C102.625 268.38 104.326 265.428 105.549 265.428C106.589 265.428 106.7 265.27 106.138 264.592C105.582 263.923 105.701 263.675 106.735 263.347C107.742 263.028 107.846 262.825 107.208 262.426C105.364 261.271 111.761 256.998 115.84 256.661C117.14 256.554 118.295 256.213 118.406 255.904C118.535 255.553 118.875 255.559 119.312 255.922C119.699 256.244 120.365 256.286 120.799 256.017ZM153.63 260.115C153.831 260.438 153.449 260.704 152.779 260.704C152.111 260.704 151.564 260.438 151.564 260.115C151.564 259.79 151.946 259.524 152.415 259.524C152.882 259.524 153.429 259.79 153.63 260.115ZM145.806 268.207C145.076 268.347 144.479 268.674 144.479 268.931C144.479 269.188 145.142 269.271 145.954 269.115C146.766 268.961 147.431 268.6 147.431 268.312C147.431 268.025 147.364 267.827 147.283 267.871C147.201 267.915 146.538 268.066 145.806 268.207ZM163.254 268.498C163.806 269.05 164.121 269.05 164.672 268.498C165.223 267.948 165.065 267.791 163.963 267.791C162.861 267.791 162.704 267.948 163.254 268.498ZM153.946 284.101C152.933 284.954 152.236 285.784 152.397 285.944C152.557 286.104 153.119 285.805 153.644 285.28C154.17 284.754 154.98 284.323 155.444 284.323C155.908 284.323 156.287 283.924 156.287 283.438C156.287 282.245 156.083 282.302 153.946 284.101ZM113.728 420.924C115.421 422.781 115.486 422.804 115.288 421.462C115.205 420.893 114.896 420.423 114.603 420.419C114.308 420.414 113.671 420.172 113.182 419.881C112.696 419.59 112.942 420.059 113.728 420.924Z" fill="#796738"/>
<path fill-rule="evenodd" clip-rule="evenodd" d="M229.507 44.0009C229.507 44.6494 229.772 45.1815 230.097 45.1815C230.422 45.1815 230.688 44.6494 230.688 44.0009C230.688 43.351 230.422 42.8204 230.097 42.8204C229.772 42.8204 229.507 43.351 229.507 44.0009ZM224.635 49.5471C223.556 50.3648 223.283 51.0859 224.05 51.0859C224.297 51.0859 224.83 50.5553 225.236 49.9053C226.096 48.5297 226.028 48.4889 224.635 49.5471ZM207.167 55.7371C206.537 56.1362 206.572 56.31 207.346 56.6063C207.876 56.8104 208.16 56.7333 207.976 56.4355C207.791 56.1377 208.243 55.7794 208.978 55.6374C210.122 55.4182 210.145 55.3698 209.135 55.3093C208.485 55.27 207.6 55.462 207.167 55.7371ZM332.996 89.8906C333.893 90.0266 335.222 90.0236 335.948 89.883C336.673 89.7424 335.94 89.6321 334.315 89.6366C332.692 89.6411 332.098 89.7545 332.996 89.8906ZM370.039 208.968C359.692 211.964 352.315 221.123 352.323 230.968C352.328 236.693 359.484 254.1 363.985 259.341C364.717 260.192 365.324 261.179 365.335 261.534C365.346 261.89 365.72 261.698 366.168 261.107C366.833 260.228 367.073 260.182 367.477 260.847C368.228 262.082 370.756 263.657 371.985 263.657C372.585 263.657 373.475 264.056 373.962 264.543C374.449 265.029 375.507 265.428 376.311 265.428C377.117 265.428 378.492 265.79 379.369 266.233C380.282 266.692 382.226 266.955 383.916 266.848C385.539 266.745 387.438 266.644 388.135 266.623C388.83 266.603 389.726 266.193 390.126 265.713C390.525 265.232 391.283 264.818 391.812 264.792C392.423 264.762 392.505 264.636 392.035 264.447C390.795 263.947 391.214 262.961 392.494 263.367C393.703 263.75 396.621 261.299 397.415 259.229C397.605 258.732 398.426 258.073 399.236 257.764C400.089 257.441 400.876 256.548 401.101 255.651C401.389 254.505 401.623 254.306 401.995 254.891C402.373 255.488 402.512 255.391 402.553 254.505C402.813 248.987 403.142 246.315 403.638 245.718C404.409 244.79 403.466 243.289 402.491 243.892C401.989 244.202 401.889 244.116 402.188 243.632C402.435 243.235 403.007 243.052 403.461 243.227C403.916 243.401 404.288 243.409 404.288 243.242C404.288 242.806 401.924 235.228 401.354 233.839C401.088 233.189 400.442 231.453 399.922 229.984C394.553 214.824 381.505 205.649 370.039 208.968ZM89.1101 213.581C57.6141 265.573 58.2429 335.959 90.6837 390.019C96.1557 399.135 105.661 411.839 112.201 418.774C113.793 420.461 115.477 422.388 115.944 423.055C116.411 423.722 117.093 424.266 117.46 424.266C117.828 424.266 117.435 423.536 116.587 422.642C114.812 420.772 112.832 418.008 105.904 407.733C71.6978 357.002 66.8122 284.129 93.79 227.08L97.2652 219.732L94.6819 217.043C93.261 215.563 91.6919 213.74 91.1961 212.99L90.2922 211.628L89.1101 213.581ZM118.407 255.904C118.295 256.214 117.14 256.554 115.84 256.661C111.762 256.998 105.364 261.271 107.209 262.426C107.847 262.825 107.742 263.028 106.736 263.347C105.702 263.675 105.582 263.923 106.138 264.592C106.701 265.27 106.589 265.428 105.549 265.428C104.326 265.428 102.625 268.381 103.041 269.783C103.126 270.067 102.807 270.733 102.332 271.26C101.168 272.556 100.736 281.374 101.838 281.373C102.405 281.371 102.443 281.66 101.984 282.514C101.245 283.896 102.098 286.547 103.449 287.066C103.975 287.268 104.229 287.832 104.049 288.399C103.733 289.393 105.076 291.478 107.974 294.494C108.843 295.398 109.645 296.602 109.754 297.169C109.865 297.736 110.478 298.2 111.118 298.202C111.759 298.202 112.371 298.667 112.481 299.234C112.711 300.433 113.553 300.601 113.946 299.529C114.162 298.938 114.372 298.938 114.999 299.529C115.429 299.934 116.392 300.267 117.14 300.267C117.887 300.267 118.497 300.508 118.497 300.803C118.497 301.099 119.693 301.323 121.155 301.3C122.617 301.278 123.812 301.037 123.812 300.764C123.812 300.49 125.405 300.267 127.354 300.267C129.302 300.267 130.897 300.031 130.897 299.744C130.897 298.574 135.19 297.175 137.718 297.521C139.618 297.783 140.315 297.654 140.565 297C141.03 295.791 141.997 295.918 142.222 297.218C142.393 298.191 142.593 298.224 144.183 297.54L145.954 296.776L144.394 296.751C141.03 296.693 142.042 295.077 145.709 294.651C148.284 294.353 149.384 293.943 149.824 293.121C150.551 291.764 151.564 291.649 151.564 292.926C151.564 293.7 151.845 293.652 153.274 292.634C154.746 291.585 155.032 291.543 155.331 292.325C155.618 293.073 155.911 293.108 157.004 292.523C158.097 291.938 158.165 291.753 157.396 291.464C156.572 291.155 156.592 290.982 157.558 289.977C158.52 288.975 158.65 288.958 158.65 289.83C158.65 291.115 160.801 291.127 163.349 289.858C164.408 289.328 165.447 289.13 165.654 289.416C166.215 290.19 169.279 290.414 169.279 289.681C169.279 289.331 169.013 289.047 168.688 289.047C168.363 289.047 168.098 288.781 168.098 288.458C168.098 288.133 168.629 287.867 169.279 287.867C170.503 287.867 170.775 286.769 170.524 282.848C170.443 281.56 170.565 281.303 170.972 281.909C171.883 283.265 173.653 281.051 173.585 278.641C173.553 277.545 173.726 276.648 173.966 276.648C174.206 276.648 174.702 275.992 175.068 275.189C175.714 273.771 173.179 271.614 171.28 271.966C169.003 272.388 166.682 271.841 167.645 271.109C168.798 270.234 168.438 269.563 166.818 269.563C166.069 269.563 165.735 269.126 165.735 268.149C165.735 267.372 165.336 266.583 164.85 266.396C164.363 266.208 163.964 265.688 163.964 265.238C163.964 264.786 162.706 264 161.16 263.484C158.942 262.745 158.664 262.523 159.831 262.423C160.643 262.354 159.181 262.116 156.583 261.896C153.986 261.673 151.771 261.714 151.662 261.985C151.286 262.925 148.021 262.534 148.021 261.548C148.021 260.948 147.552 260.658 146.692 260.727C144.459 260.909 143.888 260.739 143.888 259.894C143.888 259.338 143.005 259.043 141.082 258.956C136.715 258.759 135.966 258.661 135.243 258.197C134.874 257.958 133.013 257.86 131.11 257.979C127.748 258.188 127.7 258.17 129.422 257.356C131.141 256.545 131.095 256.528 127.865 256.791C125.783 256.962 123.986 256.776 123.062 256.297C122.213 255.857 121.253 255.737 120.8 256.017C120.366 256.286 119.699 256.244 119.312 255.922C118.875 255.559 118.535 255.553 118.407 255.904ZM151.564 260.115C151.564 260.439 152.111 260.705 152.779 260.705C153.449 260.705 153.831 260.439 153.63 260.115C153.429 259.79 152.882 259.524 152.415 259.524C151.946 259.524 151.564 259.79 151.564 260.115ZM147.431 268.312C147.431 268.6 146.766 268.961 145.954 269.115C145.143 269.271 144.479 269.188 144.479 268.931C144.479 268.674 145.076 268.347 145.806 268.207C146.538 268.066 147.201 267.915 147.283 267.871C147.365 267.827 147.431 268.025 147.431 268.312ZM164.673 268.498C164.121 269.05 163.807 269.05 163.255 268.498C162.705 267.948 162.862 267.791 163.964 267.791C165.066 267.791 165.223 267.948 164.673 268.498ZM156.288 283.438C156.288 283.924 155.908 284.324 155.444 284.324C154.98 284.324 154.17 284.754 153.644 285.28C153.119 285.805 152.557 286.104 152.397 285.944C152.126 285.673 155.478 282.552 156.038 282.552C156.176 282.552 156.288 282.951 156.288 283.438Z" fill="#956660"/>
</svg>
