<svg width="512" height="512" viewBox="0 0 512 512" fill="none" xmlns="http://www.w3.org/2000/svg">
<path fill-rule="evenodd" clip-rule="evenodd" d="M241.307 123.089C241.517 124.689 241.769 126.097 241.868 126.216C241.969 126.335 244.881 125.232 248.343 123.763L254.635 121.096L251.292 120.697C249.455 120.477 246.37 120.27 244.439 120.237L240.925 120.176L241.307 123.089ZM315.681 125.682C314.933 126.173 315.019 126.29 316.141 126.297C317.88 126.308 317.942 127.278 316.232 127.725C315.524 127.91 315.124 128.353 315.344 128.709C315.582 129.095 315.381 129.217 314.848 129.013C314.275 128.792 313.79 129.181 313.503 130.093C313.037 131.563 310.855 133.47 309.965 133.181C309.687 133.092 309.629 133.291 309.835 133.624C310.196 134.207 309.841 134.733 306.794 138.146C306.028 139.004 305.027 140.553 304.569 141.587C304.111 142.622 303.389 143.468 302.965 143.468C302.543 143.468 302.196 143.853 302.196 144.322C302.196 144.791 301.506 145.346 300.663 145.558C299.821 145.77 299.132 146.288 299.132 146.708C299.132 147.131 296.921 149.745 294.219 152.52C291.518 155.295 289.656 157.584 290.083 157.604C290.508 157.626 290.222 157.898 289.447 158.208C288.672 158.521 286.74 159.676 285.157 160.776C281.677 163.192 280.26 164.058 278.444 164.879C277.687 165.222 277.065 165.751 277.065 166.056C277.065 166.358 276.271 166.765 275.3 166.959C274.33 167.154 273.108 167.739 272.587 168.262C272.064 168.784 271.363 169.211 271.027 169.211C270.691 169.211 269.639 169.98 268.685 170.918C267.732 171.858 265.987 173.297 264.807 174.116C263.627 174.937 262.297 175.961 261.851 176.393C261.405 176.826 260.621 177.179 260.106 177.179C259.592 177.179 257.909 178.583 256.365 180.3C254.823 182.017 252.891 183.675 252.075 183.986C251.259 184.295 250.444 185.114 250.263 185.803C250.058 186.589 249.603 186.928 249.039 186.713C248.481 186.498 248.024 186.831 247.823 187.596C247.646 188.273 247.12 188.825 246.654 188.825C246.188 188.825 245.805 189.111 245.805 189.459C245.805 189.809 243.048 192.847 239.676 196.211C236.306 199.575 233.547 202.586 233.547 202.903C233.547 203.22 232.857 204.17 232.014 205.012C231.172 205.855 230.472 206.765 230.458 207.033C230.444 207.3 229.617 208.475 228.619 209.643C227.621 210.81 226.805 211.968 226.805 212.216C226.805 212.464 226.155 213.368 225.361 214.224C224.566 215.083 223.255 217.076 222.449 218.654C221.642 220.234 220.499 222.029 219.909 222.644C219.319 223.259 218.837 224.185 218.837 224.701C218.837 225.218 218.423 225.798 217.917 225.993C217.412 226.187 216.998 226.757 216.998 227.258C216.998 227.76 215.488 230.419 213.643 233.168C211.798 235.917 209.725 239.809 209.036 241.814C208.349 243.82 207.494 245.641 207.137 245.861C206.552 246.223 205.91 248.168 204.923 252.571C204.734 253.413 204.2 254.54 203.739 255.072C203.276 255.605 203.075 256.219 203.293 256.437C203.51 256.653 203.409 257.184 203.07 257.612C202.731 258.042 202.309 259.497 202.134 260.846C201.958 262.194 201.056 264.952 200.128 266.975C199.201 268.998 198.365 271.066 198.269 271.573C198.175 272.078 197.632 274.146 197.065 276.168C195.888 280.367 195.601 281.563 195.151 284.136C194.975 285.149 194.578 286.237 194.269 286.558C193.958 286.879 193.706 287.758 193.706 288.514C193.706 289.269 193.411 290.069 193.052 290.292C192.692 290.515 192.534 291.053 192.7 291.489C192.868 291.924 192.447 294.311 191.768 296.79C191.089 299.271 190.378 302.126 190.191 303.138C190.003 304.149 189.463 305.569 188.992 306.291C188.489 307.063 188.292 308.237 188.518 309.136C188.733 309.992 188.611 310.846 188.239 311.075C187.875 311.301 187.577 312.818 187.577 314.449C187.577 316.517 187.299 317.518 186.657 317.764C186.152 317.957 185.738 318.539 185.738 319.056C185.738 319.572 185.349 319.994 184.873 319.994C184.288 319.994 184.073 320.542 184.208 321.679C184.318 322.606 184.018 323.976 183.541 324.723C183.064 325.469 182.673 326.779 182.673 327.634C182.673 328.489 182.397 329.187 182.06 329.187C181.724 329.187 181.481 329.394 181.52 329.647C181.787 331.337 181.316 332.865 180.528 332.865C180.023 332.865 179.609 333.28 179.609 333.785C179.609 334.29 179.195 334.704 178.689 334.704C177.996 334.704 177.77 335.448 177.77 337.726C177.77 340.394 177.608 340.772 176.391 340.945C175.401 341.084 174.956 341.62 174.817 342.837C174.709 343.779 173.685 345.442 172.518 346.576C171.362 347.7 170.415 348.798 170.415 349.016C170.415 349.669 172.738 349.468 173.075 348.787C173.248 348.44 173.32 348.509 173.238 348.939C173.157 349.369 171.936 349.981 170.527 350.298C168.263 350.808 167.963 351.078 167.963 352.597C167.963 354.497 166.513 354.99 165.868 353.308C165.517 352.395 165.372 352.409 164.356 353.462C163.265 354.59 163.268 354.645 164.445 355.299C165.653 355.969 165.653 355.977 164.437 357.138C162.877 358.624 161.073 362.151 161.388 363.094C161.522 363.493 160.783 364.094 159.747 364.431C158.707 364.77 157.767 365.556 157.644 366.19C157.517 366.859 157.687 367.173 158.054 366.947C158.401 366.732 158.857 366.837 159.069 367.18C159.281 367.522 159.229 367.803 158.955 367.803C158.277 367.803 157.141 370.643 156.628 373.618C156.278 375.65 156.086 375.902 155.496 375.112C154.572 373.879 152.775 373.215 152.327 373.943C152.134 374.256 152.538 374.995 153.226 375.585C154.045 376.284 154.478 377.4 154.478 378.803C154.478 380.924 154.458 380.907 152.727 377.38C151.296 374.461 150.914 374.044 150.64 375.097C150.453 375.806 150.544 376.236 150.839 376.054C151.136 375.87 151.553 376.422 151.768 377.278C151.983 378.134 152.405 378.836 152.706 378.836C153.006 378.836 153.201 379.043 153.136 379.296C152.874 380.326 154.004 383.705 154.844 384.401C155.619 385.043 155.655 384.916 155.11 383.484C154.288 381.318 154.216 381.466 156.24 381.168C157.944 380.918 157.985 380.973 157.467 382.781C156.701 385.447 156.839 386.126 157.797 384.4L158.619 382.914L159.069 384.334C159.317 385.115 160.376 386.592 161.423 387.615C162.593 388.759 163.039 389.569 162.579 389.722C161.617 390.042 161.61 393.691 162.568 394.649C163.141 395.222 163.081 395.385 162.298 395.385C161.746 395.385 161.093 395.709 160.85 396.102C160.555 396.578 160.736 396.694 161.382 396.444C162.722 395.931 163.868 397.483 163.35 399.114C162.929 400.438 161.853 399.738 161.853 398.144C161.853 397.806 162.12 397.945 162.446 398.45C162.954 399.236 163.042 399.214 163.05 398.296C163.061 397.132 161.539 396.826 160.897 397.863C160.681 398.216 160.836 398.905 161.242 399.396C161.65 399.887 161.743 400.294 161.45 400.298C161.155 400.303 161.31 400.559 161.795 400.865C162.559 401.348 162.559 401.563 161.795 402.504C161.046 403.427 161.045 403.51 161.784 403.065C162.443 402.668 162.556 402.796 162.251 403.592C162.029 404.169 162.088 404.494 162.383 404.312C162.937 403.97 164.701 407.563 164.415 408.456C164.327 408.734 164.585 408.757 164.988 408.508C165.492 408.197 165.594 408.384 165.316 409.107C165.044 409.816 165.143 410.016 165.622 409.721C166.1 409.424 166.201 409.625 165.929 410.333C165.689 410.959 165.771 411.233 166.132 411.011C166.464 410.805 166.737 410.962 166.737 411.36C166.737 411.903 166.946 411.911 167.577 411.387C168.796 410.375 171.872 414.469 171.332 416.388C171.082 417.274 171.139 417.482 171.493 416.976C171.883 416.418 172.215 416.768 172.656 418.205C173.35 420.469 173.091 421.952 172.107 421.345C171.716 421.103 171.63 421.229 171.895 421.657C172.138 422.051 172.642 422.187 173.012 421.957C173.452 421.687 173.546 421.908 173.284 422.592C173.044 423.217 173.127 423.491 173.486 423.27C174.042 422.926 174.365 423.769 174.15 425.006C174.101 425.283 174.29 425.37 174.567 425.197C174.845 425.026 175.424 425.448 175.854 426.135C176.494 427.163 176.489 427.307 175.823 426.948C175.377 426.708 175.84 427.249 176.85 428.155C177.862 429.059 178.302 429.598 177.828 429.352C177.263 429.06 177.117 429.15 177.404 429.616C177.646 430.005 178.223 430.323 178.691 430.323C179.157 430.323 179.946 430.904 180.444 431.615C180.994 432.401 181.646 432.724 182.107 432.44C182.543 432.17 182.706 432.225 182.493 432.57C182.289 432.9 182.521 433.935 183.008 434.874C183.494 435.812 183.759 436.796 183.596 437.059C183.433 437.323 183.78 437.915 184.366 438.374C185.35 439.146 185.361 439.12 184.512 438.02C184.007 437.365 183.924 437.028 184.33 437.273C184.737 437.516 185.686 438.583 186.442 439.645C187.203 440.714 187.422 441.343 186.932 441.054C186.431 440.759 186.548 441.105 187.199 441.848C187.834 442.573 188.661 442.989 189.038 442.774C189.414 442.561 189.526 442.603 189.284 442.87C189.044 443.137 189.871 444.277 191.123 445.406C192.375 446.534 193.144 447.463 192.833 447.471C192.521 447.478 192.904 448.164 193.684 448.993C194.84 450.224 195.325 450.381 196.317 449.851C197.189 449.385 197.415 449.39 197.117 449.873C196.888 450.242 197.476 451.28 198.423 452.18C199.369 453.079 199.755 453.589 199.281 453.312C195.644 451.194 207.687 461.263 213.32 465.049C248.733 488.858 293.156 489.132 334.923 465.803C343.108 461.23 355.477 453.044 357.974 450.549C358.141 450.381 359.521 449.286 361.038 448.115C375.01 437.339 395.51 414.507 404.532 399.675C405.661 397.822 407.208 395.34 407.97 394.16C414.741 383.684 424.123 363.435 428.559 349.721C442.937 305.263 440.688 254.833 422.504 213.956C408.386 182.219 389.932 159.489 364.409 142.403C358.473 138.428 345.573 131.436 343.569 131.105C342.894 130.994 342.206 130.746 342.038 130.554C341.035 129.414 329.34 125.717 328.093 126.145C327.671 126.29 327.327 126.109 327.327 125.743C327.327 125.379 327.034 125.08 326.678 125.08C326.32 125.08 326.226 125.4 326.467 125.789C326.776 126.291 326.474 126.371 325.43 126.06C322.855 125.296 316.635 125.055 315.681 125.682ZM180.455 132.037C177.456 132.801 171.903 135.389 169.971 136.923C167.232 139.1 163.518 142.93 164.439 142.63C165.029 142.437 165.512 142.549 165.512 142.875C165.512 143.201 165.236 143.468 164.898 143.468C163.91 143.468 164.195 145.31 165.245 145.714C165.989 145.999 166.114 146.611 165.805 148.444C165.499 150.259 165.656 151.056 166.488 151.888C167.486 152.886 167.491 152.983 166.54 153.167C165.975 153.275 165.512 153.881 165.512 154.51C165.512 155.139 165.234 155.825 164.897 156.034C164.486 156.288 164.489 156.801 164.903 157.575C165.339 158.389 165.288 159.429 164.727 161.063C164.29 162.342 163.982 164.328 164.042 165.477C164.101 166.624 163.631 168.417 162.995 169.461C162.358 170.503 161.839 171.908 161.839 172.583C161.839 173.256 161.431 175.05 160.932 176.567C160.433 178.084 159.858 181.19 159.654 183.468C159.45 185.747 158.903 187.992 158.437 188.458C157.801 189.093 157.734 189.806 158.168 191.323C158.487 192.433 158.614 193.474 158.452 193.638C158.289 193.801 158.156 193.625 158.156 193.247C158.156 192.87 157.442 193.223 156.568 194.033C155.325 195.185 155.06 195.878 155.35 197.221C155.659 198.66 155.437 199.1 153.977 199.923C152.171 200.943 150.23 205.795 151.079 207.17C151.307 207.535 151.045 208.006 150.497 208.216C149.951 208.427 149.65 208.976 149.827 209.439C150.004 209.9 149.882 210.278 149.556 210.278C149.229 210.278 148.962 210.545 148.962 210.871C148.962 211.199 149.341 211.32 149.802 211.143C150.99 210.688 151.52 212.491 150.458 213.374C149.909 213.829 149.574 213.865 149.574 213.47C149.574 213.118 149.92 212.699 150.342 212.538C150.762 212.374 150.48 212.272 149.713 212.312C148.876 212.352 148.435 212.684 148.609 213.137C148.796 213.625 148.548 213.758 147.905 213.512C147.152 213.223 147.009 213.387 147.316 214.19C147.775 215.381 146.275 219.473 145.382 219.473C144.68 219.473 144.035 220.994 143.715 223.41C143.584 224.397 143.171 225.393 142.797 225.624C142.356 225.896 142.495 226.189 143.191 226.457C143.805 226.693 144.511 226.531 144.834 226.082C145.247 225.508 145.311 225.574 145.073 226.322C144.891 226.89 145.209 227.714 145.78 228.161C146.672 228.86 146.722 228.844 146.136 228.053C145.248 226.856 146.719 223.15 148.081 223.15C148.605 223.15 148.864 222.873 148.655 222.538C148.448 222.2 148.561 221.924 148.906 221.924C149.253 221.924 149.386 221.532 149.201 221.052C149.017 220.573 149.418 219.63 150.089 218.958C150.762 218.285 151.15 217.574 150.954 217.378C150.758 217.182 150.889 217.021 151.246 217.021C151.603 217.021 152.06 216.592 152.261 216.07C152.469 215.524 152.367 215.277 152.019 215.492C151.686 215.698 151.413 215.299 151.413 214.606C151.413 213.911 151.69 213.343 152.027 213.343C152.364 213.343 152.57 212.999 152.487 212.577C152.402 212.155 152.794 211.846 153.358 211.888C153.954 211.932 154.257 211.639 154.081 211.183C153.916 210.754 154.119 210.193 154.531 209.939C155.041 209.624 155.139 209.751 154.834 210.336C154.588 210.81 154.792 210.702 155.288 210.096C155.782 209.49 156.06 208.507 155.903 207.909C155.746 207.305 156.114 206.445 156.734 205.974C157.688 205.249 157.739 205.251 157.083 205.987C156.662 206.459 156.318 207.135 156.322 207.49C156.323 207.843 156.86 207.323 157.513 206.332C158.165 205.342 158.561 204.308 158.391 204.035C158.222 203.76 158.445 203.532 158.886 203.526C159.469 203.52 159.436 203.355 158.769 202.924C158.263 202.596 158.164 202.324 158.55 202.32C158.934 202.315 159.419 201.631 159.628 200.799C159.907 199.688 160.288 199.392 161.073 199.676C161.941 199.989 161.906 199.843 160.885 198.888C160.196 198.241 159.932 197.907 160.301 198.144C160.695 198.398 161.443 197.7 162.112 196.459C163.149 194.534 163.5 194.248 164.658 194.388C165.055 194.435 168.088 190.184 167.853 189.908C167.775 189.818 168.473 188.984 169.403 188.055C170.332 187.124 170.921 186.084 170.709 185.74C170.497 185.398 170.688 185.193 171.136 185.285C171.581 185.379 171.878 185.109 171.793 184.689C171.71 184.267 171.875 183.922 172.162 183.922C172.794 183.922 178.076 177.391 178.076 176.61C178.076 176.305 178.327 175.827 178.634 175.546C178.967 175.241 178.983 175.406 178.677 175.954C178.393 176.459 180.199 174.667 182.692 171.97C193.568 160.201 206.631 148.469 215.772 142.258C216.952 141.457 218.013 140.73 218.132 140.644C218.857 140.11 216.722 136.07 215.572 135.801C199.923 132.155 185.892 130.65 180.455 132.037ZM140.067 228.031C140.318 228.823 140.029 229.592 139.22 230.284C138.545 230.863 138.129 231.56 138.299 231.833C138.468 232.106 138.233 232.186 137.776 232.012C136.894 231.673 133.638 236.079 133.638 237.609C133.638 238.084 133.389 238.474 133.086 238.474C132.782 238.474 132.25 239.231 131.905 240.159C129.284 247.185 128.638 248.539 127.533 249.313C126.846 249.795 126.284 250.545 126.284 250.978C126.284 251.413 125.732 252.268 125.057 252.878C124.384 253.487 123.831 254.496 123.831 255.117C123.831 255.74 123.607 256.249 123.333 256.249C123.059 256.249 122.438 257.283 121.953 258.547C121.47 259.812 120.474 261.993 119.741 263.396C119.008 264.797 118.566 266.101 118.755 266.292C118.947 266.484 118.65 266.813 118.096 267.027C117.542 267.239 117.089 267.915 117.089 268.528C117.089 269.144 116.722 270.013 116.273 270.462C115.824 270.91 115.272 272.013 115.046 272.914C114.82 273.815 114.222 274.965 113.717 275.469C113.212 275.974 112.799 276.631 112.799 276.929C112.799 277.228 112.247 278.613 111.574 280.008C110.899 281.403 110.346 282.956 110.346 283.459C110.346 283.961 110.07 284.541 109.735 284.75C109.397 284.959 109.121 285.803 109.121 286.625C109.121 287.447 108.569 288.673 107.896 289.347C107.221 290.021 106.67 291.229 106.67 292.031C106.67 292.832 106.259 293.829 105.757 294.245C105.255 294.662 104.983 295.229 105.154 295.503C105.324 295.779 105.183 296.178 104.84 296.39C104.498 296.602 104.218 297.22 104.218 297.763C104.218 298.307 103.85 299.186 103.402 299.719C102.953 300.251 102.121 301.951 101.552 303.495C100.984 305.039 99.9715 306.889 99.303 307.606C98.6346 308.323 98.0885 309.305 98.0885 309.79C98.0885 310.273 97.679 310.826 97.1785 311.017C96.6795 311.21 96.4206 311.759 96.6057 312.241C96.8207 312.801 96.2668 313.413 95.0554 313.948C94.0183 314.408 93.014 315.276 92.8226 315.88C92.6312 316.482 91.3916 317.659 90.0657 318.495C88.7413 319.332 86.8725 320.838 85.9106 321.844C84.9503 322.85 84.0057 323.672 83.8112 323.672C82.3566 323.672 80.1473 325.029 80.8722 325.476C81.856 326.085 81.2299 327.35 79.9464 327.35C78.4793 327.35 74.1093 329.796 74.4859 330.407C74.6758 330.714 74.2474 331.277 73.5334 331.659C72.5637 332.178 72.3299 332.723 72.6061 333.821C72.9073 335.024 72.6955 335.36 71.434 335.677C69.8994 336.062 69.0332 339.608 70.4737 339.608C71.2347 339.608 69.9323 343.449 68.9767 344.025C67.7889 344.74 67.8297 360.934 69.0238 362.756C69.5447 363.549 69.8366 364.529 69.6734 364.929C69.4553 365.467 69.3643 365.458 69.3282 364.891C69.2592 363.783 68.0541 363.946 68.0541 365.064C68.0541 365.58 68.4354 366.149 68.9014 366.328C69.8491 366.691 69.9888 373.331 69.063 374.008C68.7759 374.218 68.8449 374.958 69.2168 375.654C69.5887 376.347 69.8931 377.607 69.8931 378.453C69.8931 379.299 70.1849 380.17 70.5427 380.391C70.8989 380.61 71.1358 381.386 71.0668 382.112C70.9977 382.839 71.3806 384.423 71.9172 385.635C72.4539 386.846 72.7379 388.433 72.548 389.159C72.3582 389.887 72.4413 390.487 72.7332 390.491C74.2411 390.518 75.0241 391.615 74.2223 392.58C73.7814 393.112 73.6982 393.546 74.0371 393.546C74.966 393.546 75.5372 395.861 75.6847 400.231C75.793 403.446 76.0628 404.356 77.1722 405.253C78.6221 406.427 78.7099 409.947 77.2805 409.62C76.8757 409.528 76.7219 409.74 76.9384 410.091C77.1549 410.441 77.5708 410.582 77.8611 410.402C78.1513 410.223 78.5515 410.337 78.7476 410.656C78.9453 410.976 78.8229 411.412 78.4746 411.627C78.1262 411.844 78.0023 412.28 78.2 412.6C78.3977 412.919 78.8198 413.019 79.1399 412.821C79.4584 412.624 79.562 412.206 79.3674 411.892C79.1728 411.579 79.278 411.321 79.5981 411.321C80.5066 411.321 80.9459 413.044 80.1253 413.386C79.7236 413.553 80.3591 413.524 81.5391 413.322C83.3231 413.016 83.5742 413.101 83.0329 413.822C81.9439 415.28 82.3707 417.253 84.1328 418.884C86.43 421.014 86.9054 419.805 84.6695 417.518C83.1427 415.956 83.0031 415.564 83.75 414.944C84.4749 414.343 84.5565 414.409 84.2066 415.319C83.9147 416.08 84.0057 416.288 84.5 415.983C84.9142 415.727 85.2171 415.895 85.2171 416.38C85.2171 416.843 86.044 418.014 87.0561 418.983C88.0666 419.951 88.8763 421.175 88.8559 421.703C88.8308 422.3 88.6079 422.143 88.2627 421.282C87.9568 420.523 87.5692 419.903 87.4013 419.903C87.2318 419.903 87.2695 420.361 87.4844 420.923C87.7716 421.668 87.6429 421.822 87.0059 421.491C86.5273 421.241 86.645 421.453 87.2679 421.96C87.8909 422.468 88.7994 422.73 89.2858 422.544C89.9574 422.285 90.1017 422.591 89.8805 423.811C89.7189 424.695 89.8617 425.42 90.1975 425.42C90.5317 425.42 90.607 425.763 90.3638 426.185C90.1221 426.606 90.1519 426.744 90.4312 426.49C91.0307 425.947 93.1851 427.737 93.1851 428.778C93.1851 429.173 93.9429 430.165 94.8703 430.982L96.5555 432.468L95.33 430.905C94.2819 429.57 94.3462 429.592 95.7804 431.059C96.703 432.002 97.7041 432.774 98.0038 432.774C98.3051 432.774 98.9296 433.257 99.3925 433.847C100.172 434.842 100.144 434.853 99.0081 434C97.8704 433.148 97.8422 433.159 98.6236 434.153C99.0849 434.743 99.9479 435.227 100.54 435.227C101.131 435.227 101.994 435.708 102.457 436.298C103.237 437.293 103.209 437.304 102.073 436.452C100.935 435.599 100.907 435.61 101.688 436.604C102.151 437.194 102.896 437.678 103.345 437.678C104.911 437.678 107.183 439.063 106.885 439.837C106.72 440.267 106.923 440.827 107.335 441.081C107.845 441.397 107.941 441.269 107.637 440.684C107.39 440.21 107.737 440.444 108.407 441.202C109.076 441.96 110.062 442.581 110.599 442.581C111.134 442.581 111.504 442.788 111.42 443.041C111.335 443.294 111.492 443.501 111.77 443.501C112.046 443.501 112.545 443.989 112.879 444.587C113.213 445.183 113.745 445.512 114.062 445.316C114.379 445.12 114.638 445.269 114.638 445.646C114.638 446.022 114.897 446.171 115.212 445.975C115.529 445.781 116.072 446.109 116.421 446.706C116.767 447.303 117.061 447.532 117.07 447.216C117.081 446.899 117.657 447.251 118.352 447.996C119.046 448.742 119.917 449.164 120.285 448.936C120.689 448.687 120.781 448.804 120.519 449.23C120.128 449.86 120.861 450.212 122.146 450.009C122.399 449.969 122.606 450.259 122.606 450.651C122.606 451.045 122.766 451.205 122.964 451.009C123.16 450.813 123.842 451.174 124.481 451.812C125.12 452.451 126.041 452.82 126.529 452.633C127.048 452.434 127.706 452.835 128.117 453.604C128.503 454.324 129.145 454.805 129.543 454.67C129.942 454.536 130.543 454.78 130.88 455.209C131.217 455.641 134.114 457.15 137.316 458.566C157.75 467.588 174.822 471.826 198.94 473.866C210.668 474.858 210.75 474.811 204.654 470.645C191.642 461.754 175.645 445.155 166.681 431.241C158.051 417.847 148.349 400.331 148.349 398.144C148.349 397.968 147.77 396.517 147.062 394.919C142.487 384.593 136.929 366.953 134.848 356.157C128.526 323.364 128.307 294.063 134.177 266.453C134.811 263.468 135.201 260.433 135.044 259.71C134.806 258.616 134.877 258.549 135.462 259.313C136.014 260.036 136.077 259.792 135.755 258.164C135.504 256.893 135.573 256.236 135.936 256.46C136.281 256.672 136.416 256.131 136.26 255.158C136.044 253.807 136.127 253.664 136.695 254.41C137.268 255.16 137.324 255.075 137.009 253.95C136.522 252.221 137.193 249.97 138.038 250.493C138.443 250.744 138.523 250.413 138.26 249.583C138.005 248.781 138.112 248.281 138.537 248.281C138.917 248.281 139.038 247.973 138.806 247.6C138.575 247.225 138.689 246.729 139.061 246.5C139.433 246.269 139.813 245.404 139.906 244.576C139.998 243.747 140.315 242.895 140.61 242.68C140.905 242.465 141.147 241.574 141.147 240.7C141.147 239.749 141.406 239.268 141.787 239.504C142.182 239.749 142.278 239.511 142.036 238.88C141.821 238.32 141.851 237.86 142.102 237.86C142.355 237.86 142.498 236.722 142.419 235.332C142.302 233.233 142.404 232.974 143.016 233.807C143.621 234.632 143.762 234.166 143.808 231.182C143.852 228.381 143.678 227.625 143.042 227.869C142.59 228.042 142.22 227.879 142.22 227.505C142.22 227.134 141.649 226.828 140.952 226.828C139.973 226.828 139.772 227.101 140.067 228.031ZM144.34 229.321C144.021 229.834 144.12 229.927 144.643 229.603C145.217 229.249 145.313 229.5 145.015 230.581C144.658 231.871 144.694 231.908 145.319 230.906C145.785 230.159 145.818 229.567 145.416 229.167C145.016 228.765 144.651 228.817 144.34 229.321ZM166.89 349.145C166.002 350.108 165.881 351.254 166.665 351.254C167.138 351.254 168.131 348.748 167.786 348.431C167.715 348.365 167.312 348.687 166.89 349.145ZM164.285 361.367C164.285 361.872 164.009 362.286 163.673 362.286C163.336 362.286 163.059 361.872 163.059 361.367C163.059 360.862 163.336 360.447 163.673 360.447C164.009 360.447 164.285 360.862 164.285 361.367ZM158.147 378.99C158.139 380.104 158.024 380.192 157.542 379.449C156.775 378.26 156.775 377.61 157.542 377.61C157.88 377.61 158.151 378.23 158.147 378.99ZM195.804 448.247C196.034 448.017 196.041 448.302 195.818 448.883C195.314 450.198 195.36 450.204 193.954 448.621C192.797 447.318 192.799 447.312 194.086 447.987C194.8 448.362 195.573 448.478 195.804 448.247Z" fill="#EB8A78"/>
<path fill-rule="evenodd" clip-rule="evenodd" d="M331.311 19.4122C293.578 23.7257 262.232 41.8411 238.962 72.7779L234.274 79.012L232.632 73.6974C228.859 61.4881 222.915 48.6543 220.105 46.6536C207.307 37.5418 182.838 45.3921 179.646 59.6365C178.787 63.4699 179.623 65.8094 183.651 70.8353C194.884 84.8522 199.428 91.6669 205.154 103.085C208.997 110.749 208.969 110.59 206.441 110.219C186.695 107.32 143.477 117.672 118.813 131.206C-10.8381 202.354 -6.6564 395.155 126.042 464.472C150.911 477.464 176.753 483.551 209.949 484.24C228.899 484.632 228.961 484.638 232.83 486.311C299.089 514.957 393.244 460.406 431.559 371.174C469.18 283.561 442.041 181.209 368.367 132.853C352.218 122.252 327.89 112.891 316.345 112.833C313.205 112.815 314.151 112.407 321.849 110.457C355.32 101.971 385.962 78.9602 411.159 43.3836C422.174 27.8305 422.036 25.5867 409.927 23.3617C386.357 19.0325 350.424 17.2264 331.311 19.4122ZM382.491 28.5115C392.544 29.5911 407.661 31.7502 408.077 32.166C408.979 33.0682 392.196 54.074 383.128 63.3914C346.646 100.871 305.88 112.776 257.759 100.007C250.023 97.9544 240.29 94.5321 240.29 93.8652C240.29 93.2313 263.91 81.8144 274.614 77.2734C296.263 68.0909 333.908 55.651 352.613 51.5006C359.094 50.0633 355.76 50.2124 346.106 51.7909C312.879 57.2295 278.951 68.0234 249.375 82.5692C243.671 85.3747 239.198 87.3299 239.435 86.914C253.224 62.7481 282.824 39.8295 309.985 32.2899C328.822 27.0616 355.865 25.651 382.491 28.5115ZM213.004 53.076C218.986 56.0385 228.986 90.2625 232.341 119.257C233.816 131.993 233.828 131.038 232.168 131.562C231.41 131.8 229.828 132.646 228.655 133.442C226.13 135.152 225.579 135.23 225.579 133.882C225.579 122.965 208.669 87.6468 195.391 70.8353L192.971 67.7708L197.635 67.3393C202.821 66.8592 208.539 64.5149 211.94 61.474C214.555 59.1375 214.459 58.637 211.634 59.8672C201.76 64.1697 188.802 64.6655 188.802 60.7427C188.802 54.1901 204.936 49.0779 213.004 53.076ZM262.115 110.03C266.124 110.904 272.3 111.985 275.84 112.434C281.542 113.158 282.011 113.303 279.951 113.722C278.476 114.021 275.678 113.839 272.289 113.222C263.579 111.637 252.036 110.369 246.32 110.369C240.365 110.369 240.378 110.379 239.875 106.139L239.516 103.106L247.17 105.773C251.38 107.24 258.105 109.156 262.115 110.03ZM211.296 119.925C213.337 120.333 215.229 125.152 217.393 135.453L218.477 140.617L216.722 141.89C171.002 175.004 140.238 224.744 132.433 278.167C121.591 352.388 151.901 433.135 204.564 470.317L210.425 474.455L205.59 474.448C141.525 474.37 77.635 431.935 50.5379 371.464C0.789066 260.447 67.0105 135.293 182.979 121.157C194.501 119.753 207.586 119.183 211.296 119.925ZM254.241 120.686C254.741 121.003 252.905 122.097 249.03 123.787C240.241 127.622 240.902 127.634 240.902 123.619V120.176L247.184 120.186C250.64 120.192 253.816 120.416 254.241 120.686ZM321.84 123.784C395.899 139.861 448.694 227.171 436.778 313.865C421.929 421.902 321.65 505.459 239.615 478.15C163.963 452.967 119.284 340.909 148.463 249.534C174.17 169.034 256.202 109.536 321.84 123.784ZM447.272 275.097C447.117 275.687 446.991 275.203 446.991 274.023C446.991 272.843 447.117 272.362 447.272 272.952C447.426 273.542 447.426 274.507 447.272 275.097ZM447.272 305.13C447.117 305.72 446.991 305.238 446.991 304.058C446.991 302.878 447.117 302.395 447.272 302.985C447.426 303.575 447.426 304.54 447.272 305.13Z" fill="#090706"/>
<path fill-rule="evenodd" clip-rule="evenodd" d="M352.61 18.2558C353.538 18.3954 355.053 18.3954 355.981 18.2558C356.908 18.1145 356.15 18 354.295 18C352.441 18 351.683 18.1145 352.61 18.2558ZM332.842 28.3185C306.492 31.9165 289.544 38.5162 271.856 52.0624C264.988 57.3221 256.312 65.3026 256.863 65.8549C257.035 66.026 258.443 64.9511 259.993 63.4667C261.542 61.9824 263.028 60.964 263.293 61.2041C263.56 61.4441 263.578 61.2967 263.337 60.8746C263.067 60.407 263.252 60.1088 263.809 60.1088C264.313 60.1088 264.886 59.602 265.082 58.9838C265.509 57.6375 271.488 52.6445 272.169 53.0651C272.431 53.2267 272.805 52.9474 272.998 52.4437C273.191 51.94 273.702 51.532 274.136 51.5367C274.691 51.543 274.652 51.7345 274.001 52.1895C272.526 53.2236 275.88 52.1377 277.562 51.0378C278.499 50.4258 278.741 49.9661 278.276 49.6805C277.798 49.3839 277.894 49.125 278.578 48.8614C279.165 48.637 279.425 48.7296 279.207 49.0826C279 49.4169 278.997 49.6883 279.199 49.6883C279.929 49.6883 284.347 47.2389 284.729 46.6223C284.942 46.2755 285.403 46.1672 285.75 46.3822C286.149 46.6285 286.133 46.3069 285.706 45.5098C285.261 44.6766 285.24 44.118 285.645 43.8669C286.227 43.5076 286.492 43.9202 286.332 44.9386C286.226 45.6165 287.352 45.4972 287.792 44.7848C288 44.449 287.823 44.1729 287.399 44.1729C286.814 44.1729 286.8 44.0003 287.336 43.4636C287.875 42.9254 288.312 42.9631 289.146 43.6158C290.134 44.3926 290.164 44.3769 289.447 43.4605C288.912 42.7764 288.862 42.3135 289.295 42.0452C289.648 41.827 289.941 41.871 289.946 42.144C289.952 42.417 290.158 42.3637 290.406 42.0279C291.641 40.3474 293.605 39.8468 295.107 40.8322C296.638 41.8349 308.096 39.1595 307.362 37.9702C307.206 37.7207 307.36 37.3409 307.702 37.1307C308.044 36.9188 308.325 37.0365 308.325 37.3943C308.325 37.7505 308.755 38.0439 309.281 38.0439C309.806 38.0439 310.084 37.796 309.897 37.4963C309.712 37.195 310.316 36.7494 311.24 36.5062C313.448 35.9256 311.314 34.901 309.003 35.4313C307.561 35.7624 307.556 35.7483 308.697 34.5997C309.529 33.7618 310.467 33.5013 312.003 33.6786C313.825 33.8904 313.963 34.0081 312.923 34.4522C312.081 34.8115 312.347 34.8586 313.765 34.6044C315.341 34.322 315.72 34.4192 315.355 35.0092C314.983 35.6118 315.527 35.6949 317.815 35.3811C319.433 35.1599 321.338 34.9418 322.049 34.8978C322.808 34.8507 322.455 34.6311 321.196 34.3659C319.062 33.9156 319.061 33.914 320.891 33.8245C322.353 33.7524 322.541 33.6033 321.81 33.1012C321.116 32.6226 321.493 32.4955 323.341 32.5834C327.89 32.7968 330.247 32.5112 328.858 31.9134C328.05 31.5666 327.945 31.3752 328.553 31.3532C331.085 31.2606 331.036 32.4186 328.468 33.3758C326.998 33.9234 326.621 34.1745 327.633 33.9328C328.644 33.6912 330.487 33.4966 331.728 33.4982C332.971 33.5013 333.869 33.3114 333.724 33.0792C333.58 32.8454 333.897 32.4877 334.429 32.2837C335.902 31.7188 336.32 31.8584 335.295 32.5755C334.456 33.1608 337.285 33.0886 349.392 32.2162C350.235 32.155 354.787 32.0075 359.505 31.8867L368.086 31.6686L361.038 31.3014C357.161 31.0974 355.162 30.8777 356.594 30.8103C358.027 30.7428 359.199 30.4117 359.199 30.0744C359.199 29.5707 354.481 29.2208 348.016 29.2474C347.427 29.2506 347.106 29.0921 347.3 28.8975C347.887 28.3107 359.72 28.4958 359.357 29.0874C359.168 29.3949 359.994 29.4498 361.256 29.2129C362.729 28.9367 363.489 29.023 363.489 29.4702C363.489 29.8468 363.822 29.9426 364.236 29.6852C365.328 29.0105 383.875 29.3745 384.584 30.0853C384.917 30.4164 385.753 30.7318 386.444 30.7836C387.136 30.8369 386.321 31.077 384.636 31.3171C382.51 31.6184 384.164 31.758 390.037 31.769C394.692 31.7768 398.669 31.951 398.873 32.155C399.425 32.7073 403.944 32.6053 403.944 32.0405C403.944 31.4787 391.443 29.8359 377.28 28.5366C366.539 27.5528 339.431 27.4194 332.842 28.3185ZM334.681 30.0744C334.681 30.4117 334.267 30.6879 333.762 30.6879C333.257 30.6879 332.838 31.1712 332.833 31.7612C332.825 32.6775 332.737 32.6995 332.231 31.9134C331.342 30.542 331.477 30.1873 332.996 29.8939C333.754 29.748 334.445 29.5911 334.528 29.5456C334.612 29.5001 334.681 29.7386 334.681 30.0744ZM325.998 31.3202C327.247 31.3344 327.413 31.4677 326.701 31.8836C326.189 32.1833 324.81 32.2303 323.636 31.9887C321.672 31.5807 321.6 31.4913 322.73 30.8495C323.445 30.4415 324.04 30.3897 324.159 30.7255C324.272 31.0425 325.099 31.3093 325.998 31.3202ZM291.901 42.563C292.334 43.0274 293.084 43.2549 293.567 43.0698C294.245 42.8093 294.176 42.6273 293.263 42.2695C291.441 41.5556 291.041 41.6419 291.901 42.563ZM250.986 58.4236L248.564 61.0283L251.168 58.6056C252.601 57.2734 253.775 56.0997 253.775 56.0009C253.775 55.5364 253.24 56.0009 250.986 58.4236ZM384.608 74.3596L382.183 76.9643L384.79 74.5416C387.212 72.2883 387.675 71.7548 387.212 71.7548C387.112 71.7548 385.94 72.927 384.608 74.3596ZM206.577 109.757L205.046 110.247L206.731 110.308C207.658 110.343 208.416 110.093 208.416 109.757C208.416 109.42 208.347 109.172 208.264 109.205C208.179 109.238 207.42 109.487 206.577 109.757ZM197.241 110.201C198.342 110.338 199.998 110.335 200.919 110.195C201.84 110.055 200.939 109.942 198.917 109.947C196.894 109.95 196.139 110.065 197.241 110.201ZM242.29 110.197C243.221 110.338 244.6 110.333 245.355 110.189C246.108 110.043 245.345 109.927 243.66 109.931C241.975 109.936 241.358 110.055 242.29 110.197ZM190.335 120.603C66.6229 131.706 -3.67671 265.804 54.798 379.142C61.8245 392.76 78.0366 415.721 79.838 414.607C80.2381 414.361 80.326 414.483 80.0577 414.915C79.5869 415.677 92.5369 429.335 93.1504 428.723C93.3371 428.536 92.6389 427.621 91.5985 426.692C90.3071 425.539 89.7752 424.561 89.9211 423.611C90.0734 422.613 89.8882 422.313 89.2668 422.55C88.7898 422.733 87.8907 422.468 87.2678 421.96C86.6448 421.453 86.5271 421.241 87.0057 421.491C87.6428 421.822 87.7715 421.668 87.4843 420.923C87.2693 420.361 87.2317 419.903 87.4011 419.903C87.569 419.903 87.9566 420.523 88.2626 421.282C88.6078 422.143 88.8306 422.3 88.8557 421.703C88.8761 421.175 88.0665 419.951 87.0559 418.983C86.0439 418.014 85.2169 416.843 85.2169 416.38C85.2169 415.895 84.9141 415.727 84.4998 415.983C84.0056 416.288 83.9146 416.08 84.2064 415.319C84.5563 414.409 84.4747 414.343 83.7498 414.944C83.0029 415.564 83.1426 415.956 84.6693 417.518C86.9053 419.805 86.4299 421.014 84.1327 418.884C82.3705 417.253 81.9438 415.28 83.0327 413.822C83.5741 413.101 83.323 413.016 81.5389 413.322C80.3589 413.524 79.7235 413.553 80.1251 413.386C80.9458 413.044 80.5064 411.321 79.5979 411.321C79.2778 411.321 79.1727 411.579 79.3673 411.892C79.5618 412.206 79.4583 412.624 79.1397 412.821C78.8196 413.019 78.3975 412.919 78.1998 412.6C78.0021 412.28 78.1261 411.844 78.4744 411.627C78.8228 411.412 78.9452 410.976 78.7475 410.656C78.5513 410.337 78.1512 410.223 77.8609 410.402C77.5706 410.582 77.1548 410.441 76.9383 410.091C76.7217 409.74 76.8755 409.528 77.2803 409.62C78.7098 409.947 78.6219 406.427 77.1721 405.253C76.0627 404.356 75.7928 403.446 75.6845 400.231C75.537 395.861 74.9659 393.546 74.037 393.546C73.698 393.546 73.7812 393.112 74.2221 392.58C75.0239 391.615 74.2409 390.518 72.733 390.491C72.4412 390.487 72.358 389.887 72.5479 389.159C72.7377 388.433 72.4537 386.846 71.9171 385.635C71.3805 384.423 70.9976 382.839 71.0666 382.112C71.1357 381.386 70.8987 380.61 70.5425 380.391C70.1848 380.17 69.8929 379.299 69.8929 378.453C69.8929 377.607 69.5885 376.347 69.2166 375.654C68.8448 374.958 68.7757 374.218 69.0629 374.008C69.9886 373.331 69.849 366.691 68.9012 366.328C67.9645 365.967 67.7244 364.125 68.6157 364.125C68.9248 364.125 69.3171 364.471 69.4865 364.891C69.7282 365.49 69.8066 365.486 69.8443 364.871C69.871 364.436 69.485 363.458 68.9844 362.696C67.8264 360.927 67.8201 344.722 68.9766 344.025C69.9322 343.449 71.2345 339.608 70.4735 339.608C69.0331 339.608 69.8992 336.062 71.4338 335.677C72.6954 335.36 72.9072 335.024 72.6059 333.821C72.3298 332.723 72.5636 332.178 73.5333 331.659C74.2472 331.277 74.6756 330.714 74.4857 330.407C74.1092 329.796 78.4791 327.35 79.9463 327.35C81.2298 327.35 81.8559 326.085 80.872 325.476C80.1471 325.029 82.3564 323.672 83.811 323.672C84.0056 323.672 84.9502 322.85 85.9105 321.844C86.8724 320.838 88.7412 319.332 90.0655 318.495C91.3914 317.659 92.631 316.482 92.8224 315.88C93.0139 315.276 94.0181 314.408 95.0553 313.948C96.2667 313.413 96.8206 312.801 96.6056 312.241C96.4204 311.759 96.6793 311.21 97.1783 311.017C97.6789 310.826 98.0884 310.273 98.0884 309.79C98.0884 309.305 98.6344 308.323 99.3029 307.606C99.9713 306.889 100.983 305.039 101.551 303.495C102.121 301.951 102.953 300.251 103.401 299.719C103.85 299.186 104.217 298.307 104.217 297.763C104.217 297.22 104.498 296.602 104.84 296.39C105.182 296.178 105.324 295.779 105.154 295.503C104.983 295.229 105.255 294.662 105.757 294.245C106.259 293.829 106.67 292.832 106.67 292.031C106.67 291.229 107.221 290.021 107.895 289.347C108.569 288.673 109.121 287.447 109.121 286.625C109.121 285.803 109.397 284.959 109.734 284.75C110.07 284.541 110.346 283.961 110.346 283.459C110.346 282.956 110.899 281.403 111.573 280.008C112.247 278.613 112.799 277.228 112.799 276.929C112.799 276.631 113.212 275.974 113.717 275.469C114.222 274.965 114.82 273.815 115.046 272.914C115.272 272.013 115.824 270.91 116.273 270.462C116.722 270.013 117.089 269.144 117.089 268.528C117.089 267.915 117.542 267.239 118.096 267.027C118.65 266.813 118.947 266.484 118.755 266.292C118.565 266.101 119.008 264.797 119.741 263.396C120.473 261.993 121.47 259.812 121.953 258.547C122.438 257.283 123.059 256.249 123.332 256.249C123.607 256.249 123.831 255.74 123.831 255.117C123.831 254.496 124.384 253.487 125.057 252.878C125.732 252.268 126.284 251.413 126.284 250.978C126.284 250.545 126.846 249.795 127.533 249.313C128.638 248.539 129.284 247.185 131.904 240.159C132.25 239.231 132.782 238.474 133.086 238.474C133.389 238.474 133.638 238.084 133.638 237.609C133.638 236.079 136.894 231.673 137.776 232.012C138.233 232.186 138.468 232.106 138.299 231.833C138.129 231.56 138.545 230.863 139.22 230.284C140.029 229.592 140.318 228.823 140.067 228.031C139.772 227.101 139.973 226.828 140.952 226.828C141.649 226.828 142.22 227.134 142.22 227.505C142.22 227.879 142.593 228.04 143.05 227.866C143.668 227.629 143.845 228.121 143.748 229.793C143.478 234.405 143.452 234.529 142.923 233.696C142.606 233.197 142.399 233.763 142.363 235.229C142.309 237.402 142.416 237.273 143.996 233.264C144.927 230.904 146.16 228.069 146.737 226.963C147.313 225.858 147.635 224.709 147.451 224.41C147.266 224.111 147.462 223.729 147.886 223.558C148.485 223.316 148.479 223.236 147.858 223.198C147.089 223.151 145.474 226.603 145.779 227.639C145.86 227.917 145.656 227.978 145.327 227.772C144.996 227.568 144.876 226.928 145.062 226.349C145.306 225.588 145.242 225.514 144.834 226.082C144.511 226.531 143.805 226.693 143.191 226.457C142.494 226.189 142.356 225.896 142.797 225.624C143.171 225.393 143.583 224.397 143.715 223.41C144.035 220.994 144.68 219.473 145.382 219.473C146.274 219.473 147.774 215.381 147.316 214.19C147.009 213.386 147.152 213.223 147.905 213.512C148.548 213.758 148.796 213.625 148.609 213.137C148.435 212.684 148.876 212.352 149.712 212.312C150.48 212.272 150.762 212.374 150.342 212.538C149.919 212.699 149.574 213.118 149.574 213.47C149.574 213.865 149.908 213.829 150.458 213.374C151.52 212.491 150.99 210.688 149.802 211.143C149.34 211.32 148.962 211.199 148.962 210.871C148.962 210.545 149.229 210.278 149.555 210.278C149.882 210.278 150.004 209.9 149.827 209.439C149.65 208.976 149.951 208.427 150.497 208.216C151.045 208.006 151.307 207.535 151.079 207.17C150.23 205.795 152.171 200.943 153.977 199.923C155.437 199.1 155.659 198.66 155.35 197.221C155.06 195.878 155.325 195.185 156.568 194.033C157.442 193.223 158.156 192.87 158.156 193.247C158.156 193.625 158.289 193.801 158.452 193.638C158.614 193.474 158.487 192.433 158.168 191.323C157.734 189.806 157.801 189.093 158.437 188.458C158.903 187.992 159.45 185.747 159.654 183.468C159.858 181.19 160.433 178.084 160.932 176.567C161.431 175.05 161.839 173.256 161.839 172.583C161.839 171.908 162.358 170.503 162.995 169.461C163.63 168.417 164.101 166.624 164.042 165.477C163.982 164.328 164.289 162.342 164.727 161.063C165.287 159.429 165.339 158.389 164.903 157.575C164.489 156.801 164.486 156.288 164.897 156.034C165.234 155.825 165.512 155.139 165.512 154.51C165.512 153.881 165.975 153.275 166.54 153.167C167.49 152.983 167.486 152.886 166.488 151.888C165.656 151.056 165.499 150.259 165.805 148.444C166.114 146.611 165.989 145.999 165.245 145.714C164.195 145.31 163.91 143.468 164.898 143.468C165.236 143.468 165.512 143.201 165.512 142.875C165.512 142.549 165.029 142.437 164.439 142.63C163.513 142.932 167.186 139.145 170.01 136.887C178.35 130.219 190.555 129.936 215.692 135.833C217.481 136.252 217.288 134.676 214.464 125.847L212.65 120.176L202.719 120.28C197.257 120.336 191.683 120.482 190.335 120.603ZM290.796 122.682C249.744 126.349 204.417 155.585 174.945 197.407C135.634 253.193 128.947 322.712 156.287 391.401C159.857 400.367 173.899 425.696 176.033 427.014C176.375 427.226 175.893 426.247 174.961 424.841C174.031 423.433 173.226 421.817 173.172 421.246C172.882 418.161 172.101 416.09 171.534 416.909C171.115 417.515 171.057 417.365 171.332 416.388C171.871 414.469 168.796 410.375 167.577 411.387C166.623 412.18 166.475 411.458 167.319 410.126C167.629 409.636 167.705 408.949 167.489 408.599C167.272 408.249 166.946 408.599 166.762 409.377C166.477 410.587 166.105 410.185 164.203 406.614C162.981 404.315 162.108 402.089 162.264 401.668C162.421 401.246 162.204 400.902 161.782 400.902C161.362 400.902 161.198 400.72 161.42 400.497C161.641 400.276 161.526 399.736 161.162 399.299C160.8 398.861 160.68 398.216 160.897 397.863C161.539 396.826 163.061 397.132 163.05 398.296C163.042 399.214 162.954 399.236 162.446 398.45C162.119 397.945 161.853 397.806 161.853 398.144C161.853 399.738 162.929 400.438 163.35 399.114C163.867 397.483 162.722 395.931 161.382 396.444C160.735 396.694 160.555 396.578 160.85 396.102C161.093 395.709 161.746 395.385 162.298 395.385C163.081 395.385 163.141 395.222 162.568 394.649C161.609 393.691 161.617 390.042 162.579 389.722C163.039 389.569 162.593 388.759 161.423 387.615C160.376 386.592 159.317 385.115 159.069 384.334L158.619 382.914L157.796 384.4C156.839 386.126 156.701 385.447 157.467 382.781C157.985 380.973 157.944 380.918 156.24 381.168C154.216 381.466 154.288 381.318 155.11 383.484C155.655 384.916 155.619 385.043 154.843 384.401C154.032 383.728 153.011 380.686 153.259 379.68C153.312 379.46 153.12 379.11 152.832 378.905C152.165 378.428 150.795 375.334 150.82 374.364C150.831 373.957 151.658 375.274 152.659 377.287C154.45 380.893 154.478 380.916 154.478 378.803C154.478 377.4 154.045 376.284 153.226 375.585C152.538 374.995 152.134 374.256 152.327 373.943C152.775 373.215 154.572 373.879 155.496 375.112C156.086 375.902 156.278 375.65 156.627 373.618C157.141 370.643 158.277 367.803 158.954 367.803C159.229 367.803 159.281 367.522 159.069 367.18C158.857 366.837 158.401 366.732 158.054 366.947C157.687 367.173 157.517 366.859 157.644 366.19C157.767 365.556 158.707 364.77 159.747 364.431C160.783 364.094 161.522 363.493 161.388 363.094C161.073 362.151 162.877 358.624 164.437 357.138C165.653 355.977 165.653 355.969 164.445 355.299C163.268 354.645 163.265 354.59 164.355 353.462C165.372 352.409 165.517 352.395 165.868 353.308C166.513 354.99 167.963 354.497 167.963 352.597C167.963 351.078 168.262 350.808 170.527 350.298C171.936 349.981 173.157 349.369 173.238 348.939C173.32 348.509 173.248 348.44 173.075 348.787C172.738 349.468 170.415 349.669 170.415 349.016C170.415 348.798 171.361 347.7 172.518 346.576C173.685 345.442 174.708 343.779 174.817 342.837C174.956 341.619 175.4 341.084 176.391 340.945C177.608 340.772 177.77 340.394 177.77 337.726C177.77 335.448 177.996 334.704 178.689 334.704C179.195 334.704 179.609 334.29 179.609 333.785C179.609 333.28 180.023 332.865 180.528 332.865C181.316 332.865 181.787 331.337 181.52 329.647C181.481 329.394 181.724 329.187 182.06 329.187C182.397 329.187 182.673 328.489 182.673 327.634C182.673 326.779 183.064 325.469 183.541 324.723C184.018 323.976 184.318 322.606 184.208 321.679C184.073 320.542 184.288 319.994 184.873 319.994C185.349 319.994 185.738 319.572 185.738 319.056C185.738 318.539 186.152 317.957 186.657 317.764C187.299 317.518 187.577 316.517 187.577 314.449C187.577 312.818 187.875 311.301 188.239 311.075C188.611 310.846 188.733 309.992 188.518 309.136C188.292 308.237 188.488 307.063 188.992 306.291C189.463 305.569 190.003 304.149 190.191 303.138C190.378 302.126 191.088 299.271 191.768 296.79C192.447 294.311 192.868 291.924 192.7 291.489C192.534 291.053 192.692 290.515 193.051 290.292C193.411 290.069 193.706 289.269 193.706 288.514C193.706 287.758 193.958 286.879 194.269 286.558C194.578 286.237 194.975 285.149 195.151 284.136C195.601 281.563 195.888 280.367 197.065 276.168C197.632 274.146 198.175 272.078 198.269 271.573C198.364 271.066 199.201 268.998 200.128 266.975C201.055 264.952 201.958 262.194 202.133 260.846C202.309 259.497 202.731 258.042 203.07 257.612C203.409 257.184 203.51 256.653 203.293 256.437C203.075 256.219 203.276 255.605 203.739 255.072C204.2 254.54 204.733 253.413 204.923 252.571C205.91 248.168 206.552 246.223 207.137 245.861C207.494 245.641 208.349 243.82 209.036 241.814C209.725 239.809 211.798 235.917 213.643 233.168C215.488 230.419 216.998 227.76 216.998 227.258C216.998 226.757 217.412 226.187 217.917 225.993C218.422 225.798 218.837 225.218 218.837 224.701C218.837 224.185 219.318 223.259 219.908 222.644C220.498 222.029 221.642 220.234 222.449 218.654C223.255 217.075 224.566 215.083 225.361 214.224C226.155 213.368 226.805 212.464 226.805 212.216C226.805 211.968 227.621 210.81 228.619 209.643C229.617 208.475 230.443 207.3 230.458 207.033C230.472 206.765 231.172 205.855 232.014 205.012C232.857 204.17 233.547 203.22 233.547 202.903C233.547 202.586 236.306 199.575 239.676 196.211C243.048 192.847 245.805 189.809 245.805 189.459C245.805 189.111 246.188 188.825 246.654 188.825C247.12 188.825 247.646 188.273 247.823 187.596C248.024 186.831 248.48 186.498 249.039 186.713C249.602 186.928 250.057 186.589 250.263 185.803C250.443 185.114 251.259 184.295 252.075 183.986C252.891 183.675 254.823 182.017 256.365 180.3C257.909 178.583 259.591 177.179 260.106 177.179C260.621 177.179 261.405 176.826 261.851 176.393C262.297 175.961 263.627 174.937 264.807 174.116C265.987 173.297 267.732 171.858 268.684 170.918C269.638 169.98 270.691 169.211 271.027 169.211C271.363 169.211 272.064 168.784 272.587 168.262C273.108 167.739 274.33 167.154 275.3 166.959C276.271 166.765 277.065 166.358 277.065 166.056C277.065 165.751 277.686 165.222 278.444 164.879C280.26 164.058 281.677 163.192 285.157 160.776C286.74 159.676 288.672 158.521 289.447 158.208C290.222 157.898 290.508 157.626 290.082 157.604C289.656 157.584 291.518 155.295 294.219 152.52C296.921 149.745 299.132 147.131 299.132 146.708C299.132 146.288 299.82 145.77 300.663 145.558C301.506 145.346 302.196 144.791 302.196 144.322C302.196 143.853 302.543 143.468 302.965 143.468C303.389 143.468 304.11 142.622 304.569 141.587C305.027 140.553 306.028 139.004 306.794 138.146C309.841 134.733 310.195 134.207 309.835 133.624C309.629 133.291 309.687 133.092 309.965 133.181C310.854 133.47 313.037 131.563 313.503 130.093C313.79 129.181 314.275 128.792 314.848 129.013C315.381 129.217 315.582 129.095 315.344 128.709C315.124 128.353 315.524 127.91 316.232 127.725C317.941 127.278 317.879 126.311 316.141 126.288C314.926 126.271 314.887 126.195 315.813 125.656C316.875 125.036 322.671 125.273 325.488 126.049C326.539 126.34 326.828 126.274 326.408 125.836C323.944 123.282 303.933 121.508 290.796 122.682ZM394.749 154.195C395.893 155.375 396.966 156.34 397.136 156.34C397.303 156.34 396.506 155.375 395.362 154.195C394.219 153.015 393.145 152.05 392.976 152.05C392.808 152.05 393.605 153.015 394.749 154.195ZM163.128 195.023C162.424 195.778 161.683 196.914 161.482 197.546C161.176 198.51 160.95 198.572 160.097 197.928C159.256 197.295 159.202 197.303 159.794 197.971C160.557 198.833 159.764 201.526 158.474 202.454C158.074 202.742 158.118 202.908 158.594 202.914C159.362 202.924 160.969 200.52 160.737 199.705C160.666 199.453 160.847 199.246 161.139 199.246C161.802 199.246 165.096 194.336 164.699 193.939C164.539 193.779 163.833 194.267 163.128 195.023ZM153.833 210.738C153.328 211.328 152.876 212.056 152.829 212.356C152.782 212.654 152.418 213.101 152.019 213.347C151.619 213.595 151.404 214.315 151.54 214.949C151.722 215.795 152.229 215.246 153.45 212.883C155.222 209.453 155.297 209.026 153.833 210.738ZM136.777 252.356C135.641 256.691 135.302 258.397 135.641 258.088C136.118 257.653 137.93 250.528 137.638 250.237C137.505 250.104 137.119 251.058 136.777 252.356ZM448.229 295.782C448.235 297.132 448.361 297.61 448.508 296.848C448.654 296.085 448.65 294.982 448.496 294.397C448.342 293.81 448.223 294.435 448.229 295.782ZM167.561 349.901C167.203 351.265 166.124 351.802 166.124 350.615C166.124 350.008 167.512 348.182 167.785 348.431C167.856 348.495 167.756 349.158 167.561 349.901ZM163.059 361.367C163.059 361.872 163.335 362.286 163.673 362.286C164.009 362.286 164.285 361.872 164.285 361.367C164.285 360.862 164.009 360.447 163.673 360.447C163.335 360.447 163.059 360.862 163.059 361.367ZM156.94 378.07C156.966 379.413 158.137 380.304 158.146 378.99C158.151 378.23 157.88 377.61 157.542 377.61C157.206 377.61 156.933 377.817 156.94 378.07ZM180.21 432.928C181.258 434.361 183.381 436.912 184.931 438.597C187.925 441.853 187.807 441.42 184.583 437.306C183.499 435.922 182.567 434.218 182.515 433.518C182.461 432.818 182.177 432.394 181.884 432.577C181.591 432.759 180.943 432.325 180.444 431.615C179.946 430.904 179.262 430.323 178.923 430.323C178.584 430.323 179.163 431.495 180.21 432.928ZM104.912 438.847C105.706 439.49 106.602 439.865 106.902 439.678C107.202 439.493 106.789 438.977 105.986 438.531C103.833 437.337 103.257 437.507 104.912 438.847ZM194.013 448.641C196.036 450.75 198.242 452.771 198.917 453.13C199.701 453.549 199.524 453.203 198.422 452.164C197.476 451.273 196.869 450.273 197.075 449.94C197.296 449.583 197.017 449.503 196.39 449.743C195.57 450.058 195.424 449.911 195.738 449.091C195.965 448.5 195.893 448.189 195.575 448.385C195.262 448.58 193.955 447.852 192.67 446.771C191.333 445.644 191.906 446.443 194.013 448.641ZM203.972 484.717C206.417 484.833 210.417 484.833 212.86 484.717C215.305 484.599 213.304 484.505 208.416 484.505C203.528 484.505 201.529 484.599 203.972 484.717ZM269.557 493.898C270.652 494.034 272.446 494.034 273.541 493.898C274.636 493.763 273.74 493.651 271.55 493.651C269.358 493.651 268.462 493.763 269.557 493.898Z" fill="#F4D6A6"/>
<path fill-rule="evenodd" clip-rule="evenodd" d="M348.043 27.4665C350.839 27.581 355.253 27.5795 357.85 27.4649C360.445 27.3504 358.157 27.2578 352.763 27.2578C347.369 27.2594 345.245 27.3535 348.043 27.4665ZM347.238 28.8646C347.107 29.0748 347.47 29.2459 348.044 29.2443C354.707 29.2364 359.199 29.5707 359.199 30.0744C359.199 30.4117 358.027 30.7428 356.594 30.8103C355.162 30.8777 357.161 31.0974 361.038 31.3014L368.087 31.6686L359.505 31.8867C354.787 32.0075 350.235 32.155 349.392 32.2162C336.725 33.1294 334.427 33.1765 335.295 32.508C336.073 31.9055 336.044 31.8537 335.091 32.1628C334.473 32.3621 333.837 32.5269 333.676 32.5269C333.516 32.5269 333.519 32.7466 333.685 33.0149C333.852 33.2832 332.971 33.5013 331.729 33.4982C330.487 33.4966 328.644 33.6912 327.633 33.9328C326.621 34.1745 326.998 33.9234 328.468 33.3758C331.037 32.4186 331.085 31.2606 328.553 31.3532C327.945 31.3751 328.051 31.5666 328.859 31.9134C330.247 32.5112 327.89 32.7968 323.342 32.5834C321.493 32.4955 321.117 32.6226 321.81 33.1012C322.541 33.6033 322.353 33.7524 320.891 33.8245C319.061 33.914 319.063 33.9156 321.197 34.3659C322.455 34.6311 322.808 34.8507 322.049 34.8978C321.338 34.9417 319.433 35.1599 317.815 35.3811C315.527 35.6949 314.983 35.6118 315.355 35.0092C315.72 34.4192 315.341 34.3219 313.765 34.6044C312.226 34.8806 312.011 34.8303 312.923 34.4067C313.993 33.9108 313.911 33.834 312.279 33.7963C311.25 33.7712 310.039 33.4072 309.584 32.9866C308.917 32.3668 308.852 32.3841 309.248 33.0792C309.563 33.6331 309.323 34.2592 308.571 34.8382C307.465 35.6902 307.484 35.72 308.939 35.4156C311.33 34.9151 313.459 35.9224 311.241 36.5062C310.316 36.7494 309.712 37.195 309.897 37.4963C310.084 37.796 309.806 38.0439 309.281 38.0439C308.755 38.0439 308.325 37.7505 308.325 37.3943C308.325 37.0365 308.044 36.9188 307.702 37.1307C307.36 37.3409 307.206 37.7207 307.362 37.9701C308.096 39.1595 296.638 41.8349 295.107 40.8322C293.64 39.8703 291.641 40.3427 290.481 41.9259C290.276 42.2083 289.93 42.4155 289.715 42.3856C288.675 42.246 288.623 42.4139 289.403 43.4056C290.167 44.3816 290.145 44.402 289.157 43.6253C288.557 43.1561 287.894 42.9474 287.68 43.1608C287.467 43.3742 286.907 43.2283 286.434 42.8376C285.799 42.3103 285.626 42.3088 285.766 42.8281C285.868 43.2141 285.126 44.2545 284.114 45.141C282.416 46.6285 282.4 46.6787 283.905 45.7922C285.352 44.9386 285.573 44.9355 285.89 45.7593C286.086 46.2708 285.992 46.5313 285.683 46.3398C285.372 46.1484 284.942 46.2755 284.729 46.6223C284.347 47.2389 279.929 49.6883 279.199 49.6883C278.997 49.6883 279 49.4169 279.207 49.0826C279.425 48.7296 279.165 48.637 278.578 48.8614C277.894 49.125 277.798 49.3839 278.277 49.6805C278.741 49.966 278.499 50.4258 277.563 51.0378C275.88 52.1377 272.526 53.2235 274.001 52.1895C274.652 51.7345 274.691 51.543 274.136 51.5367C273.703 51.532 273.191 51.94 272.998 52.4437C272.805 52.9474 272.395 53.2047 272.088 53.0148C271.78 52.825 271.714 52.3699 271.94 52.0043C272.188 51.6026 272.066 51.5148 271.634 51.7815C271.239 52.0263 271.074 52.4813 271.269 52.7952C271.463 53.109 271.33 53.4008 270.972 53.4432C270.616 53.4856 269.979 53.5546 269.557 53.597C269.136 53.6378 268.791 54.0395 268.791 54.4882C268.791 55.4376 266.679 57.1369 266.012 56.7242C265.763 56.5705 265.182 56.9078 264.722 57.4743C264.012 58.353 264.016 58.4267 264.757 57.9811C265.419 57.5825 265.529 57.7128 265.217 58.5256C264.992 59.114 264.807 59.7118 264.807 59.8531C264.807 59.9927 264.503 60.1088 264.133 60.1088C263.761 60.1088 262.09 61.419 260.418 63.0195C258.749 64.6216 257.191 65.9381 256.957 65.9444C255.085 66.0009 239.518 85.2853 240.528 86.2958C240.64 86.4072 244.914 84.4207 250.028 81.8819C264.881 74.507 284.321 67.0271 305.874 60.3928C317.606 56.7823 352.001 49.6883 357.782 49.6883C360.253 49.6883 357.203 50.851 350.618 52.4186C326.822 58.0831 292.297 69.6899 270.017 79.5172C261.551 83.2502 240.902 93.4039 240.902 93.8323C240.902 95.0515 267.117 102.499 270.773 102.318C272.218 102.247 272.265 102.196 271.09 101.968C270.331 101.822 269.711 101.425 269.711 101.085C269.711 100.714 268.91 100.623 267.718 100.857C266.158 101.165 265.926 101.1 266.646 100.556C267.381 100.002 267.177 99.9095 265.637 100.098C264.18 100.274 263.789 100.123 264.035 99.478C264.247 98.9272 264.823 98.7656 265.658 99.0214C270.235 100.421 295.446 99.0527 305.874 96.8372C327.468 92.2506 355.013 76.8717 382.504 54.0552C390.166 47.6955 392.538 45.6933 394.033 44.3251C394.862 43.5672 395.745 42.9474 395.993 42.9474C396.243 42.9474 398.292 41.1539 400.55 38.9618C402.806 36.7713 404.864 34.9778 405.122 34.9778C405.716 34.9778 407.62 32.9003 407.62 32.2539C407.62 31.9887 406.939 31.9008 406.108 32.0609C405.275 32.2193 404.74 32.1142 404.917 31.8255C405.096 31.5368 404.95 31.3014 404.592 31.3014C404.236 31.3014 403.944 31.576 403.944 31.9134C403.944 32.5677 399.497 32.7795 398.873 32.155C398.669 31.951 394.693 31.7768 390.037 31.769C384.164 31.758 382.51 31.6184 384.636 31.3171C386.321 31.077 387.096 30.8369 386.357 30.7836C384.682 30.6643 383.952 29.624 385.355 29.3557C385.927 29.2459 381.542 29.1925 375.61 29.238C369.678 29.2851 364.525 29.5079 364.157 29.7338C363.79 29.9614 363.489 29.8421 363.489 29.4702C363.489 29.023 362.73 28.9367 361.256 29.2129C359.995 29.4498 359.168 29.3949 359.356 29.0874C359.541 28.7845 356.977 28.5288 353.582 28.5131C350.222 28.4974 347.366 28.6543 347.238 28.8646ZM322.684 30.0116C323.85 30.4682 323.85 30.4792 322.684 30.9735C321.681 31.3971 321.824 31.5446 323.637 31.951C324.81 32.2146 326.19 32.1832 326.701 31.8835C327.415 31.4662 327.253 31.3344 326.012 31.3202C325.123 31.3092 324.234 30.8872 324.04 30.3819C323.845 29.8751 323.196 29.4812 322.595 29.5048C321.617 29.544 321.627 29.5958 322.684 30.0116ZM332.996 29.8939C331.477 30.1873 331.342 30.5419 332.231 31.9134C332.737 32.6995 332.825 32.6775 332.833 31.7611C332.838 31.1712 333.257 30.6879 333.762 30.6879C334.267 30.6879 334.682 30.4117 334.682 30.0744C334.682 29.7386 334.613 29.5001 334.528 29.5456C334.445 29.5911 333.754 29.748 332.996 29.8939ZM400.879 40.52C400.879 40.8714 400.327 41.7517 399.652 42.4751C398.979 43.1984 398.436 44.0834 398.449 44.4412C398.48 45.345 401.485 41.5948 401.488 40.6486C401.49 40.2265 401.353 39.8813 401.185 39.8813C401.016 39.8813 400.879 40.17 400.879 40.52ZM293.263 42.2695C294.176 42.6273 294.245 42.8093 293.568 43.0698C293.084 43.2549 292.334 43.0274 291.901 42.563C291.041 41.6419 291.441 41.5556 293.263 42.2695ZM331.157 97.5166C329.105 98.3419 329.488 98.7609 331.617 98.0187C332.628 97.6672 333.456 97.2671 333.456 97.1322C333.456 96.7681 332.709 96.8936 331.157 97.5166ZM261.666 98.7672C263.073 98.8048 263.124 98.8692 262.061 99.2834C260.815 99.7714 257.062 99.1814 256.331 98.3827C256.105 98.1364 256.85 98.1129 257.988 98.3294C259.125 98.5459 260.781 98.7436 261.666 98.7672ZM82.4193 171.204L80.6195 173.195L82.6107 171.395C84.4686 169.718 84.8859 169.211 84.4121 169.211C84.3069 169.211 83.4094 170.109 82.4193 171.204ZM437.798 283.83C437.798 285.01 437.923 285.494 438.077 284.904C438.232 284.314 438.232 283.349 438.077 282.759C437.923 282.169 437.798 282.65 437.798 283.83ZM139.361 309.573C139.361 312.103 139.469 313.137 139.601 311.872C139.733 310.609 139.733 308.539 139.601 307.276C139.469 306.012 139.361 307.046 139.361 309.573ZM87.0294 423.733C89.5698 426.44 90.1205 426.926 90.1205 426.466C90.1205 426.368 88.8103 425.057 87.2082 423.554L84.2975 420.822L87.0294 423.733ZM270.782 483.468C271.542 483.614 272.783 483.614 273.541 483.468C274.3 483.322 273.679 483.203 272.162 483.203C270.644 483.203 270.025 483.322 270.782 483.468Z" fill="#84AD4D"/>
<path fill-rule="evenodd" clip-rule="evenodd" d="M340.053 27.4445C340.814 27.5904 341.918 27.5842 342.504 27.432C343.089 27.2782 342.466 27.1574 341.118 27.1652C339.769 27.1715 339.29 27.297 340.053 27.4445ZM363.337 27.4429C364.095 27.5889 365.336 27.5889 366.095 27.4429C366.853 27.297 366.232 27.1778 364.716 27.1778C363.199 27.1778 362.577 27.297 363.337 27.4429ZM406.827 33.506C406.221 34.3157 405.483 34.9779 405.188 34.9779C404.893 34.9779 402.806 36.7713 400.55 38.9618C398.292 41.1539 396.243 42.9474 395.993 42.9474C395.745 42.9474 394.862 43.5672 394.034 44.3251C392.538 45.6934 390.166 47.6955 382.504 54.0552C355.013 76.8717 327.468 92.2506 305.874 96.8372C295.446 99.0528 270.235 100.421 265.658 99.0214C264.823 98.7656 264.247 98.9272 264.035 99.478C263.789 100.123 264.18 100.274 265.637 100.098C267.177 99.9095 267.381 100.002 266.646 100.556C265.926 101.1 266.158 101.165 267.718 100.857C268.978 100.609 269.711 100.708 269.711 101.127C269.711 101.491 270.331 101.816 271.09 101.849C272.403 101.909 272.396 101.932 270.936 102.357C269.767 102.698 270.71 103.01 274.92 103.675C282.273 104.837 309.632 104.915 310.012 103.777C310.153 103.354 310.522 103.164 310.831 103.354C311.802 103.955 316.93 102.935 316.492 102.229C316.234 101.81 316.5 101.736 317.246 102.023C318.485 102.499 326.1 100.686 326.1 99.9158C326.1 99.66 326.695 99.6067 327.423 99.7965C328.407 100.054 328.617 99.9377 328.247 99.3383C327.908 98.7907 327.988 98.6809 328.496 98.9963C329.516 99.6255 336.615 96.9203 336.105 96.0965C335.857 95.6948 336.092 95.5991 336.726 95.8423C337.288 96.0573 337.746 95.9506 337.746 95.6038C337.746 95.2571 338.003 95.1331 338.317 95.3261C339.15 95.8423 343.277 93.7272 342.835 93.0117C342.625 92.6712 342.772 92.5974 343.172 92.8453C344.125 93.4337 353.122 88.287 352.635 87.4319C352.43 87.0694 352.477 86.9674 352.742 87.2075C353.472 87.8649 356.858 85.913 356.367 85.119C356.111 84.7047 356.224 84.609 356.654 84.8742C357.062 85.1268 358.19 84.4521 359.312 83.2847C360.385 82.1675 360.867 81.7862 360.384 82.4342C359.524 83.5891 359.541 83.5907 361.192 82.5174C362.785 81.4802 363.677 80.3818 362.169 81.3139C361.727 81.5869 361.628 81.4818 361.904 81.033C362.149 80.6392 362.576 80.4572 362.855 80.6282C363.134 80.8008 364.012 80.3708 364.806 79.6726C365.598 78.9743 365.86 78.6056 365.388 78.8519C364.817 79.1485 364.675 79.0575 364.97 78.5821C365.214 78.1866 365.65 78.0109 365.94 78.1898C366.987 78.8363 379.014 68.2839 378.386 67.2703C378.179 66.9361 378.292 66.8356 378.636 67.049C379.414 67.5292 381.44 65.392 380.806 64.7581C380.553 64.5039 380.759 64.3894 381.266 64.5008C381.823 64.6248 382.104 64.3439 381.98 63.7868C381.868 63.28 381.98 63.0713 382.231 63.3208C382.827 63.9186 384.418 62.5865 383.971 61.8631C383.781 61.5556 383.991 61.3798 384.437 61.4724C384.884 61.565 385.173 61.2763 385.08 60.8291C384.988 60.3834 385.159 60.17 385.458 60.3552C386.182 60.8024 388.141 58.6088 387.548 58.0156C387.296 57.763 387.369 57.6469 387.715 57.7599C388.06 57.8713 389.317 56.8608 390.508 55.5113C394.242 51.2857 400.588 43.2141 399.483 44.0944C398.239 45.0861 398.119 44.3219 399.281 42.7936C400.214 41.5634 401.143 41.3406 400.564 42.4876C400.351 42.9082 400.886 42.4249 401.75 41.4144C403.392 39.4953 403.839 38.2699 402.623 39.0215C402.18 39.2945 402.082 39.1894 402.359 38.7406C402.602 38.3467 403.028 38.1632 403.304 38.3326C404.068 38.8065 405.336 36.9706 404.821 36.1359C404.559 35.7138 404.627 35.5616 404.977 35.7797C405.538 36.1264 408.604 32.6822 408.135 32.2319C408.021 32.1236 407.432 32.6964 406.827 33.506ZM356.001 50.4462C357.035 50.9436 357.586 50.9342 358.116 50.4038C358.661 49.8594 358.328 49.6993 356.717 49.7307C354.73 49.7699 354.688 49.8123 356.001 50.4462ZM352.457 50.9154C354.553 51.5854 356.164 51.5854 354.602 50.9154C353.928 50.6251 352.825 50.396 352.151 50.4054C351.165 50.4211 351.225 50.52 352.457 50.9154ZM198.708 52.6383C196.81 53.2377 195.652 53.9077 195.95 54.2309C196.251 54.5573 196.136 54.5997 195.672 54.3313C194.683 53.7618 191.42 55.7765 192.375 56.3665C192.796 56.6254 192.54 57.0946 191.69 57.6234C190.453 58.3938 190.408 58.3781 191.176 57.4492C191.639 56.889 191.74 56.4308 191.401 56.4308C190.437 56.4308 188.802 59.2882 188.802 60.9687C188.802 62.3181 189.126 62.5268 191.715 62.8548C193.315 63.0588 195.247 63.313 196.005 63.4212C196.762 63.5279 197.384 63.4479 197.384 63.2424C197.385 63.0352 198.97 62.8469 200.91 62.8234C203.351 62.792 205.843 62.2036 209.03 60.9028C214.377 58.7202 214.925 58.8065 212.047 61.3782C208.543 64.5102 202.874 66.8545 197.635 67.3393L192.972 67.7708L195.391 70.8353C208.669 87.6468 225.579 122.965 225.579 133.882C225.579 135.23 226.13 135.152 228.655 133.442C229.828 132.646 231.41 131.8 232.168 131.562C233.806 131.045 233.765 131.974 232.615 121.223C230.425 100.766 225.035 78.1349 218.38 61.4504C215.383 53.9391 214.122 52.508 210.491 52.508C209.262 52.508 208.74 52.315 209.191 52.0279C210.644 51.1052 201.955 51.6105 198.708 52.6383ZM254.655 67.0051L252.855 68.9963L254.847 67.1965C255.942 66.2064 256.839 65.3089 256.839 65.2038C256.839 64.7299 256.332 65.1473 254.655 67.0051ZM258.678 77.5778C257.834 78.0595 257.421 78.4534 257.759 78.4534C258.095 78.4534 259.061 78.0595 259.904 77.5778C260.746 77.0961 261.161 76.7022 260.823 76.7022C260.486 76.7022 259.521 77.0961 258.678 77.5778ZM333.456 97.1322C333.456 97.2671 332.628 97.6672 331.617 98.0187C329.488 98.7609 329.105 98.3419 331.157 97.5166C332.709 96.8936 333.456 96.7681 333.456 97.1322ZM256.755 98.5977C257.461 99.0967 257.461 99.2395 256.755 99.5125C256.295 99.6914 257.023 99.7196 258.371 99.5753C260.238 99.376 260.53 99.4529 259.596 99.8954C258.923 100.215 258.685 100.496 259.067 100.52C259.45 100.543 260.553 100.151 261.518 99.6474L263.274 98.7311L261.666 98.7279C260.781 98.7248 259.125 98.5632 257.988 98.3655C256.573 98.1207 256.183 98.1944 256.755 98.5977ZM200.602 120.016C202.54 120.139 205.713 120.139 207.651 120.016C209.588 119.895 208.004 119.795 204.126 119.795C200.249 119.795 198.663 119.895 200.602 120.016ZM249.943 120.609C250.701 120.755 251.944 120.755 252.702 120.609C253.459 120.463 252.84 120.344 251.322 120.344C249.805 120.344 249.185 120.463 249.943 120.609ZM241.045 125.08C241.045 126.26 241.17 126.743 241.325 126.153C241.479 125.563 241.479 124.598 241.325 124.008C241.17 123.418 241.045 123.9 241.045 125.08ZM190.306 163.848L187.883 166.453L190.488 164.03C192.91 161.777 193.375 161.243 192.912 161.243C192.811 161.243 191.639 162.415 190.306 163.848ZM89.7754 163.848L87.974 165.841L89.9668 164.041C91.8231 162.362 92.2405 161.857 91.7666 161.857C91.6614 161.857 90.7655 162.753 89.7754 163.848ZM196.449 171.204L192.174 175.648L196.618 171.373C200.745 167.404 201.341 166.76 200.892 166.76C200.798 166.76 198.799 168.759 196.449 171.204ZM446.991 274.023C446.991 275.203 447.117 275.687 447.272 275.097C447.426 274.507 447.426 273.542 447.272 272.952C447.117 272.362 446.991 272.843 446.991 274.023ZM437.831 279.233C437.835 280.92 437.955 281.536 438.094 280.604C438.236 279.672 438.232 278.293 438.086 277.54C437.941 276.785 437.826 277.548 437.831 279.233ZM33.9572 294.251C33.9572 297.791 34.0576 299.238 34.1815 297.469C34.3055 295.699 34.3055 292.803 34.1815 291.033C34.0576 289.263 33.9572 290.711 33.9572 294.251ZM437.831 298.847C437.835 300.534 437.955 301.15 438.094 300.218C438.236 299.286 438.232 297.907 438.086 297.154C437.941 296.399 437.826 297.162 437.831 298.847ZM130.144 300.38C130.144 302.235 130.26 302.993 130.4 302.065C130.541 301.138 130.541 299.622 130.4 298.695C130.26 297.767 130.144 298.525 130.144 300.38ZM139.339 302.219C139.339 304.074 139.454 304.832 139.593 303.904C139.734 302.977 139.734 301.459 139.593 300.534C139.454 299.606 139.339 300.364 139.339 302.219ZM446.991 304.058C446.991 305.238 447.117 305.72 447.272 305.13C447.426 304.54 447.426 303.575 447.272 302.985C447.117 302.395 446.991 302.878 446.991 304.058ZM139.322 316.316C139.322 317.833 139.441 318.455 139.587 317.695C139.733 316.937 139.733 315.696 139.587 314.937C139.441 314.179 139.322 314.799 139.322 316.316ZM130.15 318.461C130.153 320.483 130.268 321.238 130.405 320.137C130.541 319.035 130.538 317.38 130.398 316.459C130.259 315.538 130.147 316.438 130.15 318.461ZM80.9255 417.643C80.9255 417.748 81.8231 418.644 82.9183 419.634L84.9095 421.434L83.1097 419.443C81.4324 417.587 80.9255 417.169 80.9255 417.643ZM90.1206 426.837C90.1206 426.942 91.0165 427.838 92.1118 428.829L94.1046 430.629L92.3032 428.636C90.6258 426.78 90.1206 426.363 90.1206 426.837ZM376.656 434.153L371.151 439.823L376.82 434.32C379.94 431.293 382.491 428.742 382.491 428.649C382.491 428.205 381.766 428.888 376.656 434.153ZM191.255 460.05C192.399 461.23 193.472 462.195 193.64 462.195C193.809 462.195 193.011 461.23 191.867 460.05C190.725 458.87 189.65 457.905 189.482 457.905C189.314 457.905 190.111 458.87 191.255 460.05ZM199.377 474.263C199.967 474.417 200.932 474.417 201.522 474.263C202.112 474.109 201.628 473.984 200.448 473.984C199.268 473.984 198.787 474.109 199.377 474.263ZM264.959 483.474C265.887 483.615 267.404 483.615 268.332 483.474C269.259 483.334 268.499 483.218 266.646 483.218C264.792 483.218 264.034 483.334 264.959 483.474ZM275.993 483.474C276.919 483.615 278.437 483.615 279.364 483.474C280.291 483.334 279.533 483.218 277.679 483.218C275.824 483.218 275.066 483.334 275.993 483.474Z" fill="#6A993F"/>
</svg>
