<svg width="512" height="512" viewBox="0 0 512 512" xmlns="http://www.w3.org/2000/svg">
    <path fill-rule="evenodd" clip-rule="evenodd"
        d="M248.191 34.654c-2.368.549-6.678 1.996-7.949 2.667-.771.408-1.666.742-1.987.745-.322 0-.585.198-.585.44 0 .24-.736.703-1.636 1.028-.9.326-1.637.76-1.637.965 0 .206-.215.374-.478.374-.622 0-5.6 4.979-5.6 5.6 0 .264-.245.479-.546.479-.299 0-.407.138-.237.307.169.17.047.622-.273 1.007-.727.876-.787 8.56-.073 9.484.525.682 1.232 2.779 4.202 12.463.966 3.15 1.925 5.728 2.132 5.728.207 0 .257.311.111.692-.146.381.086 1.907.515 3.39 1.813 6.265 2.863 11.557 4.159 20.933l.581 4.208-2.83.605c-1.736.377-3.46.808-5.169 1.291-1.286.378-2.786.773-3.332.877-1.445.277-5.993 2.265-6.175 2.7-.087.205-.46.372-.829.372-1.681 0-12.599 6.321-15.245 8.828a25.304 25.304 0 01-1.87 1.552c-2.904 2.154-7.383 6.095-7.383 6.495 0 .248-1.568 2.054-3.484 4.015-1.916 1.96-3.447 3.69-3.401 3.844.045.155-.494.892-1.197 1.64-.704.747-1.2 1.438-1.103 1.536.099.097-.425.822-1.162 1.611-.736.788-1.222 1.623-1.08 1.854.143.23.025.42-.263.42-.287 0-.401.197-.251.438.149.242-.062.625-.47.853-.407.228-.789.746-.848 1.152-.059.404-.387 1.072-.73 1.484-.341.412-.437.755-.213.764.225.008.019.309-.457.669-.475.36-.726.881-.556 1.154.169.275.072.499-.215.499-.288 0-.408.187-.267.415.142.228-.036.657-.392.953-.358.297-1.112 1.74-1.678 3.21-1.373 3.568-1.901 4.85-2.394 5.82-.227.446-.412 1.193-.412 1.66 0 .466-.176 1.047-.39 1.291-.212.245-.643 1.341-.955 2.436-.736 2.591-4.521 17.047-5.722 21.855-1.309 5.24-4.816 16.589-6.497 21.022a225.785 225.785 0 01-5.875 14.116c-.367.811-.667 1.705-.667 1.987 0 .283-.21.514-.468.514a.456.456 0 00-.467.442c0 .948-4.345 9.593-5.182 10.312-.15.129-1.067 1.602-2.039 3.273-.971 1.672-1.925 3.145-2.119 3.273-.194.129-.501.707-.681 1.286-.182.579-.525 1.052-.765 1.052-.239 0-.436.283-.436.63 0 .554-.428 1.188-2.329 3.441-.262.311-.476.785-.476 1.052 0 .268-.159.488-.353.488-.195 0-.617.579-.94 1.286-.511 1.12-1.72 2.679-4.527 5.844-.4.45-.726 1.022-.726 1.27s-.439.686-.975.972c-.537.288-.862.637-.721.777.139.14-.211.665-.779 1.166-.568.503-.716.774-.331.603.386-.17.176.124-.467.655-.643.532-.988.97-.767.976.222.006-.094.448-.701.981-.607.534-.789.806-.406.604.383-.202-.095.425-1.064 1.393-.968.969-1.637 1.959-1.488 2.203.15.242.048.44-.227.44-.498 0-3.232 4.089-3.233 4.835 0 .216-.324.637-.719.935-.886.669-7.76 12.412-7.76 13.257 0 .337-.211.611-.468.611s-.467.305-.467.679c0 .374-.842 2.277-1.871 4.231-1.028 1.953-1.87 3.881-1.87 4.284 0 .402-.407 1.497-.903 2.432-.497.934-1.351 2.948-1.896 4.475-.546 1.525-1.133 2.998-1.305 3.273-.869 1.389-5.205 19.364-5.76 23.877-.252 2.057-.546 4.056-.654 4.441-1.801 6.458-.773 34.04 1.605 43.017.822 3.102.928 3.525 2.165 8.65 1.216 5.037 2.617 9.481 3.5 11.099.244.446.443 1.13.443 1.52 0 .389.168.707.374.707.204 0 .652.789.994 1.753a45.79 45.79 0 001.497 3.595c.481 1.012.875 2.091.875 2.397 0 .306.316.818.702 1.139.385.32.701.977.701 1.46 0 .482.21.877.468.877.257 0 .467.406.467.902s.264 1.18.587 1.519c.324.34 1.093 1.618 1.71 2.84.618 1.221 1.3 2.221 1.517 2.221.217 0 .394.315.394.701 0 .386.211.701.468.701s.415.158.352.351c-.19.572 1.91 3.857 2.465 3.857.282 0 .39.197.242.436-.149.24.153.732.671 1.095.517.361.801.797.631.966-.169.17-.063.309.236.309.301 0 .546.3.546.667 0 .367.579 1.122 1.286 1.679.707.556 1.286 1.185 1.286 1.398 0 .211.47.792 1.044 1.29.574.498.911 1.037.75 1.197-.16.162.054.426.477.587.422.163.768.588.768.947 0 .358.254.598.563.534.31-.064.573.102.585.37.028.641 12.561 12.867 13.137 12.816.143-.013.879.64 1.637 1.453.757.811 1.385 1.295 1.393 1.074.01-.22.404.064.878.632.474.568.993.902 1.153.74.161-.16.292.036.292.439 0 .654.989 1.381 2.024 1.489.214.022.659.409.987.859.33.45.816.818 1.081.818.267 0 .613.338.772.751.163.427.587.634.984.481.414-.159.698-.001.698.388 0 .36.443.795.983.967.541.172 1.723.815 2.628 1.427.903.614 1.789 1.025 1.967.916.179-.11.918.308 1.642.931.725.623 1.501 1.02 1.724.882.224-.138.407-.046.407.206s.629.597 1.397.765c.769.168 1.519.501 1.666.74.237.384 4.271 2.451 4.901 2.511.234.022 2.527.964 5.9 2.424.811.351 1.768.638 2.127.638.36 0 .907.253 1.216.561.308.309.561.429.561.267 0-.163.684-.082 1.52.179 1.836.562 3.687 1.076 5.551 1.54.417.1 1.546.308 2.509.461.964.152 1.899.369 2.08.48 2.053 1.27 10.045 1.888 24.109 1.87 15.084-.022 16.045-.108 28.054-2.549 6.422-1.304 16.38-1.302 18.937.005.787.402 1.474.528 10.053 1.855 5.798.897 29.305 1.518 30.471.807.214-.13 1.756-.379 3.428-.553 2.633-.274 4.902-.682 10.871-1.959.707-.151 1.285-.44 1.285-.641 0-.2.438-.25.971-.111.758.199.937.061.818-.628-.19-1.101 1.648-1.477 2.767-.568.654.533.721.511.471-.159-.178-.474-.014-.886.418-1.052 1.018-.39 1.101-.351.816.394-.28.733 1.951.217 5.507-1.272.943-.395 1.838-.595 1.987-.445.15.149.273.026.273-.274 0-.3.407-.546.907-.546.499 0 1.038-.21 1.197-.467.159-.257.674-.468 1.146-.468.471 0 .983-.328 1.138-.73.154-.402.44-.635.634-.517.196.118.626-.079.958-.438.331-.359.436-.653.234-.654-.204 0 .367-.38 1.267-.844 1.083-.558 1.836-.694 2.23-.402.4.298.901.163 1.542-.417.521-.472 1.272-.906 1.667-.964.395-.059 1.008-.49 1.365-.96.355-.469.653-.665.662-.435.008.231.541-.148 1.184-.842.674-.728 1.189-1.004 1.215-.653.026.335.199.083.385-.56.241-.833.624-1.137 1.337-1.06.746.079.928-.083.714-.64-.244-.635-.135-.666.726-.204.824.441 1.065.407 1.291-.18.152-.396.569-.721.928-.721.358 0 .651-.211.651-.468s.316-.468.701-.468c.386 0 .702-.223.702-.495s.201-.371.446-.219c.247.152.801-.263 1.234-.922.431-.659.889-1.093 1.016-.966.281.281 2.256-2.156 2.112-2.604-.057-.173.259-.598.701-.944.715-.56.736-.544.196.147-.355.453-.425.889-.168 1.048.241.15.799-.278 1.24-.951.441-.672.568-1.079.284-.904-1.651 1.022.11-.921 3.691-4.068 2.551-2.243 4.083-3.315 4.008-2.805-.067.454-.333.825-.593.825-.688 0-4.816 3.795-4.816 4.427 0 .296-.187.423-.415.282-.228-.142-.658.038-.957.398-1.526 1.838.603.892 2.294-1.02 1.079-1.219 2.733-2.765 3.676-3.434.943-.671 1.657-1.476 1.586-1.789-.07-.313.054-.457.277-.319.521.323 3.479-2.711 3.054-3.134-.175-.176.019-.32.433-.32.412 0 .901-.243 1.084-.54.22-.354.109-.423-.322-.2-.361.187-.026-.199.746-.857.771-.658 1.402-1.426 1.402-1.708 0-.281.353-.769.785-1.085.506-.369.645-.8.391-1.209-.493-.799 2.16-4.237 3.228-4.183.482.024.536.118.155.273-.321.129-.577.481-.569.78.019.657 1.855-1.457 1.855-2.134 0-.271-.3-.224-.701.109-1.03.854-.826-.051.316-1.403.652-.77 1.058-.969 1.194-.582.113.324.421.455.684.292.301-.186.245-.438-.153-.684-.528-.326-.524-.49.018-.993.485-.452.566-.457.319-.02-.181.321-.142.584.088.584.769 0 1.037-.61.534-1.215-.37-.446.101-1.535 1.838-4.251 1.284-2.008 3.398-5.65 4.697-8.093 1.298-2.443 2.524-4.409 2.724-4.37.201.04.674-.264 1.051-.673.609-.662.595-.712-.117-.438-1.033.396-1.011.009.132-2.358.515-1.064.936-2.248.936-2.631 0-.384.21-.827.467-.986.257-.159.468-.685.468-1.169s.232-1.024.518-1.199c.353-.219.411.015.183.732-.208.656-.159.944.131.764.471-.29 3.636-9.825 3.981-11.986.102-.643.307-1.484.453-1.87.625-1.645.783-3.236.346-3.506-.257-.16-.469.073-.469.517s-.131.677-.29.517c-.587-.586.278-2.647.996-2.371.546.209.69-.123.664-1.536-.026-1.436-.115-1.613-.435-.869-.366.853-.402.833-.402-.233 0-1.377.767-3.438.87-2.338.119 1.275.867-1.07.895-2.806.019-1.221-.09-1.458-.428-.935-.339.524-.454.275-.46-.989-.004-.991.38-2.182.928-2.879.605-.769.913-1.822.873-2.985l-.061-1.797-.303 1.637c-.166.9-.301-4.103-.3-11.118.002-7.016.151-12.381.332-11.923.455 1.153.397-1.528-.074-3.377-.337-1.33-.362-1.342-.459-.234l-.102 1.169-.374-1.169c-.549-1.715-.549-3.85 0-2.571.313.728.402.521.402-.936 0-1.028-.181-2.291-.402-2.805l-.402-.935-.065.935-.066.935-.402-.935c-.612-1.425-.583-4.394.035-3.507.492.707.472.41-.318-4.909-.153-1.029-.467-2.225-.699-2.658-.231-.433-.421-1.316-.421-1.96 0-1.297-.721-2.032-1.091-1.112-.17.419-.248.429-.274.03-.021-.306.151-.673.38-.816.422-.259-1.248-6.275-2.471-8.9-.363-.78-.735-1.838-.829-2.352-.093-.514-.464-.935-.825-.935-.361 0-.742-.316-.848-.702-.17-.623-.136-.623.304 0 .43.608.498.597.504-.094.013-1.448-1.043-3.273-1.508-2.607-.272.391-.317.241-.128-.431.332-1.181-.973-4.054-1.65-3.634-.246.152-.447.053-.447-.219s.223-.496.495-.496c.273 0 .363-.214.201-.475-.161-.261-.473-.364-.692-.228-.22.135-.975-.933-1.68-2.373-.936-1.914-1.131-2.712-.722-2.965.615-.38.226-1.907-.485-1.907-.246 0-.316-.211-.157-.468s.07-.467-.197-.467c-.268 0-.621-.539-.787-1.197-.206-.821-.522-1.112-1.01-.925-.57.219-.601.141-.153-.398.341-.411.382-.778.106-.949-.247-.153-.557-.014-.687.31-.131.323-.254.101-.273-.493-.022-.594-.226-.963-.456-.821-.231.143-.536-.044-.678-.416-.179-.466-.033-.588.473-.394.636.244.653.133.132-.84-.362-.676-.678-.89-.795-.539-.368 1.103-.827.581-.823-.936.004-1.099-.201-1.506-.736-1.467-.535.037-.683-.255-.53-1.053.12-.627-.015-1.104-.311-1.104-.287 0-.522-.304-.522-.675 0-.371-.407-.959-.904-1.308-.496-.348-.97-.938-1.052-1.312-.237-1.087-2.719-4.654-3.238-4.654-.259 0-.356-.188-.213-.418.142-.231-.086-.551-.508-.713-.421-.162-.631-.427-.467-.592.163-.163-.125-.594-.642-.955-.518-.362-.832-.833-.7-1.047.132-.213-.364-1.034-1.1-1.821-.737-.789-1.244-1.531-1.127-1.647.117-.117-.33-.569-.993-1.003-.662-.434-1.096-.967-.962-1.183.134-.217-.19-.625-.718-.907-.529-.283-.837-.716-.685-.962.152-.246-.042-.57-.433-.719-.389-.15-1.398-1.359-2.242-2.687-.843-1.326-1.695-2.482-1.892-2.568-.198-.086-.359-.46-.359-.833 0-.372-.316-.798-.702-.946-.385-.148-.701-.562-.701-.921 0-.358-.21-.651-.468-.651-.257 0-.467-.316-.467-.701 0-.386-.211-.702-.468-.702s-.467-.315-.467-.701c0-.386-.224-.701-.496-.701s-.363-.212-.203-.471c.16-.259-.028-.593-.418-.743-.39-.149-.945-.99-1.235-1.866-.289-.878-.72-1.596-.957-1.596-.238 0-.432-.276-.432-.614 0-.336-.379-1.02-.841-1.519-.923-.994-3.312-5.315-4.767-8.621-.509-1.157-1.126-2.42-1.37-2.806-2.489-3.928-11.257-25.888-11.257-28.191 0-.354-.146-.789-.325-.967-.179-.179-.365-.583-.413-.897-.048-.313-.873-3.411-1.834-6.883-1.757-6.348-3.649-13.862-4.477-17.767-.866-4.083-.959-4.418-1.386-4.932-.236-.285-.507-.924-.602-1.417-.095-.494-.447-1.53-.782-2.301-.337-.772-.668-1.683-.738-2.024a8.584 8.584 0 00-.467-1.403c-.187-.43-.373-.992-.413-1.249-.079-.514-.524-1.709-1.303-3.507-.28-.643-.56-1.442-.626-1.778-.065-.334-.498-1.176-.962-1.87-.463-.693-.796-1.419-.738-1.612.057-.193-.093-.351-.332-.351-.4 0-.996-1.279-1.245-2.672-.17-.943-3.493-6.2-4.656-7.363-.599-.598-.985-1.189-.862-1.314.125-.124-.466-.92-1.313-1.767-.848-.847-1.541-1.706-1.541-1.907 0-.201-.421-.674-.935-1.051-.515-.375-.935-.871-.935-1.1 0-.229-.788-1.109-1.753-1.955-.963-.845-1.681-1.674-1.593-1.841.087-.167-.229-.672-.702-1.122-.475-.451-.862-.674-.862-.497 0 .176-1.586-1.297-3.525-3.273-1.94-1.977-3.839-3.595-4.223-3.595-.384 0-.818-.314-.965-.699-.148-.383-.435-.595-.638-.47-.204.125-.496-.099-.649-.5-.154-.4-.492-.597-.75-.437-.26.16-.472.093-.472-.149 0-1.172-14.445-8.906-16.014-8.574-.193.041-.351-.135-.351-.392 0-.258-.157-.429-.35-.381-.193.047-1.166-.268-2.162-.702-.995-.433-2.113-.788-2.484-.788-.369 0-1.659-.301-2.865-.671-1.205-.368-2.945-.792-3.866-.941-1.692-.273-2.557-3.602-1.341-5.167.474-.612.322-19.405-.157-19.405-.202 0-.284-1.052-.183-2.338.101-1.285.041-2.337-.135-2.337-.175 0-.284-1.368-.241-3.04.043-1.671-.047-3.039-.199-3.039-.152 0-.303-1.42-.334-3.156-.03-1.736-.332-4.418-.669-5.961-.338-1.543-.566-3.069-.509-3.39.059-.322-.093-.585-.338-.585-.244 0-.34-.397-.214-.882.128-.485.012-1.018-.257-1.184-.267-.166-.369-.61-.224-.988s.027-.686-.263-.686c-.329 0-.416-.441-.233-1.173.184-.73.012-1.605-.458-2.321-.414-.631-.753-1.657-.753-2.276 0-1.966-.566-4.045-1.023-3.76-.243.15-.384-.012-.314-.36.206-1.008-.505-3.202-1.037-3.202-.268 0-.37-.188-.228-.419.143-.23-.056-.539-.439-.687-.385-.147-.699-.556-.699-.908 0-.353-.474-.889-1.052-1.191a241.654 241.654 0 01-3.156-1.699c-2.058-1.123-7.056-1.545-10.053-.849zm6.015 13c.222 1.028.576 2.29.786 2.804.21.515.493 1.567.627 2.338.135.772.476 2.455.758 3.74 2.483 11.308 4.542 45.906 2.836 47.612-.281.281-2.195.576-4.253.655-4.477.174-4.248.478-5.354-7.12-.412-2.829-1.28-7.563-1.927-10.52-.649-2.958-1.362-6.219-1.584-7.248a65.842 65.842 0 00-.876-3.506c-.259-.9-.883-3.215-1.387-5.144-1.007-3.847-2.569-8.665-4.519-13.938-1.833-4.955-.651-6.933 5.605-9.378l4.208-1.644c3.174-1.239 4.603-.86 5.08 1.348zm5.562 67.56c3.281.239 6.753.635 7.715.88.962.245 2.906.693 4.32.996 26.56 5.697 46.37 27.741 54.41 60.548 9.935 40.535 20.455 63.221 42.609 91.877 14.047 18.171 23.729 38.106 27.819 57.278.359 1.678.86 4.776 1.667 10.286 1.426 9.747.75 32.958-1.193 40.913-.219.9-.748 3.214-1.174 5.143-8.05 36.373-40.006 69.793-76.446 79.944-1.157.323-2.63.75-3.273.95-11.346 3.527-31.599 3.507-49.095-.046-7.705-1.566-17.705-1.562-25.482.009-13.68 2.762-32.092 3.62-40.445 1.884-17.635-3.664-26.431-7.04-39.421-15.127-21.897-13.631-40.653-38.539-47.568-63.172-3.311-11.791-4.101-17.481-4.485-32.263-.258-9.901-.078-12.955 1.302-21.975 3.622-23.713 15.017-47.217 34.907-72.006 11.776-14.675 23.761-38.844 31.073-62.655 2.896-9.434 3.58-12.001 5.107-19.17.275-1.286.658-2.864.853-3.507.195-.643.621-2.116.946-3.273 8.437-30.101 26.862-49.337 53.289-55.634 5.225-1.245 7.085-1.556 11.156-1.865a434.74 434.74 0 004.975-.398c.257-.03 3.153.142 6.434.383zM143.906 321.861c-1.675.679-1.882 1.124-4.901 10.575-.253.79-.46 1.886-.46 2.434 0 .548-.191 1.48-.426 2.07-2.038 5.134-1.244 24.716 1.204 29.699 3.135 6.384 10.248 2.575 9.112-4.878-1.362-8.932-1.485-10.477-1.215-15.33.324-5.823.991-9.235 3.085-15.768 2.255-7.039-.704-11.111-6.399-8.802zm263.493 3.634c0 1.466-.225 1.296-.655-.495-.208-.869-.151-1.222.168-1.024.268.166.487.849.487 1.519zm-257.113 63.98c-4.167 3.507.158 11.011 5.515 9.569 3.149-.847 4.225-3.947 2.665-7.681-1.354-3.241-5.448-4.186-8.18-1.888zm243.398 27.637c-.501.5-.359 1.642.163 1.32.261-.161.365-.471.23-.689-.134-.217.02-.502.344-.632.324-.131.36-.254.081-.274-.28-.021-.648.103-.818.275z"
        fill="#080806" />
    <path fill-rule="evenodd" clip-rule="evenodd"
        d="M251.814 34.195c.854.107 1.718.107 2.572 0 .707-.107.129-.195-1.286-.195-1.414 0-1.993.088-1.286.195zm-5.961 81.954c-5.475.963-8.764 1.655-13.092 2.755-2.671.679-8.375 3.09-11.923 5.039-17.249 9.478-28.78 24.286-35.078 45.045l-1.632 5.377c-.312 1.028-.935 3.553-1.384 5.611-5.754 26.351-17.547 54.75-30.581 73.642-2.818 4.085-10.544 14.718-11.891 16.365-.316.386-1.306 1.753-2.202 3.039-.896 1.286-1.758 2.443-1.917 2.572-1.128.911-10.467 16.407-12.541 20.807-3.282 6.963-4.492 9.764-5.951 13.767-8.474 23.263-9.828 53.393-3.372 75.071 1.147 3.852 3.268 10.394 3.638 11.222.23.514.782 1.776 1.226 2.805 8.97 20.76 23.327 38.08 41.368 49.909 4.625 3.032 18.359 10.174 19.565 10.174.305 0 .971.21 1.482.467l1.858.936c.511.257 1.25.467 1.643.467.392 0 1.079.199 1.525.441 1.243.673 8.882 2.387 16.77 3.76 3.725.649 19.978.641 24.487-.011l6.78-.985c1.8-.261 4.746-.764 6.546-1.116 9.354-1.826 18.8-1.897 25.497-.19 11.786 3.001 28.004 3.742 40.431 1.845 42.689-6.517 79.517-41.6 88.6-84.4 2.122-10.003 2.487-13.632 2.531-25.121.046-11.687-.259-15.419-2.27-27.714-.45-2.751-1.821-8.023-3.163-12.157-1.003-3.091-3.028-8.822-3.634-10.287-1.648-3.983-7.972-16.286-9.849-19.162-1.272-1.948-2.314-3.652-2.314-3.784 0-.295-4.717-7.354-5.132-7.679-1.834-1.438-17.614-24.03-21.392-30.626-3.688-6.44-7.608-13.868-7.608-14.414 0-.153-.963-2.338-2.141-4.856-1.177-2.517-2.565-5.628-3.087-6.914a240.788 240.788 0 00-1.349-3.273c-.561-1.306-5.819-17.361-6.431-19.638-1.876-6.978-4.077-15.528-4.814-18.703-.994-4.29-1.757-7.073-2.304-8.416-.209-.515-.833-2.198-1.385-3.741-2.626-7.335-7.91-17.028-12.067-22.13-4.408-5.412-15.045-15.042-16.616-15.042-.157 0-1.394-.691-2.749-1.536-6.184-3.855-12.313-6.334-19.297-7.806a105.459 105.459 0 01-4.442-1.031c-2.242-.604-17.458-.892-20.339-.384zm-95.268 206.452c1.934 2.044 1.958 3.524.148 8.957-3.007 9.019-3.61 18.435-1.811 28.27 1.556 8.509-1.959 12.658-8.054 9.505-5.527-2.858-6.254-25.243-1.32-40.672 2.647-8.276 6.79-10.551 11.037-6.06zM98 360.925c.004 1.286.095 1.757.202 1.046.108-.711.106-1.763-.005-2.337-.112-.576-.2.005-.197 1.291zm312.799-.234c0 1.158.091 1.631.202 1.053a6.636 6.636 0 000-2.105c-.111-.578-.202-.105-.202 1.052zm-254.104 27.601c3.527 2.15 4.329 8.045 1.426 10.487-5.233 4.403-13.386-3.866-8.977-9.106 2.107-2.503 4.879-3.009 7.551-1.381zm93.483 85.881a6.63 6.63 0 002.104 0c.579-.111.105-.202-1.052-.202s-1.631.091-1.052.202zm7.247-.007c.45.117 1.187.117 1.637 0 .45-.118.082-.214-.818-.214-.901 0-1.269.096-.819.214zm-49.562 3.754c.854.106 1.718.106 2.571 0 .708-.108.129-.196-1.285-.196-1.415 0-1.993.088-1.286.196zm75.045.002c.836.104 2.203.104 3.039 0 .836-.103.152-.188-1.52-.188-1.671 0-2.355.085-1.519.188z"
        fill="#C2DA62" />
    <path fill-rule="evenodd" clip-rule="evenodd"
        d="M249.36 46.995c-10.274 2.93-12.012 5.662-8.448 13.283.796 1.7 2.308 6.478 3.553 11.221l2.085 7.949c1.775 6.773 3.155 13.882 4.155 21.418.233 1.75.535 3.295.672 3.433.651.65 7.334-.423 7.327-1.177-.006-.664-.067-.672-.46-.062-.348.538-.454.375-.454-.701 0-.998.12-1.213.416-.747 1.735 2.741.885-23.635-1.182-36.659l-.962-6.078c-.121-.772-.404-1.824-.63-2.338-.224-.514-.506-1.777-.625-2.805-.859-7.408-1.278-7.926-5.447-6.737zm3.404 68.567c1.229.096 3.123.095 4.208-.004 1.084-.098.079-.176-2.235-.175-2.315.001-3.203.082-1.973.179zm-7.028.445c.45.117 1.186.117 1.637 0 .45-.118.081-.214-.819-.214-.9 0-1.268.096-.818.214zm24.898 1.548c.514.221 1.251.402 1.637.402.441 0 .355-.148-.234-.402-.514-.221-1.251-.402-1.637-.402-.442 0-.355.148.234.402zm20.033 8.225c.98.665 1.88 1.111 1.999.992.222-.222-2.893-2.203-3.465-2.203-.173 0 .487.544 1.466 1.211zm-82.717 6.854l-1.373 1.52 1.52-1.374c1.416-1.28 1.734-1.666 1.373-1.666-.081 0-.764.684-1.52 1.52zm-6.979 6.892c-.737.769-1.25 1.473-1.14 1.564.11.091.8-.538 1.531-1.398 1.654-1.942 1.41-2.046-.391-.166zm120.473 24.809c.273.786.584 1.341.69 1.235.232-.232-.65-2.661-.966-2.661-.122 0 .002.642.276 1.426zm3.964 13.537c.37 2.016.636 2.397.626.896-.003-.622-.214-1.446-.467-1.832-.323-.493-.371-.216-.159.936zm-144.08 6.546c-.178.807-.225 1.567-.106 1.685.119.119.35-.455.515-1.276.39-1.949.012-2.327-.409-.409zm147.993 8.688c.004.493.221 1.212.482 1.598.347.512.39.323.161-.701-.384-1.72-.652-2.093-.643-.897zm7.509 22.639c-.002.673 1.318 3.35 1.352 2.742.009-.164-.291-1.005-.667-1.87-.376-.865-.683-1.258-.685-.872zm1.401 3.507c0 .257.301.993.668 1.636.367.643.669.959.669.701 0-.257-.302-.993-.669-1.636-.367-.643-.668-.959-.668-.701zm4.643 10.15c0 .505 1.42 3.643 1.649 3.643.129 0-.091-.779-.488-1.729-.702-1.677-1.161-2.435-1.161-1.914zm5.844 11.592c.399.771.832 1.402.96 1.402.129 0-.093-.631-.492-1.402-.399-.772-.831-1.403-.96-1.403-.128 0 .094.631.492 1.403zm1.871 3.273c.398.771.831 1.402.959 1.402.129 0-.093-.631-.492-1.402-.398-.772-.831-1.403-.959-1.403-.129 0 .093.631.492 1.403zm3.819 6.465c.471.856 1.153 1.802 1.517 2.104.888.736.015-.831-1.388-2.491l-.987-1.169.858 1.556zm12.516 17.535c.721.943 1.404 1.716 1.52 1.716.325 0-1.7-2.735-2.298-3.105-.292-.181.058.444.778 1.389zm10.082 14.013c0 .449 2.391 4.068 2.688 4.068.209 0-.536-1.264-2.058-3.494-.347-.507-.63-.766-.63-.574zm-254.508 15.546c-1.098 2.302-.944 2.694.205.517.521-.988.865-1.879.764-1.981-.101-.1-.537.558-.969 1.464zm272.283 24.797c.004.493.221 1.212.482 1.598.347.512.39.323.161-.701-.385-1.72-.652-2.093-.643-.897zm-281.661 1.382a4.485 4.485 0 00-.251 1.54c.022.429.225.159.452-.599.441-1.475.285-2.206-.201-.941zm282.622 3.06c.019.622.223 1.551.457 2.066.295.652.337.368.139-.936-.331-2.17-.644-2.763-.596-1.13zm-283.58 1.632c-.173.685-.224 1.336-.114 1.446.111.11.342-.36.513-1.046.173-.685.224-1.336.114-1.446-.111-.11-.342.36-.513 1.046zm284.529 3.511c.026.879.222 2.124.436 2.767.253.755.296.257.124-1.402-.304-2.943-.629-3.733-.56-1.365zm1.003 6.508c-.012 1.157.138 3.261.333 4.675.305 2.209.358 2.308.371.702.008-1.029-.142-3.133-.333-4.676-.318-2.562-.35-2.623-.371-.701zm-287.094 1.87c0 .9.096 1.268.214.818.117-.45.117-1.186 0-1.636-.118-.45-.214-.082-.214.818zm-.443 4.442c.003 1.286.095 1.757.202 1.046.108-.712.105-1.764-.006-2.338-.111-.575-.2.006-.196 1.292zm26.184 0c.003 1.286.095 1.757.202 1.046.108-.712.105-1.764-.006-2.338-.111-.575-.2.006-.196 1.292zm11.259 4.676c.001 2.571.079 3.564.174 2.205.095-1.359.095-3.463-.002-4.675-.096-1.214-.173-.102-.172 2.47zm251.098 3.506c0 3.472.074 4.892.164 3.157.09-2.104.09-4.209 0-6.313-.09-1.735-.164-.315-.164 3.156zm-262.363.936c0 1.157.091 1.63.202 1.052a6.63 6.63 0 000-2.104c-.111-.579-.202-.106-.202 1.052zm-26.166 6.312c.002 1.543.09 2.118.194 1.277.104-.84.101-2.102-.005-2.805-.106-.702-.192-.015-.189 1.528zm288.023 2.805c.002 1.543.09 2.118.194 1.278.104-.841.102-2.103-.005-2.806-.106-.702-.191-.015-.189 1.528zm-248.818 1.014c-.041.814-.196 1.866-.343 2.338-.254.808-.24.81.262.028.293-.455.447-1.507.344-2.338l-.188-1.509-.075 1.481zm-38.774 1.558c0 .9.096 1.268.214.818.117-.45.117-1.186 0-1.636-.118-.45-.214-.082-.214.818zm286.746 5.143c-.18 1.064-.229 2.032-.109 2.151.12.12.358-.658.53-1.73.171-1.072.219-2.04.108-2.151-.111-.112-.349.666-.529 1.73zm-.901 5.411c-.173.685-.224 1.336-.114 1.446.111.11.341-.36.513-1.046.173-.685.224-1.336.114-1.446-.111-.11-.342.36-.513 1.046zm-.936 4.676c-.173.685-.223 1.336-.113 1.446.111.11.341-.36.513-1.046.173-.685.223-1.336.114-1.446-.112-.11-.342.36-.514 1.046zm-242.58 6.609c.581.112 1.423.107 1.87-.009.447-.117-.029-.21-1.057-.204-1.029.005-1.395.101-.813.213zm239.559 4.396c-.288.827-.442 1.585-.342 1.685.101.1.418-.495.706-1.32.288-.826.442-1.585.342-1.684-.101-.101-.418.494-.706 1.319zm-244.537.973c-.03 1.206.112 2.297.315 2.422.204.126.297-.545.207-1.492-.273-2.892-.465-3.232-.522-.93zm11.744 1.314c0 .9.096 1.268.214.818.117-.45.117-1.187 0-1.637-.118-.45-.214-.081-.214.819zm-1.472 3.919l-1.128 1.458 1.337-1.272c.737-.699 1.244-1.355 1.13-1.458-.116-.103-.718.47-1.339 1.272zm228.464 7.549c-.689 1.407-1.154 2.559-1.033 2.559.315 0 2.672-4.733 2.463-4.944-.096-.095-.739.978-1.43 2.385zm-2.433 4.429c-.399.772-.621 1.403-.492 1.403.128 0 .561-.631.959-1.403.399-.771.621-1.403.492-1.403-.128 0-.561.632-.959 1.403zm-1.458 2.455c-1.609 2.73-1.715 2.963-.895 1.987.95-1.132 1.768-2.572 1.462-2.572-.123 0-.378.263-.567.585zm-10.759 15.175c-1.51 1.724-2.505 2.986-2.209 2.806.661-.402 5.487-5.941 5.177-5.941-.121 0-1.457 1.411-2.968 3.135zm-234.894 1.219c0 .081.684.764 1.519 1.52l1.52 1.373-1.374-1.519c-1.279-1.417-1.665-1.735-1.665-1.374zm228.164 6.283l-3.964 4.091 4.091-3.964c3.8-3.682 4.304-4.218 3.964-4.218-.07 0-1.911 1.841-4.091 4.091zm-218.111 3.857c1.004 1.029 1.931 1.871 2.059 1.871.129 0-.588-.842-1.592-1.871-1.004-1.028-1.931-1.87-2.06-1.87-.128 0 .588.842 1.593 1.87zm207.284 5.297c-3.847 2.992-4.577 3.74-1.787 1.83 2.184-1.495 5.551-4.292 5.143-4.272-.129.007-1.639 1.106-3.356 2.442zm-11.723 7.827c-.964.51-1.754 1.03-1.754 1.158 0 .128.842-.197 1.871-.722 1.028-.525 1.87-1.056 1.87-1.178 0-.307-.003-.305-1.987.742zm-172.884 2.535c0 .321 2.862 1.74 3.076 1.526.102-.102-.549-.534-1.446-.962-.896-.428-1.63-.682-1.63-.564zm158.594 4.299c-1.11.392-1.934.796-1.833.897.214.213 4.551-1.211 4.551-1.495 0-.292-.532-.175-2.718.598zm-75.471 2.828c1.099.1 2.782.099 3.741-.002.957-.101.057-.181-2-.18-2.058.002-2.841.084-1.741.182zm-4.683.456c.581.112 1.423.108 1.871-.009.446-.117-.029-.209-1.058-.204-1.029.005-1.395.101-.813.213zm11.45-.008c.45.117 1.187.117 1.637 0 .45-.118.081-.214-.819-.214-.9 0-1.268.096-.818.214zm-25.366 2.015c-1.571.504.127.504 2.104 0 1.261-.32 1.284-.357.234-.366-.643-.004-1.695.161-2.338.366zm75.747-.006c-.478.304-.105.356 1.169.161 2.311-.355 2.705-.625.896-.615-.75.003-1.679.208-2.065.454zm-82.994.965c-.922.251-.442.292 1.403.12 1.543-.144 2.893-.34 3-.436.348-.313-2.96-.076-4.403.316zm78.675-.16c.581.112 1.422.107 1.87-.01.446-.117-.029-.209-1.058-.203-1.029.005-1.394.1-.812.213zm-97.013.949c1.23.096 3.123.095 4.208-.004 1.085-.098.08-.176-2.235-.175-2.314.001-3.203.082-1.973.179zm8.651 0c1.36.094 3.464.094 4.676-.003 1.213-.095.102-.173-2.47-.171-2.572.001-3.564.079-2.206.174zm66.369-.007c.83.103 2.303.105 3.273.003.971-.101.292-.186-1.509-.188-1.8-.002-2.593.081-1.764.185zm12.181.004c1.098.1 2.782.099 3.74-.002.958-.1.058-.181-2-.18-2.057.002-2.84.084-1.74.182zm-83.708 11.677a6.63 6.63 0 002.104 0c.578-.111.105-.202-1.052-.202s-1.631.091-1.052.202zm6.779-.007c.451.117 1.187.117 1.637 0 .45-.118.082-.214-.818-.214-.9 0-1.269.096-.819.214z"
        fill="#9B7E50" />
    <path fill-rule="evenodd" clip-rule="evenodd"
        d="M249.593 46.468c-3.477 1.05-5.377 1.792-5.377 2.097 0 .128.579.007 1.286-.27 2.595-1.017 7.345-2.201 7.771-1.937.242.148.289.028.105-.269-.405-.658-.327-.665-3.785.379zm4.266 2.354c.167 1.157.486 2.458.708 2.892.222.432.404 1.63.404 2.66 0 1.031.188 1.99.418 2.133.23.141.521 1.048.646 2.014.127.966.566 3.86.979 6.432 1.046 6.522 1.787 15.334 2.144 25.483l.304 8.65.092-7.593c.134-11.03-1.785-29.625-3.699-35.844-.229-.746-.417-1.943-.417-2.66 0-.719-.21-1.436-.467-1.595-.258-.16-.472-.961-.475-1.782-.004-.82-.217-1.807-.475-2.193-.326-.49-.375-.067-.162 1.403zm-13.959 2.3c-.841.75-1.423 1.434-1.294 1.519.128.085.937-.529 1.796-1.364 1.944-1.89 1.568-2.006-.502-.156zm3.447 17.338c0 .386.181 1.122.402 1.637.253.589.402.675.402.233 0-.385-.181-1.122-.402-1.636-.254-.59-.402-.676-.402-.234zm5.851 24.547c.157 1.03.363 1.958.457 2.066.355.4.089-2.103-.318-3-.294-.653-.336-.369-.139.934zm.935 5.611c.157 1.029.363 1.958.458 2.066.354.401.088-2.103-.318-3-.295-.653-.337-.37-.14.934zm8.571 2.221c-.006 1.153-.117 1.35-.46.818-.348-.537-.454-.375-.454.702 0 1.076.106 1.239.454.701.39-.604.454-.591.46.09.005.593-.492.836-1.98.97l-1.987.179 2.221.082 2.221.082v-2.572c0-1.414-.106-2.571-.234-2.571-.129 0-.237.683-.241 1.519z"
        fill="#845D45" />
    <path fill-rule="evenodd" clip-rule="evenodd"
        d="M257.615 64.953c.156 1.029.362 1.958.457 2.066.354.4.089-2.103-.318-3-.295-.653-.337-.37-.139.934zm1.691 15.196c0 1.157.091 1.63.202 1.052a6.572 6.572 0 000-2.104c-.111-.578-.202-.105-.202 1.052zm12.179 7.481c0 1.672.085 2.356.188 1.52.104-.836.104-2.203 0-3.04-.103-.835-.188-.151-.188 1.52zm-12.161 13.794c.002 1.543.09 2.118.194 1.277.104-.84.101-2.103-.005-2.805-.106-.703-.192-.015-.189 1.528zm-8.92.701c0 .9.095 1.268.213.818.117-.45.117-1.186 0-1.636-.118-.45-.213-.082-.213.818zm1.884 2.673c.712.108 1.764.106 2.338-.005.575-.111-.006-.2-1.292-.197-1.286.004-1.757.095-1.046.202zm1.169 10.282c.581.113 1.422.108 1.87-.009.447-.117-.029-.209-1.058-.203-1.028.004-1.394.1-.812.212zm-6.544.476c.841.104 2.103.102 2.806-.005.702-.106.015-.191-1.528-.189-1.543.002-2.118.09-1.278.194zm14.837.123c1.8.229 4.01.53 4.91.671 1.342.209 1.445.174.57-.195-.587-.248-2.796-.55-4.909-.671l-3.844-.22 3.273.415zm-20.105.473l-.935.402.935-.022c.514-.013 1.566-.183 2.338-.38l1.402-.356-1.402-.024c-.772-.011-1.824.159-2.338.38zm-4.442.935c-.893.578.068.578 1.87 0l1.169-.374-1.169-.039c-.643-.023-1.484.164-1.87.413zm32.028-.164c.515.107 2.164.52 3.666.916 1.502.397 2.842.611 2.977.476.136-.136-.356-.38-1.094-.543a36.934 36.934 0 01-2.696-.723c-.746-.236-1.903-.405-2.572-.375-.922.042-.99.101-.281.249zm-35.769 1.121c-.512.347-.322.39.702.161 1.719-.385 2.092-.652.896-.643-.493.003-1.212.221-1.598.482zm-3.039.914c-.589.253-.676.402-.234.402.386 0 1.122-.181 1.637-.402.589-.254.675-.402.234-.402-.386 0-1.123.181-1.637.402zm47.458.233c2.135.822 2.975.81 1.169-.016-.771-.354-1.718-.636-2.104-.629-.385.008.035.298.935.645zm-51.666 1.373c-3.072 1.478-2.474 1.524.759.057 1.382-.628 2.304-1.151 2.046-1.163-.257-.012-1.519.486-2.805 1.106zm57.979 1.261c2.057 1.04 4.008 2.113 4.336 2.385.328.27.717.37.864.223.256-.256-2.622-1.886-6.538-3.703-3.331-1.546-2.44-.817 1.338 1.095zm-63.941 1.608c-1.747.948-1.641 1.344.117.434.772-.399 1.403-.825 1.403-.947 0-.301-.05-.284-1.52.513zm-4.83 2.948c-3.098 1.967-8.392 6.301-10.895 8.922-4.596 4.811-4.384 4.811.646-.001 3.086-2.953 7.189-6.399 9.118-7.659 1.929-1.26 3.707-2.468 3.951-2.683.942-.831-.09-.311-2.82 1.421zm74.615-1.691c0 .117 1.297 1.013 2.881 1.991 11.155 6.885 25.141 24.516 27.776 35.014.168.672.494 1.338.722 1.48.588.363.556.24-.8-3.097-5.74-14.126-16.998-27.629-28.825-34.572-.965-.567-1.754-.934-1.754-.816zm-91.96 17.848c-1.197 1.455-3.47 5.035-2.84 4.474.532-.474 4.551-6.079 4.358-6.079-.109 0-.792.723-1.518 1.605zm-7.64 12.439c-1.137 2.227-2.046 4.531-1.622 4.106.446-.445 3.027-5.993 2.788-5.993-.112 0-.637.849-1.166 1.887zm-3.196 7.264c-.553 1.442-.994 2.866-.981 3.165.012.298.541-.805 1.174-2.452.633-1.647 1.075-3.071.982-3.166-.095-.093-.623 1.01-1.175 2.453zm135.227 3.707c.12.515.74 2.724 1.376 4.91.637 2.186 1.296 4.577 1.466 5.315.169.738.425 1.225.568 1.082.301-.302-2.029-8.78-2.981-10.839-.357-.771-.551-.982-.429-.468zm-137.783 3.686c-.175.458-.306 1.184-.289 1.613.019.517.182.399.481-.349.248-.621.379-1.347.29-1.613-.089-.266-.305-.109-.482.349zm-.935 3.273c-.175.458-.306 1.184-.29 1.613.02.517.183.399.482-.349.248-.621.379-1.347.29-1.613-.089-.266-.305-.109-.482.349zm-.963 3.346c-.16.418-.272 1.216-.249 1.774.031.718.174.555.495-.558.465-1.617.274-2.569-.246-1.216zm143.333 2.554c-.007.643.167 1.589.388 2.104l.402.935-.014-.935c-.007-.515-.182-1.461-.388-2.104l-.374-1.169-.014 1.169zm-144.26 1.501c-.158.589-.267 1.491-.245 2.005.022.515.232.115.467-.888.456-1.943.262-2.922-.222-1.117zm145.155 2.473c-.014.514.179 1.251.428 1.636.601.93.601-.238 0-1.636l-.402-.935-.026.935zm1.095 3.741c.36 2.528 1.374 6.093 1.528 5.377.083-.386-.271-2.069-.788-3.741-.516-1.672-.849-2.408-.74-1.636zm-149.239 5.832c-.822 2.633-.685 3.47.169 1.033.389-1.111.641-2.218.561-2.46-.081-.243-.409.4-.73 1.427zm151.195 1.882c.35 2.085 1.648 6.172 1.884 5.935.166-.165-.772-3.597-1.751-6.402-.322-.926-.35-.829-.133.467zm-152.666 3.086c-.269.974-.405 1.856-.302 1.958.103.103.407-.61.676-1.584.268-.973.404-1.855.301-1.957-.103-.103-.407.61-.675 1.583zm-1.365 4.481c-.278 1.094-.424 2.069-.326 2.167.098.099.418-.705.709-1.785s.437-2.056.326-2.168c-.112-.111-.432.692-.709 1.786zm156.084-.817c0 2.352 11.344 30.69 12.016 30.017.091-.091-1.02-2.773-2.471-5.958-2.769-6.085-5.154-12.169-7.674-19.587-1.442-4.241-1.871-5.267-1.871-4.472zM174.159 207.4a92.419 92.419 0 01-1.92 5.483c-.549 1.384-.919 2.595-.822 2.691.188.189 2.093-4.658 3.318-8.442.411-1.265.656-2.39.546-2.499-.11-.11-.615 1.135-1.122 2.767zm-4.903 12.871c-.934 2.238-1.623 4.144-1.532 4.236.091.091.932-1.663 1.868-3.9.936-2.236 1.625-4.141 1.531-4.236-.093-.093-.934 1.661-1.867 3.9zm-2.806 6.484c-1.099 2.303-.944 2.694.205.518.521-.989.865-1.88.764-1.982-.102-.1-.538.558-.969 1.464zm-2.462 5.223c-1.739 3.529-2.079 4.34-1.821 4.34.336 0 3.581-6.619 3.356-6.843-.111-.111-.802 1.015-1.535 2.503zm180.288-.048c0 .763 10.164 18.487 11.097 19.35.698.645.701.607.05-.468-3.384-5.588-7.136-12.113-8.805-15.312-1.869-3.583-2.342-4.303-2.342-3.57zm-184.949 8.713a764.677 764.677 0 01-4.723 8.065c-1.378 2.315-2.016 3.622-1.419 2.905.599-.716 2.429-3.662 4.07-6.546 1.282-2.259 2.573-4.513 3.872-6.762.49-.836.783-1.52.654-1.52s-1.234 1.736-2.454 3.858zm196.888 12.04c.74 1.346 8.041 11.509 13.1 18.235 13.642 18.138 22.647 36.735 26.6 54.94.614 2.828 1.135 4.491 1.157 3.693.022-.797-.145-2.059-.369-2.805-.226-.746-.67-2.513-.988-3.928-3.542-15.753-14.154-36.919-26.365-52.587-1.798-2.307-5.357-7.146-7.909-10.754-4.332-6.124-6.177-8.522-5.226-6.794zm-206.594 3.507c-1.203 1.671-2.03 3.039-1.839 3.038.192 0 .933-.895 1.649-1.988a131.102 131.102 0 012.044-3.038c.409-.578.651-1.052.538-1.052-.114 0-1.19 1.368-2.392 3.04zm-3.14 4.325c-.378.45-1.068 1.449-1.532 2.221l-.844 1.402 1.218-1.402c1.19-1.372 2.284-3.04 1.993-3.04-.081 0-.456.369-.835.819zm-4.243 5.844c-2.356 3.065-2.42 3.156-2.169 3.156.128 0 1.108-1.157 2.176-2.571 1.067-1.415 1.847-2.572 1.732-2.572-.115 0-.897.894-1.739 1.987zm-4.718 6.312c-.824.96-1.441 1.988-1.194 1.988.096 0 .64-.632 1.211-1.403 1.127-1.524 1.116-1.903-.017-.585zm-2.715 3.858c-.549.771-.893 1.403-.765 1.403.129 0 .683-.632 1.232-1.403.55-.772.894-1.403.765-1.403s-.683.631-1.232 1.403zm-4.078 6.195c-4.396 6.856-6.833 11.104-6.541 11.396.1.099.775-.925 1.501-2.276 1.19-2.215 5.249-8.849 7.439-12.159.468-.707.744-1.286.612-1.286s-1.487 1.946-3.011 4.325zm259.665.103c.149.39.445.603.657.472.212-.131.477.239.589.821l.203 1.059.065-1.036c.036-.599-.327-1.243-.862-1.53-.754-.403-.874-.363-.652.214zm4.382 8.104c0 1.235 2.504 5.257 2.977 4.783.384-.383.338-.638-.175-.963-.385-.242-.487-.45-.23-.463.257-.011.091-.306-.368-.655-.46-.349-.795-.815-.744-1.037.143-.629-.579-2.04-1.043-2.04-.229 0-.417.169-.417.375zm-273.499 8.626a135.554 135.554 0 01-1.645 3.799c-.676 1.51-1.146 2.83-1.043 2.933.103.102.615-.818 1.139-2.046a992.521 992.521 0 011.71-3.985c.416-.964.644-1.753.505-1.753-.138 0-.437.473-.666 1.052zm-3.719 8.818c-.287.827-.442 1.585-.341 1.685.1.1.417-.495.706-1.32.287-.827.442-1.585.341-1.685-.1-.1-.417.495-.706 1.32zm-1.407 3.97c-.269.973-.405 1.855-.302 1.958.103.103.407-.61.676-1.584.269-.974.404-1.855.301-1.958-.102-.103-.406.61-.675 1.584zm-1.182 3.727c-.173.685-.223 1.337-.113 1.446.111.11.341-.36.513-1.046.173-.685.223-1.336.113-1.446-.111-.11-.341.36-.513 1.046zm-.935 3.273c-.173.685-.223 1.337-.113 1.446.111.11.341-.36.513-1.046.173-.685.223-1.336.113-1.446-.111-.11-.341.36-.513 1.046zm29.874 2.048c-.524.212-1.255.778-1.628 1.256-.641.824-.622.823.362-.015 2.945-2.512 7.394-1.112 8.762 2.756.364 1.029.671 1.481.682 1.005.089-3.722-4.464-6.507-8.178-5.002zm-30.951 2.029a76.292 76.292 0 00-.997 4.306c-.431 2.179-.71 4.015-1.93 12.714-.536 3.819-.593 21.389-.079 24.224.187 1.029.254-2.741.148-8.377-.233-12.518.999-24.67 3.311-32.655.279-.965.411-1.851.294-1.968-.117-.117-.453.673-.747 1.756zm293.818 1.696c.399 1.667.484 1.683.711.138.13-.885-.008-1.347-.401-1.347-.406 0-.505.388-.31 1.209zm-267.059 3.311c-.175.553-.214 1.111-.085 1.239.129.129.378-.218.553-.771.175-.553.214-1.111.085-1.239-.128-.129-.377.218-.553.771zm10.788 1.437c-.433 1.323-.692 2.502-.575 2.619.117.117.571-.866 1.009-2.186.438-1.319.697-2.498.575-2.619-.121-.123-.576.861-1.009 2.186zm256.929-.489c.055 2.682.695 3.833 1.105 1.986.235-1.059.116-1.821-.401-2.559-.729-1.041-.737-1.035-.704.573zm-268.652 2.325c-.175.553-.214 1.111-.085 1.239.129.129.377-.218.553-.771.175-.553.214-1.111.085-1.239-.128-.129-.377.218-.553.771zm258.407.468c-.011.643.154 2.01.367 3.039l.387 1.87.007-1.87c.003-1.029-.162-2.396-.367-3.039l-.375-1.169-.019 1.169zm-248.775 5.053c-.54 2.299-.955 5.101-.922 6.227.049 1.711.126 1.518.473-1.182.227-1.775.739-4.482 1.135-6.013.398-1.532.627-2.882.509-2.999-.117-.118-.656 1.667-1.195 3.967zm-10.276-2.715c-.038.385-.187 1.227-.329 1.87-.225 1.01-.187 1.055.271.337.291-.458.439-1.299.329-1.871-.111-.57-.232-.722-.271-.336zm270.299 1.402c-.008 1.329.713 3.879.795 2.806.029-.386.188-1.208.353-1.827.201-.748.132-1.021-.205-.813-.278.172-.601-.057-.72-.511-.139-.533-.218-.41-.223.345zm-271.158 4.442c.004 1.286.095 1.757.202 1.046.108-.711.105-1.763-.006-2.337-.111-.576-.199.005-.196 1.291zm261.088 2.104c.153 2.443.354 4.53.448 4.637.371.425.078-7.269-.31-8.143-.257-.577-.31.768-.138 3.506zm11.128 11.327c.006 7.014.076 12.066.158 11.224.081-.84.32-1.42.533-1.289 1.185.733 1.05-17.629-.157-21.113-.439-1.272-.543.883-.534 11.178zm-272.699-9.223c.005 1.029.101 1.395.213.813.112-.581.108-1.423-.009-1.87-.117-.447-.21.029-.204 1.057zm10.325 5.377c0 1.929.083 2.718.184 1.754.102-.965.102-2.543 0-3.507-.101-.964-.184-.175-.184 1.753zm-10.864-.662c.025 1.264.218 3.456.428 4.871.275 1.858.312 1.275.131-2.104-.261-4.878-.639-6.752-.559-2.767zm11.182 6.546c.004 1.007.213 2.147.464 2.533.312.479.364-.041.162-1.637-.37-2.916-.635-3.295-.626-.896zm-10.2 3.468c0 .643.169 1.695.374 2.338l.374 1.169v-1.169c0-.643-.168-1.695-.374-2.338l-.374-1.169v1.169zm261.089 5.468c-.18 3.008-.53 6.532-.779 7.832-2.03 10.613-2.531 12.793-4.024 17.505-.358 1.128-.56 2.139-.45 2.249.246.245 2.357-6.646 3.106-10.143.304-1.415.727-3.308.941-4.208 1.137-4.78 2.455-18.703 1.77-18.703-.13 0-.384 2.46-.564 5.468zm-249.622-2.158c.309 3.929-.412 5.415-3.198 6.601-1.543.656-1.703.806-.647.602 3.537-.679 4.961-3.385 4.096-7.784l-.491-2.495.24 3.076zm-38.165 7.015c.026 1.393.219 3.059.428 3.702.225.692.276-.262.123-2.338-.309-4.166-.616-4.929-.551-1.364zm298.524-1.337c-.401.571-.712 1.781-.691 2.688.02.907.143 1.385.274 1.063.129-.324.409-.482.619-.352.211.131.455-.815.544-2.101.187-2.697.208-2.661-.746-1.298zm-297.548 7.611c-.012.771.159 1.823.38 2.337l.402.936-.022-.936c-.013-.514-.184-1.566-.38-2.337l-.357-1.403-.023 1.403zm296.1.872c-.18.958-.197 1.873-.038 2.032.159.161.29-.072.29-.516s.21-.677.468-.518c.581.359.603-1.166.03-2.071-.313-.495-.51-.214-.75 1.073zm-295.22 3.608c.019.622.224 1.551.457 2.066.295.652.337.368.139-.936-.33-2.17-.644-2.763-.596-1.13zm294.261 1.133c-.167.666-.173 1.341-.014 1.5.159.16.29-.073.29-.517s.21-.677.468-.518c.257.159.467-.027.467-.413 0-1.255-.9-1.294-1.211-.052zm-293.351 2.841c.003.494.221 1.213.481 1.598.347.512.391.323.162-.701-.385-1.719-.653-2.092-.643-.897zm.968 3.235c-.014.514.178 1.251.427 1.636.601.93.601-.238 0-1.636l-.402-.935-.025.935zm36.417 1.031c-1.497 1.031-2.299 2.067-2.28 2.943.009.415.178.299.414-.286 1.084-2.685 5.48-3.922 7.903-2.225 3.46 2.425 2.9 9.969-.742 9.999-.462.004-1.155.214-1.541.468-.497.325-.225.377.935.179 6.488-1.11 5.042-11.875-1.596-11.875-1.064 0-2.457.359-3.093.797zm-34.573 4.65c-.017.687 3.318 8.678 3.533 8.462.088-.089-.667-2.15-1.679-4.581-1.011-2.431-1.846-4.177-1.854-3.881zm276.067.713c-.876 2.809-5.153 12.207-7.088 15.571-9.729 16.92-21.04 29.25-36.143 39.394-5.646 3.792-15.273 8.885-19.666 10.404a171.053 171.053 0 00-3.946 1.405c-.949.369-5.571 1.785-9.819 3.008-1.286.371-1.874.689-1.308.706.567.018 1.514-.155 2.104-.385.591-.231 2.021-.681 3.178-1 31.796-8.775 59.174-33.969 72.072-66.322.756-1.897 1.28-3.543 1.165-3.659-.116-.116-.362.279-.549.878zm-243.819.564c0 1.598 3.137 4.966 4.622 4.964.415 0 .037-.368-.841-.818-.878-.449-1.966-1.52-2.419-2.378-.885-1.682-1.362-2.302-1.362-1.768zm253.608 3.913a11.211 11.211 0 01-.686 1.631c-.238.446-.433 1.027-.433 1.29 0 .263-.451 1.437-1.001 2.607-.809 1.722-.885 2.232-.399 2.682.468.433.528.426.272-.028-.182-.321-.117-.584.143-.584.261 0 .62-.789.797-1.753.177-.965.516-1.88.753-2.034.238-.155.506-.681.599-1.169.092-.489.197-.889.235-.889.037 0 .143-.578.237-1.286.191-1.437-.127-1.725-.517-.467zm-281.109 6.049c.825 1.94 1.427 2.47.816.719-.289-.83-.717-1.628-.95-1.772-.234-.145-.174.33.134 1.053zm2.72 5.289c.779 1.543 1.522 2.806 1.651 2.806.128 0-.405-1.263-1.183-2.806-.779-1.543-1.522-2.805-1.651-2.805-.128 0 .405 1.262 1.183 2.805zm273.103.736c-1.052 1.949-1.912 3.641-1.912 3.759 0 .118-1.271 2.212-2.824 4.653-1.555 2.441-2.693 4.654-2.531 4.916.33.533 1.615-.31 1.615-1.06 0-.242.526-1.131 1.168-1.974.643-.844 1.169-1.998 1.169-2.568 0-.664.194-.916.54-.702.335.207.413.128.206-.206-.183-.297-.149-.54.076-.54.225 0 .882-.842 1.46-1.87.579-1.029.933-1.871.788-1.871-.145 0 .145-.409.645-.909.499-.499 1.049-1.655 1.221-2.567.17-.913.498-1.543.727-1.401.229.141.416.046.416-.211 0-1.549-1.1-.534-2.764 2.551zm-268.998 6.271c1.545 2.539 6.214 8.856 6.813 9.219.296.179-.006-.399-.67-1.287a344.47 344.47 0 01-3.703-5.12c-2.838-3.987-3.903-5.214-2.44-2.812zm259.806 9.19c-1.59 1.974-2.102 3.025-1.052 2.159.387-.319.831-.451.988-.294.156.156.423-.267.592-.94.169-.674.46-1.224.647-1.224.186 0 .339-.316.339-.702 0-.917.064-.959-1.514 1.001zm-251.757 1.784c1.2 1.643 4.212 4.926 4.192 4.569-.009-.187-1.114-1.507-2.454-2.933s-2.122-2.162-1.738-1.636zm247.935 2.982c-.893 1.111-1.301 2.017-1.073 2.386.381.616 2.824-2.093 2.824-3.131 0-.276.263-.608.584-.737.381-.155.327-.249-.155-.273-.407-.021-1.388.769-2.18 1.755zm-243.256 2.338c0 .21.526.876 1.169 1.481.643.604 1.169.889 1.169.633s-.526-.922-1.169-1.481-1.169-.844-1.169-.633zm6.748 6.39c1.569 1.543 3.795 3.51 4.948 4.371 2.025 1.511 2.016 1.496-.241-.465a516.759 516.759 0 01-4.948-4.371c-2.596-2.329-2.595-2.326.241.465zm224.919 4.337a654.95 654.95 0 01-4.135 3.779c-1.753 1.586-2.122 2.156-1.671 2.572.403.37.491.375.289.011-.337-.603 1.242-2.207 1.711-1.738.173.172.313.042.313-.289 0-.812 2.896-3.295 3.446-2.955.242.15.304.053.138-.215-.291-.47.375-1.282 1.315-1.605.355-.121.879-1.364.554-1.313-.042.007-.923.796-1.96 1.753zm-217.402 1.982c.335.543 6.075 4.433 8.879 6.018 2.666 1.507.747.058-4.586-3.465-2.523-1.665-4.455-2.814-4.293-2.553zm10.984 7.216c0 .129.631.561 1.402.96.772.398 1.403.621 1.403.492s-.631-.561-1.403-.96c-.771-.398-1.402-.62-1.402-.492zm7.013 3.759c0 .246 3.197 1.656 3.681 1.623.375-.025-2.861-1.805-3.33-1.831-.193-.01-.351.083-.351.208zm181.581 1.863c.193.502-.016.667-.747.59-.706-.076-1.053.175-1.143.826-.07.515-.008.672.137.351.146-.321.643-.584 1.103-.584 1.251 0 2.126-1.213 1.148-1.588-.548-.21-.69-.096-.498.405zm-177.305.004c.394.394 7.053 3.05 7.595 3.029.286-.012-1.257-.748-3.428-1.637-3.895-1.594-4.606-1.832-4.167-1.392zm79.653 3.993c3.343.232 6.961.639 8.039.907 1.079.268 2.446.466 3.039.439 3.117-.138-5.423-1.355-10.844-1.544l-6.312-.221 6.078.419zm-67.798.458c.515.221 1.356.396 1.871.389.751-.011.706-.088-.234-.389-1.599-.511-2.828-.511-1.637 0zm54.005.274l-2.104.65 1.87-.289c1.029-.159 3.238-.439 4.909-.622l3.04-.333-2.806-.028c-1.543-.015-3.752.266-4.909.622zm-50.925.39c.351.351 6.531 1.676 7.587 1.626.562-.025-.766-.437-2.952-.913-4.197-.915-4.954-1.031-4.635-.713zm44.612.739l-1.402.357 1.402.009c.772.005 1.929-.16 2.572-.366l1.169-.374-1.169.008c-.643.005-1.8.17-2.572.366zm33.198 0c.514.221 1.566.392 2.338.38l1.403-.023-1.403-.357c-.772-.196-1.824-.367-2.338-.38l-.935-.022.935.402zm39.743.468l-1.402.356 1.636.024c.9.011 2.058-.159 2.572-.38 1.244-.534-.705-.534-2.806 0zm32.626.459c-.828.447-1.372.947-1.208 1.112.165.165.018.299-.324.299-.343 0-.509.115-.368.256.404.403 4.135-1.704 3.845-2.173-.142-.231-.3-.395-.349-.364-.049.032-.767.424-1.596.87zm-109.652-.128c.581.112 1.423.107 1.87-.01.447-.117-.029-.209-1.057-.203-1.029.005-1.395.1-.813.213zm41.842-.009c.45.117 1.186.117 1.636 0 .45-.118.082-.214-.818-.214-.9 0-1.268.096-.818.214zm-72.591.594c1.146.386 5.489.652 5.105.315-.107-.095-1.563-.293-3.234-.44-1.906-.167-2.603-.12-1.871.125zm24.548.019l-2.338.32 2.338.019c1.286.009 2.969-.143 3.741-.339l1.402-.357-1.402.018c-.772.01-2.455.162-3.741.339zm52.368.027c1.028.213 2.396.374 3.039.359 1.856-.046-1.21-.743-3.273-.745l-1.636-.001 1.87.387zm24.08-.027l-1.637.345 1.87.006c1.029.003 2.502-.155 3.273-.351l1.403-.357-1.636.006c-.9.004-2.373.162-3.273.351zm-90.804.816c2.134.086 5.5.086 7.481-.001 1.982-.088.235-.159-3.879-.158-4.115 0-5.735.072-3.602.159zm76.426-.001c2.415.087 4.832.087 7.247 0 1.993-.088.363-.159-3.623-.159s-5.617.071-3.624.159zm37.403 5.107c-.324.129-.469.429-.324.664.398.643 1.012.515 1.314-.274.275-.718.045-.808-.99-.39zm-3.623 1.095c-.161.258.059.605.487.769.428.165.943.031 1.147-.297a.674.674 0 01.704-.33c.091.016.178.05.255.101.386.237.476.177.259-.174-.411-.664-2.454-.714-2.852-.069zm-60.042 1.568c.107.092.826.308 1.598.481 1.024.229 1.213.186.701-.161-.631-.427-2.768-.725-2.299-.32zm-45.972 3.435c.581.112 1.423.108 1.87-.009.447-.117-.029-.21-1.057-.204-1.029.005-1.395.101-.813.213zm72.468.007c.835.104 2.203.104 3.039 0 .836-.103.152-.188-1.52-.188-1.671 0-2.355.085-1.519.188zm8.182-.015c.45.117 1.187.117 1.637 0 .45-.118.082-.214-.819-.214-.9 0-1.268.096-.818.214z"
        fill="#5C6D2A" />
</svg>