<svg height="512" width="512" viewBox="0 0 512 512" xmlns="http://www.w3.org/2000/svg">
    <path
        d="M401.064 225.769C370 140.884 241.371 146.932 241.371 146.932c-59.315 3.655-115.57 29.6-131.433 77.837-23.467 71.358 53.412 190.566 104.407 258.852 7.105 9.514 16.535 15.661 26.702 18.521 19.592 5.51 41.919-1.187 55.61-19.521 50.995-68.287 128.594-190.759 104.407-256.852z"
        fill="#ed5469" />
    <path
        d="M402.064 224.769c-18.497-56.246-91.913-82.183-161.063-77.813 59.179 3.74 115.233 29.677 131.063 77.813 23.467 71.358-53.412 190.566-104.407 258.852-7.031 9.416-16.458 15.636-26.656 18.685 19.963 5.967 42.892-.253 56.656-18.685 50.995-68.286 127.874-187.494 104.407-258.852z"
        fill="#e63850" />
    <path
        d="M382.645 82.62c-8.415-1.73-34.838-2.035-34.838-2.035-9.639 1.591-19.728 5.021-29.064 11.514a34.936 34.936 0 01.42-6.568c.711-4.421-3.756-7.871-7.866-6.096-4.534 1.957-9.965 4.758-15.404 8.599.095-1.546.153-3.102.149-4.67-.084-33.036-22.886-61.302-34.125-73.232-3.312-3.515-8.91-3.501-12.204.031-11.178 11.987-33.836 40.368-33.752 73.404.004 1.498.066 2.984.16 4.462-5.436-3.839-10.864-6.638-15.396-8.594-4.111-1.775-8.577 1.676-7.867 6.096.313 1.949.491 4.148.42 6.568-23.089-16.057-50.773-13.385-64.902-10.48-5.098 1.048-8.044 6.421-6.137 11.264 5.91 15.009 20.363 45.273 45.342 60.148 27.509 16.381 65.621 16.873 82.645 2.626a13.122 13.122 0 0011.676.094c17.077 14.154 55.089 12.627 82.539-3.72 24.979-14.875 38.432-44.139 44.342-59.148 1.906-4.842-1.04-9.215-6.138-10.263z"
        fill="#bbf49b" />
    <path
        d="M383.645 81.62c-8.415-1.73-21.64-3.376-35.837-1.033 2.13.317 4.088.673 5.837 1.033 5.098 1.048 8.044 6.421 6.137 11.264-5.91 15.009-20.363 45.273-45.342 60.148-9.82 5.848-20.991 9.66-32.072 11.511 18.723 3.576 42.955-.127 62.072-11.511 24.979-14.875 39.432-45.139 45.342-60.148 1.907-4.843-1.039-10.216-6.137-11.264z"
        fill="#9be69d" />
    <g>
        <path
            d="M117.07 227.107c10.751-32.692 40.042-50.446 63.719-59.735 11.198 3.939 23.086 5.935 34.331 5.935 13.996 0 26.99-3.074 36.388-9.275a20.82 20.82 0 009.09.051c16.943 11.121 45.546 12.104 70.63 3.298 41.715 16.343 57.692 41.4 63.718 59.725a7.505 7.505 0 007.124 5.159 7.5 7.5 0 007.126-9.845c-8.738-26.569-29.794-48.712-60.003-63.513 25.969-15.962 40.936-46.416 47.575-63.28a15.805 15.805 0 00-.812-13.351 15.885 15.885 0 00-10.793-8.008c-13.288-2.733-37.037-5.127-59.461 5.237a13.19 13.19 0 00-17.371-6.961 96.955 96.955 0 00-5.257 2.459c-1.777-16.381-9.355-42.064-35.691-70.019A15.924 15.924 0 00255.836 0h-.04a15.92 15.92 0 00-11.56 5.043c-4.487 4.811-11.16 12.606-17.47 22.422a7.5 7.5 0 0012.619 8.11c5.706-8.878 11.752-15.94 15.82-20.302a.834.834 0 01.629-.274h.002a.83.83 0 01.628.271c28.879 30.654 32.058 57.842 32.084 68.107a65.573 65.573 0 01-.135 4.193 7.499 7.499 0 0011.813 6.585 76.81 76.81 0 0111.143-6.517 43.258 43.258 0 00-.117 4.673 7.5 7.5 0 0011.779 5.94c20.708-14.401 45.925-12.001 59.109-9.291.28.058.49.212.625.459.188.347.079.621.044.712-14.539 36.927-34.354 51.78-42.199 56.452-21.429 12.759-57.593 16.919-73.917 3.389a7.498 7.498 0 00-8.075-.966 5.623 5.623 0 01-4.99-.041 7.498 7.498 0 00-8.21.936c-16.281 13.625-52.492 9.486-73.994-3.318-7.844-4.671-27.658-19.522-42.2-56.452-.035-.09-.144-.364.044-.71a.885.885 0 01.626-.46c13.188-2.712 38.401-5.109 59.108 9.291a7.5 7.5 0 0011.779-5.936 43.077 43.077 0 00-.116-4.676 76.998 76.998 0 0111.136 6.512 7.5 7.5 0 0011.811-6.601 64.593 64.593 0 01-.145-4.005c-.017-6.515.97-13.288 2.931-20.129a7.5 7.5 0 00-5.143-9.276c-3.979-1.144-8.135 1.161-9.276 5.143-1.508 5.26-2.534 10.512-3.071 15.694a96.412 96.412 0 00-5.203-2.432 13.19 13.19 0 00-17.371 6.961c-22.423-10.363-46.172-7.969-59.46-5.237a15.881 15.881 0 00-10.793 8.008 15.809 15.809 0 00-.813 13.351c6.64 16.863 21.606 47.314 47.568 63.275-30.215 14.801-51.276 36.947-60.015 63.518-12.766 38.819.469 94.195 39.336 164.59a7.497 7.497 0 0010.19 2.941 7.5 7.5 0 002.94-10.191c-36.77-66.598-49.628-117.959-38.217-152.655zM406.544 249.109l-.158-.001a7.5 7.5 0 00-7.495 7.345c-1.464 70.764-67.814 169.888-107.235 222.676-8.481 11.359-21.475 17.874-35.646 17.874-14.172 0-27.164-6.515-35.648-17.874-18.411-24.654-34.952-48.91-49.164-72.092a7.5 7.5 0 00-12.789 7.84c14.45 23.571 31.251 48.208 49.935 73.228 11.342 15.188 28.716 23.898 47.666 23.898s36.324-8.711 47.666-23.899c28.924-38.732 52.784-75.685 70.92-109.831 25.394-47.814 38.613-88.695 39.292-121.509a7.503 7.503 0 00-7.344-7.655z" />
        <path
            d="M203.805 375.101a7.184 7.184 0 1014.368 0 7.184 7.184 0 00-14.368 0zM292.637 375.101a7.184 7.184 0 1014.368 0 7.184 7.184 0 00-14.368 0zM174.37 222.979a7.183 7.183 0 10-14.366 0 7.183 7.183 0 0014.366 0zM256.018 230.162a7.183 7.183 0 100-14.366 7.183 7.183 0 000 14.366zM352.034 222.979a7.183 7.183 0 10-14.366 0 7.183 7.183 0 0014.366 0zM152.362 299.04a7.183 7.183 0 1014.366 0 7.183 7.183 0 00-14.366 0zM256.417 306.223a7.184 7.184 0 100-14.368 7.184 7.184 0 000 14.368zM353.29 306.223a7.183 7.183 0 100-14.366 7.183 7.183 0 000 14.366z" />
    </g>
</svg>