<svg width="512" height="512" viewBox="0 0 512 512" fill="none" xmlns="http://www.w3.org/2000/svg">
<path fill-rule="evenodd" clip-rule="evenodd" d="M174.895 163.41C106.994 200.25 73.9772 278.76 93.6132 356.681C97.54 372.263 104.276 388.375 111.59 399.672C113.461 402.563 114.991 405.248 114.991 405.639C114.991 406.032 115.269 406.352 115.609 406.352C115.947 406.352 116.577 407.095 117.005 408.005C119.151 412.548 143.188 436.666 148.57 439.676C149.294 440.082 150.533 441.013 151.321 441.748C152.11 442.483 153.188 443.083 153.717 443.083C154.248 443.083 154.682 443.359 154.682 443.693C154.682 444.029 155.592 444.773 156.703 445.346C157.815 445.921 159.366 446.968 160.149 447.675C160.933 448.382 162.008 448.96 162.538 448.96C163.069 448.96 163.502 449.217 163.502 449.53C163.502 449.844 166.396 451.578 169.934 453.383C173.471 455.188 176.531 456.832 176.733 457.036C177.596 457.912 180.476 459.245 181.501 459.245C182.113 459.245 182.613 459.576 182.613 459.98C182.613 460.384 183.208 460.715 183.936 460.715C184.663 460.715 185.573 461.007 185.957 461.363C186.341 461.721 188.805 462.735 191.433 463.616C194.061 464.498 196.872 465.506 197.681 465.857C198.489 466.208 200.474 466.893 202.091 467.38C203.708 467.866 205.692 468.524 206.501 468.841C208.024 469.44 210.784 470.083 214.586 470.726C215.799 470.931 217.453 471.391 218.261 471.745C219.07 472.101 221.22 472.561 223.039 472.766C224.858 472.972 228.992 473.552 232.226 474.057C240.086 475.281 272.29 475.325 280.003 474.124C283.237 473.618 287.04 473.031 288.455 472.818C292.529 472.201 298.944 470.895 300.951 470.272C301.961 469.958 304.277 469.275 306.096 468.753C307.915 468.232 309.718 467.532 310.102 467.198C310.486 466.865 311.564 466.592 312.5 466.592C313.435 466.592 314.774 466.3 315.476 465.943C316.763 465.289 319.389 464.189 322.45 463.023C323.359 462.676 325.541 461.684 327.297 460.819C329.054 459.954 330.956 459.245 331.524 459.245C332.092 459.245 332.556 458.915 332.556 458.511C332.556 458.107 333.056 457.776 333.668 457.776C334.69 457.776 337.558 456.45 338.437 455.572C339.315 454.694 342.183 453.368 343.205 453.368C343.817 453.368 344.317 453.078 344.317 452.724C344.317 452.367 345.309 451.666 346.522 451.164C347.735 450.663 348.727 449.961 348.727 449.605C348.727 449.251 349.14 448.96 349.646 448.959C350.151 448.959 351.722 447.967 353.137 446.757C354.552 445.546 356.123 444.554 356.628 444.554C357.134 444.553 357.547 444.294 357.547 443.976C357.547 443.66 358.499 442.839 359.662 442.152C360.825 441.465 362.845 439.906 364.149 438.687C365.454 437.469 366.788 436.472 367.113 436.472C368.308 436.472 388.936 415.292 393.563 409.312C407.589 391.192 420.147 366.132 424.494 347.581C426.135 340.582 426.811 337.294 427.442 333.255C432.019 303.951 430.571 282.746 422.151 255.751C413.745 228.807 393.447 198.213 372.159 180.405C369.166 177.9 368.986 177.884 364.473 179.702C335.914 191.205 297.849 187.987 265.058 171.298L256.508 166.947L253.922 168.907C252.5 169.983 250.641 171.535 249.792 172.352C246.712 175.314 244.387 177.09 242.006 178.297C240.67 178.973 239.081 179.933 238.474 180.431C237.868 180.929 235.883 182.128 234.064 183.098C232.245 184.066 230.591 185.065 230.389 185.316C229.691 186.187 219.356 191.124 215.876 192.25C213.954 192.872 211.554 193.739 210.543 194.178C207.556 195.471 205.953 196.027 202.458 196.982C200.639 197.478 198.324 198.151 197.313 198.476C196.302 198.801 193.987 199.287 192.168 199.557C190.349 199.827 186.876 200.375 184.45 200.771C173.844 202.509 152.49 202.391 150.566 200.584C148.08 198.252 148.855 194.343 152.446 191.104C152.67 190.901 153.756 189.526 154.859 188.046C155.963 186.565 157.288 184.912 157.806 184.372C158.322 183.832 160.56 181.248 162.778 178.633C164.996 176.016 169.748 170.975 173.339 167.43C176.927 163.883 179.739 160.991 179.586 161C179.432 161.009 177.321 162.093 174.895 163.41ZM172.255 217.231C190.63 222.685 191.891 248.771 174.614 266.04C151.415 289.227 116.627 280.002 121.502 251.955C125.45 229.238 151.852 211.176 172.255 217.231Z" fill="#CF3930"/>
<path fill-rule="evenodd" clip-rule="evenodd" d="M236.359 25.2962C225.012 27.0884 216.437 35.1675 216.437 44.0625C216.437 46.6173 219.807 54.7516 220.864 54.7516C221.176 54.7516 221.631 55.3319 221.877 56.041C222.122 56.7502 222.972 58.3251 223.767 59.5408C229.502 68.3143 237.307 87.8229 238.937 97.4603C239.214 99.096 239.659 100.437 239.928 100.439C240.197 100.442 240.505 102.515 240.614 105.044C240.723 107.575 241.062 109.73 241.37 109.833C241.678 109.938 241.802 111.366 241.645 113.005C241.389 115.696 241.243 115.884 240.151 114.935C234.828 110.31 212.384 98.6999 203.525 95.9867C201.901 95.4893 200.241 94.8299 199.836 94.5204C199.43 94.211 197.272 93.465 195.04 92.8626C182.351 89.442 179.375 88.6979 174.011 87.6129C141.886 81.107 133.91 82.3614 139.052 93.1113C141.063 97.3129 146.931 105.591 147.899 105.591C148.308 105.591 148.438 105.921 148.189 106.326C146.864 108.464 171.576 129.784 183.05 136.402C185.586 137.865 187.661 139.342 187.661 139.684C187.661 140.027 187.351 140.117 186.975 139.883C186.597 139.651 186.075 139.802 185.817 140.22C185.558 140.639 185.036 140.79 184.658 140.558C184.282 140.324 183.972 140.414 183.972 140.756C183.972 141.099 183.254 141.434 182.378 141.501C181.502 141.567 180.511 142.051 180.176 142.578C179.842 143.105 179.562 143.302 179.556 143.015C179.543 142.42 158.59 153.026 157.41 154.227C157.207 154.433 155.764 155.262 154.202 156.069C152.641 156.876 150.55 158.281 149.554 159.193C148.558 160.105 147.427 160.851 147.041 160.851C146.658 160.851 146.342 161.182 146.342 161.588C146.342 161.993 145.984 162.324 145.549 162.324C139.436 162.324 96.1691 208.546 96.1691 215.074C96.1691 215.645 95.8371 216.111 95.4312 216.111C95.0254 216.111 94.6934 216.584 94.6934 217.163C94.6934 217.743 94.2489 218.66 93.7047 219.204C86.662 226.236 74.2589 264.556 71.8167 286.831C69.3136 309.675 72.7851 343.738 79.2172 359.419C79.5492 360.229 80.0399 361.887 80.3055 363.103C80.5712 364.318 81.2942 366.473 81.914 367.892C82.532 369.31 83.3713 371.299 83.7789 372.313C84.1866 373.326 84.9207 375.149 85.4095 376.365C94.3651 398.57 117.157 429.011 136.177 444.171C137.689 445.376 140.179 447.448 141.71 448.778C143.243 450.108 146.158 452.252 148.187 453.543C150.216 454.834 152.042 456.068 152.245 456.284C154.543 458.736 174.636 469.307 185.896 473.989C193.005 476.946 196.012 477.898 210.534 481.786C233.926 488.051 266.396 488.723 293.91 483.514C298.171 482.707 302.653 481.744 303.871 481.372C305.088 481 308.575 479.985 311.618 479.117C324.326 475.492 350.748 463.387 355.946 458.807C356.588 458.244 357.501 457.781 357.975 457.781C358.451 457.781 358.84 457.45 358.84 457.045C358.84 456.639 359.338 456.308 359.947 456.308C360.555 456.308 361.053 455.976 361.053 455.571C361.053 455.166 361.496 454.834 362.037 454.834C362.579 454.834 363.99 453.849 365.172 452.644C366.357 451.439 367.703 450.445 368.164 450.434C370.145 450.386 391.404 429.916 399.537 420.225C409.327 408.561 426.721 380.228 426.721 375.945C426.721 375.591 427.5 373.552 428.451 371.414C431.001 365.676 431.523 364.066 434.371 353.156C437.501 341.164 439.56 331.345 439.464 328.841C439.427 327.828 439.67 326.668 440.006 326.261C441.448 324.518 441.269 287.186 439.803 283.897C439.532 283.289 439.377 282.294 439.46 281.686C440.369 274.926 425.292 226.426 422.279 226.426C422.004 226.426 421.158 225.017 420.398 223.295C419.636 221.572 418.821 219.998 418.583 219.795C418.347 219.592 417.731 218.384 417.214 217.109C416.699 215.835 415.722 214.177 415.043 213.425C414.364 212.674 413.34 211.152 412.769 210.045C412.197 208.936 411.118 207.376 410.371 206.575C409.624 205.775 409.013 204.906 409.013 204.643C409.013 203.326 398.063 190.352 390.01 182.124L380.901 172.82L384.258 170.704C386.103 169.54 387.614 168.339 387.614 168.035C387.616 167.731 387.97 167.482 388.403 167.482C391.144 167.482 399.421 159.197 399.421 156.452C399.421 152.567 397.831 152.026 383.089 150.886C368.284 149.742 365.706 149.486 352.583 147.857C346.428 147.093 342.674 146.222 340.224 144.993C338.289 144.022 336.705 143.389 336.705 143.584C336.705 143.779 335.932 143.433 334.986 142.814C334.041 142.195 333.045 141.911 332.772 142.182C332.501 142.455 332.278 142.254 332.278 141.738C332.278 141.223 331.802 140.983 331.219 141.206C330.636 141.429 330.049 141.283 329.917 140.884C329.782 140.482 328.932 140.099 328.024 140.031C327.116 139.963 326.375 139.611 326.375 139.248C326.375 138.885 325.899 138.773 325.316 138.996C324.733 139.218 324.147 139.073 324.014 138.673C323.879 138.272 322.988 137.887 322.033 137.813C320.378 137.69 320.413 137.597 322.782 135.873C327.755 132.256 340.206 119.063 344.07 113.32C346.247 110.082 348.304 107.322 348.639 107.188C348.973 107.052 349.248 106.471 349.248 105.898C349.248 105.324 349.6 104.854 350.03 104.854C350.46 104.854 350.606 104.522 350.355 104.117C350.104 103.712 350.27 103.38 350.724 103.38C351.177 103.38 351.343 103.049 351.093 102.644C350.842 102.238 350.936 101.907 351.299 101.907C351.91 101.907 353.376 99.3667 353.55 98.0129C353.588 97.6942 354.136 96.9206 354.762 96.2943C355.389 95.6698 355.732 94.8796 355.521 94.5425C355.313 94.2036 355.392 93.8168 355.7 93.6805C356.632 93.2679 358.893 87.8542 358.44 87.1211C358.205 86.7435 358.353 86.434 358.768 86.434C359.421 86.434 361.791 79.9447 361.791 78.1598C361.791 76.6714 357.774 73.9084 355.597 73.8974C354.337 73.8919 349.156 75.7578 344.083 78.0456C339.01 80.3315 334.03 82.5382 333.016 82.949C332.001 83.3579 330.175 84.1094 328.957 84.6178C326.869 85.4891 325.167 86.1798 320.841 87.9076C319.827 88.3129 318.25 88.9189 317.336 89.2541C316.423 89.5894 314.182 90.5362 312.356 91.3596C310.53 92.1848 307.542 93.5073 305.715 94.3012C296.563 98.28 286.17 103.808 279.696 108.138C275.732 110.789 272.328 112.959 272.133 112.959C271.935 112.959 271.775 107.589 271.775 101.025C271.775 88.9244 270.545 72.2285 269.626 71.8712C269.349 71.7625 269.257 70.5192 269.423 69.1082C269.587 67.6954 269.438 66.5367 269.089 66.5331C268.74 66.5294 268.383 64.4608 268.294 61.9373C268.206 59.4119 267.838 57.2475 267.479 57.1278C267.119 57.0081 266.981 56.0926 267.173 55.0942C267.383 53.9964 267.176 53.278 266.652 53.278C266.175 53.278 265.981 52.9594 266.223 52.5707C266.793 51.6479 264.278 42.226 263.461 42.226C263.116 42.226 263.024 41.9184 263.256 41.5426C263.871 40.5516 260.722 32.5518 259.912 33.051C259.538 33.2813 259.232 32.9718 259.232 32.3603C259.232 28.0408 245.611 23.8336 236.359 25.2962ZM248.053 36.4035C254.854 38.7704 245.569 46.5952 235.916 46.6302C227.252 46.6616 224.896 44.558 228.63 40.128C231.919 36.2248 241.992 34.2944 248.053 36.4035ZM255.076 49.9624C260.694 71.6723 262.699 105.652 259.921 132.116C258.739 143.392 258.78 143.286 255.79 143.024L253.222 142.799L252.923 129.117C252.268 98.9652 246.555 77.2627 233.715 56.1294C230.507 50.8503 230.43 51.0676 235.536 51.0676C241.169 51.0676 246.751 49.2293 250.204 46.2379C253.342 43.5173 253.425 43.5817 255.076 49.9624ZM344.126 94.6291C332.442 117.698 312.498 135.195 294.279 138.362C280.998 140.67 280.627 145.476 293.654 146.469C303.69 147.231 312.509 148.756 325.724 152.009C342.615 156.167 355.226 158.182 374.519 159.806C381.894 160.427 381.829 160.56 371.568 165.837C338.488 182.855 301.163 180.422 261.574 158.668C255.279 155.209 255.684 155.119 247.795 161.757C224.561 181.308 193.614 192.926 163.866 193.265C160.64 193.301 177.241 174.764 188.399 165.868C196.934 159.068 208.634 153.317 220.377 150.153C227.744 148.169 228.98 147.415 228.98 144.903C228.98 142.751 228.034 142.313 218.125 139.861C192.037 133.411 172.547 120.933 155.964 100.065C150.341 92.9916 150.339 92.9916 163.082 95.2683C195.455 101.048 220.021 111.351 240.21 127.612L244.431 131.01L243.98 138.903C243.344 150.055 245.163 152.009 256.166 152.009C266.178 152.009 267.665 150.206 268.501 137.032L269.008 129.056L274.634 124.252C286.161 114.41 297.339 108.218 322.686 97.6279C331.411 93.9844 340.375 90.1917 342.607 89.2044C347.723 86.9388 347.829 87.3182 344.126 94.6291ZM204.631 145.765C204.631 145.892 201.794 147.502 198.327 149.344C183.939 156.986 167.918 171.365 155.539 187.744C154.008 189.77 151.976 192.366 151.024 193.511C146.172 199.349 149.439 201.436 163.434 201.443C187.956 201.46 211.929 195.153 232.341 183.316C240.11 178.81 254.34 168.539 255.705 166.452C256.085 165.87 256.666 165.907 257.75 166.578C288.697 185.733 333.063 190.981 364.073 179.157L369.885 176.941L374.44 180.868C421.648 221.591 441.677 287.411 425.559 348.862C415.915 385.625 394.345 417.318 361.789 442.555C340.652 458.942 312.325 470.757 283.58 475.177C275.922 476.356 257.95 477.585 253.074 477.262C251.388 477.152 246.688 476.855 242.63 476.601C219.851 475.185 195.608 468.342 174.515 457.378C166.95 453.447 148.377 441.798 147.08 440.172C146.877 439.918 144.885 438.232 142.653 436.425C81.5138 386.953 62.9405 299.029 98.9932 229.758C118.823 191.662 153.918 161.473 194.482 147.622C201.464 145.238 204.631 144.66 204.631 145.765Z" fill="#090706"/>
<path fill-rule="evenodd" clip-rule="evenodd" d="M327.577 95.6046C298.109 107.948 288.195 113.217 276.228 122.902L269.73 128.159L269.277 133.408C269.027 136.294 268.754 141.02 268.672 143.912C268.587 146.803 268.354 149.148 268.153 149.122C267.951 149.098 266.465 149.695 264.851 150.451C261.462 152.038 252.75 152.278 247.978 150.916C243.713 149.697 242.984 147.562 243.607 138.128L244.106 130.577L239.29 126.727C221.558 112.553 199.914 102.932 172.839 97.1928C163.651 95.2448 153.449 93.5575 153.053 93.9229C151.9 94.9822 169.795 113.933 177.766 120.093C186.388 126.756 210.944 138.288 216.51 138.288C218.656 138.288 227.847 141.374 228.931 142.459C231.764 145.296 229.444 147.495 221.248 149.739C200.435 155.438 179.413 170.543 165.31 189.931L163.805 192L171.044 191.517C200.184 189.571 226.26 178.884 249.812 159.237C255.571 154.432 256.09 154.412 263.591 158.68C298.672 178.647 337.598 181.107 369.837 165.395C380.481 160.208 380.532 159.955 371.064 159.277C355.667 158.175 343.979 156.213 322.441 151.11C309.082 147.945 299.649 146.407 293.114 146.324C281.053 146.174 281.318 139.222 293.452 137.502C306.769 135.615 321.618 125.298 333.209 109.879C338.957 102.233 347.229 88.6554 346.535 88.0036C346.398 87.8732 337.866 91.2937 327.577 95.6046Z" fill="#8CAC51"/>
<path fill-rule="evenodd" clip-rule="evenodd" d="M334.373 125.382L332.207 127.779L334.604 125.613C335.922 124.422 337 123.343 337 123.216C337 122.646 336.392 123.148 334.373 125.382ZM191.38 149.068C105.558 181.468 60.9965 274.663 90.6145 359.804C96.078 375.511 106.356 395.382 113.252 403.569C114.277 404.786 113.569 403.335 111.68 400.345C61.507 320.95 93.5638 204.093 177.05 162.05C179.66 160.735 184.449 157.745 187.693 155.406C190.938 153.066 195.914 149.929 198.753 148.434C207.892 143.624 205.181 143.856 191.38 149.068ZM155.043 216.968C127.796 223.566 111.176 258.571 128.196 273.515C139.729 283.643 160.623 280.301 174.877 266.046C198.969 241.952 185.856 209.506 155.043 216.968ZM71 309.55C71 310.969 71.1512 311.55 71.3373 310.84C71.5217 310.131 71.5217 308.969 71.3373 308.259C71.1512 307.55 71 308.13 71 309.55Z" fill="#E5847C"/>
<path fill-rule="evenodd" clip-rule="evenodd" d="M233.51 37.2C227.483 39.3327 224.774 44.7464 228.997 46.2166C236.907 48.9713 250.254 44.4611 250.254 39.0328C250.254 36.0646 239.92 34.933 233.51 37.2ZM250.081 46.6159C246.633 49.6043 241.059 51.4407 235.433 51.4407C230.335 51.4407 230.412 51.2236 233.615 56.4974C246.437 77.6092 252.142 99.2895 252.796 129.411L253.094 143.079L255.658 143.304C258.644 143.565 258.604 143.672 259.784 132.406C262.558 105.969 260.556 72.0244 254.945 50.3367C253.297 43.9625 253.214 43.8981 250.081 46.6159ZM157.417 102.458C157.417 102.585 158.495 103.662 159.812 104.85L162.206 107.013L160.042 104.62C158.025 102.39 157.417 101.89 157.417 102.458ZM306.251 104.804C305.237 105.382 304.74 105.857 305.145 105.857C305.551 105.857 306.711 105.382 307.724 104.804C308.737 104.227 309.235 103.752 308.829 103.752C308.424 103.752 307.264 104.227 306.251 104.804ZM334.219 109.405C327.896 117.891 324.459 121.421 317.452 126.615C309.214 132.723 307.844 133.91 311.285 131.959C316.004 129.284 325.593 121.101 329.368 116.53C333.704 111.28 338.183 105.172 337.699 105.172C337.52 105.172 335.955 107.077 334.219 109.405ZM167.364 112.894C170.201 115.595 173.848 118.83 175.469 120.083C177.09 121.336 175.926 120.03 172.881 117.179C169.836 114.327 166.189 111.092 164.776 109.99C163.363 108.886 164.527 110.194 167.364 112.894ZM294.278 110.746C291.524 112.239 291.691 112.86 294.462 111.429C295.678 110.801 296.672 110.13 296.672 109.938C296.672 109.464 296.593 109.491 294.278 110.746ZM184.285 126.128C186.092 127.565 200.183 134.83 200.511 134.493C200.643 134.357 196.72 132.16 191.794 129.611C186.867 127.061 183.489 125.495 184.285 126.128ZM268.845 131.67C268.845 133.087 268.996 133.667 269.182 132.958C269.366 132.25 269.366 131.091 269.182 130.382C268.996 129.674 268.845 130.253 268.845 131.67ZM243.833 134.246C243.838 136.271 243.982 137.012 244.151 135.893C244.321 134.773 244.317 133.117 244.142 132.213C243.967 131.308 243.827 132.222 243.833 134.246ZM268.147 140.871C268.153 142.895 268.296 143.637 268.466 142.518C268.635 141.397 268.631 139.741 268.456 138.838C268.282 137.932 268.142 138.847 268.147 140.871ZM290.962 138.803C291.671 138.987 292.832 138.987 293.541 138.803C294.25 138.617 293.67 138.466 292.251 138.466C290.833 138.466 290.253 138.617 290.962 138.803ZM218.203 140.186C222.821 141.471 224.182 141.443 220.782 140.135C219.364 139.588 217.374 139.147 216.361 139.152C215.258 139.158 215.996 139.574 218.203 140.186ZM242.971 143.587C242.925 145.891 243.135 147.93 243.438 148.117C243.742 148.305 243.892 146.918 243.77 145.033C243.426 139.658 243.065 139.005 242.971 143.587ZM266.909 148.182C266.662 149.168 265.773 150.191 264.933 150.458C264.093 150.725 263.568 151.104 263.767 151.303C263.964 151.501 264.901 151.234 265.848 150.71C266.795 150.187 267.768 149.812 268.013 149.878C268.256 149.945 268.3 149.186 268.11 148.195C267.677 145.937 267.475 145.935 266.909 148.182ZM244.359 150.092C244.359 150.73 247.22 151.877 247.677 151.418C247.819 151.277 247.132 150.78 246.148 150.316C245.164 149.853 244.359 149.751 244.359 150.092ZM254.868 152.808C255.99 152.977 257.648 152.973 258.552 152.799C259.458 152.624 258.543 152.484 256.517 152.489C254.49 152.495 253.748 152.638 254.868 152.808ZM188.731 154.92L186.521 156.817L188.915 155.235C190.232 154.365 191.31 153.509 191.31 153.334C191.31 152.782 190.999 152.975 188.731 154.92ZM173.443 156.376C171.518 157.377 169.943 158.361 169.943 158.562C169.943 158.891 177.237 155.45 177.987 154.768C178.899 153.938 176.502 154.786 173.443 156.376ZM180.995 160.487C179.982 161.329 178.51 162.47 177.723 163.02C176.937 163.573 176.441 164.169 176.62 164.347C176.799 164.526 178.436 163.383 180.258 161.81C183.668 158.867 184.294 157.741 180.995 160.487ZM239.202 167.814C233.418 172.033 232.812 172.981 238.321 169.19C242.271 166.474 244.371 164.697 243.483 164.826C243.357 164.844 241.431 166.189 239.202 167.814ZM253.569 168.611L251.359 170.872L253.938 169.03C255.356 168.018 256.977 167.354 257.541 167.558C258.167 167.785 258.364 167.604 258.049 167.096C257.222 165.759 255.931 166.195 253.569 168.611ZM364.458 168.841C362.634 169.816 361.474 170.615 361.879 170.615C362.284 170.615 364.108 169.816 365.931 168.841C367.755 167.866 368.915 167.067 368.51 167.067C368.105 167.067 366.281 167.866 364.458 168.841ZM259.095 168.081C259.095 168.283 260.753 169.288 262.779 170.313C264.806 171.338 266.463 172.011 266.463 171.809C266.463 171.607 264.806 170.602 262.779 169.577C260.753 168.552 259.095 167.878 259.095 168.081ZM181.328 172.337L178.416 175.465L181.547 172.556C184.46 169.849 185.018 169.209 184.46 169.209C184.34 169.209 182.931 170.617 181.328 172.337ZM144.155 175.552C130.657 186.318 112.27 206.332 107.225 215.747C105.937 218.152 107.175 217.083 108.892 214.308C115.296 203.958 131.185 186.743 143.234 177.107C150.526 171.273 152.074 169.908 151.339 169.958C151.237 169.963 148.005 172.482 144.155 175.552ZM247.292 173.537C245.459 175.003 242.972 176.963 241.766 177.892L239.57 179.585L242.005 178.406C243.345 177.756 245.168 176.602 246.058 175.839C246.947 175.075 248.474 173.765 249.451 172.93C252.569 170.258 250.753 170.769 247.292 173.537ZM270.383 174.069C281.503 179.848 305.621 186.248 315.461 186.029C318.693 185.958 318.467 185.871 313.619 185.326C300.375 183.838 283.889 179.412 272.441 174.267C266.672 171.676 265.579 171.57 270.383 174.069ZM164.833 176.058L163.037 178.409L165.386 176.247C167.826 173.999 168.106 173.598 167.18 173.666C166.876 173.688 165.82 174.764 164.833 176.058ZM347.88 174.361C346.951 174.76 346.815 174.994 347.511 174.994C348.119 174.994 349.28 174.709 350.09 174.361C351.018 173.962 351.155 173.728 350.459 173.728C349.851 173.728 348.69 174.013 347.88 174.361ZM221.519 178.777C217.669 180.761 214.775 182.401 215.086 182.421C215.869 182.472 228.887 175.905 228.887 175.458C228.887 174.957 229.268 174.786 221.519 178.777ZM311.97 176.354C312.885 176.531 314.212 176.523 314.917 176.339C315.621 176.155 314.871 176.01 313.25 176.019C311.629 176.026 311.053 176.177 311.97 176.354ZM321.539 177.114C324.072 177.258 328.216 177.258 330.749 177.114C333.282 176.97 331.21 176.853 326.144 176.853C321.079 176.853 319.006 176.97 321.539 177.114ZM364.089 179.239C356.613 182.29 347.85 184.3 336.091 185.661C334.604 185.834 334.967 185.954 337.196 186.028C342.866 186.215 356.675 183.137 364.723 179.889C369.293 178.045 369.472 178.062 372.474 180.572C387.241 192.917 401.926 211.914 413.611 233.786C415.722 237.739 417.463 240.698 417.48 240.359C417.806 233.207 389.258 194.154 374.211 181.17C369.083 176.746 369.844 176.891 364.089 179.239ZM171.376 182.274L168.838 185.034L171.601 182.498C173.12 181.102 174.364 179.859 174.364 179.738C174.364 179.175 173.741 179.705 171.376 182.274ZM234.781 182.09C232.552 183.488 230.935 184.64 231.189 184.649C231.948 184.677 238.419 180.921 238.87 180.191C239.495 179.18 239.193 179.32 234.781 182.09ZM210.098 183.983C208.477 184.762 207.98 185.192 208.993 184.94C211.08 184.421 214.91 182.504 213.782 182.542C213.377 182.555 211.719 183.205 210.098 183.983ZM227.513 186.293C226.172 187.143 222.036 189.101 218.323 190.644C211.506 193.482 210.378 194.406 216.212 192.376C219.015 191.401 229.495 186.421 230.3 185.683C231.478 184.601 229.506 185.034 227.513 186.293ZM155.841 186.69C153.503 189.509 152.663 190.816 153.514 190.306C154.457 189.741 157.729 185.402 157.213 185.402C157.045 185.402 156.428 185.982 155.841 186.69ZM323.037 186.681C325.179 186.83 328.495 186.83 330.405 186.677C332.317 186.526 330.565 186.405 326.513 186.407C322.46 186.408 320.896 186.532 323.037 186.681ZM199.671 187.338C199.205 187.529 195.226 188.468 190.829 189.424C186.434 190.381 183.5 191.189 184.31 191.22C186.018 191.287 201.655 187.825 202.226 187.257C202.688 186.795 200.857 186.852 199.671 187.338ZM171.245 192.56C172.569 192.724 174.559 192.72 175.666 192.553C176.773 192.385 175.69 192.251 173.258 192.255C170.827 192.258 169.921 192.396 171.245 192.56ZM164.233 193.27C164.942 193.454 166.102 193.454 166.811 193.27C167.521 193.084 166.94 192.934 165.522 192.934C164.104 192.934 163.523 193.084 164.233 193.27ZM149.067 195.462C145.859 198.666 150.659 202.359 157.834 202.206L163.68 202.083L157.71 201.654C150.862 201.164 149.034 200.138 149.491 197.037C149.819 194.798 149.801 194.728 149.067 195.462ZM204.941 195.707C203.521 196.316 203.524 196.341 205.081 196.391C205.969 196.419 206.901 196.111 207.151 195.707C207.689 194.836 206.969 194.836 204.941 195.707ZM196.099 197.939C192.721 198.809 191.686 199.288 193.1 199.326C195.099 199.383 198.431 198.561 201.994 197.133C204.488 196.134 201.557 196.535 196.099 197.939ZM184.679 200.123L182.1 200.666L185.047 200.71C186.668 200.736 188.658 200.471 189.468 200.123C191.387 199.299 188.595 199.299 184.679 200.123ZM170.68 201.595L164.417 202.057L171.048 202.121C174.695 202.156 178.508 201.919 179.521 201.595C181.785 200.872 180.497 200.872 170.68 201.595ZM103.408 222.02C100.251 227.283 99.0628 229.565 99.4828 229.565C99.6596 229.565 100.881 227.66 102.194 225.333C103.508 223.005 105.07 220.355 105.664 219.444C106.259 218.533 106.567 217.788 106.348 217.788C106.129 217.788 104.806 219.693 103.408 222.02ZM95.2904 237.328C93.5589 240.954 93.802 241.57 95.6127 238.144C96.4342 236.587 96.9758 235.185 96.8174 235.025C96.6571 234.866 95.9701 235.902 95.2904 237.328ZM417.592 242.078C417.579 242.685 418.203 244.341 418.981 245.758C420.777 249.035 420.777 247.793 418.981 243.918C418.231 242.299 417.607 241.471 417.592 242.078ZM421.95 253.855C421.95 254.462 422.272 255.456 422.665 256.063C423.3 257.044 423.379 257.044 423.379 256.063C423.379 255.456 423.057 254.462 422.665 253.855C422.029 252.874 421.95 252.874 421.95 253.855ZM87.8432 256.484C87.5706 257.562 87.4914 258.587 87.6645 258.76C87.8395 258.933 88.2024 258.194 88.4731 257.113C88.7458 256.035 88.825 255.01 88.6518 254.837C88.4768 254.664 88.114 255.404 87.8432 256.484ZM424.938 263.791C424.916 264.601 425.22 265.76 425.612 266.367C426.559 267.83 426.559 265.992 425.612 263.791L424.978 262.319L424.938 263.791ZM426.474 269.68C426.463 270.489 426.737 271.814 427.086 272.624C427.892 274.499 427.892 272.565 427.086 270.048C426.612 268.568 426.491 268.497 426.474 269.68ZM427.997 277.408C427.997 278.42 428.25 280.242 428.559 281.457C429.06 283.425 429.121 283.466 429.121 281.825C429.121 280.812 428.869 278.991 428.559 277.776C428.058 275.807 427.997 275.767 427.997 277.408ZM429.453 287.713C429.438 289.13 429.683 291.945 430 293.969C430.558 297.554 430.574 297.574 430.617 294.705C430.641 293.086 430.396 290.271 430.07 288.449C429.526 285.398 429.478 285.341 429.453 287.713ZM81.0002 294.705C81.0057 296.73 81.1494 297.471 81.3188 296.352C81.4883 295.232 81.4846 293.576 81.3096 292.672C81.1346 291.767 80.9946 292.681 81.0002 294.705ZM440.549 305.378C440.549 307.2 440.692 307.945 440.867 307.034C441.044 306.123 441.044 304.633 440.867 303.722C440.692 302.811 440.549 303.556 440.549 305.378ZM81.0002 316.787C81.0057 318.811 81.1494 319.553 81.3188 318.434C81.4883 317.313 81.4846 315.657 81.3096 314.754C81.1346 313.848 80.9946 314.763 81.0002 316.787ZM429.642 318.973C429.353 322.057 429.283 324.747 429.486 324.95C429.688 325.152 430.09 322.793 430.379 319.709C430.668 316.625 430.74 313.935 430.537 313.732C430.335 313.53 429.931 315.889 429.642 318.973ZM81.6983 324.515C81.6983 325.932 81.8493 326.512 82.0354 325.804C82.2196 325.095 82.2196 323.936 82.0354 323.227C81.8493 322.519 81.6983 323.099 81.6983 324.515ZM428.331 329.686C428.062 330.689 427.872 332.336 427.907 333.348C427.953 334.669 428.161 334.373 428.649 332.294C429.397 329.107 429.112 326.77 428.331 329.686ZM426.758 339.645C426.481 341.123 426.4 342.479 426.581 342.659C426.761 342.838 427.135 341.778 427.413 340.3C427.69 338.822 427.771 337.466 427.59 337.286C427.41 337.107 427.036 338.167 426.758 339.645ZM425.334 345.521C425.082 346.179 424.903 347.27 424.938 347.946C424.973 348.621 425.293 348.196 425.651 347.002C426.345 344.68 426.1 343.53 425.334 345.521ZM86.0509 348.069C86.0509 348.676 86.3364 349.836 86.6846 350.645C87.0843 351.573 87.3182 351.709 87.3182 351.013C87.3182 350.406 87.0327 349.247 86.6846 348.437C86.2848 347.51 86.0509 347.374 86.0509 348.069ZM87.5245 353.221C87.5245 353.829 87.81 354.988 88.1582 355.798C88.5579 356.725 88.7918 356.861 88.7918 356.166C88.7918 355.558 88.5063 354.399 88.1582 353.589C87.7584 352.662 87.5245 352.526 87.5245 353.221ZM421.613 358.427C420.93 360.51 420.523 362.367 420.707 362.551C420.891 362.735 421.606 361.187 422.296 359.11C422.987 357.032 423.394 355.178 423.203 354.986C423.011 354.793 422.295 356.342 421.613 358.427ZM417.211 370.37C411.939 383.02 402.384 399.291 394.433 409.161C388.807 416.143 387.724 417.834 391.605 413.578C400.903 403.38 413.781 382.027 418.938 368.253C421.447 361.559 420.294 362.969 417.211 370.37ZM93.3673 369.783C93.3673 370.187 93.8426 371.347 94.421 372.359C94.9993 373.371 95.4746 373.868 95.4746 373.463C95.4746 373.058 94.9993 371.899 94.421 370.887C93.8426 369.875 93.3673 369.378 93.3673 369.783ZM95.5446 374.81C95.4543 377.771 111.03 403.578 116.499 409.529C118.26 411.445 117.704 410.416 114.904 406.585C108.168 397.366 105.151 392.539 100.181 383.032C97.6408 378.174 95.5556 374.473 95.5446 374.81ZM119.84 413.508C119.84 413.876 123.736 418.123 128.498 422.944C133.259 427.763 134.483 428.871 131.215 425.402C127.949 421.935 124.053 417.688 122.557 415.968C121.064 414.246 119.84 413.14 119.84 413.508ZM380.076 425.158C375.902 429.408 372.607 433.004 372.754 433.151C373.091 433.488 387.571 419.019 387.908 418.007C388.31 416.805 388.041 417.05 380.076 425.158ZM138.301 432.441C138.349 433.19 142.681 436.739 142.681 436.031C142.681 435.523 141.639 434.452 139.546 432.809C138.839 432.253 138.279 432.087 138.301 432.441ZM369.149 435.497C367.88 436.598 366.079 438.073 365.147 438.774C364.215 439.477 363.605 440.204 363.791 440.39C363.977 440.578 365.944 439.106 368.162 437.122C370.38 435.138 372.028 433.51 371.826 433.504C371.623 433.499 370.418 434.395 369.149 435.497ZM153.363 444.488C153.612 444.891 154.544 445.594 155.432 446.05L157.049 446.882L155.422 445.318C153.724 443.688 152.582 443.228 153.363 444.488ZM354.564 446.348C353.783 446.937 353.292 447.567 353.47 447.747C353.649 447.925 354.62 447.44 355.627 446.667C356.635 445.892 357.127 445.265 356.721 445.268C356.316 445.272 355.345 445.758 354.564 446.348ZM157.784 447.432C158.032 447.835 158.965 448.538 159.852 448.994L161.47 449.826L159.843 448.262C158.145 446.632 157.003 446.172 157.784 447.432ZM164.048 451.446C164.048 451.648 165.043 452.329 166.259 452.956C167.475 453.584 168.469 453.933 168.469 453.731C168.469 453.529 167.475 452.848 166.259 452.22C165.043 451.593 164.048 451.243 164.048 451.446ZM169.206 454.355C169.206 454.585 170.864 455.612 172.89 456.637C174.916 457.662 176.574 458.243 176.574 457.926C176.574 457.61 175.165 456.703 173.443 455.91C171.72 455.117 170.063 454.349 169.759 454.202C169.455 454.057 169.206 454.125 169.206 454.355ZM340.328 455.061C339.416 455.512 338.67 456.143 338.67 456.462C338.67 456.782 339.664 456.528 340.88 455.901C342.096 455.273 343.091 454.601 343.091 454.41C343.091 453.915 342.241 454.116 340.328 455.061ZM328.115 461.198C326.969 461.798 326.192 462.449 326.387 462.645C326.583 462.84 328.016 462.328 329.574 461.507C331.132 460.685 331.91 460.033 331.302 460.059C330.694 460.085 329.259 460.597 328.115 461.198ZM192.415 465.438C195.641 466.829 198.396 467.583 197.744 466.897C197.079 466.198 192.014 464.365 190.942 464.437C190.536 464.463 191.199 464.913 192.415 465.438ZM199.415 468.045C200.023 468.437 201.017 468.759 201.625 468.759C202.607 468.759 202.607 468.68 201.625 468.045C201.017 467.653 200.023 467.331 199.415 467.331C198.433 467.331 198.433 467.41 199.415 468.045ZM310.303 468.045C309.723 468.982 311.43 468.982 312.882 468.045C313.781 467.466 313.685 467.33 312.373 467.32C311.486 467.315 310.553 467.64 310.303 468.045ZM204.204 469.517C206.232 470.388 206.952 470.388 206.414 469.517C206.164 469.113 205.232 468.805 204.344 468.833C202.787 468.883 202.784 468.908 204.204 469.517ZM306.251 469.517C305.269 470.152 305.269 470.231 306.251 470.231C306.858 470.231 307.853 469.909 308.461 469.517C309.443 468.883 309.443 468.803 308.461 468.803C307.853 468.803 306.858 469.126 306.251 469.517ZM209.362 470.99C211.565 471.935 213.405 471.935 211.94 470.99C211.332 470.598 210.172 470.294 209.362 470.316L207.888 470.357L209.362 470.99ZM301.093 470.99C299.629 471.935 301.469 471.935 303.672 470.99L305.145 470.357L303.672 470.316C302.861 470.294 301.701 470.598 301.093 470.99ZM215.256 472.462C217.302 473.341 218.747 473.341 218.203 472.462C217.953 472.057 216.855 471.75 215.764 471.777C213.994 471.823 213.941 471.897 215.256 472.462ZM294.83 472.462L293.357 473.095L294.83 473.073C295.641 473.062 297.133 472.786 298.146 472.462L299.988 471.873L298.146 471.851C297.133 471.84 295.641 472.114 294.83 472.462ZM222.624 473.934C226.08 474.811 228.038 474.811 226.676 473.934C226.068 473.542 224.411 473.255 222.992 473.295L220.414 473.373L222.624 473.934ZM285.989 473.934C283.996 474.789 288.103 474.789 290.778 473.934C292.452 473.398 292.386 473.343 290.041 473.323C288.623 473.312 286.799 473.586 285.989 473.934ZM231.466 475.448C235.551 476.293 239.664 476.261 236.992 475.406C235.978 475.082 233.657 474.823 231.834 474.828L228.518 474.839L231.466 475.448ZM275.673 475.406L273.463 475.967L275.673 476.013C276.889 476.037 279.21 475.783 280.831 475.448L283.778 474.839L280.831 474.841C279.21 474.843 276.889 475.097 275.673 475.406ZM241.617 476.593C242.184 477.158 271.619 477.125 272.187 476.558C272.417 476.33 265.53 476.142 256.885 476.142C248.241 476.142 241.37 476.344 241.617 476.593Z" fill="#7E522E"/>
</svg>
