<svg height="512" width="512" viewBox="0 0 512 512" xmlns="http://www.w3.org/2000/svg">
    <path
        d="M10.46 413.594c-6.272 10.864-2.18 24.736 8.949 30.524 70.807 36.829 151.274 57.648 236.604 57.648s165.797-20.819 236.604-57.648c11.129-5.789 10.221-19.66 3.949-30.524L271.681 25.681c-15.127-26.2-32.908-7.535-34.701-4.429z"
        fill="#bbf49b" />
    <path
        d="M501.567 413.594l-32.679-56.58-3.337-1.125L273.049 21.252c-7.325-12.687-22.157-14.38-32.035-5.098a22.19 22.19 0 014.035 5.098l226.519 392.342c6.272 10.864 2.18 24.736-8.949 30.524-66.643 34.664-141.845 55.138-221.604 57.427 4.983.143 9.982.221 15 .221 85.33 0 165.797-20.819 236.604-57.648 11.128-5.789 15.221-19.66 8.948-30.524z"
        fill="#9be69d" />
    <path
        d="M42.476 358.142c65.025 29.777 137.341 46.381 213.538 46.381s144.513-16.604 209.538-46.381L271.049 21.252c-8.46-14.653-25.61-14.653-34.07 0z"
        fill="#ed5469" />
    <path
        d="M275.047 21.248a22.767 22.767 0 00-.777-1.246c-.088-.132-.181-.258-.271-.387a22.114 22.114 0 00-.571-.79c-.111-.146-.226-.286-.339-.427a22.017 22.017 0 00-.938-1.096 20.267 20.267 0 00-.589-.617c-.13-.131-.259-.262-.392-.389-.21-.201-.425-.395-.642-.586-.127-.113-.253-.228-.382-.337a21.713 21.713 0 00-.777-.619c-.097-.074-.191-.154-.289-.226-.357-.264-.72-.515-1.09-.755-.122-.079-.247-.15-.37-.226a22.184 22.184 0 00-.767-.459c-.165-.093-.334-.179-.501-.268a22.067 22.067 0 00-.667-.342 23.222 23.222 0 00-1.787-.77c-.207-.078-.416-.152-.624-.224s-.415-.144-.624-.209c-.198-.062-.398-.116-.598-.172-.222-.062-.443-.128-.666-.183-.154-.038-.31-.068-.464-.103a22.194 22.194 0 00-1.616-.302c-.116-.017-.231-.039-.347-.054a21.797 21.797 0 00-.845-.09c-.141-.013-.281-.029-.422-.039a28.333 28.333 0 00-1.261-.057 23.044 23.044 0 00-2.16.063l-.262.024a22.21 22.21 0 00-5.62 1.253l-.097.035a21.64 21.64 0 00-1.029.413l-.128.055c-.342.15-.681.308-1.017.475l-.074.038a21.473 21.473 0 00-5.03 3.522 22.19 22.19 0 014.035 5.098l199.774 346.041a511.146 511.146 0 0024.066-10.278l-14.836-25.717L275.049 21.252l-.002-.004z"
        fill="#e63850" />
    <g>
        <path
            d="M130.327 286.56a7.5 7.5 0 1015 0 7.5 7.5 0 00-15 0zM248.514 286.56a7.5 7.5 0 1015 0 7.5 7.5 0 00-15 0zM366.701 286.56a7.5 7.5 0 1015 0 7.5 7.5 0 00-15 0zM189.42 193.663a7.5 7.5 0 1015 0 7.5 7.5 0 00-15 0zM307.607 193.663a7.5 7.5 0 1015 0 7.5 7.5 0 00-15 0zM356.526 484.283c-32.866 6.624-66.683 9.983-100.512 9.983-41.253 0-82.281-4.977-121.947-14.794a503.226 503.226 0 01-111.196-42.008c-3.567-1.855-6.15-4.997-7.273-8.846a14.334 14.334 0 011.358-11.274 7.5 7.5 0 00-2.745-10.245 7.497 7.497 0 00-10.245 2.745c-4.057 7.026-5.04 15.185-2.768 22.974 2.279 7.815 7.518 14.192 14.751 17.954a518.216 518.216 0 00114.516 43.261c40.843 10.108 83.084 15.233 125.55 15.233 34.822 0 69.636-3.458 103.475-10.279a7.5 7.5 0 005.871-8.834c-.82-4.06-4.782-6.692-8.835-5.87z" />
        <path
            d="M508.063 409.844l-119.53-207.033a7.5 7.5 0 00-12.99 7.5L458.9 354.689c-64.049 28.09-132.26 42.333-202.885 42.333S117.177 382.78 53.129 354.69L243.475 25.002c2.617-4.534 7.305-7.24 12.54-7.24 5.234 0 9.922 2.707 12.539 7.24l90.645 157.002a7.5 7.5 0 0012.99-7.5L281.544 17.502c-5.328-9.229-14.872-14.74-25.529-14.74-10.658 0-20.202 5.511-25.53 14.74L20.303 381.546a7.5 7.5 0 0012.99 7.5l12.288-21.283c66.398 29.372 137.158 44.26 210.433 44.26s144.035-14.888 210.433-44.26l28.626 49.582a14.33 14.33 0 011.358 11.274c-1.123 3.849-3.706 6.991-7.273 8.846a503.588 503.588 0 01-102.034 39.649A7.5 7.5 0 00391 491.605a518.61 518.61 0 00105.079-40.832c7.233-3.762 12.472-10.139 14.751-17.954 2.273-7.79 1.289-15.949-2.767-22.975z" />
    </g>
</svg>